<svg width="40" height="36" viewBox="0 0 40 36" fill="none" xmlns="http://www.w3.org/2000/svg">
<path d="M38.75 17.6667V9.33333V2.5C38.75 1.67157 38.0784 1 37.25 1H2.75C1.92157 1 1.25 1.67157 1.25 2.5V9.33333V25.5417C1.25 26.3701 1.92157 27.0417 2.75 27.0417H7.80277M4.375 33.2917H13.0257" stroke="white" stroke-width="1.5" stroke-linecap="round" stroke-linejoin="round"/>
<path d="M26.25 29.125C27.9759 29.125 29.375 27.7259 29.375 26C29.375 24.2741 27.9759 22.875 26.25 22.875C24.5241 22.875 23.125 24.2741 23.125 26C23.125 27.7259 24.5241 29.125 26.25 29.125Z" stroke="white" stroke-width="1.5" stroke-linecap="round" stroke-linejoin="round"/>
<path d="M38.75 26.0003C36.127 30.1545 31.4144 34.3337 26.25 34.3337C21.0857 34.3337 16.373 30.1544 13.75 26.0003C16.9424 22.0534 20.6828 17.667 26.25 17.667C31.8172 17.667 35.5576 22.0534 38.75 26.0003Z" stroke="white" stroke-width="1.5" stroke-linecap="round" stroke-linejoin="round"/>
</svg>
