<svg width="38" height="38" viewBox="0 0 38 38" fill="none" xmlns="http://www.w3.org/2000/svg">
<path d="M36.1829 16.1011V9.33333V2.5C36.1829 1.67157 35.5114 1 34.6829 1H2.5C1.67157 1 1 1.67157 1 2.5V9.33333V25.5417C1 26.3701 1.67157 27.0417 2.5 27.0417H18.5915M3.93191 33.2917H18.5915" stroke="white" stroke-width="1.5" stroke-linecap="round" stroke-linejoin="round"/>
<path d="M29.7481 36.1045C30.3191 36.62 31.1874 36.62 31.7584 36.1045L35.7318 32.5176C36.5719 31.7591 37.0514 30.6803 37.0514 29.5484V23.5584C37.0514 22.8899 36.5191 22.3431 35.8509 22.3252L35.4702 22.315C33.9735 22.2749 32.5537 21.6432 31.5219 20.5583V20.5583C31.1038 20.1186 30.4027 20.1186 29.9846 20.5583V20.5583C28.9528 21.6432 27.533 22.2749 26.0363 22.315L25.6556 22.3252C24.9875 22.3431 24.4551 22.8899 24.4551 23.5584V29.5484C24.4551 30.6803 24.9346 31.7591 25.7747 32.5176L29.7481 36.1045Z" stroke="white" stroke-width="1.5" stroke-linecap="round" stroke-linejoin="round"/>
<path d="M25.4335 11.417L17.615 19.7504L12.7285 14.542" stroke="white" stroke-width="1.5" stroke-linecap="round" stroke-linejoin="round"/>
</svg>
