<svg width="40" height="40" viewBox="0 0 40 40" fill="none" xmlns="http://www.w3.org/2000/svg">
<path d="M32.7929 11.417H37C37.8284 11.417 38.5 12.0886 38.5 12.917V30.7503C38.5 31.5788 37.8284 32.2503 37 32.2503H2.5C1.67157 32.2503 1 31.5788 1 30.7503V12.917C1 12.0886 1.67157 11.417 2.5 11.417H6.65397" stroke="white" stroke-width="1.5" stroke-linecap="round" stroke-linejoin="round"/>
<path d="M11.416 38.5L28.0827 38.5" stroke="white" stroke-width="1.5" stroke-linecap="round" stroke-linejoin="round"/>
<path d="M17.666 38.5L17.666 32.25" stroke="white" stroke-width="1.5" stroke-linecap="round" stroke-linejoin="round"/>
<path d="M21.834 38.5L21.834 32.25" stroke="white" stroke-width="1.5" stroke-linecap="round" stroke-linejoin="round"/>
<path d="M19.4262 22.1549C19.6127 22.3128 19.886 22.3128 20.0725 22.1549L26.6679 16.5688C27.5652 15.8088 28.0827 14.6924 28.0827 13.5165V5.69951C28.0827 4.88576 27.4339 4.22042 26.6204 4.19998L26.0624 4.18596C24.0296 4.13489 22.0925 3.31163 20.6449 1.88355L20.1005 1.34643C19.9058 1.15435 19.5929 1.15435 19.3982 1.34642L18.8537 1.88355C17.4062 3.31163 15.4691 4.13489 13.4363 4.18596L12.8783 4.19998C12.0648 4.22042 11.416 4.88576 11.416 5.69951V13.5165C11.416 14.6924 11.9335 15.8088 12.8308 16.5688L19.4262 22.1549Z" stroke="white" stroke-width="1.5" stroke-linecap="round" stroke-linejoin="round"/>
</svg>
