<svg width="20" height="20" viewBox="0 0 20 20" fill="none" xmlns="http://www.w3.org/2000/svg">
<g clip-path="url(#clip0_2532_65174)">
<path d="M18.5139 0H1.47921C1.08794 0 0.712686 0.155434 0.436013 0.432107C0.15934 0.70878 0.00390625 1.08403 0.00390625 1.4753V18.51C0.00390625 18.9013 0.15934 19.2765 0.436013 19.5532C0.712686 19.8299 1.08794 19.9853 1.47921 19.9853H18.5139C18.9052 19.9853 19.2804 19.8299 19.5571 19.5532C19.8338 19.2765 19.9892 18.9013 19.9892 18.51V1.4753C19.9892 1.08403 19.8338 0.70878 19.5571 0.432107C19.2804 0.155434 18.9052 0 18.5139 0ZM5.96064 17.025H2.9559V7.48061H5.96064V17.025ZM4.45619 6.15797C4.11535 6.15605 3.78272 6.05321 3.50028 5.86243C3.21784 5.67164 2.99824 5.40147 2.8692 5.086C2.74016 4.77053 2.70746 4.42391 2.77523 4.08987C2.843 3.75584 3.0082 3.44936 3.24998 3.20912C3.49176 2.96889 3.79929 2.80566 4.13376 2.74003C4.46822 2.67441 4.81463 2.70933 5.12926 2.8404C5.4439 2.97146 5.71266 3.19279 5.90162 3.47645C6.09059 3.76012 6.19129 4.0934 6.19102 4.43424C6.19424 4.66243 6.15148 4.88894 6.06529 5.10025C5.9791 5.31157 5.85126 5.50337 5.68937 5.66422C5.52748 5.82508 5.33486 5.95169 5.12299 6.03652C4.91113 6.12135 4.68435 6.16265 4.45619 6.15797ZM17.0358 17.0333H14.0325V11.8191C14.0325 10.2813 13.3788 9.80668 12.535 9.80668C11.644 9.80668 10.7696 10.4784 10.7696 11.8579V17.0333H7.76486V7.48755H10.6544V8.81019H10.6933C10.9833 8.22312 11.9993 7.21969 13.5495 7.21969C15.226 7.21969 17.0372 8.21479 17.0372 11.1293L17.0358 17.0333Z" fill="#121212"/>
</g>
<defs>
<clipPath id="clip0_2532_65174">
<rect width="19.9853" height="19.9853" fill="white" transform="translate(0.00390625)"/>
</clipPath>
</defs>
</svg>
