<svg width="13" height="10" viewBox="0 0 13 10" fill="none" xmlns="http://www.w3.org/2000/svg">
<path d="M11.375 0.203125H1.625C0.710938 0.203125 0 0.939453 0 1.82812V8.32812C0 9.24219 0.710938 9.95312 1.625 9.95312H11.375C12.2637 9.95312 13 9.24219 13 8.32812V1.82812C13 0.939453 12.2637 0.203125 11.375 0.203125ZM1.625 1.42188H11.375C11.5781 1.42188 11.7812 1.625 11.7812 1.82812V2.41211L7.54102 5.91602C6.95703 6.39844 6.01758 6.39844 5.43359 5.91602L1.21875 2.41211V1.82812C1.21875 1.625 1.39648 1.42188 1.625 1.42188ZM11.375 8.73438H1.625C1.39648 8.73438 1.21875 8.55664 1.21875 8.32812V3.98633L4.67188 6.88086C5.17969 7.28711 5.81445 7.51562 6.5 7.51562C7.16016 7.51562 7.79492 7.28711 8.30273 6.88086L11.7812 3.98633V8.32812C11.7812 8.55664 11.5781 8.73438 11.375 8.73438Z" fill="black"/>
</svg>
