<svg width="14" height="14" viewBox="0 0 14 14" fill="none" xmlns="http://www.w3.org/2000/svg">
<path d="M12.7432 8.72852L10.2549 7.66211C9.69629 7.4082 9.06152 7.58594 8.68066 8.04297L7.99512 8.88086C6.85254 8.2207 5.91309 7.28125 5.25293 6.16406L6.11621 5.47852C6.54785 5.09766 6.72559 4.46289 6.49707 3.92969L5.40527 1.39062C5.15137 0.806641 4.5166 0.476562 3.88184 0.628906L1.57129 1.16211C0.961914 1.28906 0.555664 1.82227 0.555664 2.45703C0.555664 8.60156 5.53223 13.5781 11.6768 13.5781C12.3115 13.5781 12.8447 13.1719 12.9463 12.5625L13.4795 10.252C13.6572 9.61719 13.3271 8.98242 12.7432 8.72852ZM12.3115 9.97266L11.7783 12.2832C11.7783 12.3086 11.7275 12.3594 11.6768 12.3594C6.21777 12.3594 1.74902 7.91602 1.74902 2.45703C1.74902 2.40625 1.7998 2.35547 1.85059 2.35547L4.16113 1.82227L4.18652 1.79688C4.2373 1.79688 4.2627 1.84766 4.28809 1.87305L5.35449 4.36133C5.37988 4.41211 5.37988 4.46289 5.3291 4.48828L4.08496 5.50391C3.88184 5.68164 3.80566 5.98633 3.93262 6.24023C4.77051 7.94141 6.16699 9.33789 7.86816 10.1758C8.12207 10.3027 8.45215 10.252 8.62988 10.0234L9.64551 8.7793C9.6709 8.75391 9.72168 8.72852 9.77246 8.75391L12.2607 9.82031C12.3115 9.87109 12.3369 9.92188 12.3115 9.97266Z" fill="black"/>
</svg>
