<svg width="16" height="16" viewBox="0 0 16 16" fill="none" xmlns="http://www.w3.org/2000/svg">
<path d="M2.66537 13.3327C2.2987 13.3327 1.9847 13.202 1.72337 12.9407C1.46203 12.6793 1.33159 12.3656 1.33203 11.9993V3.99935C1.33203 3.63268 1.4627 3.31868 1.72403 3.05735C1.98537 2.79602 2.29914 2.66557 2.66537 2.66602H13.332C13.6987 2.66602 14.0127 2.79668 14.274 3.05802C14.5354 3.31935 14.6658 3.63313 14.6654 3.99935V11.9993C14.6654 12.366 14.5347 12.68 14.2734 12.9413C14.012 13.2027 13.6983 13.3331 13.332 13.3327H2.66537Z" fill="black"/>
<path d="M12.8235 4.89863L8.40485 8.8489C8.26604 8.95683 8.12724 9 8.01157 9C7.87276 9 7.73396 8.95683 7.61829 8.87048L3.17651 4.89863C2.94517 4.70435 2.94517 4.35898 3.15338 4.1647C3.36159 3.94884 3.73173 3.94884 3.93994 4.14311L8.01157 7.76959L12.0601 4.14311C12.2683 3.94884 12.6384 3.94884 12.8466 4.1647C13.0548 4.35898 13.0548 4.70435 12.8235 4.89863Z" fill="#CFF1B2"/>
</svg>
