<svg width="16" height="16" viewBox="0 0 16 16" fill="none" xmlns="http://www.w3.org/2000/svg">
<path d="M4.66536 11.3327C3.74314 11.3327 2.95692 11.0076 2.3067 10.3574C1.65648 9.70713 1.33159 8.92113 1.33203 7.99935C1.33203 7.07713 1.65714 6.29091 2.30737 5.64068C2.95759 4.99046 3.74359 4.66557 4.66536 4.66602H6.66537C6.85425 4.66602 7.0127 4.73002 7.1407 4.85802C7.2687 4.98602 7.33248 5.14424 7.33203 5.33268C7.33203 5.52157 7.26803 5.68002 7.14003 5.80802C7.01203 5.93602 6.85381 5.9998 6.66537 5.99935H4.66536C4.10981 5.99935 3.63759 6.1938 3.2487 6.58268C2.85981 6.97157 2.66537 7.4438 2.66537 7.99935C2.66537 8.55491 2.85981 9.02713 3.2487 9.41602C3.63759 9.80491 4.10981 9.99935 4.66536 9.99935H6.66537C6.85425 9.99935 7.0127 10.0634 7.1407 10.1914C7.2687 10.3194 7.33248 10.4776 7.33203 10.666C7.33203 10.8549 7.26803 11.0134 7.14003 11.1414C7.01203 11.2694 6.85381 11.3331 6.66537 11.3327H4.66536ZM5.9987 8.66602C5.80981 8.66602 5.65136 8.60202 5.52337 8.47402C5.39536 8.34602 5.33159 8.1878 5.33203 7.99935C5.33203 7.81046 5.39603 7.65202 5.52403 7.52402C5.65203 7.39602 5.81025 7.33224 5.9987 7.33268H9.9987C10.1876 7.33268 10.346 7.39668 10.474 7.52468C10.602 7.65268 10.6658 7.81091 10.6654 7.99935C10.6654 8.18824 10.6014 8.34668 10.4734 8.47468C10.3454 8.60268 10.1871 8.66646 9.9987 8.66602H5.9987ZM9.33203 11.3327C9.14314 11.3327 8.9847 11.2687 8.8567 11.1407C8.7287 11.0127 8.66492 10.8545 8.66537 10.666C8.66537 10.4771 8.72937 10.3187 8.85737 10.1907C8.98537 10.0627 9.14359 9.99891 9.33203 9.99935H11.332C11.8876 9.99935 12.3598 9.80491 12.7487 9.41602C13.1376 9.02713 13.332 8.55491 13.332 7.99935C13.332 7.4438 13.1376 6.97157 12.7487 6.58268C12.3598 6.1938 11.8876 5.99935 11.332 5.99935H9.33203C9.14314 5.99935 8.9847 5.93535 8.8567 5.80735C8.7287 5.67935 8.66492 5.52113 8.66537 5.33268C8.66537 5.1438 8.72937 4.98535 8.85737 4.85735C8.98537 4.72935 9.14359 4.66557 9.33203 4.66602H11.332C12.2543 4.66602 13.0405 4.99113 13.6907 5.64135C14.3409 6.29157 14.6658 7.07757 14.6654 7.99935C14.6654 8.92157 14.3403 9.7078 13.69 10.358C13.0398 11.0082 12.2538 11.3331 11.332 11.3327H9.33203Z" fill="black"/>
</svg>
