<svg width="16" height="17" viewBox="0 0 16 17" fill="none" xmlns="http://www.w3.org/2000/svg">
<path d="M14.7054 4.65695C14.6257 4.36097 14.4697 4.09111 14.253 3.87437C14.0362 3.65763 13.7664 3.50162 13.4704 3.42195C12.3804 3.12695 8.00038 3.12695 8.00038 3.12695C8.00038 3.12695 3.62038 3.12695 2.53038 3.42195C2.2344 3.50162 1.96453 3.65763 1.74779 3.87437C1.53106 4.09111 1.37504 4.36097 1.29538 4.65695C1.09185 5.76859 0.993083 6.89687 1.00038 8.02695C0.993083 9.15704 1.09185 10.2853 1.29538 11.397C1.37504 11.6929 1.53106 11.9628 1.74779 12.1795C1.96453 12.3963 2.2344 12.5523 2.53038 12.632C3.62038 12.927 8.00038 12.927 8.00038 12.927C8.00038 12.927 12.3804 12.927 13.4704 12.632C13.7664 12.5523 14.0362 12.3963 14.253 12.1795C14.4697 11.9628 14.6257 11.6929 14.7054 11.397C14.9089 10.2853 15.0077 9.15704 15.0004 8.02695C15.0077 6.89687 14.9089 5.76859 14.7054 4.65695ZM6.60038 10.127V5.92695L10.2354 8.02695L6.60038 10.127Z" fill="black"/>
</svg>
