<svg width="29" height="30" viewBox="0 0 29 30" fill="none" xmlns="http://www.w3.org/2000/svg">
<path d="M14.4994 16.5391C13.872 16.5391 13.2588 16.353 12.7372 16.0045C12.2156 15.656 11.809 15.1606 11.569 14.581C11.3289 14.0014 11.2661 13.3637 11.3885 12.7484C11.5108 12.1331 11.8129 11.5679 12.2565 11.1243C12.7001 10.6807 13.2653 10.3786 13.8806 10.2563C14.4959 10.1339 15.1336 10.1967 15.7132 10.4368C16.2928 10.6768 16.7882 11.0834 17.1367 11.605C17.4852 12.1266 17.6713 12.7399 17.6713 13.3672C17.6713 14.2084 17.3371 15.0152 16.7422 15.61C16.1474 16.2049 15.3406 16.5391 14.4994 16.5391ZM16.2836 16.5391H12.7152C12.3654 16.5381 12.0201 16.6175 11.7059 16.7711C11.3916 16.9247 11.1169 17.1484 10.9027 17.4249C10.6913 17.6941 10.5448 18.0083 10.4744 18.3433C10.4041 18.6783 10.4119 19.0249 10.4972 19.3564L11.8769 24.7939C12.0038 25.2855 12.2908 25.7209 12.6927 26.0313C13.0945 26.3416 13.5883 26.5093 14.0961 26.5078H14.9027C15.4114 26.5106 15.9065 26.3435 16.3095 26.033C16.7125 25.7226 17.0004 25.2865 17.1275 24.7939L18.5073 19.3564C18.5926 19.0249 18.6003 18.6783 18.53 18.3433C18.4597 18.0083 18.3131 17.6941 18.1017 17.4249C17.887 17.1476 17.6113 16.9235 17.296 16.7699C16.9807 16.6163 16.6343 16.5373 16.2836 16.5391ZM20.6438 16.3125C20.5839 16.5452 20.6189 16.7921 20.741 16.999C20.8632 17.2059 21.0625 17.3559 21.2951 17.4159C21.3692 17.4347 21.4453 17.4442 21.5217 17.4442C21.7225 17.444 21.9175 17.3772 22.0762 17.2542C22.2349 17.1312 22.3483 16.9589 22.3985 16.7645C22.7084 15.5596 22.7386 14.2997 22.4867 13.0813C22.2348 11.8629 21.7075 10.7183 20.9452 9.73501C20.1829 8.75176 19.2057 7.95594 18.0885 7.40846C16.9712 6.86098 15.7435 6.57634 14.4994 6.57634C13.2552 6.57634 12.0275 6.86098 10.9103 7.40846C9.79308 7.95594 8.81591 8.75176 8.05357 9.73501C7.29123 10.7183 6.76394 11.8629 6.51204 13.0813C6.26015 14.2997 6.29033 15.5596 6.60028 16.7645C6.62855 16.8813 6.67976 16.9913 6.75094 17.0881C6.82213 17.185 6.91186 17.2667 7.01491 17.3285C7.11797 17.3903 7.23229 17.431 7.35123 17.4482C7.47017 17.4655 7.59134 17.4589 7.7077 17.4288C7.82406 17.3988 7.93328 17.3459 8.02901 17.2732C8.12473 17.2006 8.20505 17.1096 8.26529 17.0056C8.32553 16.9016 8.36448 16.7867 8.37989 16.6675C8.39529 16.5483 8.38683 16.4273 8.35501 16.3114C8.11436 15.3743 8.09124 14.3946 8.28739 13.4472C8.48355 12.4999 8.8938 11.6099 9.48675 10.8454C10.0797 10.081 10.8396 9.46226 11.7085 9.03662C12.5773 8.61098 13.5319 8.3897 14.4994 8.3897C15.4669 8.3897 16.4215 8.61098 17.2903 9.03662C18.1591 9.46226 18.9191 10.081 19.512 10.8454C20.105 11.6099 20.5152 12.4999 20.7114 13.4472C20.9075 14.3946 20.8844 15.3743 20.6438 16.3114V16.3125ZM14.4994 2.94531C11.9685 2.94503 9.50481 3.75976 7.47309 5.26888C5.44137 6.778 3.94963 8.90127 3.21875 11.3243C2.48787 13.7474 2.55671 16.3414 3.41507 18.7222C4.27343 21.1031 5.87568 23.1443 7.98458 24.5435C8.18468 24.6766 8.42944 24.7247 8.66503 24.6773C8.90062 24.63 9.10775 24.491 9.24087 24.2909C9.3067 24.1917 9.35235 24.0806 9.37523 23.9638C9.3981 23.847 9.39775 23.7269 9.37419 23.6102C9.35062 23.4935 9.30431 23.3827 9.2379 23.2839C9.17149 23.1851 9.08627 23.1004 8.98712 23.0346C7.20281 21.8506 5.84718 20.1236 5.12091 18.1091C4.39465 16.0947 4.33636 13.8999 4.95468 11.8497C5.573 9.79953 6.83506 8.00295 8.55401 6.72595C10.273 5.44895 12.3574 4.75941 14.4988 4.75941C16.6402 4.75941 18.7247 5.44895 20.4436 6.72595C22.1626 8.00295 23.4246 9.79953 24.0429 11.8497C24.6613 13.8999 24.603 16.0947 23.8767 18.1091C23.1505 20.1236 21.7948 21.8506 20.0105 23.0346C19.815 23.1696 19.6803 23.3761 19.6355 23.6094C19.5907 23.8428 19.6394 24.0844 19.771 24.2822C19.9026 24.4801 20.1066 24.6183 20.3391 24.6672C20.5717 24.716 20.8141 24.6716 21.0142 24.5435C23.1231 23.1443 24.7253 21.1031 25.5837 18.7222C26.4421 16.3414 26.5109 13.7474 25.78 11.3243C25.0491 8.90127 23.5574 6.778 21.5257 5.26888C19.494 3.75976 17.0303 2.94503 14.4994 2.94531Z" fill="#121212"/>
</svg>
