<svg width="44" height="44" viewBox="0 0 44 44" fill="none" xmlns="http://www.w3.org/2000/svg">
<g clip-path="url(#clip0_2532_67455)">
<path d="M5.92578 38.071V31.4639C5.92578 28.7024 8.16436 26.4639 10.9258 26.4639H14.4079H16.5285" stroke="black" stroke-width="1.5" stroke-linecap="round" stroke-linejoin="round"/>
<path d="M29.0458 38.988C29.612 39.4853 30.4594 39.4853 31.0256 38.988L36.7111 33.9942C37.5758 33.2347 38.0714 32.1397 38.0714 30.9889V23.127C38.0714 22.3138 37.4234 21.6487 36.6105 21.6275L36.0204 21.6121C34.1297 21.5629 32.3326 20.7787 31.0106 19.4262V19.4262C30.4758 18.8791 29.5956 18.8791 29.0609 19.4262V19.4262C27.7388 20.7787 25.9417 21.5629 24.051 21.6121L23.4609 21.6275C22.648 21.6487 22 22.3138 22 23.127V30.9889C22 32.1397 22.4957 33.2347 23.3603 33.9942L29.0458 38.988Z" stroke="black" stroke-width="1.5" stroke-linecap="round" stroke-linejoin="round"/>
<path d="M34.5006 27.2197L30.2626 31.4577C29.872 31.8482 29.2389 31.8482 28.8484 31.4577L26.4648 29.0741" stroke="black" stroke-width="1.5" stroke-linecap="round" stroke-linejoin="round"/>
<path d="M29.111 13.7324C29.131 13.5148 29.1412 13.2944 29.1412 13.0716C29.1412 9.12668 25.9432 5.92871 21.9983 5.92871C18.0534 5.92871 14.8555 9.12668 14.8555 13.0716C14.8555 15.7609 16.3417 18.1031 18.5376 19.3216" stroke="black" stroke-width="1.5" stroke-linecap="round" stroke-linejoin="round"/>
</g>
<defs>
<clipPath id="clip0_2532_67455">
<rect width="42.8571" height="42.8571" fill="white" transform="translate(0.570312 0.571289)"/>
</clipPath>
</defs>
</svg>
