<svg width="408" height="334" viewBox="0 0 408 334" fill="none" xmlns="http://www.w3.org/2000/svg">
<path d="M1.5 53.874H332.987V190.91L315.722 194.379L298.457 203.052L282.919 216.929L270.833 237.745H1.5V53.874Z" fill="#CFF2B3"/>
<rect x="5.86719" y="5.30371" width="324.581" height="48.5696" fill="white"/>
<path d="M270.827 237.427H167.996H2.41406V15.1686C2.41406 11.6323 3.80735 8.24085 6.28742 5.7403C8.76748 3.23975 12.1312 1.83496 15.6385 1.83496H320.354C322.091 1.83496 323.81 2.17985 325.415 2.84993C327.019 3.52 328.477 4.50216 329.705 5.7403C330.933 6.97845 331.907 8.44834 332.572 10.0661C333.236 11.6838 333.578 13.4176 333.578 15.1686V126.298V192.644" stroke="black" stroke-width="3.45299" stroke-linecap="round" stroke-linejoin="round"/>
<path d="M2.65625 53.0947H333.867" stroke="black" stroke-width="3.45299" stroke-linecap="round" stroke-linejoin="round"/>
<path d="M66.1091 33.5696C69.9232 33.5696 73.0151 30.4521 73.0151 26.6066C73.0151 22.761 69.9232 19.6436 66.1091 19.6436C62.295 19.6436 59.2031 22.761 59.2031 26.6066C59.2031 30.4521 62.295 33.5696 66.1091 33.5696Z" stroke="black" stroke-width="3.45299"/>
<path d="M32.0935 33.5696C35.9075 33.5696 38.9995 30.4521 38.9995 26.6066C38.9995 22.761 35.9075 19.6436 32.0935 19.6436C28.2794 19.6436 25.1875 22.761 25.1875 26.6066C25.1875 30.4521 28.2794 33.5696 32.0935 33.5696Z" stroke="black" stroke-width="3.45299"/>
<path d="M100.101 33.5696C103.915 33.5696 107.007 30.4521 107.007 26.6066C107.007 22.761 103.915 19.6436 100.101 19.6436C96.2872 19.6436 93.1953 22.761 93.1953 26.6066C93.1953 30.4521 96.2872 33.5696 100.101 33.5696Z" stroke="black" stroke-width="3.45299"/>
<path d="M270.647 90.9121H65.8748C57.884 90.9121 51.4062 97.4434 51.4062 105.5V178.487C51.4062 186.544 57.884 193.075 65.8748 193.075H270.647C278.637 193.075 285.115 186.544 285.115 178.487V105.5C285.115 97.4434 278.637 90.9121 270.647 90.9121Z" fill="#EAE5E1" stroke="black" stroke-width="3.45299" stroke-linecap="round" stroke-linejoin="round"/>
<path d="M255.405 165.106H81.1372C76.7855 165.106 73.2578 168.663 73.2578 173.051V210.218C73.2578 214.606 76.7855 218.162 81.1372 218.162H255.405C259.757 218.162 263.284 214.606 263.284 210.218V173.051C263.284 168.663 259.757 165.106 255.405 165.106Z" fill="white" stroke="black" stroke-width="3.45299" stroke-linecap="round" stroke-linejoin="round"/>
<path d="M157.344 185.827L179.185 197.395" stroke="black" stroke-width="3.45299" stroke-linecap="round" stroke-linejoin="round"/>
<path d="M179.185 185.827L157.344 197.395" stroke="black" stroke-width="3.45299" stroke-linecap="round" stroke-linejoin="round"/>
<path d="M168.266 179.184V204.039" stroke="black" stroke-width="3.45299" stroke-linecap="round" stroke-linejoin="round"/>
<path d="M105.82 185.827L127.661 197.395" stroke="black" stroke-width="3.45299" stroke-linecap="round" stroke-linejoin="round"/>
<path d="M127.661 185.827L105.82 197.395" stroke="black" stroke-width="3.45299" stroke-linecap="round" stroke-linejoin="round"/>
<path d="M116.742 179.184V204.039" stroke="black" stroke-width="3.45299" stroke-linecap="round" stroke-linejoin="round"/>
<path d="M208.867 185.827L230.708 197.395" stroke="black" stroke-width="3.45299" stroke-linecap="round" stroke-linejoin="round"/>
<path d="M230.708 185.827L208.867 197.395" stroke="black" stroke-width="3.45299" stroke-linecap="round" stroke-linejoin="round"/>
<path d="M219.766 179.184V204.039" stroke="black" stroke-width="3.45299" stroke-linecap="round" stroke-linejoin="round"/>
<path d="M168.269 152.423C191.376 152.423 210.108 133.536 210.108 110.238C210.108 86.9404 191.376 68.0537 168.269 68.0537C145.162 68.0537 126.43 86.9404 126.43 110.238C126.43 133.536 145.162 152.423 168.269 152.423Z" fill="white" stroke="black" stroke-width="3.45299" stroke-linecap="round" stroke-linejoin="round"/>
<path d="M155.508 110.935L164.263 120.134L181.035 98.9951" stroke="black" stroke-width="3.45299" stroke-linecap="round" stroke-linejoin="round"/>
<path d="M405.502 262.055C405.496 278.593 399.611 294.584 388.908 307.148C378.205 319.712 363.387 328.021 347.125 330.58C330.864 333.138 314.227 329.776 300.214 321.101C286.201 312.425 275.733 299.006 270.696 283.262C265.659 267.518 266.385 250.484 272.742 235.23C279.1 219.976 290.671 207.505 305.371 200.064C320.07 192.624 336.932 190.703 352.917 194.648C368.901 198.593 382.958 208.144 392.554 221.581" stroke="black" stroke-width="3.45299" stroke-linecap="round" stroke-linejoin="round"/>
<path d="M363.851 251.622H305.584C303.557 251.622 301.914 253.305 301.914 255.38V292.964C301.914 295.04 303.557 296.722 305.584 296.722H363.851C365.878 296.722 367.521 295.04 367.521 292.964V255.38C367.521 253.305 365.878 251.622 363.851 251.622Z" fill="#EAE5E1" stroke="black" stroke-width="3.45299" stroke-linecap="round" stroke-linejoin="round"/>
<path d="M315.719 251.621V234.718C315.985 229.913 318.102 225.39 321.634 222.082C325.166 218.773 329.846 216.929 334.71 216.929C339.574 216.929 344.254 218.773 347.786 222.082C351.319 225.39 353.436 229.913 353.702 234.718V251.621" stroke="black" stroke-width="3.45299" stroke-linecap="round" stroke-linejoin="round"/>
<path d="M336.437 272.437C338.344 272.437 339.89 270.883 339.89 268.967C339.89 267.051 338.344 265.498 336.437 265.498C334.53 265.498 332.984 267.051 332.984 268.967C332.984 270.883 334.53 272.437 336.437 272.437Z" stroke="black" stroke-width="3.45299" stroke-linecap="round" stroke-linejoin="round"/>
<path d="M336.438 272.438V282.845" stroke="black" stroke-width="3.45299" stroke-linecap="round" stroke-linejoin="round"/>
<path d="M395.14 199.583V223.868H374.422" stroke="black" stroke-width="3.45299" stroke-linecap="round" stroke-linejoin="round"/>
</svg>
