<svg width="450" height="420" viewBox="0 0 450 420" fill="none" xmlns="http://www.w3.org/2000/svg">
<path d="M79.808 55.9473H353.025C353.92 55.9473 354.807 56.1236 355.634 56.4661C356.46 56.8086 357.212 57.3107 357.845 57.9436C358.478 58.5765 358.98 59.3279 359.322 60.1548C359.665 60.9817 359.841 61.868 359.841 62.7631V254.239H72.9922V62.7631C72.9922 61.868 73.1685 60.9817 73.511 60.1548C73.8535 59.3279 74.3556 58.5765 74.9885 57.9436C75.6214 57.3107 76.3728 56.8086 77.1997 56.4661C78.0266 56.1236 78.9129 55.9473 79.808 55.9473Z" stroke="black" stroke-width="2.25" stroke-linecap="round" stroke-linejoin="round"/>
<path d="M48.4531 319.962L72.7954 255.455H358.817L384.376 319.962H133.651H48.4531Z" fill="#EAE5E1"/>
<path d="M48.6094 319.815H384.24V336.368C384.24 339.08 383.163 341.68 381.246 343.597C379.328 345.515 376.728 346.592 374.016 346.592H58.8331C56.1216 346.592 53.5212 345.515 51.6038 343.597C49.6865 341.68 48.6094 339.08 48.6094 336.368V319.815Z" stroke="black" stroke-width="2.25" stroke-linecap="round" stroke-linejoin="round"/>
<path d="M384.24 319.816H48.6094L73.0003 254.238H359.849L384.24 319.816Z" stroke="black" stroke-width="2.25" stroke-linecap="round" stroke-linejoin="round"/>
<path d="M88.3828 364.898H170.66" stroke="black" stroke-width="2.25" stroke-linecap="round" stroke-linejoin="round"/>
<path d="M219.922 364.267H232.677" stroke="black" stroke-width="2.25" stroke-linecap="round" stroke-linejoin="round"/>
<path d="M192.078 364.267H199.965" stroke="black" stroke-width="2.25" stroke-linecap="round" stroke-linejoin="round"/>
<path d="M250.891 364.898H333.119" stroke="black" stroke-width="2.25" stroke-linecap="round" stroke-linejoin="round"/>
<path d="M84.9766 273.713H338.136" stroke="black" stroke-width="2.25" stroke-linecap="round" stroke-linejoin="round"/>
<path d="M84.9766 293.186H338.136" stroke="black" stroke-width="2.25" stroke-linecap="round" stroke-linejoin="round"/>
<rect x="109.367" y="84.7988" width="215.023" height="23.2457" fill="#EAE5E1"/>
<rect x="109.367" y="108.044" width="215.023" height="116.228" fill="white"/>
<path d="M114.967 84.0664H318.779C320.457 84.0664 322.067 84.7299 323.253 85.9111C324.44 87.0922 325.106 88.6941 325.106 90.3644V222.003C325.106 223.66 323.763 225.003 322.106 225.003H111.641C109.984 225.003 108.641 223.66 108.641 222.003V90.3644C108.641 88.6941 109.307 87.0922 110.494 85.9111C111.68 84.7299 113.289 84.0664 114.967 84.0664Z" stroke="black" stroke-width="2.25" stroke-linecap="round" stroke-linejoin="round"/>
<path d="M108.641 108.434H325.125" stroke="black" stroke-width="2.25" stroke-linecap="round" stroke-linejoin="round"/>
<path d="M233.826 132.912H163.346C162.307 132.912 161.311 133.323 160.577 134.054C159.842 134.785 159.43 135.777 159.43 136.811V198.516C159.43 199.55 159.842 200.542 160.577 201.273C161.311 202.004 162.307 202.415 163.346 202.415H270.43C271.469 202.415 272.465 202.004 273.2 201.273C273.934 200.542 274.347 199.55 274.347 198.516V136.83C274.35 136.316 274.25 135.807 274.054 135.332C273.858 134.857 273.57 134.425 273.207 134.061C272.843 133.697 272.41 133.408 271.934 133.211C271.457 133.014 270.946 132.912 270.43 132.912H233.826Z" fill="#EAE5E1" stroke="black" stroke-width="2.25" stroke-linecap="round" stroke-linejoin="round"/>
<path d="M126.571 97.1118C126.571 98.5371 125.409 99.6983 123.969 99.6983C122.529 99.6983 121.367 98.5371 121.367 97.1118C121.367 95.6866 122.529 94.5254 123.969 94.5254C125.409 94.5254 126.571 95.6866 126.571 97.1118Z" fill="white" stroke="black" stroke-width="1.5"/>
<path d="M139.75 97.1118C139.75 98.5371 138.589 99.6983 137.149 99.6983C135.708 99.6983 134.547 98.5371 134.547 97.1118C134.547 95.6866 135.708 94.5254 137.149 94.5254C138.589 94.5254 139.75 95.6866 139.75 97.1118Z" fill="white" stroke="black" stroke-width="1.5"/>
<path d="M152.93 97.1118C152.93 98.5371 151.768 99.6983 150.328 99.6983C148.888 99.6983 147.727 98.5371 147.727 97.1118C147.727 95.6866 148.888 94.5254 150.328 94.5254C151.768 94.5254 152.93 95.6866 152.93 97.1118Z" fill="white" stroke="black" stroke-width="1.5"/>
<path d="M186.092 169.633H168.656V191.582H186.092V169.633Z" fill="#CFF2B3" stroke="black" stroke-width="2.25" stroke-linecap="round" stroke-linejoin="round"/>
<path d="M212.257 169.633H194.82V191.582H212.257V169.633Z" fill="#CFF2B3" stroke="black" stroke-width="2.25" stroke-linecap="round" stroke-linejoin="round"/>
<path d="M238.413 169.633H220.977V191.582H238.413V169.633Z" fill="#CFF2B3" stroke="black" stroke-width="2.25" stroke-linecap="round" stroke-linejoin="round"/>
<path d="M265.1 169.633H247.664V191.582H265.1V169.633Z" fill="#CFF2B3" stroke="black" stroke-width="2.25" stroke-linecap="round" stroke-linejoin="round"/>
<path d="M121.707 131.339C124.608 131.339 126.96 128.998 126.96 126.109C126.96 123.221 124.608 120.88 121.707 120.88C118.805 120.88 116.453 123.221 116.453 126.109C116.453 128.998 118.805 131.339 121.707 131.339Z" stroke="black" stroke-width="2.25" stroke-linecap="round" stroke-linejoin="round"/>
<path d="M137.25 120.486V131.845" stroke="black" stroke-width="2.25" stroke-linecap="round" stroke-linejoin="round"/>
<path d="M153.394 131.339C156.296 131.339 158.648 128.998 158.648 126.109C158.648 123.221 156.296 120.88 153.394 120.88C150.493 120.88 148.141 123.221 148.141 126.109C148.141 128.998 150.493 131.339 153.394 131.339Z" stroke="black" stroke-width="2.25" stroke-linecap="round" stroke-linejoin="round"/>
<path d="M117.094 147.553V158.912" stroke="black" stroke-width="2.25" stroke-linecap="round" stroke-linejoin="round"/>
<path d="M133.253 158.387C136.155 158.387 138.507 156.046 138.507 153.157C138.507 150.269 136.155 147.928 133.253 147.928C130.352 147.928 128 150.269 128 153.157C128 156.046 130.352 158.387 133.253 158.387Z" stroke="black" stroke-width="2.25" stroke-linecap="round" stroke-linejoin="round"/>
<path d="M153.003 158.387C155.905 158.387 158.257 156.046 158.257 153.157C158.257 150.269 155.905 147.928 153.003 147.928C150.102 147.928 147.75 150.269 147.75 153.157C147.75 156.046 150.102 158.387 153.003 158.387Z" stroke="black" stroke-width="2.25" stroke-linecap="round" stroke-linejoin="round"/>
<path d="M121.707 184.573C124.608 184.573 126.96 182.232 126.96 179.344C126.96 176.456 124.608 174.114 121.707 174.114C118.805 174.114 116.453 176.456 116.453 179.344C116.453 182.232 118.805 184.573 121.707 184.573Z" stroke="black" stroke-width="2.25" stroke-linecap="round" stroke-linejoin="round"/>
<path d="M137.25 173.719V185.078" stroke="black" stroke-width="2.25" stroke-linecap="round" stroke-linejoin="round"/>
<path d="M153.394 184.573C156.296 184.573 158.648 182.232 158.648 179.344C158.648 176.456 156.296 174.114 153.394 174.114C150.493 174.114 148.141 176.456 148.141 179.344C148.141 182.232 150.493 184.573 153.394 184.573Z" stroke="black" stroke-width="2.25" stroke-linecap="round" stroke-linejoin="round"/>
<path d="M117.094 200.786V212.145" stroke="black" stroke-width="2.25" stroke-linecap="round" stroke-linejoin="round"/>
<path d="M133.253 211.64C136.155 211.64 138.507 209.299 138.507 206.41C138.507 203.522 136.155 201.181 133.253 201.181C130.352 201.181 128 203.522 128 206.41C128 209.299 130.352 211.64 133.253 211.64Z" stroke="black" stroke-width="2.25" stroke-linecap="round" stroke-linejoin="round"/>
<path d="M153.003 211.64C155.905 211.64 158.257 209.299 158.257 206.41C158.257 203.522 155.905 201.181 153.003 201.181C150.102 201.181 147.75 203.522 147.75 206.41C147.75 209.299 150.102 211.64 153.003 211.64Z" stroke="black" stroke-width="2.25" stroke-linecap="round" stroke-linejoin="round"/>
<path d="M168.406 203.091V212.144" stroke="black" stroke-width="2.25" stroke-linecap="round" stroke-linejoin="round"/>
<path d="M188.286 202.698C189.274 203.697 189.822 205.046 189.811 206.447C189.811 207.834 189.258 209.164 188.273 210.145C187.287 211.126 185.951 211.677 184.558 211.677C183.165 211.677 181.829 211.126 180.843 210.145C179.858 209.164 179.305 207.834 179.305 206.447C179.3 205.151 179.783 203.9 180.66 202.942" stroke="black" stroke-width="2.25" stroke-linecap="round" stroke-linejoin="round"/>
<path d="M230.727 203.092V212.145" stroke="black" stroke-width="2.25" stroke-linecap="round" stroke-linejoin="round"/>
<path d="M220.203 203.092V212.145" stroke="black" stroke-width="2.25" stroke-linecap="round" stroke-linejoin="round"/>
<path d="M251.597 203.991C252.03 204.806 252.24 205.721 252.205 206.642C252.17 207.564 251.892 208.46 251.398 209.24C250.905 210.021 250.213 210.658 249.394 211.088C248.574 211.518 247.655 211.725 246.729 211.689C245.804 211.653 244.904 211.374 244.121 210.882C243.337 210.389 242.698 209.7 242.268 208.884C241.837 208.067 241.631 207.152 241.668 206.23C241.706 205.309 241.987 204.414 242.483 203.635" stroke="black" stroke-width="2.25" stroke-linecap="round" stroke-linejoin="round"/>
<path d="M274.078 200.786V212.145" stroke="black" stroke-width="2.25" stroke-linecap="round" stroke-linejoin="round"/>
<path d="M263.555 203.092V212.145" stroke="black" stroke-width="2.25" stroke-linecap="round" stroke-linejoin="round"/>
<path d="M315.641 200.786V212.145" stroke="black" stroke-width="2.25" stroke-linecap="round" stroke-linejoin="round"/>
<path d="M305.102 200.786V212.145" stroke="black" stroke-width="2.25" stroke-linecap="round" stroke-linejoin="round"/>
<path d="M290.238 211.64C293.139 211.64 295.491 209.299 295.491 206.41C295.491 203.522 293.139 201.181 290.238 201.181C287.336 201.181 284.984 203.522 284.984 206.41C284.984 209.299 287.336 211.64 290.238 211.64Z" stroke="black" stroke-width="2.25" stroke-linecap="round" stroke-linejoin="round"/>
<path d="M208.284 203.036C208.942 203.807 209.361 204.75 209.493 205.753C209.624 206.756 209.462 207.775 209.025 208.688C208.588 209.6 207.896 210.369 207.032 210.899C206.167 211.43 205.167 211.701 204.151 211.679C203.136 211.657 202.148 211.344 201.307 210.777C200.467 210.21 199.808 209.413 199.411 208.482C199.014 207.551 198.896 206.526 199.071 205.53C199.245 204.534 199.705 203.609 200.395 202.867" stroke="black" stroke-width="2.25" stroke-linecap="round" stroke-linejoin="round"/>
<path d="M183.785 131.339C186.686 131.339 189.038 128.998 189.038 126.109C189.038 123.221 186.686 120.88 183.785 120.88C180.883 120.88 178.531 123.221 178.531 126.109C178.531 128.998 180.883 131.339 183.785 131.339Z" stroke="black" stroke-width="2.25" stroke-linecap="round" stroke-linejoin="round"/>
<path d="M205.199 131.339C208.1 131.339 210.452 128.998 210.452 126.109C210.452 123.221 208.1 120.88 205.199 120.88C202.297 120.88 199.945 123.221 199.945 126.109C199.945 128.998 202.297 131.339 205.199 131.339Z" stroke="black" stroke-width="2.25" stroke-linecap="round" stroke-linejoin="round"/>
<path d="M224.066 131.339C226.967 131.339 229.319 128.998 229.319 126.109C229.319 123.221 226.967 120.88 224.066 120.88C221.165 120.88 218.812 123.221 218.812 126.109C218.812 128.998 221.165 131.339 224.066 131.339Z" stroke="black" stroke-width="2.25" stroke-linecap="round" stroke-linejoin="round"/>
<path d="M245.472 131.339C248.374 131.339 250.726 128.998 250.726 126.109C250.726 123.221 248.374 120.88 245.472 120.88C242.571 120.88 240.219 123.221 240.219 126.109C240.219 128.998 242.571 131.339 245.472 131.339Z" stroke="black" stroke-width="2.25" stroke-linecap="round" stroke-linejoin="round"/>
<path d="M168.906 120.486V131.845" stroke="black" stroke-width="2.25" stroke-linecap="round" stroke-linejoin="round"/>
<path d="M275.222 131.339C278.124 131.339 280.476 128.998 280.476 126.109C280.476 123.221 278.124 120.88 275.222 120.88C272.321 120.88 269.969 123.221 269.969 126.109C269.969 128.998 272.321 131.339 275.222 131.339Z" stroke="black" stroke-width="2.25" stroke-linecap="round" stroke-linejoin="round"/>
<path d="M296.66 131.339C299.561 131.339 301.913 128.998 301.913 126.109C301.913 123.221 299.561 120.88 296.66 120.88C293.758 120.88 291.406 123.221 291.406 126.109C291.406 128.998 293.758 131.339 296.66 131.339Z" stroke="black" stroke-width="2.25" stroke-linecap="round" stroke-linejoin="round"/>
<path d="M260.352 120.486V131.845" stroke="black" stroke-width="2.25" stroke-linecap="round" stroke-linejoin="round"/>
<path d="M311.125 120.486V131.845" stroke="black" stroke-width="2.25" stroke-linecap="round" stroke-linejoin="round"/>
<path d="M275.242 174.15C276.635 174.15 277.971 174.701 278.957 175.682C279.942 176.663 280.496 177.993 280.496 179.38C280.496 180.767 279.942 182.097 278.957 183.078C277.971 184.059 276.635 184.61 275.242 184.61" stroke="black" stroke-width="2.25" stroke-linecap="round" stroke-linejoin="round"/>
<path d="M296.66 184.573C299.561 184.573 301.913 182.232 301.913 179.344C301.913 176.456 299.561 174.114 296.66 174.114C293.758 174.114 291.406 176.456 291.406 179.344C291.406 182.232 293.758 184.573 296.66 184.573Z" stroke="black" stroke-width="2.25" stroke-linecap="round" stroke-linejoin="round"/>
<path d="M311.125 173.664V185.023" stroke="black" stroke-width="2.25" stroke-linecap="round" stroke-linejoin="round"/>
<path d="M289.722 158.387C292.624 158.387 294.976 156.046 294.976 153.157C294.976 150.269 292.624 147.928 289.722 147.928C286.821 147.928 284.469 150.269 284.469 153.157C284.469 156.046 286.821 158.387 289.722 158.387Z" stroke="black" stroke-width="2.25" stroke-linecap="round" stroke-linejoin="round"/>
<path d="M304.203 147.477V158.854" stroke="black" stroke-width="2.25" stroke-linecap="round" stroke-linejoin="round"/>
<path d="M316.273 147.477V158.854" stroke="black" stroke-width="2.25" stroke-linecap="round" stroke-linejoin="round"/>
<path d="M224.83 150.94H209.808C209.358 150.94 208.992 151.306 208.992 151.758V161.308C208.992 161.759 209.358 162.125 209.808 162.125H224.83C225.281 162.125 225.646 161.759 225.646 161.308V151.758C225.646 151.306 225.281 150.94 224.83 150.94Z" fill="#D7C9B1" stroke="black" stroke-width="2.25" stroke-linecap="round" stroke-linejoin="round"/>
<path d="M212.461 150.94V146.535C212.461 145.245 212.973 144.008 213.884 143.096C214.795 142.183 216.031 141.671 217.319 141.671C218.608 141.671 219.844 142.183 220.755 143.096C221.666 144.008 222.178 145.245 222.178 146.535V150.94" stroke="black" stroke-width="2.25" stroke-linecap="round" stroke-linejoin="round"/>
<path d="M217.32 156.532C217.876 156.532 218.327 156.08 218.327 155.523C218.327 154.966 217.876 154.515 217.32 154.515C216.764 154.515 216.312 154.966 216.312 155.523C216.312 156.08 216.764 156.532 217.32 156.532Z" stroke="black" stroke-width="2.25" stroke-linecap="round" stroke-linejoin="round"/>
<path d="M217.32 156.533V158.717" stroke="black" stroke-width="2.25" stroke-linecap="round" stroke-linejoin="round"/>
<path d="M350.307 241.984C348.55 240.226 348.55 237.377 350.307 235.62L367.987 217.94C369.744 216.183 372.593 216.183 374.351 217.94L420.974 264.563C427.613 271.202 427.613 281.967 420.974 288.607C414.334 295.246 403.569 295.246 396.93 288.607L350.307 241.984Z" fill="white" stroke="black" stroke-width="2.25"/>
<circle cx="309.333" cy="176.976" r="80.1498" transform="rotate(-45 309.333 176.976)" fill="#EAE5E1" stroke="black" stroke-width="2.25"/>
<path d="M310.208 219.786C335.736 219.786 359.086 199.379 372.555 178.588C373.178 177.627 373.178 176.396 372.555 175.436C359.086 154.645 335.736 134.237 310.208 134.237C284.681 134.237 261.331 154.645 247.861 175.436C247.239 176.396 247.239 177.627 247.861 178.588C261.331 199.379 284.681 219.786 310.208 219.786Z" fill="white" stroke="black" stroke-width="2.25" stroke-linecap="round" stroke-linejoin="round"/>
<path d="M308.956 206.612C325.677 206.612 339.232 193.166 339.232 176.579C339.232 159.992 325.677 146.546 308.956 146.546C292.235 146.546 278.68 159.992 278.68 176.579C278.68 193.166 292.235 206.612 308.956 206.612Z" fill="#CBD255" stroke="black" stroke-width="2.25" stroke-linecap="round" stroke-linejoin="round"/>
<path d="M316.623 176.58C316.623 180.773 313.194 184.188 308.944 184.188C304.695 184.188 301.266 180.773 301.266 176.58C301.266 172.386 304.695 168.972 308.944 168.972C313.194 168.972 316.623 172.386 316.623 176.58Z" fill="white" stroke="black" stroke-width="2.25"/>
</svg>
