<svg width="24" height="24" viewBox="0 0 24 24" fill="none" xmlns="http://www.w3.org/2000/svg">
<path d="M8 13.75C9.38071 13.75 10.5 12.6307 10.5 11.25C10.5 9.86929 9.38071 8.75 8 8.75C6.61929 8.75 5.5 9.86929 5.5 11.25C5.5 12.6307 6.61929 13.75 8 13.75Z" stroke="black" stroke-width="1.5" stroke-linecap="round" stroke-linejoin="round"/>
<path d="M13 21.25V19.25C13 17.5931 11.6569 16.25 10 16.25H6C4.34315 16.25 3 17.5931 3 19.25V21.25" stroke="black" stroke-width="1.5" stroke-linecap="round" stroke-linejoin="round"/>
<path d="M14 9L18 9" stroke="black" stroke-width="1.5" stroke-linecap="round" stroke-linejoin="round"/>
<path d="M11.6665 6.33398L17.9998 6.33398" stroke="black" stroke-width="1.5" stroke-linecap="round" stroke-linejoin="round"/>
<path d="M13.3253 12.3333H19C20.1046 12.3333 21 11.4379 21 10.3333V8V5C21 3.89543 20.1046 3 19 3H11C9.89543 3 9 3.89543 9 5V6" stroke="black" stroke-width="1.5" stroke-linecap="round"/>
</svg>
