<svg width="24" height="24" viewBox="0 0 24 24" fill="none" xmlns="http://www.w3.org/2000/svg">
<path d="M16.6768 21.0124C16.8633 21.1704 17.1367 21.1704 17.3231 21.0124L19.5852 19.0966C20.4826 18.3365 21 17.2202 21 16.0442V13.3409C21 12.9032 20.651 12.5453 20.2134 12.5343V12.5343C19.12 12.5068 18.0781 12.064 17.2994 11.2958L17.2038 11.2015C17.0908 11.09 16.9092 11.09 16.7962 11.2015L16.7005 11.2958C15.9219 12.064 14.88 12.5068 13.7866 12.5343V12.5343C13.349 12.5453 13 12.9032 13 13.3409V16.0442C13 17.2202 13.5175 18.3365 14.4148 19.0966L16.6768 21.0124Z" stroke="black" stroke-width="1.5" stroke-linecap="round" stroke-linejoin="round"/>
<path d="M17 8.2093V7.24853C17 7.0894 16.9368 6.93679 16.8243 6.82426L13.1757 3.17574C13.0632 3.06321 12.9106 3 12.7515 3L4.5 3C3.67157 3 3 3.67157 3 4.5V19.5C3 20.3284 3.67157 21 4.5 21H12.5" stroke="black" stroke-width="1.5" stroke-linecap="round" stroke-linejoin="round"/>
<path d="M13 6.5V3L17 7H13.5C13.2239 7 13 6.77614 13 6.5Z" stroke="black" stroke-width="1.5" stroke-linecap="round" stroke-linejoin="round"/>
<path d="M6 8L11 8" stroke="black" stroke-width="1.5" stroke-linecap="round" stroke-linejoin="round"/>
<path d="M6 12L10 12" stroke="black" stroke-width="1.5" stroke-linecap="round" stroke-linejoin="round"/>
<path d="M6 16H9" stroke="black" stroke-width="1.5" stroke-linecap="round" stroke-linejoin="round"/>
</svg>
