<svg width="241" height="152" viewBox="0 0 241 152" fill="none" xmlns="http://www.w3.org/2000/svg">
<path d="M5.97095 145.933L44.4844 41.0339L96.6803 142.892L140.261 41.5406L183.336 50.6623L226.917 14.1758" stroke="black" stroke-width="1.52027" stroke-linecap="round"/>
<ellipse cx="44.9897" cy="41.5402" rx="5.06756" ry="5.06757" fill="#F99E67" stroke="black" stroke-width="1.52027"/>
<ellipse cx="96.6791" cy="140.864" rx="5.06756" ry="5.06757" fill="#F99E67" stroke="black" stroke-width="1.52027"/>
<ellipse cx="140.261" cy="40.5266" rx="5.06756" ry="5.06757" fill="#F99E67" stroke="black" stroke-width="1.52027"/>
<ellipse cx="183.843" cy="50.6633" rx="5.06756" ry="5.06757" fill="#F99E67" stroke="black" stroke-width="1.52027"/>
<ellipse cx="6.47601" cy="145.933" rx="5.06756" ry="5.06757" fill="#F99E67" stroke="black" stroke-width="1.52027"/>
<rect x="215.257" y="1" width="24.3243" height="24.3243" rx="12.1621" fill="black" stroke="black" stroke-width="1.52027"/>
<path d="M231.474 7.68528C231.474 7.63251 231.453 7.58191 231.416 7.5446C231.379 7.50729 231.329 7.48633 231.277 7.48633C230.557 7.48633 229.838 7.48633 229.508 7.48633C229.35 7.48633 226.905 9.26325 226.268 9.72823C226.254 9.73868 226.237 9.74496 226.22 9.7464C226.202 9.74784 226.185 9.74438 226.169 9.73639C226.153 9.7284 226.14 9.7162 226.131 9.70113C226.122 9.68605 226.117 9.66868 226.116 9.65093C226.116 9.30077 226.11 8.51406 226.11 7.80465C226.11 7.55681 226.009 7.50111 225.805 7.50111C224.663 7.50111 224.815 7.50111 223.673 7.50111C223.403 7.50111 223.378 7.658 223.378 7.91038C223.374 11.5324 223.367 14.5144 223.367 18.1456C223.363 18.1847 223.368 18.2243 223.381 18.2613C223.394 18.2984 223.416 18.3318 223.444 18.3592C223.472 18.3866 223.505 18.4072 223.542 18.4194C223.579 18.4317 223.619 18.4352 223.657 18.4298H225.814C226.018 18.4298 226.102 18.3457 226.102 18.157C226.102 15.8378 226.102 13.8835 226.102 11.5631C226.102 11.5154 226.102 11.1595 226.107 10.9276C226.108 10.9011 226.113 10.8748 226.123 10.8503C226.133 10.8258 226.148 10.8036 226.167 10.7849C226.186 10.7662 226.208 10.7514 226.232 10.7414C226.257 10.7313 226.283 10.7263 226.309 10.7264H227.037C228.051 10.7264 229.793 10.7173 231.27 10.7105C231.296 10.7117 231.322 10.7076 231.347 10.6983C231.371 10.689 231.394 10.6749 231.413 10.6566C231.432 10.6383 231.447 10.6164 231.458 10.592C231.468 10.5677 231.473 10.5415 231.474 10.5149V7.68528Z" fill="white"/>
</svg>
