<svg width="40" height="35" viewBox="0 0 40 35" fill="none" xmlns="http://www.w3.org/2000/svg">
<path d="M38.5 17.4999V9.16659V2.33325C38.5 1.50483 37.8284 0.833252 37 0.833252H2.5C1.67157 0.833252 1 1.50483 1 2.33325V9.16659V25.3749C1 26.2033 1.67157 26.8749 2.5 26.8749H7.55277M4.125 33.1249H12.7757" stroke="#121212" stroke-width="1.5" stroke-linecap="round" stroke-linejoin="round"/>
<path d="M26 28.9583C27.7259 28.9583 29.125 27.5591 29.125 25.8333C29.125 24.1074 27.7259 22.7083 26 22.7083C24.2741 22.7083 22.875 24.1074 22.875 25.8333C22.875 27.5591 24.2741 28.9583 26 28.9583Z" stroke="#121212" stroke-width="1.5" stroke-linecap="round" stroke-linejoin="round"/>
<path d="M38.5 25.8333C35.877 29.9875 31.1644 34.1667 26 34.1667C20.8357 34.1667 16.123 29.9875 13.5 25.8333C16.6924 21.8865 20.4328 17.5 26 17.5C31.5672 17.5 35.3076 21.8864 38.5 25.8333Z" stroke="#121212" stroke-width="1.5" stroke-linecap="round" stroke-linejoin="round"/>
</svg>
