<svg width="15" height="16" viewBox="0 0 15 16" fill="none" xmlns="http://www.w3.org/2000/svg">
<path d="M4.96359 12.1156C4.69475 12.4397 4.53534 12.8427 4.53534 13.2793C4.53534 14.3507 5.494 15.2191 6.67655 15.2191C7.85916 15.2191 8.81781 14.3507 8.81781 13.2793V3.19268C8.81781 2.12138 7.85916 1.25293 6.67655 1.25293C5.494 1.25293 4.53534 2.12138 4.53534 3.19268C4.53534 3.62944 4.6947 4.03249 4.96359 4.35671M2.82236 8.23602C1.87631 8.23602 1.10938 7.54127 1.10938 6.68425C1.10938 5.82724 1.87631 5.13243 2.82236 5.13243M2.82236 8.23602C1.87631 8.23602 1.10938 8.93078 1.10938 9.78779C1.10938 10.6448 1.87631 11.3396 2.82236 11.3396M2.82236 8.23602H4.53534M2.96931 4.99931C2.30034 4.39329 2.30034 3.41074 2.96931 2.80473C3.43179 2.38577 4.09293 2.25645 4.67804 2.41678M2.96948 11.3396C2.30051 11.9456 2.30051 12.9282 2.96948 13.5342C3.43195 13.953 4.0931 14.0824 4.67821 13.922" stroke="black" stroke-width="1.54741" stroke-linecap="round"/>
<path d="M8.82031 8.23592H12.2462M12.2462 8.23592C12.2462 8.66456 12.6297 9.01193 13.1028 9.01193C13.5759 9.01193 13.9593 8.66456 13.9593 8.23592C13.9593 7.80741 13.5759 7.46004 13.1028 7.46004C12.6297 7.46004 12.2462 7.80741 12.2462 8.23592ZM8.82031 10.5637H10.0011C10.3418 10.5637 10.6687 10.6864 10.9096 10.9046L12.2462 12.1155M8.82031 5.90827H10.0011C10.3418 5.90827 10.6687 5.78562 10.9096 5.5674L12.2462 4.35648M13.1028 12.1155C13.5759 12.1155 13.9593 12.4629 13.9593 12.8914C13.9593 13.3199 13.5759 13.6672 13.1028 13.6672C12.6297 13.6672 12.2462 13.3199 12.2462 12.8914C12.2462 12.4629 12.6297 12.1155 13.1028 12.1155ZM13.1028 4.35648C13.5759 4.35648 13.9593 4.00911 13.9593 3.58059C13.9593 3.15206 13.5759 2.80469 13.1028 2.80469C12.6297 2.80469 12.2462 3.15206 12.2462 3.58059C12.2462 4.00911 12.6297 4.35648 13.1028 4.35648Z" stroke="black" stroke-width="1.54741" stroke-linecap="round"/>
</svg>
