<svg width="16" height="19" viewBox="0 0 16 19" fill="none" xmlns="http://www.w3.org/2000/svg">
<path d="M0.895508 16.2271V2.72571C0.895508 1.90422 1.56242 1.23828 2.38509 1.23828H10.9732C11.1241 1.23828 11.2693 1.29547 11.3797 1.39829L14.4562 4.26557C14.5769 4.37809 14.6455 4.53561 14.6455 4.70053V6.00658V16.2271C14.6455 17.0485 13.9786 17.7144 13.156 17.7144H5.47288H2.38509C1.56241 17.7144 0.895508 17.0485 0.895508 16.2271Z" stroke="black" stroke-linecap="round" stroke-linejoin="round"/>
<path d="M10.5205 4.70896V1.23828L14.4927 5.20477H11.017C10.7428 5.20477 10.5205 4.98278 10.5205 4.70896Z" stroke="black" stroke-linecap="round" stroke-linejoin="round"/>
<path d="M3.64551 13.8623V15.3497" stroke="black" stroke-linecap="round"/>
<path d="M6.39551 12.375V15.3499" stroke="black" stroke-linecap="round"/>
<path d="M9.14551 13.3662V15.3494" stroke="black" stroke-linecap="round"/>
<path d="M11.8955 10.3916V15.3498" stroke="black" stroke-linecap="round"/>
<path d="M7.58464 4.73926H5.72221C5.20796 4.73926 4.79102 5.15557 4.79102 5.66913C4.79102 6.18268 5.20796 6.599 5.72221 6.599H6.71991" stroke="black" stroke-linecap="round" stroke-linejoin="round"/>
<path d="M5.72221 6.59863H6.65349C7.16774 6.59863 7.58464 7.01501 7.58464 7.52852C7.58464 8.04203 7.16774 8.45832 6.65349 8.45832H4.79102" stroke="black" stroke-linecap="round" stroke-linejoin="round"/>
<path d="M6.18848 4.27496V3.98438" stroke="black" stroke-linecap="round" stroke-linejoin="round"/>
<path d="M6.18848 9.21436V8.92383" stroke="black" stroke-linecap="round" stroke-linejoin="round"/>
</svg>
