<svg width="530" height="524" viewBox="0 0 530 524" fill="none" xmlns="http://www.w3.org/2000/svg">
<circle cx="265.063" cy="270.225" r="251.977" stroke="#4D5133" stroke-width="3"/>
<path d="M268.213 5.6514C266.09 4.07675 263.187 4.07675 261.064 5.6514L253.895 10.9688C251.84 12.4933 250.978 15.1535 251.748 17.5938L254.497 26.3018C255.285 28.7984 257.6 30.4958 260.218 30.4958H269.059C271.677 30.4958 273.992 28.7984 274.78 26.3018L277.529 17.5938C278.299 15.1535 277.437 12.4933 275.382 10.9688L268.213 5.6514Z" fill="#CFF2B3" stroke="white" stroke-width="7"/>
<path d="M20.752 204.137C18.6291 202.562 15.7259 202.562 13.603 204.137L6.43429 209.454C4.37902 210.979 3.51681 213.639 4.28706 216.079L7.03565 224.787C7.82366 227.284 10.1394 228.981 12.7574 228.981H21.5977C24.2156 228.981 26.5314 227.284 27.3194 224.787L30.068 216.079C30.8382 213.639 29.976 210.979 27.9207 209.454L20.752 204.137Z" fill="#CFF2B3" stroke="white" stroke-width="7"/>
<path d="M112.697 457.613C110.574 456.039 107.671 456.039 105.548 457.613L98.3796 462.931C96.3243 464.455 95.4621 467.115 96.2324 469.556L98.981 478.264C99.769 480.76 102.085 482.458 104.703 482.458H113.543C116.161 482.458 118.477 480.76 119.265 478.264L122.013 469.556C122.784 467.115 121.921 464.455 119.866 462.931L112.697 457.613Z" fill="#CFF2B3" stroke="white" stroke-width="7"/>
<path d="M422.877 457.613C420.754 456.039 417.851 456.039 415.728 457.613L408.559 462.931C406.504 464.455 405.642 467.115 406.412 469.556L409.161 478.264C409.949 480.76 412.264 482.458 414.882 482.458H423.723C426.341 482.458 428.656 480.76 429.444 478.264L432.193 469.556C432.963 467.115 432.101 464.455 430.046 462.931L422.877 457.613Z" fill="#CFF2B3" stroke="white" stroke-width="7"/>
<path d="M516.533 204.996C514.41 203.421 511.507 203.421 509.384 204.996L502.216 210.314C500.16 211.838 499.298 214.498 500.068 216.939L502.817 225.647C503.605 228.143 505.921 229.841 508.539 229.841H517.379C519.997 229.841 522.313 228.143 523.101 225.647L525.849 216.939C526.619 214.498 525.757 211.838 523.702 210.314L516.533 204.996Z" fill="#CFF2B3" stroke="white" stroke-width="7"/>
<path d="M268.213 5.6514C266.09 4.07675 263.187 4.07675 261.064 5.6514L253.895 10.9688C251.84 12.4933 250.978 15.1535 251.748 17.5938L254.497 26.3018C255.285 28.7984 257.6 30.4958 260.218 30.4958H269.059C271.677 30.4958 273.992 28.7984 274.78 26.3018L277.529 17.5938C278.299 15.1535 277.437 12.4933 275.382 10.9688L268.213 5.6514Z" fill="#CFF2B3" stroke="black" stroke-width="2"/>
<path d="M422.804 457.478C420.712 455.974 417.893 455.974 415.801 457.478L408.688 462.589C406.566 464.114 405.675 466.836 406.484 469.321L409.135 477.457C409.94 479.927 412.242 481.598 414.84 481.598H423.765C426.363 481.598 428.665 479.927 429.47 477.457L432.121 469.321C432.93 466.836 432.039 464.114 429.917 462.589L422.804 457.478Z" fill="#CFF2B3" stroke="black" stroke-width="2"/>
<path d="M112.624 457.478C110.532 455.974 107.714 455.974 105.622 457.478L98.508 462.589C96.3862 464.114 95.495 466.836 96.3044 469.321L98.9554 477.457C99.7601 479.927 102.063 481.598 104.66 481.598H113.585C116.183 481.598 118.486 479.927 119.29 477.457L121.941 469.321C122.751 466.836 121.859 464.114 119.738 462.589L112.624 457.478Z" fill="#CFF2B3" stroke="black" stroke-width="2"/>
<path d="M20.6788 204.861C18.5867 203.357 15.7684 203.357 13.6763 204.861L6.56266 209.972C4.44089 211.497 3.54967 214.219 4.35908 216.704L7.01013 224.84C7.81483 227.31 10.1174 228.981 12.715 228.981H21.6401C24.2376 228.981 26.5402 227.31 27.3449 224.84L29.996 216.704C30.8054 214.219 29.9141 211.497 27.7924 209.972L20.6788 204.861Z" fill="#CFF2B3" stroke="black" stroke-width="2"/>
<path d="M516.46 204.861C514.368 203.357 511.55 203.357 509.458 204.861L502.344 209.972C500.222 211.497 499.331 214.219 500.14 216.704L502.791 224.84C503.596 227.31 505.899 228.981 508.496 228.981H517.421C520.019 228.981 522.321 227.31 523.126 224.84L525.777 216.704C526.587 214.219 525.695 211.497 523.574 209.972L516.46 204.861Z" fill="#CFF2B3" stroke="black" stroke-width="2"/>
</svg>
