<svg width="39" height="39" viewBox="0 0 39 39" fill="none" xmlns="http://www.w3.org/2000/svg">
<path d="M28.4927 12.1581V14.3747C28.4927 15.4514 27.6218 16.3381 26.5135 16.3381C25.421 16.3381 24.5343 15.4514 24.5343 14.3747V12.1581C24.5343 11.6332 24.7429 11.1297 25.114 10.7586C25.4852 10.3874 25.9886 10.1789 26.5135 10.1789C27.6218 10.1789 28.4927 11.0656 28.4927 12.1581ZM21.4785 13.9631V25.4739C21.4785 25.9988 21.27 26.5022 20.8988 26.8734C20.5277 27.2445 20.0243 27.4531 19.4993 27.4531C18.9744 27.4531 18.471 27.2445 18.0999 26.8734C17.7287 26.5022 17.5202 25.9988 17.5202 25.4739V13.9631C17.5202 12.8864 18.4068 11.9839 19.4993 11.9839C20.5918 11.9839 21.4785 12.8864 21.4785 13.9631ZM35.3327 18.6181V20.8347C35.3327 21.9114 34.446 22.7981 33.3535 22.7981C32.261 22.7981 31.3743 21.9114 31.3743 20.8347V18.6181C31.3743 17.5256 32.261 16.6547 33.3535 16.6547C34.446 16.6547 35.3327 17.5256 35.3327 18.6181ZM7.62435 18.6181V20.8347C7.62435 21.9114 6.73768 22.7981 5.64518 22.7981C4.53685 22.7981 3.66602 21.9114 3.66602 20.8347V18.6181C3.66602 17.5256 4.53685 16.6547 5.64518 16.6547C6.73768 16.6547 7.62435 17.5256 7.62435 18.6181ZM14.4643 25.0781V27.2789C14.4643 28.3556 13.5777 29.2264 12.4852 29.2264C11.3927 29.2264 10.506 28.3556 10.506 27.2789V25.0781C10.506 23.9697 11.3927 23.0989 12.4852 23.0989C13.0101 23.0989 13.5135 23.3074 13.8847 23.6786C14.2558 24.0497 14.4643 24.5532 14.4643 25.0781ZM21.4785 31.3797V33.5806C21.4785 34.1055 21.27 34.6089 20.8988 34.98C20.5277 35.3512 20.0243 35.5597 19.4993 35.5597C18.9744 35.5597 18.471 35.3512 18.0999 34.98C17.7287 34.6089 17.5202 34.1055 17.5202 33.5806V31.3797C17.5202 30.8548 17.7287 30.3514 18.0999 29.9802C18.471 29.6091 18.9744 29.4006 19.4993 29.4006C20.0243 29.4006 20.5277 29.6091 20.8988 29.9802C21.27 30.3514 21.4785 30.8548 21.4785 31.3797ZM21.4785 5.87223V8.07307C21.4785 8.59797 21.27 9.10138 20.8988 9.47255C20.5277 9.84371 20.0243 10.0522 19.4993 10.0522C18.9744 10.0522 18.471 9.84371 18.0999 9.47255C17.7287 9.10138 17.5202 8.59797 17.5202 8.07307V5.87223C17.5202 4.7639 18.4068 3.89307 19.4993 3.89307C20.0243 3.89307 20.5277 4.10159 20.8988 4.47275C21.27 4.84392 21.4785 5.34733 21.4785 5.87223ZM28.4927 20.2647V27.2789C28.4927 28.3714 27.6218 29.2264 26.5135 29.2264C25.421 29.2264 24.5343 28.3714 24.5343 27.2789V20.2647C24.5343 19.1564 25.421 18.2856 26.5135 18.2856C27.6218 18.2856 28.4927 19.1564 28.4927 20.2647ZM14.4643 12.1581V19.1722C14.4643 20.2806 13.5777 21.1514 12.4852 21.1514C12.2253 21.1514 11.9679 21.1002 11.7278 21.0007C11.4877 20.9013 11.2695 20.7555 11.0857 20.5717C10.9019 20.3879 10.7561 20.1698 10.6567 19.9296C10.5572 19.6895 10.506 19.4321 10.506 19.1722V12.1581C10.506 11.6332 10.7145 11.1297 11.0857 10.7586C11.4569 10.3874 11.9603 10.1789 12.4852 10.1789C13.0101 10.1789 13.5135 10.3874 13.8847 10.7586C14.2558 11.1297 14.4643 11.6332 14.4643 12.1581Z" fill="#121212"/>
</svg>
