<svg width="501" height="449" viewBox="0 0 501 449" fill="none" xmlns="http://www.w3.org/2000/svg">
<rect x="0.5" y="0.5" width="499.839" height="197.729" rx="7.11732" fill="white" stroke="black"/>
<path d="M23.1227 25.376H22.0771V31.4268H26.1138V30.484H23.1227V25.376ZM27.8827 26.3702V25.376H26.8371V26.3702H27.8827ZM27.8741 31.4268V26.9872H26.8456V31.4268H27.8741ZM33.8479 26.9101C33.2051 26.9101 32.7595 27.1586 32.4338 27.5443C32.1852 27.1329 31.7482 26.893 31.1568 26.893C30.7197 26.893 30.3426 27.0472 30.0083 27.3986V26.9872H28.9799V31.4268H30.0083V29.0356C30.0083 28.2385 30.3512 27.8014 30.8911 27.8014C31.6367 27.8014 31.6367 28.5728 31.6367 29.0527V31.4268H32.6652V29.0527C32.6652 28.23 33.008 27.8014 33.5737 27.8014C34.2936 27.8014 34.2936 28.5471 34.2936 29.0356V31.4268H35.3221V29.0356C35.3221 28.17 35.3221 26.9101 33.8479 26.9101ZM37.4491 26.3702V25.376H36.4035V26.3702H37.4491ZM37.4406 31.4268V26.9872H36.4121V31.4268H37.4406ZM39.9005 27.8357H40.6719V26.9872H39.9005V25.7702H38.8721V26.9872H38.2207V27.8357H38.8721V30.484C38.8721 31.1782 39.1977 31.521 39.9177 31.521C40.269 31.521 40.5347 31.4696 40.7404 31.4096V30.604C40.0719 30.7154 39.9005 30.6811 39.9005 30.1583V27.8357Z" fill="#121212"/>
<path d="M24.4469 47.9882L25.7067 48.0011V46.9083C27.1209 46.7669 28.2522 45.8028 28.2522 44.2858C28.2522 42.486 26.9538 41.9846 25.7067 41.6246V39.0406C26.2081 39.182 26.5167 39.5806 26.6067 40.2619H28.0465C27.8922 38.7321 26.9538 37.8965 25.7067 37.7422V36.7137H24.4469V37.7165C23.097 37.8065 21.9657 38.7707 21.9657 40.1976C21.9657 41.8817 23.2127 42.396 24.4469 42.7688V45.6228C23.7912 45.4814 23.3541 44.9414 23.3027 44.1444H21.8243C21.9143 45.7256 22.9813 46.7926 24.4469 46.9083V47.9882ZM23.4441 40.1077C23.4441 39.4649 23.9198 39.0663 24.4469 38.9892V41.239C23.8555 41.0076 23.4441 40.699 23.4441 40.1077ZM25.7067 45.6356V43.1545C26.3367 43.3987 26.7866 43.7201 26.7866 44.3501C26.7866 45.1214 26.2467 45.5328 25.7067 45.6356ZM28.9519 40.8019H30.3661C30.4175 39.6577 31.0088 38.9763 31.6645 38.9763H32.1659C32.8215 38.9763 33.2843 39.5677 33.2843 40.2362C33.2843 40.9818 32.8986 41.6889 31.9602 42.6402L28.9905 45.5328V46.8184H34.7627V45.5585H30.7774L32.8215 43.553C34.2099 42.2674 34.7627 41.3675 34.7627 40.2362C34.7627 38.8478 33.7471 37.7165 32.2173 37.7165H31.7159C30.2504 37.7165 28.9776 38.9635 28.9519 40.8019ZM36.0108 46.8184H37.4121V41.1104C37.4121 40.7504 37.3993 40.0819 37.3993 40.0819H37.425C37.425 40.0819 37.6435 40.7247 37.7464 41.059L39.9061 46.8184H41.0117L43.1844 41.0461C43.3001 40.7247 43.5186 40.0819 43.5186 40.0819H43.5572C43.5572 40.0819 43.5315 40.7633 43.5315 41.1104V46.8184H44.9327V37.8193H43.0944L40.8189 43.8487C40.7032 44.1701 40.4846 44.8129 40.4846 44.8129H40.4461C40.4461 44.8129 40.2404 44.1701 40.1247 43.8487L37.8492 37.8193H36.0108V46.8184Z" fill="#464D41"/>
<path d="M225.374 31.4268L224.028 28.8042C224.757 28.5299 225.185 27.99 225.185 27.1758C225.185 26.0788 224.491 25.376 223.017 25.376H220.806V31.4268H221.851V29.0013H222.957L224.165 31.4268H225.374ZM223.043 26.3187C223.814 26.3187 224.122 26.6016 224.122 27.1758C224.122 27.7243 223.771 28.0585 223.043 28.0585H221.851V26.3187H223.043ZM228.02 26.893C226.623 26.893 225.843 27.8443 225.843 29.2327C225.843 30.6383 226.675 31.521 227.977 31.521C228.929 31.521 229.7 31.0325 229.974 30.1926L229.074 29.9012C228.92 30.3469 228.56 30.6468 228.003 30.6468C227.343 30.6468 226.94 30.2355 226.88 29.5241H230.043C230.163 27.8786 229.4 26.893 228.02 26.893ZM227.995 27.7414C228.603 27.7414 228.972 28.1014 229.032 28.727H226.897C226.975 28.1357 227.343 27.7414 227.995 27.7414ZM232.201 27.8357H232.972V26.9872H232.201V25.7702H231.173V26.9872H230.521V27.8357H231.173V30.484C231.173 31.1782 231.498 31.521 232.218 31.521C232.57 31.521 232.835 31.4696 233.041 31.4096V30.604C232.373 30.7154 232.201 30.6811 232.201 30.1583V27.8357ZM235.695 26.893C234.298 26.893 233.518 27.8443 233.518 29.2327C233.518 30.6383 234.35 31.521 235.652 31.521C236.604 31.521 237.375 31.0325 237.649 30.1926L236.749 29.9012C236.595 30.3469 236.235 30.6468 235.678 30.6468C235.018 30.6468 234.615 30.2355 234.555 29.5241H237.718C237.838 27.8786 237.075 26.893 235.695 26.893ZM235.669 27.7414C236.278 27.7414 236.646 28.1014 236.706 28.727H234.572C234.65 28.1357 235.018 27.7414 235.669 27.7414ZM240.801 26.893C240.253 26.893 239.876 27.0901 239.576 27.3986V26.9872H238.547V31.4268H239.576V29.087C239.576 28.3499 239.893 27.8014 240.553 27.8014C241.307 27.8014 241.315 28.4614 241.315 29.087V31.4268H242.344V29.0784C242.344 28.23 242.344 26.893 240.801 26.893ZM244.73 27.8357H245.502V26.9872H244.73V25.7702H243.702V26.9872H243.051V27.8357H243.702V30.484C243.702 31.1782 244.028 31.521 244.748 31.521C245.099 31.521 245.365 31.4696 245.57 31.4096V30.604C244.902 30.7154 244.73 30.6811 244.73 30.1583V27.8357ZM247.435 26.3702V25.376H246.389V26.3702H247.435ZM247.426 31.4268V26.9872H246.398V31.4268H247.426ZM250.366 31.521C251.695 31.521 252.509 30.604 252.509 29.1984C252.509 27.8014 251.695 26.893 250.366 26.893C249.046 26.893 248.232 27.8014 248.232 29.1984C248.232 30.604 249.046 31.521 250.366 31.521ZM250.366 30.6554C249.638 30.6554 249.252 30.0812 249.252 29.1984C249.252 28.3328 249.638 27.7586 250.375 27.7586C251.112 27.7586 251.497 28.3328 251.497 29.1984C251.497 30.064 251.112 30.6554 250.366 30.6554ZM255.54 26.893C254.992 26.893 254.614 27.0901 254.314 27.3986V26.9872H253.286V31.4268H254.314V29.087C254.314 28.3499 254.632 27.8014 255.292 27.8014C256.046 27.8014 256.054 28.4614 256.054 29.087V31.4268H257.083V29.0784C257.083 28.23 257.083 26.893 255.54 26.893Z" fill="#121212"/>
<path d="M223.175 47.9882L224.435 48.0011V46.9083C225.849 46.7669 226.981 45.8028 226.981 44.2858C226.981 42.486 225.682 41.9846 224.435 41.6246V39.0406C224.937 39.182 225.245 39.5806 225.335 40.2619H226.775C226.621 38.7321 225.682 37.8965 224.435 37.7422V36.7137H223.175V37.7165C221.826 37.8065 220.694 38.7707 220.694 40.1976C220.694 41.8817 221.941 42.396 223.175 42.7688V45.6228C222.52 45.4814 222.083 44.9414 222.031 44.1444H220.553C220.643 45.7256 221.71 46.7926 223.175 46.9083V47.9882ZM222.173 40.1077C222.173 39.4649 222.648 39.0663 223.175 38.9892V41.239C222.584 41.0076 222.173 40.699 222.173 40.1077ZM224.435 45.6356V43.1545C225.065 43.3987 225.515 43.7201 225.515 44.3501C225.515 45.1214 224.975 45.5328 224.435 45.6356ZM230.406 46.9212H230.907C232.527 46.9212 233.723 45.5842 233.723 43.8487C233.723 42.1132 232.733 40.7762 231.164 40.7762H230.753C230.059 40.7762 229.583 41.0975 229.21 41.5089L229.609 39.0792H233.247V37.8193H228.477L227.989 41.3161C227.899 41.9203 227.732 42.8845 227.732 42.8845H229.185C229.365 42.3446 229.84 41.9974 230.457 41.9974H230.92C231.73 41.9974 232.244 42.7688 232.244 43.8487C232.244 44.89 231.576 45.6613 230.92 45.6613H230.393C229.75 45.6613 229.146 45.1343 229.082 44.2215H227.68C227.706 45.7128 228.85 46.9212 230.406 46.9212ZM236.112 46.8184V44.5557L236.883 43.7973L238.966 46.8184H240.56L237.86 42.7817L240.341 40.3391H238.606L236.112 42.8202V37.6136H234.749V46.8184H236.112Z" fill="#464D41"/>
<path d="M432.927 25.376V31.4268H433.972V29.0527H435.172C436.595 29.0527 437.323 28.2985 437.323 27.1929C437.323 25.9845 436.492 25.376 435.172 25.376H432.927ZM433.972 28.11V26.3187H435.172C435.884 26.3187 436.261 26.6101 436.261 27.2015C436.261 27.7672 435.892 28.11 435.172 28.11H433.972ZM440.367 26.893C439.775 26.893 439.381 27.2186 439.192 27.5272V26.9872H438.164V31.4268H439.192V29.3098C439.192 28.29 439.621 27.87 440.367 27.87C440.512 27.87 440.658 27.8786 440.744 27.8871V26.953C440.641 26.9187 440.512 26.893 440.367 26.893ZM443.163 26.893C441.766 26.893 440.986 27.8443 440.986 29.2327C440.986 30.6383 441.817 31.521 443.12 31.521C444.071 31.521 444.843 31.0325 445.117 30.1926L444.217 29.9012C444.063 30.3469 443.703 30.6468 443.146 30.6468C442.486 30.6468 442.083 30.2355 442.023 29.5241H445.185C445.305 27.8786 444.543 26.893 443.163 26.893ZM443.137 27.7414C443.746 27.7414 444.114 28.1014 444.174 28.727H442.04C442.117 28.1357 442.486 27.7414 443.137 27.7414ZM450.883 26.9101C450.24 26.9101 449.794 27.1586 449.469 27.5443C449.22 27.1329 448.783 26.893 448.192 26.893C447.754 26.893 447.377 27.0472 447.043 27.3986V26.9872H446.015V31.4268H447.043V29.0356C447.043 28.2385 447.386 27.8014 447.926 27.8014C448.672 27.8014 448.672 28.5728 448.672 29.0527V31.4268H449.7V29.0527C449.7 28.23 450.043 27.8014 450.608 27.8014C451.328 27.8014 451.328 28.5471 451.328 29.0356V31.4268H452.357V29.0356C452.357 28.17 452.357 26.9101 450.883 26.9101ZM454.484 26.3702V25.376H453.438V26.3702H454.484ZM454.475 31.4268V26.9872H453.447V31.4268H454.475ZM458.281 29.3184C458.281 29.8755 458.109 30.6126 457.304 30.6126C456.601 30.6126 456.584 30.0812 456.584 29.3356V26.9872H455.555V29.4727C455.555 30.2783 455.555 31.521 457.055 31.521C457.724 31.521 458.109 31.2468 458.375 30.8525V31.4268H459.309V26.9872H458.281V29.3184ZM465.295 26.9101C464.652 26.9101 464.207 27.1586 463.881 27.5443C463.633 27.1329 463.195 26.893 462.604 26.893C462.167 26.893 461.79 27.0472 461.456 27.3986V26.9872H460.427V31.4268H461.456V29.0356C461.456 28.2385 461.798 27.8014 462.338 27.8014C463.084 27.8014 463.084 28.5728 463.084 29.0527V31.4268H464.112V29.0527C464.112 28.23 464.455 27.8014 465.021 27.8014C465.741 27.8014 465.741 28.5471 465.741 29.0356V31.4268H466.769V29.0356C466.769 28.17 466.769 26.9101 465.295 26.9101Z" fill="#121212"/>
<path d="M435.296 47.9882L436.556 48.0011V46.9083C437.97 46.7669 439.102 45.8028 439.102 44.2858C439.102 42.486 437.803 41.9846 436.556 41.6246V39.0406C437.058 39.182 437.366 39.5806 437.456 40.2619H438.896C438.742 38.7321 437.803 37.8965 436.556 37.7422V36.7137H435.296V37.7165C433.947 37.8065 432.815 38.7707 432.815 40.1976C432.815 41.8817 434.062 42.396 435.296 42.7688V45.6228C434.641 45.4814 434.204 44.9414 434.152 44.1444H432.674C432.764 45.7256 433.831 46.7926 435.296 46.9083V47.9882ZM434.294 40.1077C434.294 39.4649 434.769 39.0663 435.296 38.9892V41.239C434.705 41.0076 434.294 40.699 434.294 40.1077ZM436.556 45.6356V43.1545C437.186 43.3987 437.636 43.7201 437.636 44.3501C437.636 45.1214 437.096 45.5328 436.556 45.6356ZM442.527 46.9212H443.028C444.648 46.9212 445.844 45.5842 445.844 43.8487C445.844 42.1132 444.854 40.7762 443.285 40.7762H442.874C442.18 40.7762 441.704 41.0975 441.331 41.5089L441.73 39.0792H445.368V37.8193H440.599L440.11 41.3161C440.02 41.9203 439.853 42.8845 439.853 42.8845H441.306C441.486 42.3446 441.961 41.9974 442.578 41.9974H443.041C443.851 41.9974 444.365 42.7688 444.365 43.8487C444.365 44.89 443.697 45.6613 443.041 45.6613H442.514C441.871 45.6613 441.267 45.1343 441.203 44.2215H439.802C439.827 45.7128 440.971 46.9212 442.527 46.9212ZM449.724 46.9212H450.251C452.09 46.9212 453.337 45.0057 453.337 42.3188C453.337 39.632 452.09 37.7165 450.251 37.7165H449.724C447.937 37.7165 446.639 39.6191 446.639 42.3188C446.639 45.0186 447.937 46.9212 449.724 46.9212ZM448.117 42.3188C448.117 40.3648 448.812 38.9763 449.75 38.9763H450.213C451.203 38.9763 451.858 40.3648 451.858 42.3188C451.858 44.2729 451.203 45.6613 450.213 45.6613H449.75C448.812 45.6613 448.117 44.2729 448.117 42.3188ZM453.851 48.7724H454.726L455.433 46.7926V45.3014H453.929V46.8184L454.546 46.9469L453.851 48.7724ZM459.065 46.9212H459.592C461.431 46.9212 462.678 45.0057 462.678 42.3188C462.678 39.632 461.431 37.7165 459.592 37.7165H459.065C457.278 37.7165 455.98 39.6191 455.98 42.3188C455.98 45.0186 457.278 46.9212 459.065 46.9212ZM457.458 42.3188C457.458 40.3648 458.153 38.9763 459.091 38.9763H459.554C460.544 38.9763 461.199 40.3648 461.199 42.3188C461.199 44.2729 460.544 45.6613 459.554 45.6613H459.091C458.153 45.6613 457.458 44.2729 457.458 42.3188ZM466.642 46.9212H467.169C469.008 46.9212 470.255 45.0057 470.255 42.3188C470.255 39.632 469.008 37.7165 467.169 37.7165H466.642C464.855 37.7165 463.557 39.6191 463.557 42.3188C463.557 45.0186 464.855 46.9212 466.642 46.9212ZM465.035 42.3188C465.035 40.3648 465.729 38.9763 466.668 38.9763H467.131C468.121 38.9763 468.776 40.3648 468.776 42.3188C468.776 44.2729 468.121 45.6613 467.131 45.6613H466.668C465.729 45.6613 465.035 44.2729 465.035 42.3188ZM474.219 46.9212H474.746C476.584 46.9212 477.831 45.0057 477.831 42.3188C477.831 39.632 476.584 37.7165 474.746 37.7165H474.219C472.432 37.7165 471.134 39.6191 471.134 42.3188C471.134 45.0186 472.432 46.9212 474.219 46.9212ZM472.612 42.3188C472.612 40.3648 473.306 38.9763 474.245 38.9763H474.708C475.697 38.9763 476.353 40.3648 476.353 42.3188C476.353 44.2729 475.697 45.6613 474.708 45.6613H474.245C473.306 45.6613 472.612 44.2729 472.612 42.3188Z" fill="#464D41"/>
<line x1="21.4258" y1="72.0466" x2="479.412" y2="72.0466" stroke="#D7C9B1" stroke-width="0.535657"/>
<path d="M25.951 102.146L23.1142 97.6895H22.12V103.74H22.9513V99.0864L25.9424 103.74H26.7823V97.6895H25.951V102.146ZM30.8197 101.692C30.8197 102.412 30.4855 103.097 29.6884 103.097C28.8571 103.097 28.8399 102.463 28.8399 101.7V99.3007H28.0257V101.752C28.0257 102.6 28.0257 103.826 29.4999 103.826C30.1684 103.826 30.6055 103.535 30.8883 103.106V103.74H31.6339V99.3007H30.8197V101.692ZM37.6137 99.2236C36.9537 99.2236 36.4824 99.515 36.1567 99.9435C35.9081 99.4636 35.4453 99.215 34.8454 99.215C34.374 99.215 33.9626 99.4036 33.6112 99.7978V99.3007H32.797V103.74H33.6112V101.323C33.6112 100.441 34.0398 99.9435 34.6568 99.9435C35.5225 99.9435 35.5225 100.826 35.5225 101.358V103.74H36.3367V101.366C36.3367 100.432 36.7566 99.9435 37.4165 99.9435C38.2393 99.9435 38.2479 100.741 38.2479 101.332V103.74H39.0621V101.323C39.0621 100.492 39.0535 99.2236 37.6137 99.2236ZM42.4325 99.215C41.8583 99.215 41.3612 99.4293 41.0184 99.8749V97.6895H40.2042V103.74H41.0184V103.175C41.3783 103.637 41.824 103.826 42.3811 103.826C43.5381 103.826 44.2752 102.892 44.2752 101.503C44.2752 100.123 43.5295 99.215 42.4325 99.215ZM42.2525 103.123C41.4812 103.123 40.9927 102.54 40.9927 101.512C40.9927 100.483 41.4726 99.9178 42.2439 99.9178C42.981 99.9178 43.4438 100.535 43.4438 101.529C43.4438 102.532 42.9639 103.123 42.2525 103.123ZM46.9586 99.215C45.613 99.215 44.876 100.183 44.876 101.563C44.876 102.943 45.673 103.826 46.9243 103.826C47.8414 103.826 48.5784 103.329 48.8527 102.489L48.1413 102.249C47.9613 102.772 47.5585 103.115 46.95 103.115C46.1958 103.115 45.7673 102.635 45.7159 101.778H48.8955C49.0069 100.175 48.2785 99.215 46.9586 99.215ZM46.9243 99.9178C47.6357 99.9178 48.047 100.346 48.0899 101.101H45.7244C45.793 100.415 46.1787 99.9178 46.9243 99.9178ZM51.7929 99.215C51.193 99.215 50.7901 99.5664 50.6016 99.9006V99.3007H49.7874V103.74H50.6016V101.546C50.6016 100.449 51.0558 100.003 51.7843 100.003C51.93 100.003 52.0672 100.012 52.1529 100.021V99.2664C52.05 99.2407 51.9215 99.215 51.7929 99.215Z" fill="black"/>
<path d="M417.492 98.4437H420.628C419.36 99.7292 418.392 101.718 418.289 103.74H419.197C419.343 101.632 420.174 99.8235 421.537 98.4608V97.6895H417.492V98.4437ZM423.258 102.977C424.955 101.486 425.941 100.758 425.941 99.335C425.941 98.2637 425.255 97.6038 424.107 97.6038C422.787 97.6038 422.05 98.4694 422.084 99.9006L422.873 99.9778C422.881 98.915 423.318 98.3408 424.09 98.3408C424.75 98.3408 425.101 98.7608 425.101 99.3607C425.101 100.475 424.141 101.161 422.11 102.986V103.74H426.061V102.977H423.258ZM429.063 103.826C430.7 103.826 431.223 102.249 431.223 100.706C431.223 99.1636 430.717 97.6038 429.08 97.6038C427.461 97.6038 426.938 99.1636 426.938 100.706C426.938 102.249 427.443 103.826 429.063 103.826ZM429.063 103.115C428.181 103.115 427.761 102.172 427.761 100.681C427.761 99.1893 428.198 98.3151 429.08 98.3151C429.98 98.3151 430.392 99.1893 430.392 100.681C430.392 102.172 429.963 103.115 429.063 103.115ZM434.211 103.826C435.848 103.826 436.37 102.249 436.37 100.706C436.37 99.1636 435.865 97.6038 434.228 97.6038C432.608 97.6038 432.085 99.1636 432.085 100.706C432.085 102.249 432.591 103.826 434.211 103.826ZM434.211 103.115C433.328 103.115 432.908 102.172 432.908 100.681C432.908 99.1893 433.345 98.3151 434.228 98.3151C435.128 98.3151 435.539 99.1893 435.539 100.681C435.539 102.172 435.11 103.115 434.211 103.115ZM439.358 103.826C440.995 103.826 441.518 102.249 441.518 100.706C441.518 99.1636 441.012 97.6038 439.375 97.6038C437.755 97.6038 437.232 99.1636 437.232 100.706C437.232 102.249 437.738 103.826 439.358 103.826ZM439.358 103.115C438.475 103.115 438.055 102.172 438.055 100.681C438.055 99.1893 438.492 98.3151 439.375 98.3151C440.275 98.3151 440.686 99.1893 440.686 100.681C440.686 102.172 440.258 103.115 439.358 103.115ZM444.505 103.826C446.142 103.826 446.665 102.249 446.665 100.706C446.665 99.1636 446.159 97.6038 444.522 97.6038C442.903 97.6038 442.38 99.1636 442.38 100.706C442.38 102.249 442.885 103.826 444.505 103.826ZM444.505 103.115C443.622 103.115 443.203 102.172 443.203 100.681C443.203 99.1893 443.64 98.3151 444.522 98.3151C445.422 98.3151 445.834 99.1893 445.834 100.681C445.834 102.172 445.405 103.115 444.505 103.115ZM449.747 101.829V101.075H447.459V101.829H449.747ZM453.745 100.449C454.208 100.209 454.5 99.7635 454.5 99.1807C454.5 98.3065 453.814 97.6038 452.674 97.6038C451.526 97.6038 450.84 98.3065 450.84 99.1807C450.84 99.7635 451.131 100.209 451.594 100.449C450.994 100.706 450.583 101.289 450.583 102.018C450.583 103.08 451.44 103.826 452.674 103.826C453.908 103.826 454.757 103.08 454.757 102.018C454.757 101.289 454.354 100.706 453.745 100.449ZM452.674 98.3151C453.283 98.3151 453.668 98.6322 453.668 99.1979C453.668 99.7635 453.274 100.141 452.674 100.141C452.074 100.141 451.671 99.7635 451.671 99.1979C451.671 98.6322 452.065 98.3151 452.674 98.3151ZM452.674 103.097C451.911 103.097 451.423 102.686 451.423 102C451.423 101.298 451.928 100.869 452.674 100.869C453.42 100.869 453.925 101.298 453.925 102C453.925 102.686 453.437 103.097 452.674 103.097ZM458.97 101.632V97.6895H458.259L455.628 101.615V102.378H458.148V103.74H458.97V102.378H459.819V101.632H458.97ZM458.148 99.1207V101.632H456.485L458.148 99.1207ZM462.77 101.829V101.075H460.482V101.829H462.77ZM465.697 103.826C467.334 103.826 467.857 102.249 467.857 100.706C467.857 99.1636 467.351 97.6038 465.714 97.6038C464.094 97.6038 463.572 99.1636 463.572 100.706C463.572 102.249 464.077 103.826 465.697 103.826ZM465.697 103.115C464.814 103.115 464.394 102.172 464.394 100.681C464.394 99.1893 464.832 98.3151 465.714 98.3151C466.614 98.3151 467.026 99.1893 467.026 100.681C467.026 102.172 466.597 103.115 465.697 103.115ZM470.844 103.826C472.481 103.826 473.004 102.249 473.004 100.706C473.004 99.1636 472.499 97.6038 470.862 97.6038C469.242 97.6038 468.719 99.1636 468.719 100.706C468.719 102.249 469.225 103.826 470.844 103.826ZM470.844 103.115C469.962 103.115 469.542 102.172 469.542 100.681C469.542 99.1893 469.979 98.3151 470.862 98.3151C471.762 98.3151 472.173 99.1893 472.173 100.681C472.173 102.172 471.744 103.115 470.844 103.115ZM475.992 103.826C477.629 103.826 478.152 102.249 478.152 100.706C478.152 99.1636 477.646 97.6038 476.009 97.6038C474.389 97.6038 473.866 99.1636 473.866 100.706C473.866 102.249 474.372 103.826 475.992 103.826ZM475.992 103.115C475.109 103.115 474.689 102.172 474.689 100.681C474.689 99.1893 475.126 98.3151 476.009 98.3151C476.909 98.3151 477.32 99.1893 477.32 100.681C477.32 102.172 476.892 103.115 475.992 103.115Z" fill="black"/>
<path d="M24.1255 127.395C25.5396 127.395 26.251 126.675 26.251 125.621C26.251 123.307 22.8142 124.207 22.8142 122.776C22.8142 122.236 23.2856 121.902 24.0141 121.902C24.8026 121.902 25.2139 122.322 25.3939 123.024L26.1738 122.776C25.9939 121.739 25.1797 121.173 24.0741 121.173C22.7542 121.173 21.9572 121.816 21.9572 122.853C21.9572 124.996 25.3939 124.138 25.3939 125.664C25.3939 126.247 24.9397 126.65 24.1341 126.65C23.1827 126.65 22.7199 126.11 22.6085 125.27L21.76 125.45C21.9143 126.735 22.8142 127.395 24.1255 127.395ZM28.3474 123.556H29.213V122.87H28.3474V121.653H27.5332V122.87H26.8133V123.556H27.5332V126.367C27.5332 127.052 27.8246 127.395 28.4931 127.395C28.8188 127.395 29.0759 127.344 29.2816 127.275V126.615C28.5445 126.761 28.3474 126.727 28.3474 126.101V123.556ZM33.59 127.31C33.4786 126.821 33.4529 126.444 33.4529 126.015V124.584C33.4529 123.813 33.3929 122.784 31.7988 122.784C30.7875 122.784 30.0761 123.239 29.9733 124.276L30.7875 124.301C30.8389 123.744 31.1388 123.479 31.7559 123.479C32.4501 123.479 32.6558 123.77 32.6558 124.138C32.6558 124.421 32.5444 124.464 32.313 124.498L31.1988 124.704C30.3846 124.85 29.8533 125.218 29.8533 126.024C29.8533 126.872 30.4532 127.395 31.3617 127.395C31.9702 127.395 32.4416 127.164 32.7072 126.804C32.733 127.027 32.793 127.207 32.8444 127.31H33.59ZM31.4988 126.692C31.0274 126.692 30.6846 126.461 30.6846 126.033C30.6846 125.741 30.8217 125.467 31.4645 125.347L32.2959 125.184C32.433 125.15 32.553 125.124 32.6558 125.081V125.441C32.6558 126.315 32.1073 126.692 31.4988 126.692ZM36.5267 122.784C35.9267 122.784 35.5239 123.136 35.3354 123.47V122.87H34.5212V127.31H35.3354V125.116C35.3354 124.018 35.7896 123.573 36.5181 123.573C36.6638 123.573 36.8009 123.581 36.8866 123.59V122.836C36.7838 122.81 36.6552 122.784 36.5267 122.784ZM38.9183 123.556H39.7839V122.87H38.9183V121.653H38.1041V122.87H37.3841V123.556H38.1041V126.367C38.1041 127.052 38.3955 127.395 39.064 127.395C39.3896 127.395 39.6467 127.344 39.8524 127.275V126.615C39.1154 126.761 38.9183 126.727 38.9183 126.101V123.556Z" fill="black"/>
<path d="M436.981 127.395C438.618 127.395 439.14 125.818 439.14 124.276C439.14 122.733 438.635 121.173 436.998 121.173C435.378 121.173 434.855 122.733 434.855 124.276C434.855 125.818 435.361 127.395 436.981 127.395ZM436.981 126.684C436.098 126.684 435.678 125.741 435.678 124.25C435.678 122.759 436.115 121.884 436.998 121.884C437.898 121.884 438.309 122.759 438.309 124.25C438.309 125.741 437.88 126.684 436.981 126.684ZM441.94 127.31V121.259H441.298C441.143 121.996 440.689 122.287 439.849 122.313V122.939H441.109V127.31H441.94ZM445.311 125.398V124.644H443.022V125.398H445.311ZM448.238 127.395C449.875 127.395 450.397 125.818 450.397 124.276C450.397 122.733 449.892 121.173 448.255 121.173C446.635 121.173 446.112 122.733 446.112 124.276C446.112 125.818 446.618 127.395 448.238 127.395ZM448.238 126.684C447.355 126.684 446.935 125.741 446.935 124.25C446.935 122.759 447.372 121.884 448.255 121.884C449.155 121.884 449.566 122.759 449.566 124.25C449.566 125.741 449.138 126.684 448.238 126.684ZM452.468 126.547C454.165 125.056 455.151 124.327 455.151 122.904C455.151 121.833 454.465 121.173 453.316 121.173C451.997 121.173 451.26 122.039 451.294 123.47L452.082 123.547C452.091 122.484 452.528 121.91 453.299 121.91C453.959 121.91 454.311 122.33 454.311 122.93C454.311 124.044 453.351 124.73 451.32 126.555V127.31H455.271V126.547H452.468ZM458.367 125.398V124.644H456.079V125.398H458.367ZM460.377 126.547C462.074 125.056 463.06 124.327 463.06 122.904C463.06 121.833 462.374 121.173 461.226 121.173C459.906 121.173 459.169 122.039 459.203 123.47L459.992 123.547C460 122.484 460.437 121.91 461.209 121.91C461.869 121.91 462.22 122.33 462.22 122.93C462.22 124.044 461.26 124.73 459.229 126.555V127.31H463.18V126.547H460.377ZM466.182 127.395C467.819 127.395 468.342 125.818 468.342 124.276C468.342 122.733 467.836 121.173 466.199 121.173C464.58 121.173 464.057 122.733 464.057 124.276C464.057 125.818 464.562 127.395 466.182 127.395ZM466.182 126.684C465.299 126.684 464.879 125.741 464.879 124.25C464.879 122.759 465.317 121.884 466.199 121.884C467.099 121.884 467.511 122.759 467.511 124.25C467.511 125.741 467.082 126.684 466.182 126.684ZM470.412 126.547C472.109 125.056 473.095 124.327 473.095 122.904C473.095 121.833 472.409 121.173 471.261 121.173C469.941 121.173 469.204 122.039 469.238 123.47L470.027 123.547C470.035 122.484 470.472 121.91 471.244 121.91C471.904 121.91 472.255 122.33 472.255 122.93C472.255 124.044 471.295 124.73 469.264 126.555V127.31H473.215V126.547H470.412ZM477.34 124.036C477.76 123.839 478.086 123.341 478.086 122.724C478.086 121.824 477.409 121.173 476.286 121.173C475.12 121.173 474.349 121.867 474.272 123.016L475.069 123.153C475.146 122.33 475.575 121.902 476.286 121.902C476.877 121.902 477.263 122.253 477.263 122.784C477.263 123.384 476.877 123.727 476.183 123.727H475.746V124.447C475.9 124.43 476.012 124.43 476.209 124.43C476.989 124.43 477.46 124.858 477.46 125.544C477.46 126.247 476.989 126.667 476.269 126.667C475.455 126.667 474.958 126.161 474.906 125.227L474.092 125.364C474.126 126.59 474.949 127.395 476.243 127.395C477.46 127.395 478.291 126.675 478.291 125.544C478.291 124.85 477.966 124.233 477.34 124.036Z" fill="black"/>
<path d="M22.9513 148.118H25.8996V147.364H22.9513V145.581H26.2081V144.827H22.12V150.878H26.3195V150.124H22.9513V148.118ZM29.4159 146.353C28.8331 146.353 28.4046 146.576 28.0789 146.944V146.438H27.2647V150.878H28.0789V148.478C28.0789 147.647 28.5246 147.081 29.2274 147.081C30.093 147.081 30.1015 147.827 30.1015 148.538V150.878H30.9157V148.521C30.9157 147.681 30.9157 146.353 29.4159 146.353ZM35.0175 146.944C34.7261 146.576 34.2719 146.353 33.6463 146.353C32.5921 146.353 31.7607 147.175 31.7607 148.65C31.7607 150.107 32.5321 150.964 33.6463 150.964C34.2548 150.964 34.709 150.749 35.0261 150.304V150.878H35.8317V144.827H35.0175V146.944ZM33.792 150.261C33.0292 150.261 32.5664 149.669 32.5664 148.667C32.5664 147.681 33.0292 147.055 33.8005 147.055C34.5547 147.055 35.0432 147.647 35.0432 148.65C35.0432 149.661 34.5719 150.261 33.792 150.261Z" fill="black"/>
<path d="M437.516 150.964C439.153 150.964 439.675 149.387 439.675 147.844C439.675 146.301 439.17 144.741 437.533 144.741C435.913 144.741 435.39 146.301 435.39 147.844C435.39 149.387 435.896 150.964 437.516 150.964ZM437.516 150.252C436.633 150.252 436.213 149.31 436.213 147.818C436.213 146.327 436.65 145.453 437.533 145.453C438.433 145.453 438.844 146.327 438.844 147.818C438.844 149.31 438.416 150.252 437.516 150.252ZM442.475 150.878V144.827H441.833C441.678 145.564 441.224 145.856 440.384 145.881V146.507H441.644V150.878H442.475ZM445.846 148.967V148.213H443.557V148.967H445.846ZM448.773 150.964C450.41 150.964 450.933 149.387 450.933 147.844C450.933 146.301 450.427 144.741 448.79 144.741C447.17 144.741 446.647 146.301 446.647 147.844C446.647 149.387 447.153 150.964 448.773 150.964ZM448.773 150.252C447.89 150.252 447.47 149.31 447.47 147.818C447.47 146.327 447.907 145.453 448.79 145.453C449.69 145.453 450.101 146.327 450.101 147.818C450.101 149.31 449.673 150.252 448.773 150.252ZM453.003 150.115C454.7 148.624 455.686 147.895 455.686 146.473C455.686 145.401 455 144.741 453.852 144.741C452.532 144.741 451.795 145.607 451.829 147.038L452.617 147.115C452.626 146.053 453.063 145.479 453.834 145.479C454.494 145.479 454.846 145.898 454.846 146.498C454.846 147.613 453.886 148.298 451.855 150.124V150.878H455.806V150.115H453.003ZM458.902 148.967V148.213H456.614V148.967H458.902ZM460.912 150.115C462.609 148.624 463.595 147.895 463.595 146.473C463.595 145.401 462.909 144.741 461.761 144.741C460.441 144.741 459.704 145.607 459.738 147.038L460.527 147.115C460.535 146.053 460.972 145.479 461.744 145.479C462.404 145.479 462.755 145.898 462.755 146.498C462.755 147.613 461.795 148.298 459.764 150.124V150.878H463.715V150.115H460.912ZM466.717 150.964C468.354 150.964 468.877 149.387 468.877 147.844C468.877 146.301 468.371 144.741 466.735 144.741C465.115 144.741 464.592 146.301 464.592 147.844C464.592 149.387 465.098 150.964 466.717 150.964ZM466.717 150.252C465.835 150.252 465.415 149.31 465.415 147.818C465.415 146.327 465.852 145.453 466.735 145.453C467.634 145.453 468.046 146.327 468.046 147.818C468.046 149.31 467.617 150.252 466.717 150.252ZM470.948 150.115C472.645 148.624 473.63 147.895 473.63 146.473C473.63 145.401 472.945 144.741 471.796 144.741C470.476 144.741 469.739 145.607 469.773 147.038L470.562 147.115C470.571 146.053 471.008 145.479 471.779 145.479C472.439 145.479 472.79 145.898 472.79 146.498C472.79 147.613 471.83 148.298 469.799 150.124V150.878H473.75V150.115H470.948ZM477.793 148.77V144.827H477.081L474.45 148.752V149.515H476.97V150.878H477.793V149.515H478.641V148.77H477.793ZM476.97 146.258V148.77H475.307L476.97 146.258Z" fill="black"/>
<path d="M27.228 173.11L25.9767 168.396H25.1711L23.9284 173.102L22.4628 168.396H21.5629L23.5341 174.447H24.3398L25.5825 169.853L26.8166 174.447H27.6137L29.5849 168.396H28.7021L27.228 173.11ZM33.431 174.447C33.3196 173.959 33.2939 173.582 33.2939 173.153V171.722C33.2939 170.95 33.2339 169.922 31.6398 169.922C30.6284 169.922 29.9171 170.376 29.8142 171.413L30.6284 171.439C30.6799 170.882 30.9798 170.616 31.5969 170.616C32.2911 170.616 32.4968 170.908 32.4968 171.276C32.4968 171.559 32.3854 171.602 32.154 171.636L31.0398 171.842C30.2256 171.988 29.6942 172.356 29.6942 173.162C29.6942 174.01 30.2942 174.533 31.2027 174.533C31.8112 174.533 32.2825 174.302 32.5482 173.942C32.5739 174.164 32.6339 174.344 32.6854 174.447H33.431ZM31.3398 173.83C30.8684 173.83 30.5256 173.599 30.5256 173.17C30.5256 172.879 30.6627 172.605 31.3055 172.485L32.1368 172.322C32.274 172.287 32.394 172.262 32.4968 172.219V172.579C32.4968 173.453 31.9483 173.83 31.3398 173.83ZM35.1935 169.305V168.396H34.345V169.305H35.1935ZM35.1764 174.447V170.008H34.3622V174.447H35.1764ZM37.5456 170.693H38.4113V170.008H37.5456V168.791H36.7314V170.008H36.0115V170.693H36.7314V173.505C36.7314 174.19 37.0228 174.533 37.6913 174.533C38.017 174.533 38.2741 174.482 38.4798 174.413V173.753C37.7428 173.899 37.5456 173.864 37.5456 173.239V170.693ZM40.1818 169.305V168.396H39.3333V169.305H40.1818ZM40.1647 174.447V170.008H39.3505V174.447H40.1647ZM43.4853 169.922C42.9025 169.922 42.4739 170.145 42.1483 170.513V170.008H41.3341V174.447H42.1483V172.048C42.1483 171.216 42.5939 170.651 43.2967 170.651C44.1623 170.651 44.1709 171.396 44.1709 172.108V174.447H44.9851V172.09C44.9851 171.25 44.9851 169.922 43.4853 169.922ZM49.1297 170.488C48.8983 170.205 48.4698 169.922 47.8185 169.922C46.6014 169.922 45.8987 170.856 45.8987 172.09C45.8987 173.462 46.7214 174.293 47.827 174.293C48.427 174.293 48.8898 174.07 49.1469 173.702V173.984C49.1469 174.61 49.0183 175.381 47.9984 175.381C47.3214 175.381 46.9614 175.021 46.79 174.439L46.0358 174.593C46.2501 175.527 46.85 176.067 48.007 176.067C49.7811 176.067 49.9439 174.687 49.9439 173.787V170.008H49.1297V170.488ZM47.9556 173.59C47.1414 173.59 46.6957 173.042 46.6957 172.09C46.6957 171.208 47.1414 170.625 47.8956 170.625C48.6584 170.625 49.1555 171.182 49.1555 172.108C49.1555 173.059 48.7441 173.59 47.9556 173.59Z" fill="black"/>
<path d="M448.083 174.447V168.396H447.44C447.286 169.134 446.832 169.425 445.992 169.451V170.076H447.252V174.447H448.083ZM451.359 174.533C452.996 174.533 453.519 172.956 453.519 171.413C453.519 169.871 453.013 168.311 451.376 168.311C449.756 168.311 449.233 169.871 449.233 171.413C449.233 172.956 449.739 174.533 451.359 174.533ZM451.359 173.822C450.476 173.822 450.056 172.879 450.056 171.388C450.056 169.896 450.493 169.022 451.376 169.022C452.276 169.022 452.687 169.896 452.687 171.388C452.687 172.879 452.259 173.822 451.359 173.822ZM460.627 170.925H457.67V168.396H456.839V174.447H457.67V171.679H460.627V174.447H461.459V168.396H460.627V170.925ZM464.528 174.533C465.831 174.533 466.62 173.599 466.62 172.219C466.62 170.848 465.831 169.922 464.528 169.922C463.234 169.922 462.437 170.848 462.437 172.219C462.437 173.599 463.234 174.533 464.528 174.533ZM464.528 173.83C463.689 173.83 463.251 173.145 463.251 172.219C463.251 171.31 463.689 170.625 464.537 170.625C465.385 170.625 465.814 171.302 465.814 172.21C465.814 173.119 465.394 173.83 464.528 173.83ZM470.268 172.399C470.268 173.119 469.933 173.804 469.136 173.804C468.305 173.804 468.288 173.17 468.288 172.407V170.008H467.474V172.459C467.474 173.307 467.474 174.533 468.948 174.533C469.616 174.533 470.053 174.242 470.336 173.813V174.447H471.082V170.008H470.268V172.399ZM474.25 169.922C473.65 169.922 473.248 170.273 473.059 170.608V170.008H472.245V174.447H473.059V172.253C473.059 171.156 473.513 170.711 474.242 170.711C474.388 170.711 474.525 170.719 474.61 170.728V169.973C474.508 169.948 474.379 169.922 474.25 169.922ZM476.682 174.533C477.66 174.533 478.431 174.087 478.431 173.196C478.431 171.55 475.86 172.09 475.86 171.148C475.86 170.728 476.254 170.599 476.665 170.599C477.248 170.599 477.565 170.899 477.591 171.396L478.337 171.259C478.311 170.393 477.651 169.922 476.682 169.922C475.834 169.922 475.054 170.299 475.054 171.182C475.054 172.785 477.634 172.219 477.634 173.239C477.634 173.642 477.274 173.864 476.725 173.864C476.108 173.864 475.705 173.565 475.628 172.887L474.891 173.05C474.96 174.002 475.654 174.533 476.682 174.533Z" fill="black"/>
<rect x="0.5" y="231.876" width="208.523" height="216.366" rx="7.11732" fill="white"/>
<path d="M103.931 249.968C119.735 249.857 135.285 253.939 148.996 261.798C162.708 269.657 174.089 281.012 181.98 294.705C189.871 308.398 193.99 323.938 193.915 339.742C193.841 355.546 189.576 371.047 181.556 384.665L170.777 378.317C177.674 366.606 181.341 353.274 181.405 339.683C181.47 326.092 177.928 312.727 171.141 300.951C164.355 289.175 154.567 279.41 142.775 272.651C130.984 265.892 117.611 262.382 104.02 262.477L103.931 249.968Z" fill="#4D5133"/>
<path d="M180.602 386.247C170.374 402.821 155.011 415.6 136.851 422.638C118.692 429.676 98.7295 430.589 80.0034 425.236L83.4414 413.208C99.5458 417.811 116.713 417.027 132.331 410.974C147.948 404.921 161.16 393.931 169.957 379.678L180.602 386.247Z" fill="#CCD055"/>
<path d="M77.4984 424.48C54.9129 417.303 36.1035 401.447 25.2083 380.402L36.3176 374.651C45.6875 392.75 61.8635 406.385 81.2871 412.558L77.4984 424.48Z" fill="#CFF1B2"/>
<path d="M24.1482 378.286C17.8403 365.268 14.7871 350.914 15.251 336.455C15.715 321.997 19.6821 307.868 26.8117 295.281L37.6965 301.447C31.5651 312.271 28.1534 324.423 27.7544 336.857C27.3554 349.291 29.9811 361.636 35.4059 372.831L24.1482 378.286Z" fill="#F99E67"/>
<path d="M27.9004 293.412C35.6175 280.526 46.4585 269.793 59.4215 262.205C72.3844 254.618 87.051 250.42 102.065 250.001L102.415 262.505C89.5023 262.866 76.8891 266.476 65.741 273.002C54.5928 279.527 45.2695 288.757 38.6328 299.84L27.9004 293.412Z" fill="#E9E4E0"/>
<path d="M77.6101 338.861L79.7881 338.884V336.994C82.2328 336.75 84.1885 335.083 84.1885 332.461C84.1885 329.349 81.9438 328.483 79.7881 327.86V323.393C80.6548 323.638 81.1882 324.327 81.3438 325.504H83.8329C83.5662 322.86 81.9438 321.415 79.7881 321.148V319.371H77.6101V321.104C75.2765 321.26 73.3208 322.926 73.3208 325.393C73.3208 328.305 75.4765 329.194 77.6101 329.838V334.772C76.4766 334.528 75.721 333.594 75.6321 332.216H73.0763C73.2319 334.95 75.0765 336.794 77.6101 336.994V338.861ZM75.8766 325.238C75.8766 324.127 76.6989 323.438 77.6101 323.304V327.193C76.5878 326.793 75.8766 326.26 75.8766 325.238ZM79.7881 334.794V330.505C80.8771 330.927 81.6549 331.483 81.6549 332.572C81.6549 333.905 80.7215 334.616 79.7881 334.794ZM86.5337 336.839H89.2006L94.9123 323.26V321.282H84.7557V323.46H92.1564L86.5337 336.839ZM94.1358 340.217H95.6471L96.8694 336.794V334.216H94.2692V336.839L95.3359 337.061L94.1358 340.217ZM103.149 337.017H104.061C107.239 337.017 109.394 333.705 109.394 329.06C109.394 324.415 107.239 321.104 104.061 321.104H103.149C100.06 321.104 97.8155 324.393 97.8155 329.06C97.8155 333.727 100.06 337.017 103.149 337.017ZM100.371 329.06C100.371 325.682 101.571 323.282 103.194 323.282H103.994C105.705 323.282 106.839 325.682 106.839 329.06C106.839 332.438 105.705 334.839 103.994 334.839H103.194C101.571 334.839 100.371 332.438 100.371 329.06ZM116.248 337.017H117.159C120.337 337.017 122.493 333.705 122.493 329.06C122.493 324.415 120.337 321.104 117.159 321.104H116.248C113.159 321.104 110.914 324.393 110.914 329.06C110.914 333.727 113.159 337.017 116.248 337.017ZM113.47 329.06C113.47 325.682 114.67 323.282 116.292 323.282H117.092C118.804 323.282 119.937 325.682 119.937 329.06C119.937 332.438 118.804 334.839 117.092 334.839H116.292C114.67 334.839 113.47 332.438 113.47 329.06ZM129.346 337.017H130.258C133.436 337.017 135.591 333.705 135.591 329.06C135.591 324.415 133.436 321.104 130.258 321.104H129.346C126.257 321.104 124.012 324.393 124.012 329.06C124.012 333.727 126.257 337.017 129.346 337.017ZM126.568 329.06C126.568 325.682 127.768 323.282 129.391 323.282H130.191C131.902 323.282 133.036 325.682 133.036 329.06C133.036 332.438 131.902 334.839 130.191 334.839H129.391C127.768 334.839 126.568 332.438 126.568 329.06Z" fill="black"/>
<path d="M37.143 351.231V361.691H38.5802V357.395H40.847C43.2028 357.395 44.4029 356.12 44.4029 354.298C44.4029 352.239 43.0695 351.231 40.847 351.231H37.143ZM38.5802 356.106V352.535H40.847C42.2101 352.535 42.9361 353.098 42.9361 354.313C42.9361 355.409 42.225 356.106 40.847 356.106H38.5802ZM48.7576 361.84C51.0097 361.84 52.3728 360.225 52.3728 357.839C52.3728 355.469 51.0097 353.868 48.7576 353.868C46.5204 353.868 45.1425 355.469 45.1425 357.839C45.1425 360.225 46.5204 361.84 48.7576 361.84ZM48.7576 360.625C47.3057 360.625 46.55 359.439 46.55 357.839C46.55 356.269 47.3057 355.083 48.7725 355.083C50.2393 355.083 50.9801 356.254 50.9801 357.824C50.9801 359.395 50.2541 360.625 48.7576 360.625ZM55.2288 361.691V351.231H53.8212V361.691H55.2288ZM58.6875 352.802V351.231H57.2207V352.802H58.6875ZM58.6579 361.691V354.017H57.2504V361.691H58.6579ZM63.702 361.84C65.3614 361.84 66.4875 361.025 66.9616 359.528L65.7319 359.113C65.4207 359.928 64.8577 360.61 63.7613 360.61C62.413 360.61 61.6129 359.528 61.6129 357.81C61.6129 356.106 62.4723 355.083 63.7465 355.083C64.7095 355.083 65.3466 355.661 65.6874 356.506L66.8875 356.032C66.3541 354.654 65.1985 353.868 63.702 353.868C61.7167 353.868 60.1758 355.32 60.1758 357.869C60.1758 360.388 61.5685 361.84 63.702 361.84ZM71.0453 359.484L69.1933 354.017H67.6524L70.349 361.469L70.1119 362.077C69.786 362.936 69.5341 363.203 68.7192 363.203C68.3784 363.203 68.0673 363.158 67.7265 363.099L67.6969 364.358C67.9784 364.432 68.3932 364.506 68.9266 364.506C69.9489 364.506 70.7194 364.151 71.2379 362.758L74.4975 354.017H73.0011L71.0453 359.484ZM81.119 361.691V351.231H79.6818V361.691H81.119ZM91.6357 353.883C90.4949 353.883 89.68 354.387 89.117 355.128C88.6873 354.298 87.8872 353.868 86.8501 353.868C86.0352 353.868 85.324 354.194 84.7166 354.876V354.017H83.309V361.691H84.7166V357.513C84.7166 355.987 85.4574 355.128 86.5241 355.128C88.0206 355.128 88.0206 356.654 88.0206 357.572V361.691H89.4281V357.587C89.4281 355.972 90.1541 355.128 91.295 355.128C92.7173 355.128 92.7321 356.506 92.7321 357.528V361.691H94.1397V357.513C94.1397 356.076 94.1249 353.883 91.6357 353.883ZM99.8774 353.868C98.8699 353.868 98.0698 354.298 97.5216 355.024V354.017H96.1141V364.358H97.5216V360.817C98.0254 361.454 98.8254 361.84 99.8181 361.84C101.729 361.84 103.137 360.402 103.137 357.81C103.137 355.38 101.818 353.868 99.8774 353.868ZM99.6255 360.625C98.3217 360.625 97.4772 359.602 97.4772 357.854C97.4772 356.12 98.3069 355.083 99.6403 355.083C100.959 355.083 101.759 356.106 101.759 357.839C101.759 359.543 100.959 360.625 99.6255 360.625ZM108.06 353.868C107.023 353.868 106.326 354.476 106 355.054V354.017H104.593V361.691H106V357.898C106 356.002 106.786 355.232 108.045 355.232C108.297 355.232 108.534 355.246 108.682 355.261V353.957C108.504 353.913 108.282 353.868 108.06 353.868ZM112.74 361.84C114.992 361.84 116.355 360.225 116.355 357.839C116.355 355.469 114.992 353.868 112.74 353.868C110.502 353.868 109.124 355.469 109.124 357.839C109.124 360.225 110.502 361.84 112.74 361.84ZM112.74 360.625C111.288 360.625 110.532 359.439 110.532 357.839C110.532 356.269 111.288 355.083 112.754 355.083C114.221 355.083 114.962 356.254 114.962 357.824C114.962 359.395 114.236 360.625 112.74 360.625ZM120.324 359.617L118.472 354.017H116.886L119.612 361.691H120.975L123.761 354.017H122.235L120.324 359.617ZM127.903 353.868C125.577 353.868 124.302 355.543 124.302 357.928C124.302 360.313 125.68 361.84 127.843 361.84C129.429 361.84 130.703 360.98 131.177 359.528L129.947 359.113C129.636 360.017 128.94 360.61 127.888 360.61C126.584 360.61 125.843 359.78 125.754 358.298H131.251C131.444 355.528 130.184 353.868 127.903 353.868ZM127.843 355.083C129.073 355.083 129.784 355.824 129.858 357.128H125.769C125.888 355.943 126.554 355.083 127.843 355.083ZM141.12 353.883C139.979 353.883 139.164 354.387 138.601 355.128C138.171 354.298 137.371 353.868 136.334 353.868C135.519 353.868 134.808 354.194 134.2 354.876V354.017H132.793V361.691H134.2V357.513C134.2 355.987 134.941 355.128 136.008 355.128C137.505 355.128 137.505 356.654 137.505 357.572V361.691H138.912V357.587C138.912 355.972 139.638 355.128 140.779 355.128C142.201 355.128 142.216 356.506 142.216 357.528V361.691H143.624V357.513C143.624 356.076 143.609 353.883 141.12 353.883ZM148.695 353.868C146.368 353.868 145.094 355.543 145.094 357.928C145.094 360.313 146.472 361.84 148.635 361.84C150.221 361.84 151.495 360.98 151.969 359.528L150.739 359.113C150.428 360.017 149.732 360.61 148.68 360.61C147.376 360.61 146.635 359.78 146.546 358.298H152.043C152.236 355.528 150.976 353.868 148.695 353.868ZM148.635 355.083C149.865 355.083 150.576 355.824 150.65 357.128H146.561C146.68 355.943 147.346 355.083 148.635 355.083ZM157.304 353.868C156.296 353.868 155.555 354.254 154.992 354.891V354.017H153.585V361.691H154.992V357.543C154.992 356.106 155.763 355.128 156.978 355.128C158.474 355.128 158.489 356.417 158.489 357.647V361.691H159.897V357.617C159.897 356.165 159.897 353.868 157.304 353.868ZM163.82 355.202H165.316V354.017H163.82V351.913H162.412V354.017H161.168V355.202H162.412V360.062C162.412 361.247 162.916 361.84 164.072 361.84C164.635 361.84 165.079 361.751 165.435 361.632V360.491C164.16 360.743 163.82 360.684 163.82 359.602V355.202ZM169.46 361.84C171.149 361.84 172.483 361.069 172.483 359.528C172.483 356.684 168.038 357.617 168.038 355.987C168.038 355.261 168.719 355.039 169.431 355.039C170.438 355.039 170.986 355.557 171.031 356.417L172.32 356.18C172.275 354.683 171.134 353.868 169.46 353.868C167.993 353.868 166.645 354.52 166.645 356.046C166.645 358.817 171.105 357.839 171.105 359.602C171.105 360.299 170.483 360.684 169.534 360.684C168.468 360.684 167.771 360.165 167.638 358.995L166.364 359.276C166.482 360.921 167.682 361.84 169.46 361.84Z" fill="black" fill-opacity="0.6"/>
<rect x="0.5" y="231.876" width="208.523" height="216.366" rx="7.11732" stroke="black"/>
<rect x="228.512" y="231.876" width="271.828" height="216.366" rx="7.11732" fill="white" stroke="black"/>
<path d="M248.59 258.294C250.294 258.294 251.423 257.406 251.736 255.984L250.526 255.783C250.314 256.61 249.669 257.174 248.61 257.174C247.188 257.174 246.432 256.136 246.432 254.623C246.432 253.08 247.228 252.072 248.62 252.072C249.528 252.072 250.123 252.505 250.425 253.201L251.575 252.838C251.161 251.668 250.082 250.952 248.6 250.952C246.482 250.952 245.171 252.425 245.171 254.673C245.171 256.882 246.432 258.294 248.59 258.294ZM254.599 256.367L253.449 252.959H252.158L253.993 258.062L253.862 258.425C253.691 258.858 253.52 259.01 253.025 259.01C252.793 259.01 252.562 258.979 252.33 258.939L252.309 259.998C252.511 260.048 252.814 260.109 253.207 260.109C253.903 260.109 254.488 259.877 254.82 258.979L257.069 252.959H255.788L254.599 256.367ZM260.546 252.848C259.911 252.848 259.356 253.1 259.003 253.514V251.063H257.793V258.183H259.003V257.608C259.387 258.072 259.891 258.294 260.496 258.294C261.827 258.294 262.734 257.184 262.734 255.551C262.734 253.917 261.827 252.848 260.546 252.848ZM260.254 257.275C259.467 257.275 258.973 256.65 258.973 255.561C258.973 254.482 259.457 253.867 260.244 253.867C261.02 253.867 261.504 254.522 261.504 255.581C261.504 256.65 261 257.275 260.254 257.275ZM265.94 252.848C264.296 252.848 263.378 253.968 263.378 255.601C263.378 257.255 264.357 258.294 265.889 258.294C267.009 258.294 267.916 257.719 268.239 256.731L267.18 256.388C266.999 256.912 266.575 257.265 265.92 257.265C265.143 257.265 264.669 256.781 264.599 255.944H268.32C268.461 254.008 267.563 252.848 265.94 252.848ZM265.91 253.846C266.625 253.846 267.059 254.27 267.13 255.006H264.619C264.71 254.31 265.143 253.846 265.91 253.846ZM271.887 252.848C271.191 252.848 270.727 253.231 270.505 253.594V252.959H269.295V258.183H270.505V255.692C270.505 254.492 271.01 253.998 271.887 253.998C272.058 253.998 272.23 254.008 272.331 254.018V252.919C272.21 252.878 272.058 252.848 271.887 252.848ZM281.479 258.183L278.737 251.063H277.587L274.864 258.183H276.135L276.73 256.599H279.574L280.168 258.183H281.479ZM278.142 252.838L279.15 255.5H277.143L278.142 252.838ZM284.236 258.294C285.416 258.294 286.192 257.719 286.505 256.731L285.456 256.378C285.274 256.872 284.922 257.255 284.276 257.255C283.429 257.255 282.935 256.599 282.935 255.541C282.935 254.492 283.469 253.867 284.266 253.867C284.851 253.867 285.264 254.21 285.456 254.704L286.464 254.31C286.101 253.383 285.274 252.848 284.226 252.848C282.824 252.848 281.715 253.836 281.715 255.591C281.715 257.305 282.713 258.294 284.236 258.294ZM288.92 253.957H289.827V252.959H288.92V251.527H287.71V252.959H286.943V253.957H287.71V257.073C287.71 257.89 288.093 258.294 288.94 258.294C289.353 258.294 289.666 258.233 289.908 258.162V257.215C289.121 257.346 288.92 257.305 288.92 256.69V253.957ZM292.102 252.233V251.063H290.871V252.233H292.102ZM292.091 258.183V252.959H290.881V258.183H292.091ZM295.551 258.294C297.114 258.294 298.072 257.215 298.072 255.561C298.072 253.917 297.114 252.848 295.551 252.848C293.998 252.848 293.04 253.917 293.04 255.561C293.04 257.215 293.998 258.294 295.551 258.294ZM295.551 257.275C294.693 257.275 294.24 256.599 294.24 255.561C294.24 254.542 294.693 253.867 295.561 253.867C296.428 253.867 296.882 254.542 296.882 255.561C296.882 256.579 296.428 257.275 295.551 257.275ZM301.638 252.848C300.993 252.848 300.549 253.08 300.196 253.443V252.959H298.986V258.183H300.196V255.43C300.196 254.562 300.569 253.917 301.346 253.917C302.233 253.917 302.243 254.694 302.243 255.43V258.183H303.453V255.42C303.453 254.421 303.453 252.848 301.638 252.848ZM307.3 251.063V258.183H308.53V255.389H309.942C311.616 255.389 312.473 254.502 312.473 253.201C312.473 251.779 311.495 251.063 309.942 251.063H307.3ZM308.53 254.28V252.173H309.942C310.779 252.173 311.223 252.515 311.223 253.211C311.223 253.877 310.789 254.28 309.942 254.28H308.53ZM314.672 258.183V251.063H313.462V258.183H314.672ZM320.259 258.183C320.128 257.608 320.098 257.164 320.098 256.66V255.026C320.098 254.149 320.067 252.848 318.071 252.848C316.8 252.848 315.923 253.393 315.802 254.653L317.012 254.683C317.042 254.099 317.325 253.836 318 253.836C318.676 253.836 318.928 254.089 318.928 254.482C318.928 254.754 318.817 254.794 318.545 254.845L317.254 255.077C316.407 255.228 315.661 255.581 315.661 256.63C315.661 257.668 316.367 258.294 317.486 258.294C318.192 258.294 318.696 258.041 318.988 257.668C319.039 257.9 319.099 258.072 319.16 258.183H320.259ZM317.698 257.305C317.214 257.305 316.891 257.063 316.891 256.64C316.891 256.307 317.093 256.075 317.667 255.954L318.545 255.783C318.686 255.752 318.807 255.722 318.918 255.682V255.944C318.918 256.852 318.363 257.305 317.698 257.305ZM323.943 252.848C323.298 252.848 322.854 253.08 322.501 253.443V252.959H321.291V258.183H322.501V255.43C322.501 254.562 322.874 253.917 323.651 253.917C324.538 253.917 324.548 254.694 324.548 255.43V258.183H325.758V255.42C325.758 254.421 325.758 252.848 323.943 252.848ZM330.835 258.183V251.063H329.605V258.183H330.835ZM333.845 253.957H334.752V252.959H333.845V251.527H332.635V252.959H331.868V253.957H332.635V257.073C332.635 257.89 333.018 258.294 333.865 258.294C334.278 258.294 334.591 258.233 334.833 258.162V257.215C334.046 257.346 333.845 257.305 333.845 256.69V253.957ZM337.956 252.848C336.312 252.848 335.394 253.968 335.394 255.601C335.394 257.255 336.373 258.294 337.905 258.294C339.025 258.294 339.932 257.719 340.255 256.731L339.196 256.388C339.015 256.912 338.591 257.265 337.936 257.265C337.159 257.265 336.685 256.781 336.615 255.944H340.336C340.477 254.008 339.579 252.848 337.956 252.848ZM337.926 253.846C338.641 253.846 339.075 254.27 339.146 255.006H336.635C336.726 254.31 337.159 253.846 337.926 253.846ZM347.039 252.868C346.283 252.868 345.758 253.161 345.375 253.615C345.083 253.131 344.568 252.848 343.873 252.848C343.358 252.848 342.915 253.03 342.521 253.443V252.959H341.311V258.183H342.521V255.369C342.521 254.431 342.925 253.917 343.56 253.917C344.437 253.917 344.437 254.825 344.437 255.389V258.183H345.647V255.389C345.647 254.421 346.051 253.917 346.716 253.917C347.563 253.917 347.563 254.794 347.563 255.369V258.183H348.773V255.369C348.773 254.351 348.773 252.868 347.039 252.868Z" fill="#121212"/>
<path d="M385.081 251.063V258.183H386.311V255.389H387.723C389.397 255.389 390.254 254.502 390.254 253.201C390.254 251.779 389.276 251.063 387.723 251.063H385.081ZM386.311 254.28V252.173H387.723C388.56 252.173 389.004 252.515 389.004 253.211C389.004 253.877 388.57 254.28 387.723 254.28H386.311ZM393.204 258.294C394.767 258.294 395.725 257.215 395.725 255.561C395.725 253.917 394.767 252.848 393.204 252.848C391.651 252.848 390.693 253.917 390.693 255.561C390.693 257.215 391.651 258.294 393.204 258.294ZM393.204 257.275C392.347 257.275 391.893 256.599 391.893 255.561C391.893 254.542 392.347 253.867 393.214 253.867C394.081 253.867 394.535 254.542 394.535 255.561C394.535 256.579 394.081 257.275 393.204 257.275ZM397.849 258.183V251.063H396.639V258.183H397.849ZM400.371 252.233V251.063H399.14V252.233H400.371ZM400.361 258.183V252.959H399.151V258.183H400.361ZM403.83 258.294C405.01 258.294 405.786 257.719 406.099 256.731L405.05 256.378C404.868 256.872 404.515 257.255 403.87 257.255C403.023 257.255 402.529 256.599 402.529 255.541C402.529 254.492 403.063 253.867 403.86 253.867C404.445 253.867 404.858 254.21 405.05 254.704L406.058 254.31C405.695 253.383 404.868 252.848 403.82 252.848C402.418 252.848 401.309 253.836 401.309 255.591C401.309 257.305 402.307 258.294 403.83 258.294ZM408.886 256.367L407.736 252.959H406.445L408.281 258.062L408.15 258.425C407.978 258.858 407.807 259.01 407.313 259.01C407.081 259.01 406.849 258.979 406.617 258.939L406.597 259.998C406.798 260.048 407.101 260.109 407.494 260.109C408.19 260.109 408.775 259.877 409.108 258.979L411.356 252.959H410.076L408.886 256.367ZM415.884 255.046H419.201V253.937H415.884V252.173H419.564V251.063H414.653V258.183H419.695V257.073H415.884V255.046ZM423.448 252.848C422.802 252.848 422.359 253.08 422.006 253.443V252.959H420.796V258.183H422.006V255.43C422.006 254.562 422.379 253.917 423.155 253.917C424.043 253.917 424.053 254.694 424.053 255.43V258.183H425.263V255.42C425.263 254.421 425.263 252.848 423.448 252.848ZM429.179 252.848C428.534 252.848 428.1 253.07 427.747 253.433V251.063H426.537V258.183H427.747V255.43C427.747 254.573 428.1 253.917 428.876 253.917C429.774 253.917 429.794 254.734 429.794 255.42V258.183H431.004V255.218C431.004 254.27 430.903 252.848 429.179 252.848ZM436.564 258.183C436.433 257.608 436.402 257.164 436.402 256.66V255.026C436.402 254.149 436.372 252.848 434.376 252.848C433.105 252.848 432.228 253.393 432.107 254.653L433.317 254.683C433.347 254.099 433.629 253.836 434.305 253.836C434.981 253.836 435.233 254.089 435.233 254.482C435.233 254.754 435.122 254.794 434.85 254.845L433.559 255.077C432.712 255.228 431.965 255.581 431.965 256.63C431.965 257.668 432.671 258.294 433.791 258.294C434.497 258.294 435.001 258.041 435.293 257.668C435.344 257.9 435.404 258.072 435.465 258.183H436.564ZM434.002 257.305C433.518 257.305 433.196 257.063 433.196 256.64C433.196 256.307 433.397 256.075 433.972 255.954L434.85 255.783C434.991 255.752 435.112 255.722 435.223 255.682V255.944C435.223 256.852 434.668 257.305 434.002 257.305ZM440.248 252.848C439.603 252.848 439.159 253.08 438.806 253.443V252.959H437.596V258.183H438.806V255.43C438.806 254.562 439.179 253.917 439.955 253.917C440.843 253.917 440.853 254.694 440.853 255.43V258.183H442.063V255.42C442.063 254.421 442.063 252.848 440.248 252.848ZM445.505 258.294C446.685 258.294 447.461 257.719 447.774 256.731L446.725 256.378C446.544 256.872 446.191 257.255 445.545 257.255C444.698 257.255 444.204 256.599 444.204 255.541C444.204 254.492 444.739 253.867 445.535 253.867C446.12 253.867 446.534 254.21 446.725 254.704L447.734 254.31C447.371 253.383 446.544 252.848 445.495 252.848C444.093 252.848 442.984 253.836 442.984 255.591C442.984 257.305 443.982 258.294 445.505 258.294ZM450.843 252.848C449.2 252.848 448.282 253.968 448.282 255.601C448.282 257.255 449.26 258.294 450.793 258.294C451.912 258.294 452.82 257.719 453.143 256.731L452.084 256.388C451.902 256.912 451.479 257.265 450.823 257.265C450.047 257.265 449.573 256.781 449.502 255.944H453.223C453.364 254.008 452.467 252.848 450.843 252.848ZM450.813 253.846C451.529 253.846 451.963 254.27 452.033 255.006H449.522C449.613 254.31 450.047 253.846 450.813 253.846ZM459.927 252.868C459.17 252.868 458.646 253.161 458.263 253.615C457.97 253.131 457.456 252.848 456.76 252.848C456.246 252.848 455.802 253.03 455.409 253.443V252.959H454.199V258.183H455.409V255.369C455.409 254.431 455.812 253.917 456.448 253.917C457.325 253.917 457.325 254.825 457.325 255.389V258.183H458.535V255.389C458.535 254.421 458.938 253.917 459.604 253.917C460.451 253.917 460.451 254.794 460.451 255.369V258.183H461.661V255.369C461.661 254.351 461.661 252.868 459.927 252.868ZM465.152 252.848C463.508 252.848 462.591 253.968 462.591 255.601C462.591 257.255 463.569 258.294 465.102 258.294C466.221 258.294 467.129 257.719 467.451 256.731L466.392 256.388C466.211 256.912 465.787 257.265 465.132 257.265C464.355 257.265 463.882 256.781 463.811 255.944H467.532C467.673 254.008 466.776 252.848 465.152 252.848ZM465.122 253.846C465.838 253.846 466.271 254.27 466.342 255.006H463.831C463.922 254.31 464.355 253.846 465.122 253.846ZM471.16 252.848C470.514 252.848 470.071 253.08 469.718 253.443V252.959H468.508V258.183H469.718V255.43C469.718 254.562 470.091 253.917 470.867 253.917C471.755 253.917 471.765 254.694 471.765 255.43V258.183H472.975V255.42C472.975 254.421 472.975 252.848 471.16 252.848ZM475.783 253.957H476.691V252.959H475.783V251.527H474.573V252.959H473.807V253.957H474.573V257.073C474.573 257.89 474.956 258.294 475.803 258.294C476.217 258.294 476.529 258.233 476.771 258.162V257.215C475.985 257.346 475.783 257.305 475.783 256.69V253.957ZM479.54 258.294C480.761 258.294 481.708 257.739 481.708 256.66C481.708 254.764 478.724 255.268 478.724 254.32C478.724 253.947 479.107 253.826 479.5 253.826C480.085 253.826 480.438 254.109 480.468 254.613L481.567 254.411C481.527 253.423 480.72 252.848 479.551 252.848C478.502 252.848 477.534 253.312 477.534 254.371C477.534 256.236 480.519 255.712 480.519 256.741C480.519 257.114 480.145 257.325 479.611 257.325C478.956 257.325 478.502 257.033 478.411 256.327L477.342 256.559C477.433 257.658 478.27 258.294 479.54 258.294Z" fill="#121212"/>
<path d="M245.03 421.371V422.48H247.007V428.49H248.237V422.48H250.203V421.371H245.03ZM252.565 428.601C254.128 428.601 255.086 427.522 255.086 425.868C255.086 424.225 254.128 423.156 252.565 423.156C251.013 423.156 250.055 424.225 250.055 425.868C250.055 427.522 251.013 428.601 252.565 428.601ZM252.565 427.583C251.708 427.583 251.255 426.907 251.255 425.868C251.255 424.85 251.708 424.174 252.576 424.174C253.443 424.174 253.897 424.85 253.897 425.868C253.897 426.887 253.443 427.583 252.565 427.583ZM257.545 424.265H258.453V423.267H257.545V421.835H256.335V423.267H255.569V424.265H256.335V427.381C256.335 428.198 256.718 428.601 257.565 428.601C257.979 428.601 258.291 428.541 258.533 428.47V427.522C257.747 427.653 257.545 427.613 257.545 426.998V424.265ZM263.724 428.49C263.592 427.915 263.562 427.472 263.562 426.968V425.334C263.562 424.457 263.532 423.156 261.535 423.156C260.265 423.156 259.387 423.7 259.266 424.961L260.476 424.991C260.507 424.406 260.789 424.144 261.465 424.144C262.14 424.144 262.392 424.396 262.392 424.789C262.392 425.062 262.281 425.102 262.009 425.152L260.718 425.384C259.871 425.536 259.125 425.889 259.125 426.937C259.125 427.976 259.831 428.601 260.95 428.601C261.656 428.601 262.16 428.349 262.453 427.976C262.503 428.208 262.564 428.379 262.624 428.49H263.724ZM261.162 427.613C260.678 427.613 260.355 427.371 260.355 426.947C260.355 426.615 260.557 426.383 261.132 426.262L262.009 426.09C262.15 426.06 262.271 426.03 262.382 425.989V426.252C262.382 427.159 261.828 427.613 261.162 427.613ZM265.966 428.49V421.371H264.756V428.49H265.966Z" fill="#121212"/>
<path d="M458.509 426.453C458.509 424.971 457.329 424.568 456.26 424.275V422.379C456.785 422.531 457.087 422.934 457.238 423.489L458.388 423.126C458.206 422.067 457.379 421.411 456.26 421.28V420.393H455.393V421.28C454.042 421.411 453.235 422.147 453.235 423.297C453.235 424.638 454.344 425.031 455.393 425.324V427.462C454.707 427.3 454.344 426.776 454.243 426.06L453.003 426.332C453.164 427.663 454.082 428.42 455.393 428.571V429.499H456.26V428.591C457.753 428.48 458.509 427.663 458.509 426.453ZM454.495 423.176C454.495 422.732 454.838 422.44 455.393 422.349V424.033C454.869 423.852 454.495 423.63 454.495 423.176ZM456.26 425.576C456.825 425.757 457.248 426.01 457.248 426.524C457.248 427.038 456.895 427.401 456.26 427.492V425.576ZM459.117 422.48H462.555C461.073 423.983 460.004 426.131 459.893 428.49H461.265C461.406 426.01 462.354 424.043 463.907 422.521V421.371H459.117V422.48ZM463.624 429.882C464.33 429.872 464.965 429.489 464.965 428.561V427.119H463.624V428.49H464.239V428.652C464.239 429.075 463.967 429.166 463.624 429.216V429.882ZM468.272 428.601C470.309 428.601 470.934 426.746 470.934 424.931C470.934 423.115 470.329 421.26 468.292 421.26C466.296 421.26 465.65 423.115 465.65 424.931C465.65 426.746 466.275 428.601 468.272 428.601ZM468.272 427.563C467.324 427.563 466.87 426.534 466.87 424.89C466.87 423.247 467.344 422.299 468.292 422.299C469.27 422.299 469.704 423.247 469.704 424.89C469.704 426.534 469.25 427.563 468.272 427.563ZM474.486 428.601C476.523 428.601 477.148 426.746 477.148 424.931C477.148 423.115 476.543 421.26 474.506 421.26C472.51 421.26 471.864 423.115 471.864 424.931C471.864 426.746 472.489 428.601 474.486 428.601ZM474.486 427.563C473.538 427.563 473.084 426.534 473.084 424.89C473.084 423.247 473.558 422.299 474.506 422.299C475.484 422.299 475.918 423.247 475.918 424.89C475.918 426.534 475.464 427.563 474.486 427.563ZM480.7 428.601C482.737 428.601 483.362 426.746 483.362 424.931C483.362 423.115 482.757 421.26 480.72 421.26C478.723 421.26 478.078 423.115 478.078 424.931C478.078 426.746 478.703 428.601 480.7 428.601ZM480.7 427.563C479.752 427.563 479.298 426.534 479.298 424.89C479.298 423.247 479.772 422.299 480.72 422.299C481.698 422.299 482.132 423.247 482.132 424.89C482.132 426.534 481.678 427.563 480.7 427.563Z" fill="#121212"/>
<path d="M260.42 291.151H263.503V290.362H260.42V288.498H263.826V287.709H259.55V294.037H263.942V293.248H260.42V291.151ZM267.181 289.304C266.571 289.304 266.123 289.537 265.782 289.923V289.394H264.931V294.037H265.782V291.527C265.782 290.658 266.249 290.066 266.984 290.066C267.889 290.066 267.898 290.846 267.898 291.59V294.037H268.749V291.572C268.749 290.694 268.749 289.304 267.181 289.304ZM273.577 294.037C273.461 293.526 273.434 293.132 273.434 292.684V291.187C273.434 290.38 273.371 289.304 271.704 289.304C270.646 289.304 269.902 289.779 269.794 290.864L270.646 290.891C270.7 290.308 271.014 290.03 271.659 290.03C272.385 290.03 272.6 290.335 272.6 290.721C272.6 291.016 272.484 291.061 272.242 291.097L271.076 291.312C270.225 291.465 269.669 291.85 269.669 292.693C269.669 293.58 270.296 294.127 271.247 294.127C271.883 294.127 272.376 293.885 272.654 293.508C272.681 293.741 272.744 293.93 272.797 294.037H273.577ZM271.39 293.392C270.897 293.392 270.538 293.15 270.538 292.702C270.538 292.397 270.682 292.11 271.354 291.984L272.224 291.814C272.367 291.778 272.493 291.751 272.6 291.707V292.083C272.6 292.997 272.026 293.392 271.39 293.392ZM276.882 289.304C276.281 289.304 275.761 289.528 275.403 289.995V287.709H274.551V294.037H275.403V293.446C275.779 293.93 276.245 294.127 276.828 294.127C278.038 294.127 278.809 293.15 278.809 291.698C278.809 290.254 278.029 289.304 276.882 289.304ZM276.693 293.392C275.887 293.392 275.376 292.782 275.376 291.707C275.376 290.631 275.878 290.039 276.684 290.039C277.455 290.039 277.939 290.685 277.939 291.725C277.939 292.773 277.437 293.392 276.693 293.392ZM280.532 294.037V287.709H279.681V294.037H280.532ZM283.585 289.304C282.177 289.304 281.407 290.317 281.407 291.76C281.407 293.203 282.24 294.127 283.549 294.127C284.508 294.127 285.279 293.607 285.566 292.728L284.822 292.477C284.633 293.024 284.212 293.383 283.576 293.383C282.787 293.383 282.339 292.881 282.285 291.984H285.61C285.727 290.308 284.965 289.304 283.585 289.304ZM283.549 290.039C284.293 290.039 284.723 290.488 284.768 291.276H282.294C282.366 290.559 282.769 290.039 283.549 290.039ZM292.001 292.693L290.136 287.709H288.962V294.037H289.822V289.179L291.633 294.037H292.359L294.179 289.17V294.037H295.039V287.709H293.847L292.001 292.693ZM300.515 287.709H296.481V294.037H297.351V291.151H300.147V290.362H297.351V288.498H300.515V287.709ZM306.08 294.037L303.624 287.709H302.781L300.343 294.037H301.248L301.822 292.522H304.565L305.147 294.037H306.08ZM303.184 288.928L304.26 291.733H302.118L303.184 288.928Z" fill="black"/>
<path d="M249.523 287.008C249.223 286.781 248.817 286.781 248.517 287.008L245.171 289.537C244.871 289.764 244.746 290.166 244.86 290.534L246.138 294.626C246.253 294.993 246.581 295.241 246.952 295.241H251.088C251.459 295.241 251.787 294.993 251.902 294.626L253.18 290.534C253.294 290.166 253.169 289.764 252.869 289.537L249.523 287.008Z" fill="#4D5133" stroke="black"/>
<path d="M458.219 291.061V288.856H457.394V291.061H455.216V291.832H457.394V294.037H458.219V291.832H460.406V291.061H458.219ZM463.251 294.037V287.709H462.579C462.418 288.48 461.942 288.784 461.064 288.811V289.466H462.382V294.037H463.251ZM464.493 295.122C465.012 295.104 465.479 294.817 465.479 294.118V293.033H464.493V294.037H464.941V294.181C464.941 294.512 464.743 294.593 464.493 294.629V295.122ZM468.384 294.127C470.096 294.127 470.643 292.477 470.643 290.864C470.643 289.251 470.114 287.619 468.402 287.619C466.708 287.619 466.161 289.251 466.161 290.864C466.161 292.477 466.69 294.127 468.384 294.127ZM468.384 293.383C467.461 293.383 467.022 292.397 467.022 290.837C467.022 289.277 467.479 288.363 468.402 288.363C469.343 288.363 469.774 289.277 469.774 290.837C469.774 292.397 469.325 293.383 468.384 293.383ZM473.768 294.127C475.48 294.127 476.026 292.477 476.026 290.864C476.026 289.251 475.498 287.619 473.786 287.619C472.091 287.619 471.545 289.251 471.545 290.864C471.545 292.477 472.074 294.127 473.768 294.127ZM473.768 293.383C472.844 293.383 472.405 292.397 472.405 290.837C472.405 289.277 472.862 288.363 473.786 288.363C474.727 288.363 475.157 289.277 475.157 290.837C475.157 292.397 474.709 293.383 473.768 293.383ZM479.151 294.127C480.863 294.127 481.41 292.477 481.41 290.864C481.41 289.251 480.881 287.619 479.169 287.619C477.475 287.619 476.928 289.251 476.928 290.864C476.928 292.477 477.457 294.127 479.151 294.127ZM479.151 293.383C478.228 293.383 477.789 292.397 477.789 290.837C477.789 289.277 478.246 288.363 479.169 288.363C480.11 288.363 480.54 289.277 480.54 290.837C480.54 292.397 480.092 293.383 479.151 293.383Z" fill="black"/>
<path d="M264.113 318.687L262.661 315.872C263.423 315.612 263.907 315.056 263.907 314.205C263.907 313.102 263.252 312.358 261.728 312.358H259.55V318.687H260.42V316.042H261.773L263.109 318.687H264.113ZM261.746 313.147C262.652 313.147 263.028 313.479 263.028 314.196C263.028 314.85 262.58 315.253 261.737 315.253H260.42V313.147H261.746ZM266.813 313.954C265.406 313.954 264.635 314.967 264.635 316.41C264.635 317.853 265.469 318.776 266.777 318.776C267.736 318.776 268.507 318.256 268.794 317.378L268.05 317.127C267.862 317.674 267.441 318.032 266.804 318.032C266.015 318.032 265.567 317.53 265.513 316.634H268.839C268.955 314.958 268.193 313.954 266.813 313.954ZM266.777 314.689C267.521 314.689 267.951 315.137 267.996 315.926H265.522C265.594 315.209 265.997 314.689 266.777 314.689ZM274.809 313.963C274.119 313.963 273.626 314.267 273.285 314.716C273.025 314.214 272.541 313.954 271.914 313.954C271.421 313.954 270.991 314.151 270.623 314.563V314.043H269.772V318.687H270.623V316.159C270.623 315.236 271.071 314.716 271.717 314.716C272.622 314.716 272.622 315.639 272.622 316.195V318.687H273.474V316.204C273.474 315.227 273.913 314.716 274.603 314.716C275.463 314.716 275.472 315.549 275.472 316.168V318.687H276.324V316.159C276.324 315.289 276.315 313.963 274.809 313.963ZM279.401 318.776C280.763 318.776 281.588 317.799 281.588 316.356C281.588 314.922 280.763 313.954 279.401 313.954C278.047 313.954 277.214 314.922 277.214 316.356C277.214 317.799 278.047 318.776 279.401 318.776ZM279.401 318.041C278.522 318.041 278.065 317.324 278.065 316.356C278.065 315.406 278.522 314.689 279.41 314.689C280.297 314.689 280.745 315.397 280.745 316.347C280.745 317.297 280.306 318.041 279.401 318.041ZM283.675 314.76H284.581V314.043H283.675V312.771H282.824V314.043H282.071V314.76H282.824V317.701C282.824 318.418 283.128 318.776 283.828 318.776C284.168 318.776 284.437 318.722 284.652 318.651V317.96C283.881 318.113 283.675 318.077 283.675 317.423V314.76ZM287.357 313.954C285.95 313.954 285.179 314.967 285.179 316.41C285.179 317.853 286.013 318.776 287.322 318.776C288.281 318.776 289.052 318.256 289.338 317.378L288.594 317.127C288.406 317.674 287.985 318.032 287.349 318.032C286.56 318.032 286.112 317.53 286.058 316.634H289.383C289.5 314.958 288.738 313.954 287.357 313.954ZM287.322 314.689C288.066 314.689 288.496 315.137 288.541 315.926H286.067C286.138 315.209 286.542 314.689 287.322 314.689ZM297.79 318.687L295.334 312.358H294.492L292.053 318.687H292.959L293.532 317.172H296.275L296.858 318.687H297.79ZM294.895 313.577L295.971 316.383H293.828L294.895 313.577ZM300.189 318.776C301.193 318.776 301.874 318.283 302.161 317.378L301.417 317.127C301.229 317.62 300.888 318.032 300.225 318.032C299.409 318.032 298.925 317.378 298.925 316.338C298.925 315.307 299.445 314.689 300.216 314.689C300.799 314.689 301.184 315.038 301.39 315.549L302.116 315.262C301.794 314.429 301.094 313.954 300.189 313.954C298.988 313.954 298.056 314.832 298.056 316.374C298.056 317.898 298.898 318.776 300.189 318.776ZM304.811 318.776C305.815 318.776 306.496 318.283 306.783 317.378L306.039 317.127C305.851 317.62 305.51 318.032 304.847 318.032C304.031 318.032 303.547 317.378 303.547 316.338C303.547 315.307 304.067 314.689 304.838 314.689C305.42 314.689 305.806 315.038 306.012 315.549L306.738 315.262C306.415 314.429 305.716 313.954 304.811 313.954C303.61 313.954 302.678 314.832 302.678 316.374C302.678 317.898 303.52 318.776 304.811 318.776ZM309.478 313.954C308.07 313.954 307.299 314.967 307.299 316.41C307.299 317.853 308.133 318.776 309.442 318.776C310.401 318.776 311.172 318.256 311.458 317.378L310.714 317.127C310.526 317.674 310.105 318.032 309.469 318.032C308.68 318.032 308.232 317.53 308.178 316.634H311.503C311.62 314.958 310.858 313.954 309.478 313.954ZM309.442 314.689C310.186 314.689 310.616 315.137 310.661 315.926H308.187C308.258 315.209 308.662 314.689 309.442 314.689ZM314.005 318.776C315.027 318.776 315.833 318.31 315.833 317.378C315.833 315.657 313.144 316.222 313.144 315.236C313.144 314.796 313.556 314.662 313.987 314.662C314.596 314.662 314.928 314.976 314.955 315.495L315.735 315.352C315.708 314.447 315.018 313.954 314.005 313.954C313.117 313.954 312.302 314.348 312.302 315.271C312.302 316.948 315 316.356 315 317.423C315 317.844 314.623 318.077 314.049 318.077C313.404 318.077 312.983 317.763 312.902 317.055L312.131 317.225C312.203 318.22 312.929 318.776 314.005 318.776ZM318.338 318.776C319.359 318.776 320.166 318.31 320.166 317.378C320.166 315.657 317.477 316.222 317.477 315.236C317.477 314.796 317.889 314.662 318.32 314.662C318.929 314.662 319.261 314.976 319.288 315.495L320.068 315.352C320.041 314.447 319.351 313.954 318.338 313.954C317.45 313.954 316.635 314.348 316.635 315.271C316.635 316.948 319.333 316.356 319.333 317.423C319.333 317.844 318.956 318.077 318.382 318.077C317.737 318.077 317.316 317.763 317.235 317.055L316.464 317.225C316.536 318.22 317.262 318.776 318.338 318.776ZM326.559 317.342L324.695 312.358H323.521V318.687H324.381V313.828L326.192 318.687H326.918L328.737 313.819V318.687H329.598V312.358H328.406L326.559 317.342ZM335.074 312.358H331.04V318.687H331.909V315.8H334.706V315.011H331.909V313.147H335.074V312.358ZM340.638 318.687L338.182 312.358H337.34L334.902 318.687H335.807L336.381 317.172H339.124L339.706 318.687H340.638ZM337.743 313.577L338.819 316.383H336.677L337.743 313.577ZM348.277 318.687L346.825 315.872C347.587 315.612 348.071 315.056 348.071 314.205C348.071 313.102 347.417 312.358 345.893 312.358H343.715V318.687H344.584V316.042H345.938L347.273 318.687H348.277ZM345.911 313.147C346.816 313.147 347.193 313.479 347.193 314.196C347.193 314.85 346.745 315.253 345.902 315.253H344.584V313.147H345.911ZM350.978 313.954C349.57 313.954 348.8 314.967 348.8 316.41C348.8 317.853 349.633 318.776 350.942 318.776C351.901 318.776 352.672 318.256 352.959 317.378L352.215 317.127C352.026 317.674 351.605 318.032 350.969 318.032C350.18 318.032 349.732 317.53 349.678 316.634H353.004C353.12 314.958 352.358 313.954 350.978 313.954ZM350.942 314.689C351.686 314.689 352.116 315.137 352.161 315.926H349.687C349.759 315.209 350.162 314.689 350.942 314.689ZM357.081 314.635C356.705 314.151 356.239 313.954 355.656 313.954C354.455 313.954 353.675 314.94 353.675 316.383C353.675 317.826 354.455 318.776 355.602 318.776C356.203 318.776 356.723 318.552 357.081 318.095V320.3H357.933V314.043H357.081V314.635ZM355.8 318.041C355.029 318.041 354.536 317.396 354.536 316.356C354.536 315.307 355.047 314.689 355.791 314.689C356.597 314.689 357.108 315.289 357.108 316.374C357.108 317.441 356.606 318.041 355.8 318.041ZM362.049 316.544C362.049 317.297 361.699 318.014 360.865 318.014C359.996 318.014 359.978 317.351 359.978 316.553V314.043H359.126V316.607C359.126 317.494 359.126 318.776 360.668 318.776C361.367 318.776 361.825 318.471 362.12 318.023V318.687H362.9V314.043H362.049V316.544ZM364.986 313.308V312.358H364.099V313.308H364.986ZM364.968 318.687V314.043H364.117V318.687H364.968ZM368.289 313.954C367.661 313.954 367.24 314.321 367.043 314.671V314.043H366.191V318.687H367.043V316.392C367.043 315.245 367.518 314.778 368.28 314.778C368.432 314.778 368.575 314.787 368.665 314.796V314.008C368.558 313.981 368.423 313.954 368.289 313.954ZM371.111 313.954C369.703 313.954 368.933 314.967 368.933 316.41C368.933 317.853 369.766 318.776 371.075 318.776C372.034 318.776 372.805 318.256 373.092 317.378L372.348 317.127C372.159 317.674 371.738 318.032 371.102 318.032C370.313 318.032 369.865 317.53 369.811 316.634H373.137C373.253 314.958 372.491 313.954 371.111 313.954ZM371.075 314.689C371.819 314.689 372.249 315.137 372.294 315.926H369.82C369.892 315.209 370.295 314.689 371.075 314.689ZM377.214 314.572C376.91 314.187 376.435 313.954 375.78 313.954C374.678 313.954 373.808 314.814 373.808 316.356C373.808 317.88 374.615 318.776 375.78 318.776C376.417 318.776 376.892 318.552 377.223 318.086V318.687H378.066V312.358H377.214V314.572ZM375.933 318.041C375.135 318.041 374.651 317.423 374.651 316.374C374.651 315.343 375.135 314.689 375.942 314.689C376.73 314.689 377.241 315.307 377.241 316.356C377.241 317.414 376.748 318.041 375.933 318.041Z" fill="black"/>
<path d="M249.523 311.657C249.223 311.431 248.817 311.431 248.517 311.657L245.171 314.187C244.871 314.414 244.746 314.816 244.86 315.183L246.138 319.275C246.253 319.642 246.581 319.891 246.952 319.891H251.088C251.459 319.891 251.787 319.642 251.902 319.275L253.18 315.183C253.294 314.816 253.169 314.414 252.869 314.187L249.523 311.657Z" fill="#CCD055" stroke="black"/>
<path d="M458.219 315.711V313.506H457.394V315.711H455.216V316.481H457.394V318.687H458.219V316.481H460.406V315.711H458.219ZM462.444 317.889C464.219 316.329 465.25 315.567 465.25 314.079C465.25 312.959 464.533 312.269 463.332 312.269C461.951 312.269 461.181 313.174 461.216 314.671L462.041 314.752C462.05 313.64 462.507 313.039 463.314 313.039C464.004 313.039 464.372 313.479 464.372 314.106C464.372 315.271 463.368 315.988 461.243 317.898V318.687H465.375V317.889H462.444ZM466.427 319.771C466.947 319.753 467.413 319.466 467.413 318.767V317.683H466.427V318.687H466.875V318.83C466.875 319.162 466.678 319.242 466.427 319.278V319.771ZM470.319 318.776C472.031 318.776 472.578 317.127 472.578 315.513C472.578 313.9 472.049 312.269 470.337 312.269C468.643 312.269 468.096 313.9 468.096 315.513C468.096 317.127 468.625 318.776 470.319 318.776ZM470.319 318.032C469.396 318.032 468.956 317.046 468.956 315.487C468.956 313.927 469.413 313.013 470.337 313.013C471.278 313.013 471.708 313.927 471.708 315.487C471.708 317.046 471.26 318.032 470.319 318.032ZM475.702 318.776C477.414 318.776 477.961 317.127 477.961 315.513C477.961 313.9 477.432 312.269 475.72 312.269C474.026 312.269 473.479 313.9 473.479 315.513C473.479 317.127 474.008 318.776 475.702 318.776ZM475.702 318.032C474.779 318.032 474.34 317.046 474.34 315.487C474.34 313.927 474.797 313.013 475.72 313.013C476.661 313.013 477.092 313.927 477.092 315.487C477.092 317.046 476.643 318.032 475.702 318.032ZM481.086 318.776C482.798 318.776 483.344 317.127 483.344 315.513C483.344 313.9 482.816 312.269 481.103 312.269C479.409 312.269 478.863 313.9 478.863 315.513C478.863 317.127 479.391 318.776 481.086 318.776ZM481.086 318.032C480.162 318.032 479.723 317.046 479.723 315.487C479.723 313.927 480.18 313.013 481.103 313.013C482.045 313.013 482.475 313.927 482.475 315.487C482.475 317.046 482.027 318.032 481.086 318.032Z" fill="black"/>
<path d="M260.42 337.008H259.55V343.336H263.656V342.547H260.42V337.008ZM266.227 343.426C267.589 343.426 268.414 342.449 268.414 341.005C268.414 339.571 267.589 338.603 266.227 338.603C264.873 338.603 264.04 339.571 264.04 341.005C264.04 342.449 264.873 343.426 266.227 343.426ZM266.227 342.691C265.348 342.691 264.891 341.973 264.891 341.005C264.891 340.055 265.348 339.338 266.236 339.338C267.123 339.338 267.571 340.046 267.571 340.996C267.571 341.947 267.132 342.691 266.227 342.691ZM271.18 343.426C272.184 343.426 272.865 342.933 273.152 342.027L272.408 341.776C272.22 342.269 271.879 342.682 271.216 342.682C270.4 342.682 269.916 342.027 269.916 340.987C269.916 339.957 270.436 339.338 271.207 339.338C271.79 339.338 272.175 339.688 272.381 340.199L273.107 339.912C272.784 339.078 272.085 338.603 271.18 338.603C269.979 338.603 269.047 339.482 269.047 341.023C269.047 342.547 269.889 343.426 271.18 343.426ZM277.612 343.336C277.496 342.825 277.469 342.431 277.469 341.982V340.486C277.469 339.679 277.406 338.603 275.739 338.603C274.681 338.603 273.937 339.078 273.83 340.163L274.681 340.19C274.735 339.607 275.049 339.329 275.694 339.329C276.42 339.329 276.635 339.634 276.635 340.019C276.635 340.315 276.519 340.36 276.277 340.396L275.112 340.611C274.26 340.763 273.704 341.149 273.704 341.991C273.704 342.879 274.332 343.426 275.282 343.426C275.918 343.426 276.411 343.184 276.689 342.807C276.716 343.04 276.779 343.228 276.833 343.336H277.612ZM275.425 342.691C274.932 342.691 274.574 342.449 274.574 342C274.574 341.696 274.717 341.409 275.39 341.283L276.259 341.113C276.402 341.077 276.528 341.05 276.635 341.005V341.382C276.635 342.296 276.062 342.691 275.425 342.691ZM279.438 343.336V337.008H278.586V343.336H279.438ZM288.135 343.336L285.679 337.008H284.836L282.398 343.336H283.304L283.877 341.821H286.62L287.203 343.336H288.135ZM285.24 338.227L286.315 341.032H284.173L285.24 338.227ZM291.807 339.222C291.502 338.836 291.027 338.603 290.373 338.603C289.27 338.603 288.401 339.464 288.401 341.005C288.401 342.529 289.207 343.426 290.373 343.426C291.009 343.426 291.484 343.201 291.816 342.735V343.336H292.658V337.008H291.807V339.222ZM290.525 342.691C289.727 342.691 289.243 342.072 289.243 341.023C289.243 339.993 289.727 339.338 290.534 339.338C291.323 339.338 291.834 339.957 291.834 341.005C291.834 342.063 291.341 342.691 290.525 342.691ZM298.916 338.612C298.226 338.612 297.733 338.917 297.392 339.365C297.132 338.863 296.648 338.603 296.021 338.603C295.528 338.603 295.098 338.8 294.73 339.213V338.693H293.879V343.336H294.73V340.808C294.73 339.885 295.178 339.365 295.824 339.365C296.729 339.365 296.729 340.288 296.729 340.844V343.336H297.581V340.853C297.581 339.876 298.02 339.365 298.71 339.365C299.571 339.365 299.58 340.199 299.58 340.817V343.336H300.431V340.808C300.431 339.939 300.422 338.612 298.916 338.612ZM302.495 337.958V337.008H301.608V337.958H302.495ZM302.477 343.336V338.693H301.626V343.336H302.477ZM305.95 338.603C305.34 338.603 304.892 338.836 304.552 339.222V338.693H303.7V343.336H304.552V340.826C304.552 339.957 305.018 339.365 305.753 339.365C306.658 339.365 306.667 340.145 306.667 340.889V343.336H307.519V340.871C307.519 339.993 307.519 338.603 305.95 338.603ZM315.688 343.336L314.236 340.521C314.998 340.261 315.482 339.706 315.482 338.854C315.482 337.752 314.828 337.008 313.304 337.008H311.126V343.336H311.995V340.692H313.349L314.684 343.336H315.688ZM313.322 337.796C314.227 337.796 314.604 338.128 314.604 338.845C314.604 339.5 314.155 339.903 313.313 339.903H311.995V337.796H313.322ZM317.516 337.958V337.008H316.629V337.958H317.516ZM317.498 343.336V338.693H316.646V343.336H317.498ZM321.867 339.195C321.625 338.899 321.177 338.603 320.496 338.603C319.223 338.603 318.488 339.58 318.488 340.871C318.488 342.305 319.349 343.175 320.505 343.175C321.132 343.175 321.616 342.942 321.885 342.556V342.852C321.885 343.506 321.751 344.313 320.684 344.313C319.976 344.313 319.599 343.936 319.42 343.327L318.631 343.488C318.856 344.465 319.483 345.03 320.693 345.03C322.548 345.03 322.719 343.587 322.719 342.646V338.693H321.867V339.195ZM320.639 342.44C319.788 342.44 319.322 341.866 319.322 340.871C319.322 339.948 319.788 339.338 320.577 339.338C321.374 339.338 321.894 339.921 321.894 340.889C321.894 341.884 321.464 342.44 320.639 342.44ZM326.161 338.603C325.569 338.603 325.13 338.827 324.79 339.213V337.008H323.938V343.336H324.79V340.826C324.79 339.957 325.229 339.365 325.964 339.365C326.878 339.365 326.905 340.208 326.905 340.88V343.336H327.757V340.683C327.757 339.894 327.667 338.603 326.161 338.603ZM330.13 339.41H331.035V338.693H330.13V337.42H329.278V338.693H328.526V339.41H329.278V342.35C329.278 343.067 329.583 343.426 330.282 343.426C330.623 343.426 330.892 343.372 331.107 343.3V342.61C330.336 342.762 330.13 342.726 330.13 342.072V339.41ZM333.542 343.426C334.564 343.426 335.371 342.959 335.371 342.027C335.371 340.306 332.682 340.871 332.682 339.885C332.682 339.446 333.094 339.311 333.525 339.311C334.134 339.311 334.466 339.625 334.493 340.145L335.272 340.001C335.246 339.096 334.555 338.603 333.542 338.603C332.655 338.603 331.839 338.998 331.839 339.921C331.839 341.597 334.537 341.005 334.537 342.072C334.537 342.493 334.161 342.726 333.587 342.726C332.942 342.726 332.521 342.413 332.44 341.705L331.669 341.875C331.741 342.87 332.467 343.426 333.542 343.426ZM338.725 337.008V343.336H340.715C342.786 343.336 343.736 342.189 343.736 340.1C343.736 338.119 342.705 337.008 340.931 337.008H338.725ZM339.595 342.547V337.796H340.796C342.167 337.796 342.84 338.54 342.84 340.1C342.84 341.821 342.114 342.547 340.635 342.547H339.595ZM345.553 337.958V337.008H344.666V337.958H345.553ZM345.535 343.336V338.693H344.684V343.336H345.535ZM348.327 343.426C349.349 343.426 350.156 342.959 350.156 342.027C350.156 340.306 347.467 340.871 347.467 339.885C347.467 339.446 347.879 339.311 348.309 339.311C348.919 339.311 349.25 339.625 349.277 340.145L350.057 340.001C350.03 339.096 349.34 338.603 348.327 338.603C347.44 338.603 346.624 338.998 346.624 339.921C346.624 341.597 349.322 341.005 349.322 342.072C349.322 342.493 348.946 342.726 348.372 342.726C347.727 342.726 347.305 342.413 347.225 341.705L346.454 341.875C346.525 342.87 347.251 343.426 348.327 343.426ZM354.731 343.336C354.614 342.825 354.587 342.431 354.587 341.982V340.486C354.587 339.679 354.524 338.603 352.857 338.603C351.8 338.603 351.056 339.078 350.948 340.163L351.8 340.19C351.853 339.607 352.167 339.329 352.812 339.329C353.538 339.329 353.754 339.634 353.754 340.019C353.754 340.315 353.637 340.36 353.395 340.396L352.23 340.611C351.378 340.763 350.823 341.149 350.823 341.991C350.823 342.879 351.45 343.426 352.4 343.426C353.037 343.426 353.53 343.184 353.807 342.807C353.834 343.04 353.897 343.228 353.951 343.336H354.731ZM352.544 342.691C352.051 342.691 351.692 342.449 351.692 342C351.692 341.696 351.835 341.409 352.508 341.283L353.377 341.113C353.521 341.077 353.646 341.05 353.754 341.005V341.382C353.754 342.296 353.18 342.691 352.544 342.691ZM358.035 338.603C357.434 338.603 356.915 338.827 356.556 339.293V337.008H355.705V343.336H356.556V342.744C356.933 343.228 357.399 343.426 357.981 343.426C359.191 343.426 359.962 342.449 359.962 340.996C359.962 339.553 359.182 338.603 358.035 338.603ZM357.847 342.691C357.04 342.691 356.529 342.081 356.529 341.005C356.529 339.93 357.031 339.338 357.838 339.338C358.609 339.338 359.093 339.984 359.093 341.023C359.093 342.072 358.591 342.691 357.847 342.691ZM361.686 343.336V337.008H360.834V343.336H361.686ZM364.738 338.603C363.331 338.603 362.56 339.616 362.56 341.059C362.56 342.502 363.394 343.426 364.702 343.426C365.661 343.426 366.432 342.906 366.719 342.027L365.975 341.776C365.787 342.323 365.366 342.682 364.729 342.682C363.94 342.682 363.492 342.18 363.439 341.283H366.764C366.881 339.607 366.119 338.603 364.738 338.603ZM364.702 339.338C365.446 339.338 365.877 339.786 365.921 340.575H363.447C363.519 339.858 363.923 339.338 364.702 339.338ZM370.842 339.222C370.537 338.836 370.062 338.603 369.408 338.603C368.305 338.603 367.436 339.464 367.436 341.005C367.436 342.529 368.242 343.426 369.408 343.426C370.044 343.426 370.519 343.201 370.851 342.735V343.336H371.693V337.008H370.842V339.222ZM369.56 342.691C368.762 342.691 368.278 342.072 368.278 341.023C368.278 339.993 368.762 339.338 369.569 339.338C370.358 339.338 370.869 339.957 370.869 341.005C370.869 342.063 370.376 342.691 369.56 342.691Z" fill="black"/>
<path d="M249.523 336.308C249.223 336.081 248.817 336.081 248.517 336.308L245.171 338.837C244.871 339.064 244.746 339.466 244.86 339.833L246.138 343.925C246.253 344.292 246.581 344.541 246.952 344.541H251.088C251.459 344.541 251.787 344.292 251.902 343.925L253.18 339.833C253.294 339.466 253.169 339.064 252.869 338.837L249.523 336.308Z" fill="#CFF1B2" stroke="black"/>
<path d="M458.219 340.36V338.155H457.394V340.36H455.216V341.131H457.394V343.336H458.219V341.131H460.406V340.36H458.219ZM462.444 342.538C464.219 340.979 465.25 340.217 465.25 338.729C465.25 337.608 464.533 336.918 463.332 336.918C461.951 336.918 461.181 337.823 461.216 339.32L462.041 339.401C462.05 338.289 462.507 337.689 463.314 337.689C464.004 337.689 464.372 338.128 464.372 338.756C464.372 339.921 463.368 340.638 461.243 342.547V343.336H465.375V342.538H462.444ZM466.427 344.421C466.947 344.403 467.413 344.116 467.413 343.417V342.332H466.427V343.336H466.875V343.479C466.875 343.811 466.678 343.892 466.427 343.928V344.421ZM470.319 343.426C472.031 343.426 472.578 341.776 472.578 340.163C472.578 338.549 472.049 336.918 470.337 336.918C468.643 336.918 468.096 338.549 468.096 340.163C468.096 341.776 468.625 343.426 470.319 343.426ZM470.319 342.682C469.396 342.682 468.956 341.696 468.956 340.136C468.956 338.576 469.413 337.662 470.337 337.662C471.278 337.662 471.708 338.576 471.708 340.136C471.708 341.696 471.26 342.682 470.319 342.682ZM475.702 343.426C477.414 343.426 477.961 341.776 477.961 340.163C477.961 338.549 477.432 336.918 475.72 336.918C474.026 336.918 473.479 338.549 473.479 340.163C473.479 341.776 474.008 343.426 475.702 343.426ZM475.702 342.682C474.779 342.682 474.34 341.696 474.34 340.136C474.34 338.576 474.797 337.662 475.72 337.662C476.661 337.662 477.092 338.576 477.092 340.136C477.092 341.696 476.643 342.682 475.702 342.682ZM481.086 343.426C482.798 343.426 483.344 341.776 483.344 340.163C483.344 338.549 482.816 336.918 481.103 336.918C479.409 336.918 478.863 338.549 478.863 340.163C478.863 341.776 479.391 343.426 481.086 343.426ZM481.086 342.682C480.162 342.682 479.723 341.696 479.723 340.136C479.723 338.576 480.18 337.662 481.103 337.662C482.045 337.662 482.475 338.576 482.475 340.136C482.475 341.696 482.027 342.682 481.086 342.682Z" fill="black"/>
<path d="M264.113 367.986L262.661 365.172C263.423 364.912 263.907 364.356 263.907 363.505C263.907 362.402 263.252 361.658 261.728 361.658H259.55V367.986H260.42V365.342H261.773L263.109 367.986H264.113ZM261.746 362.447C262.652 362.447 263.028 362.778 263.028 363.496C263.028 364.15 262.58 364.553 261.737 364.553H260.42V362.447H261.746ZM266.813 363.254C265.406 363.254 264.635 364.266 264.635 365.71C264.635 367.153 265.469 368.076 266.777 368.076C267.736 368.076 268.507 367.556 268.794 366.678L268.05 366.427C267.862 366.973 267.441 367.332 266.804 367.332C266.015 367.332 265.567 366.83 265.513 365.934H268.839C268.955 364.257 268.193 363.254 266.813 363.254ZM266.777 363.989C267.521 363.989 267.951 364.437 267.996 365.226H265.522C265.594 364.508 265.997 363.989 266.777 363.989ZM272.918 363.845C272.676 363.549 272.228 363.254 271.546 363.254C270.274 363.254 269.539 364.231 269.539 365.521C269.539 366.956 270.399 367.825 271.555 367.825C272.183 367.825 272.667 367.592 272.936 367.206V367.502C272.936 368.157 272.801 368.963 271.735 368.963C271.026 368.963 270.65 368.587 270.471 367.977L269.682 368.139C269.906 369.116 270.534 369.68 271.744 369.68C273.599 369.68 273.769 368.237 273.769 367.296V363.343H272.918V363.845ZM271.69 367.09C270.838 367.09 270.372 366.516 270.372 365.521C270.372 364.598 270.838 363.989 271.627 363.989C272.425 363.989 272.945 364.571 272.945 365.539C272.945 366.534 272.514 367.09 271.69 367.09ZM277.884 365.844C277.884 366.597 277.534 367.314 276.701 367.314C275.831 367.314 275.813 366.651 275.813 365.853V363.343H274.962V365.907C274.962 366.794 274.962 368.076 276.504 368.076C277.203 368.076 277.66 367.771 277.956 367.323V367.986H278.735V363.343H277.884V365.844ZM280.803 367.986V361.658H279.952V367.986H280.803ZM285.666 367.986C285.549 367.475 285.522 367.081 285.522 366.633V365.136C285.522 364.329 285.46 363.254 283.792 363.254C282.735 363.254 281.991 363.729 281.883 364.813L282.735 364.84C282.788 364.257 283.102 363.98 283.747 363.98C284.474 363.98 284.689 364.284 284.689 364.67C284.689 364.966 284.572 365.01 284.33 365.046L283.165 365.261C282.313 365.414 281.758 365.799 281.758 366.642C281.758 367.529 282.385 368.076 283.335 368.076C283.972 368.076 284.465 367.834 284.742 367.457C284.769 367.691 284.832 367.879 284.886 367.986H285.666ZM283.479 367.341C282.986 367.341 282.627 367.099 282.627 366.651C282.627 366.346 282.77 366.059 283.443 365.934L284.312 365.763C284.456 365.728 284.581 365.701 284.689 365.656V366.032C284.689 366.947 284.115 367.341 283.479 367.341ZM288.737 363.254C288.11 363.254 287.688 363.621 287.491 363.971V363.343H286.64V367.986H287.491V365.692C287.491 364.544 287.966 364.078 288.728 364.078C288.88 364.078 289.024 364.087 289.113 364.096V363.307C289.006 363.28 288.871 363.254 288.737 363.254ZM295.787 364.607C296.298 364.347 296.602 363.89 296.602 363.209C296.602 362.348 296.109 361.658 294.469 361.658H292.174V367.986H294.622C296.047 367.986 296.818 367.323 296.818 366.203C296.818 365.387 296.396 364.831 295.787 364.607ZM295.733 363.307C295.733 364.231 294.908 364.284 294.281 364.284H293.035V362.42H294.388C294.881 362.42 295.733 362.429 295.733 363.307ZM293.035 367.224V365.055H294.245C294.953 365.055 295.93 365.055 295.93 366.104C295.93 367.233 294.944 367.224 294.433 367.224H293.035ZM301.448 367.986C301.332 367.475 301.305 367.081 301.305 366.633V365.136C301.305 364.329 301.242 363.254 299.575 363.254C298.517 363.254 297.773 363.729 297.666 364.813L298.517 364.84C298.571 364.257 298.885 363.98 299.53 363.98C300.256 363.98 300.471 364.284 300.471 364.67C300.471 364.966 300.355 365.01 300.113 365.046L298.947 365.261C298.096 365.414 297.54 365.799 297.54 366.642C297.54 367.529 298.168 368.076 299.118 368.076C299.754 368.076 300.247 367.834 300.525 367.457C300.552 367.691 300.615 367.879 300.668 367.986H301.448ZM299.261 367.341C298.768 367.341 298.41 367.099 298.41 366.651C298.41 366.346 298.553 366.059 299.225 365.934L300.095 365.763C300.238 365.728 300.364 365.701 300.471 365.656V366.032C300.471 366.947 299.898 367.341 299.261 367.341ZM304.251 368.076C305.255 368.076 305.936 367.583 306.223 366.678L305.479 366.427C305.29 366.92 304.95 367.332 304.286 367.332C303.471 367.332 302.987 366.678 302.987 365.638C302.987 364.607 303.507 363.989 304.278 363.989C304.86 363.989 305.246 364.338 305.452 364.849L306.178 364.562C305.855 363.729 305.156 363.254 304.251 363.254C303.05 363.254 302.117 364.132 302.117 365.674C302.117 367.198 302.96 368.076 304.251 368.076ZM311.078 367.986L309.123 365.055L310.835 363.343H309.787L307.895 365.243V361.658H307.044V367.986H307.895V366.283L308.532 365.647L310.047 367.986H311.078ZM314.57 365.844C314.57 366.597 314.22 367.314 313.387 367.314C312.517 367.314 312.499 366.651 312.499 365.853V363.343H311.648V365.907C311.648 366.794 311.648 368.076 313.189 368.076C313.889 368.076 314.346 367.771 314.641 367.323V367.986H315.421V363.343H314.57V365.844ZM318.914 363.254C318.305 363.254 317.821 363.514 317.489 363.953V363.343H316.638V369.6H317.489V367.457C317.794 367.843 318.278 368.076 318.879 368.076C320.035 368.076 320.886 367.206 320.886 365.638C320.886 364.168 320.089 363.254 318.914 363.254ZM318.762 367.341C317.973 367.341 317.462 366.722 317.462 365.665C317.462 364.616 317.964 363.989 318.771 363.989C319.569 363.989 320.053 364.607 320.053 365.656C320.053 366.687 319.569 367.341 318.762 367.341ZM323.38 368.076C324.401 368.076 325.208 367.61 325.208 366.678C325.208 364.957 322.519 365.521 322.519 364.535C322.519 364.096 322.931 363.962 323.362 363.962C323.971 363.962 324.303 364.275 324.33 364.795L325.11 364.652C325.083 363.747 324.393 363.254 323.38 363.254C322.492 363.254 321.677 363.648 321.677 364.571C321.677 366.247 324.375 365.656 324.375 366.722C324.375 367.144 323.998 367.377 323.424 367.377C322.779 367.377 322.358 367.063 322.277 366.355L321.506 366.525C321.578 367.52 322.304 368.076 323.38 368.076Z" fill="black"/>
<path d="M249.523 360.957C249.223 360.73 248.817 360.73 248.517 360.957L245.171 363.486C244.871 363.713 244.746 364.116 244.86 364.483L246.138 368.575C246.253 368.942 246.581 369.19 246.952 369.19H251.088C251.459 369.19 251.787 368.942 251.902 368.575L253.18 364.483C253.294 364.116 253.169 363.713 252.869 363.486L249.523 360.957Z" fill="#F99E67" stroke="black"/>
<path d="M458.219 365.01V362.805H457.394V365.01H455.216V365.781H457.394V367.986H458.219V365.781H460.406V365.01H458.219ZM463.251 367.986V361.658H462.579C462.418 362.429 461.942 362.734 461.064 362.761V363.415H462.382V367.986H463.251ZM464.493 369.071C465.012 369.053 465.479 368.766 465.479 368.067V366.982H464.493V367.986H464.941V368.13C464.941 368.461 464.743 368.542 464.493 368.578V369.071ZM468.384 368.076C470.096 368.076 470.643 366.427 470.643 364.813C470.643 363.2 470.114 361.568 468.402 361.568C466.708 361.568 466.161 363.2 466.161 364.813C466.161 366.427 466.69 368.076 468.384 368.076ZM468.384 367.332C467.461 367.332 467.022 366.346 467.022 364.786C467.022 363.227 467.479 362.312 468.402 362.312C469.343 362.312 469.774 363.227 469.774 364.786C469.774 366.346 469.325 367.332 468.384 367.332ZM473.768 368.076C475.48 368.076 476.026 366.427 476.026 364.813C476.026 363.2 475.498 361.568 473.786 361.568C472.091 361.568 471.545 363.2 471.545 364.813C471.545 366.427 472.074 368.076 473.768 368.076ZM473.768 367.332C472.844 367.332 472.405 366.346 472.405 364.786C472.405 363.227 472.862 362.312 473.786 362.312C474.727 362.312 475.157 363.227 475.157 364.786C475.157 366.346 474.709 367.332 473.768 367.332ZM479.151 368.076C480.863 368.076 481.41 366.427 481.41 364.813C481.41 363.2 480.881 361.568 479.169 361.568C477.475 361.568 476.928 363.2 476.928 364.813C476.928 366.427 477.457 368.076 479.151 368.076ZM479.151 367.332C478.228 367.332 477.789 366.346 477.789 364.786C477.789 363.227 478.246 362.312 479.169 362.312C480.11 362.312 480.54 363.227 480.54 364.786C480.54 366.346 480.092 367.332 479.151 367.332Z" fill="black"/>
<path d="M260.42 389.749H263.503V388.961H260.42V387.096H263.826V386.307H259.55V392.636H263.942V391.847H260.42V389.749ZM269.968 387.912C269.278 387.912 268.785 388.217 268.445 388.665C268.185 388.163 267.701 387.903 267.073 387.903C266.58 387.903 266.15 388.1 265.782 388.513V387.993H264.931V392.636H265.782V390.108C265.782 389.185 266.231 388.665 266.876 388.665C267.781 388.665 267.781 389.588 267.781 390.144V392.636H268.633V390.153C268.633 389.176 269.072 388.665 269.762 388.665C270.623 388.665 270.632 389.498 270.632 390.117V392.636H271.483V390.108C271.483 389.239 271.474 387.912 269.968 387.912ZM276.317 392.636C276.2 392.125 276.174 391.73 276.174 391.282V389.785C276.174 388.979 276.111 387.903 274.444 387.903C273.386 387.903 272.642 388.378 272.534 389.463L273.386 389.49C273.44 388.907 273.753 388.629 274.399 388.629C275.125 388.629 275.34 388.934 275.34 389.319C275.34 389.615 275.223 389.66 274.981 389.696L273.816 389.911C272.965 390.063 272.409 390.449 272.409 391.291C272.409 392.179 273.036 392.725 273.986 392.725C274.623 392.725 275.116 392.483 275.394 392.107C275.421 392.34 275.483 392.528 275.537 392.636H276.317ZM274.13 391.99C273.637 391.99 273.278 391.748 273.278 391.3C273.278 390.995 273.422 390.709 274.094 390.583L274.963 390.413C275.107 390.377 275.232 390.35 275.34 390.305V390.682C275.34 391.596 274.766 391.99 274.13 391.99ZM278.16 387.258V386.307H277.273V387.258H278.16ZM278.142 392.636V387.993H277.291V392.636H278.142ZM280.217 392.636V386.307H279.365V392.636H280.217ZM286.897 391.291L285.033 386.307H283.859V392.636H284.719V387.777L286.53 392.636H287.256L289.075 387.769V392.636H289.936V386.307H288.744L286.897 391.291ZM295.412 386.307H291.378V392.636H292.247V389.749H295.044V388.961H292.247V387.096H295.412V386.307ZM300.976 392.636L298.52 386.307H297.678L295.24 392.636H296.145L296.719 391.121H299.462L300.044 392.636H300.976ZM298.081 387.527L299.157 390.332H297.015L298.081 387.527ZM308.615 392.636L307.163 389.821C307.925 389.561 308.409 389.005 308.409 388.154C308.409 387.051 307.755 386.307 306.231 386.307H304.053V392.636H304.922V389.991H306.276L307.611 392.636H308.615ZM306.249 387.096C307.154 387.096 307.531 387.428 307.531 388.145C307.531 388.799 307.083 389.203 306.24 389.203H304.922V387.096H306.249ZM311.316 387.903C309.908 387.903 309.138 388.916 309.138 390.359C309.138 391.802 309.971 392.725 311.28 392.725C312.239 392.725 313.01 392.205 313.297 391.327L312.553 391.076C312.364 391.623 311.943 391.981 311.307 391.981C310.518 391.981 310.07 391.479 310.016 390.583H313.342C313.458 388.907 312.696 387.903 311.316 387.903ZM311.28 388.638C312.024 388.638 312.454 389.086 312.499 389.875H310.025C310.097 389.158 310.5 388.638 311.28 388.638ZM317.419 388.584C317.043 388.1 316.577 387.903 315.994 387.903C314.793 387.903 314.013 388.889 314.013 390.332C314.013 391.775 314.793 392.725 315.94 392.725C316.541 392.725 317.061 392.501 317.419 392.044V394.249H318.271V387.993H317.419V388.584ZM316.138 391.99C315.367 391.99 314.874 391.345 314.874 390.305C314.874 389.256 315.385 388.638 316.129 388.638C316.935 388.638 317.446 389.239 317.446 390.323C317.446 391.39 316.944 391.99 316.138 391.99ZM322.387 390.493C322.387 391.246 322.037 391.963 321.203 391.963C320.334 391.963 320.316 391.3 320.316 390.502V387.993H319.464V390.556C319.464 391.444 319.464 392.725 321.006 392.725C321.705 392.725 322.162 392.421 322.458 391.972V392.636H323.238V387.993H322.387V390.493ZM325.324 387.258V386.307H324.437V387.258H325.324ZM325.306 392.636V387.993H324.455V392.636H325.306ZM328.627 387.903C327.999 387.903 327.578 388.27 327.381 388.62V387.993H326.529V392.636H327.381V390.341C327.381 389.194 327.856 388.728 328.618 388.728C328.77 388.728 328.913 388.737 329.003 388.746V387.957C328.896 387.93 328.761 387.903 328.627 387.903ZM331.449 387.903C330.041 387.903 329.271 388.916 329.271 390.359C329.271 391.802 330.104 392.725 331.413 392.725C332.372 392.725 333.143 392.205 333.43 391.327L332.686 391.076C332.497 391.623 332.076 391.981 331.44 391.981C330.651 391.981 330.203 391.479 330.149 390.583H333.475C333.591 388.907 332.829 387.903 331.449 387.903ZM331.413 388.638C332.157 388.638 332.587 389.086 332.632 389.875H330.158C330.23 389.158 330.633 388.638 331.413 388.638ZM337.552 388.521C337.248 388.136 336.773 387.903 336.118 387.903C335.016 387.903 334.146 388.763 334.146 390.305C334.146 391.829 334.953 392.725 336.118 392.725C336.755 392.725 337.23 392.501 337.561 392.035V392.636H338.404V386.307H337.552V388.521ZM336.271 391.99C335.473 391.99 334.989 391.372 334.989 390.323C334.989 389.292 335.473 388.638 336.28 388.638C337.068 388.638 337.579 389.256 337.579 390.305C337.579 391.363 337.086 391.99 336.271 391.99Z" fill="black"/>
<path d="M249.523 385.607C249.223 385.38 248.817 385.38 248.517 385.607L245.171 388.136C244.871 388.363 244.746 388.765 244.86 389.132L246.138 393.224C246.253 393.591 246.581 393.84 246.952 393.84H251.088C251.459 393.84 251.787 393.591 251.902 393.224L253.18 389.132C253.294 388.765 253.169 388.363 252.869 388.136L249.523 385.607Z" fill="#F0EDEB" stroke="black"/>
<path d="M458.219 389.66V387.455H457.394V389.66H455.216V390.431H457.394V392.636H458.219V390.431H460.406V389.66H458.219ZM463.251 392.636V386.307H462.579C462.418 387.078 461.942 387.383 461.064 387.41V388.064H462.382V392.636H463.251ZM464.493 393.72C465.012 393.702 465.479 393.416 465.479 392.716V391.632H464.493V392.636H464.941V392.779C464.941 393.111 464.743 393.191 464.493 393.227V393.72ZM468.384 392.725C470.096 392.725 470.643 391.076 470.643 389.463C470.643 387.849 470.114 386.218 468.402 386.218C466.708 386.218 466.161 387.849 466.161 389.463C466.161 391.076 466.69 392.725 468.384 392.725ZM468.384 391.981C467.461 391.981 467.022 390.995 467.022 389.436C467.022 387.876 467.479 386.962 468.402 386.962C469.343 386.962 469.774 387.876 469.774 389.436C469.774 390.995 469.325 391.981 468.384 391.981ZM473.768 392.725C475.48 392.725 476.026 391.076 476.026 389.463C476.026 387.849 475.498 386.218 473.786 386.218C472.091 386.218 471.545 387.849 471.545 389.463C471.545 391.076 472.074 392.725 473.768 392.725ZM473.768 391.981C472.844 391.981 472.405 390.995 472.405 389.436C472.405 387.876 472.862 386.962 473.786 386.962C474.727 386.962 475.157 387.876 475.157 389.436C475.157 390.995 474.709 391.981 473.768 391.981ZM479.151 392.725C480.863 392.725 481.41 391.076 481.41 389.463C481.41 387.849 480.881 386.218 479.169 386.218C477.475 386.218 476.928 387.849 476.928 389.463C476.928 391.076 477.457 392.725 479.151 392.725ZM479.151 391.981C478.228 391.981 477.789 390.995 477.789 389.436C477.789 387.876 478.246 386.962 479.169 386.962C480.11 386.962 480.54 387.876 480.54 389.436C480.54 390.995 480.092 391.981 479.151 391.981Z" fill="black"/>
</svg>
