<svg width="514" height="479" viewBox="0 0 514 479" fill="none" xmlns="http://www.w3.org/2000/svg">
<path d="M121.156 36.1475L116.384 23.7632H114.385L109.648 36.1475H111.859L112.894 33.3934H117.84L118.875 36.1475H121.156ZM115.349 26.8505L117.103 31.4814H113.613L115.349 26.8505ZM125.354 36.3404C127.477 36.3404 129.125 35.3756 129.125 33.4987C129.125 30.2009 123.933 31.078 123.933 29.4291C123.933 28.78 124.6 28.5695 125.284 28.5695C126.301 28.5695 126.915 29.0607 126.968 29.9378L128.88 29.5869C128.81 27.8679 127.406 26.868 125.372 26.868C123.547 26.868 121.863 27.6749 121.863 29.5168C121.863 32.762 127.056 31.8498 127.056 33.639C127.056 34.2881 126.406 34.6564 125.477 34.6564C124.337 34.6564 123.547 34.1477 123.389 32.9198L121.53 33.3233C121.688 35.2353 123.144 36.3404 125.354 36.3404ZM133.988 36.3404C136.11 36.3404 137.759 35.3756 137.759 33.4987C137.759 30.2009 132.567 31.078 132.567 29.4291C132.567 28.78 133.233 28.5695 133.918 28.5695C134.935 28.5695 135.549 29.0607 135.602 29.9378L137.514 29.5869C137.443 27.8679 136.04 26.868 134.005 26.868C132.181 26.868 130.497 27.6749 130.497 29.5168C130.497 32.762 135.689 31.8498 135.689 33.639C135.689 34.2881 135.04 34.6564 134.11 34.6564C132.97 34.6564 132.181 34.1477 132.023 32.9198L130.164 33.3233C130.322 35.2353 131.777 36.3404 133.988 36.3404ZM143.288 26.868C140.429 26.868 138.832 28.8151 138.832 31.6568C138.832 34.5336 140.534 36.3404 143.2 36.3404C145.147 36.3404 146.726 35.3406 147.287 33.6215L145.446 33.0251C145.13 33.9372 144.393 34.5512 143.253 34.5512C141.902 34.5512 141.078 33.7092 140.955 32.2532H147.428C147.673 28.8853 146.112 26.868 143.288 26.868ZM143.235 28.6046C144.481 28.6046 145.235 29.3414 145.358 30.6219H140.99C141.148 29.4115 141.902 28.6046 143.235 28.6046ZM151.845 28.7976H153.424V27.061H151.845V24.5701H149.74V27.061H148.407V28.7976H149.74V34.2179C149.74 35.6388 150.407 36.3404 151.88 36.3404C152.6 36.3404 153.143 36.2352 153.564 36.1124V34.4635C152.196 34.6915 151.845 34.6214 151.845 33.5513V28.7976ZM158.381 36.3404C160.504 36.3404 162.153 35.3756 162.153 33.4987C162.153 30.2009 156.96 31.078 156.96 29.4291C156.96 28.78 157.627 28.5695 158.311 28.5695C159.329 28.5695 159.943 29.0607 159.995 29.9378L161.907 29.5869C161.837 27.8679 160.434 26.868 158.399 26.868C156.575 26.868 154.891 27.6749 154.891 29.5168C154.891 32.762 160.083 31.8498 160.083 33.639C160.083 34.2881 159.434 34.6564 158.504 34.6564C157.364 34.6564 156.575 34.1477 156.417 32.9198L154.557 33.3233C154.715 35.2353 156.171 36.3404 158.381 36.3404Z" fill="#121212"/>
<path d="M112.198 60.1475V49.8272H110.78V60.1475H112.198ZM119.416 53.4378C118.919 52.8093 118.144 52.4292 117.077 52.4292C115.279 52.4292 113.861 53.8325 113.861 56.3468C113.861 58.8318 115.177 60.2936 117.077 60.2936C118.115 60.2936 118.89 59.9282 119.431 59.1681V60.1475H120.805V49.8272H119.416V53.4378ZM117.326 59.095C116.025 59.095 115.235 58.0863 115.235 56.376C115.235 54.695 116.025 53.6279 117.34 53.6279C118.627 53.6279 119.46 54.6365 119.46 56.3468C119.46 58.0717 118.656 59.095 117.326 59.095ZM125.779 52.4292C123.484 52.4292 122.227 54.081 122.227 56.4345C122.227 58.788 123.586 60.2936 125.72 60.2936C127.285 60.2936 128.542 59.4458 129.009 58.0132L127.796 57.6039C127.489 58.4956 126.802 59.0804 125.764 59.0804C124.478 59.0804 123.747 58.2617 123.659 56.8H129.083C129.273 54.0664 128.03 52.4292 125.779 52.4292ZM125.72 53.6279C126.934 53.6279 127.635 54.3588 127.708 55.6451H123.674C123.791 54.4757 124.449 53.6279 125.72 53.6279ZM134.273 52.4292C133.279 52.4292 132.548 52.8093 131.992 53.4378V52.5754H130.604V60.1475H131.992V56.0544C131.992 54.6365 132.753 53.6717 133.951 53.6717C135.428 53.6717 135.442 54.9435 135.442 56.1568V60.1475H136.831V56.1275C136.831 54.695 136.831 52.4292 134.273 52.4292ZM140.701 53.7448H142.178V52.5754H140.701V50.4996H139.313V52.5754H138.085V53.7448H139.313V58.5395C139.313 59.7089 139.81 60.2936 140.95 60.2936C141.505 60.2936 141.944 60.2059 142.295 60.089V58.9634C141.038 59.2119 140.701 59.1534 140.701 58.0863V53.7448ZM145.198 51.3767V49.8272H143.751V51.3767H145.198ZM145.169 60.1475V52.5754H143.78V60.1475H145.169ZM150.847 49.8272C149.02 49.4179 147.792 49.9003 147.792 51.8006V52.5754H146.549V53.7448H147.792V60.1475H149.18V53.7448H150.847V52.5754H149.18V52.0345C149.18 50.9382 149.473 50.7774 150.847 50.9966V49.8272ZM155.02 57.9694L153.193 52.5754H151.673L154.333 59.9282L154.099 60.5275C153.778 61.3754 153.529 61.6385 152.725 61.6385C152.389 61.6385 152.082 61.5946 151.746 61.5362L151.717 62.7787C151.995 62.8518 152.404 62.9249 152.93 62.9249C153.939 62.9249 154.699 62.574 155.21 61.2L158.426 52.5754H156.95L155.02 57.9694Z" fill="#121212"/>
<path d="M110.929 180.291V192.676H113.069V187.817H115.525C118.437 187.817 119.928 186.273 119.928 184.01C119.928 181.537 118.226 180.291 115.525 180.291H110.929ZM113.069 185.887V182.221H115.525C116.981 182.221 117.753 182.817 117.753 184.028C117.753 185.186 116.998 185.887 115.525 185.887H113.069ZM126.156 183.396C124.946 183.396 124.139 184.063 123.753 184.694V183.589H121.648V192.676H123.753V188.343C123.753 186.256 124.63 185.396 126.156 185.396C126.454 185.396 126.753 185.414 126.928 185.431V183.519C126.717 183.449 126.454 183.396 126.156 183.396ZM131.791 192.869C134.51 192.869 136.177 190.992 136.177 188.115C136.177 185.256 134.51 183.396 131.791 183.396C129.09 183.396 127.424 185.256 127.424 188.115C127.424 190.992 129.09 192.869 131.791 192.869ZM131.791 191.097C130.3 191.097 129.511 189.922 129.511 188.115C129.511 186.343 130.3 185.168 131.809 185.168C133.318 185.168 134.107 186.343 134.107 188.115C134.107 189.887 133.318 191.097 131.791 191.097ZM141.693 192.869C143.746 192.869 145.096 191.869 145.64 190.15L143.816 189.536C143.5 190.395 142.886 191.062 141.763 191.062C140.29 191.062 139.43 189.922 139.43 188.08C139.43 186.256 140.36 185.168 141.746 185.168C142.763 185.168 143.482 185.764 143.816 186.624L145.57 185.94C144.938 184.326 143.5 183.396 141.676 183.396C139.237 183.396 137.308 185.115 137.308 188.168C137.308 191.15 139.044 192.869 141.693 192.869ZM150.98 183.396C148.12 183.396 146.524 185.343 146.524 188.185C146.524 191.062 148.226 192.869 150.892 192.869C152.839 192.869 154.418 191.869 154.979 190.15L153.137 189.553C152.821 190.466 152.085 191.08 150.944 191.08C149.594 191.08 148.769 190.238 148.647 188.782H155.119C155.365 185.414 153.804 183.396 150.98 183.396ZM150.927 185.133C152.172 185.133 152.927 185.87 153.049 187.15H148.682C148.839 185.94 149.594 185.133 150.927 185.133ZM162.848 184.396C162.252 183.765 161.357 183.396 160.252 183.396C158.007 183.396 156.323 185.133 156.323 188.15C156.323 191.044 157.849 192.869 160.234 192.869C161.41 192.869 162.269 192.465 162.883 191.676V192.676H164.953V180.291H162.848V184.396ZM160.62 191.097C159.234 191.097 158.375 189.992 158.375 188.15C158.375 186.326 159.234 185.168 160.638 185.168C162.024 185.168 162.901 186.256 162.901 188.115C162.901 189.992 162.041 191.097 160.62 191.097ZM172.757 188.361C172.757 189.501 172.407 191.009 170.758 191.009C169.319 191.009 169.284 189.922 169.284 188.396V183.589H167.179V188.676C167.179 190.325 167.179 192.869 170.249 192.869C171.617 192.869 172.407 192.307 172.95 191.501V192.676H174.862V183.589H172.757V188.361ZM181.659 183.396C180.448 183.396 179.641 184.063 179.255 184.694V183.589H177.15V192.676H179.255V188.343C179.255 186.256 180.132 185.396 181.659 185.396C181.957 185.396 182.255 185.414 182.43 185.431V183.519C182.22 183.449 181.957 183.396 181.659 183.396ZM187.382 183.396C184.522 183.396 182.926 185.343 182.926 188.185C182.926 191.062 184.628 192.869 187.294 192.869C189.241 192.869 190.82 191.869 191.381 190.15L189.539 189.553C189.223 190.466 188.487 191.08 187.346 191.08C185.996 191.08 185.171 190.238 185.049 188.782H191.521C191.767 185.414 190.206 183.396 187.382 183.396ZM187.329 185.133C188.574 185.133 189.329 185.87 189.451 187.15H185.084C185.241 185.94 185.996 185.133 187.329 185.133ZM196.394 192.869C198.516 192.869 200.165 191.904 200.165 190.027C200.165 186.729 194.973 187.606 194.973 185.957C194.973 185.308 195.639 185.098 196.323 185.098C197.341 185.098 197.955 185.589 198.007 186.466L199.919 186.115C199.849 184.396 198.446 183.396 196.411 183.396C194.587 183.396 192.903 184.203 192.903 186.045C192.903 189.29 198.095 188.378 198.095 190.167C198.095 190.816 197.446 191.185 196.516 191.185C195.376 191.185 194.587 190.676 194.429 189.448L192.57 189.852C192.727 191.764 194.183 192.869 196.394 192.869Z" fill="#121212"/>
<path d="M115.048 216.822C117.562 216.822 119.127 215.389 119.565 213.474L118.176 213.226C117.84 214.483 116.846 215.521 115.077 215.521C112.841 215.521 111.613 213.884 111.613 211.545C111.613 209.148 112.885 207.51 115.092 207.51C116.554 207.51 117.533 208.227 118.016 209.367L119.346 208.943C118.747 207.262 117.212 206.209 115.092 206.209C112.066 206.209 110.151 208.344 110.151 211.589C110.151 214.761 112.008 216.822 115.048 216.822ZM124.417 208.958C123.394 208.958 122.707 209.557 122.385 210.127V209.104H120.996V216.676H122.385V212.934C122.385 211.063 123.16 210.302 124.402 210.302C124.651 210.302 124.885 210.317 125.031 210.332V209.045C124.856 209.001 124.636 208.958 124.417 208.958ZM129.019 208.958C126.724 208.958 125.467 210.609 125.467 212.963C125.467 215.316 126.827 216.822 128.961 216.822C130.525 216.822 131.782 215.974 132.25 214.542L131.037 214.132C130.73 215.024 130.043 215.609 129.005 215.609C127.718 215.609 126.987 214.79 126.9 213.328H132.323C132.513 210.595 131.271 208.958 129.019 208.958ZM128.961 210.156C130.174 210.156 130.876 210.887 130.949 212.173H126.914C127.031 211.004 127.689 210.156 128.961 210.156ZM139.779 216.676C139.589 215.843 139.545 215.199 139.545 214.468V212.027C139.545 210.712 139.443 208.958 136.724 208.958C134.999 208.958 133.786 209.732 133.61 211.501L134.999 211.545C135.087 210.595 135.598 210.142 136.651 210.142C137.835 210.142 138.186 210.639 138.186 211.267C138.186 211.75 137.996 211.823 137.601 211.881L135.701 212.232C134.312 212.48 133.406 213.109 133.406 214.483C133.406 215.93 134.429 216.822 135.978 216.822C137.016 216.822 137.82 216.427 138.273 215.813C138.317 216.193 138.42 216.5 138.507 216.676H139.779ZM136.212 215.623C135.408 215.623 134.824 215.229 134.824 214.498C134.824 214.001 135.057 213.533 136.154 213.328L137.572 213.051C137.806 212.992 138.01 212.948 138.186 212.875V213.489C138.186 214.98 137.25 215.623 136.212 215.623ZM143.271 210.273H144.747V209.104H143.271V207.028H141.882V209.104H140.654V210.273H141.882V215.068C141.882 216.237 142.379 216.822 143.52 216.822C144.075 216.822 144.514 216.734 144.864 216.617V215.492C143.607 215.74 143.271 215.682 143.271 214.615V210.273ZM149.276 208.958C146.981 208.958 145.724 210.609 145.724 212.963C145.724 215.316 147.083 216.822 149.218 216.822C150.782 216.822 152.039 215.974 152.507 214.542L151.293 214.132C150.986 215.024 150.299 215.609 149.261 215.609C147.975 215.609 147.244 214.79 147.156 213.328H152.58C152.77 210.595 151.527 208.958 149.276 208.958ZM149.218 210.156C150.431 210.156 151.133 210.887 151.206 212.173H147.171C147.288 211.004 147.946 210.156 149.218 210.156Z" fill="#121212"/>
<path d="M120.278 350.888L117.524 345.52C119.015 344.959 119.893 343.854 119.893 342.187C119.893 339.942 118.472 338.503 115.455 338.503H110.929V350.888H113.069V345.923H115.332L117.805 350.888H120.278ZM115.507 340.433C117.086 340.433 117.717 341.012 117.717 342.187C117.717 343.31 116.998 343.994 115.507 343.994H113.069V340.433H115.507ZM125.695 341.608C122.836 341.608 121.24 343.555 121.24 346.397C121.24 349.274 122.941 351.081 125.607 351.081C127.554 351.081 129.133 350.081 129.695 348.362L127.853 347.765C127.537 348.677 126.8 349.291 125.66 349.291C124.309 349.291 123.485 348.449 123.362 346.993H129.835C130.08 343.626 128.519 341.608 125.695 341.608ZM125.642 343.345C126.888 343.345 127.642 344.082 127.765 345.362H123.397C123.555 344.152 124.309 343.345 125.642 343.345ZM134.707 351.081C136.83 351.081 138.479 350.116 138.479 348.239C138.479 344.941 133.286 345.818 133.286 344.169C133.286 343.52 133.953 343.31 134.637 343.31C135.654 343.31 136.268 343.801 136.321 344.678L138.233 344.327C138.163 342.608 136.76 341.608 134.725 341.608C132.9 341.608 131.216 342.415 131.216 344.257C131.216 347.502 136.409 346.59 136.409 348.379C136.409 349.028 135.76 349.397 134.83 349.397C133.69 349.397 132.9 348.888 132.743 347.66L130.883 348.064C131.041 349.976 132.497 351.081 134.707 351.081ZM143.92 351.081C146.639 351.081 148.305 349.204 148.305 346.327C148.305 343.468 146.639 341.608 143.92 341.608C141.218 341.608 139.552 343.468 139.552 346.327C139.552 349.204 141.218 351.081 143.92 351.081ZM143.92 349.309C142.429 349.309 141.639 348.134 141.639 346.327C141.639 344.555 142.429 343.38 143.937 343.38C145.446 343.38 146.235 344.555 146.235 346.327C146.235 348.099 145.446 349.309 143.92 349.309ZM155.507 346.572C155.507 347.713 155.156 349.221 153.507 349.221C152.069 349.221 152.034 348.134 152.034 346.608V341.801H149.929V346.888C149.929 348.537 149.929 351.081 152.999 351.081C154.367 351.081 155.156 350.519 155.7 349.712V350.888H157.612V341.801H155.507V346.572ZM164.408 341.608C163.198 341.608 162.391 342.275 162.005 342.906V341.801H159.9V350.888H162.005V346.555C162.005 344.468 162.882 343.608 164.408 343.608C164.706 343.608 165.005 343.626 165.18 343.643V341.731C164.97 341.661 164.706 341.608 164.408 341.608ZM170.061 351.081C172.113 351.081 173.464 350.081 174.008 348.362L172.184 347.748C171.868 348.607 171.254 349.274 170.131 349.274C168.658 349.274 167.798 348.134 167.798 346.292C167.798 344.468 168.728 343.38 170.114 343.38C171.131 343.38 171.85 343.976 172.184 344.836L173.938 344.152C173.306 342.538 171.868 341.608 170.044 341.608C167.605 341.608 165.676 343.327 165.676 346.38C165.676 349.362 167.412 351.081 170.061 351.081ZM179.347 341.608C176.488 341.608 174.892 343.555 174.892 346.397C174.892 349.274 176.593 351.081 179.26 351.081C181.207 351.081 182.786 350.081 183.347 348.362L181.505 347.765C181.189 348.677 180.453 349.291 179.312 349.291C177.962 349.291 177.137 348.449 177.014 346.993H183.487C183.733 343.626 182.172 341.608 179.347 341.608ZM179.295 343.345C180.54 343.345 181.295 344.082 181.417 345.362H177.049C177.207 344.152 177.962 343.345 179.295 343.345ZM188.359 351.081C190.482 351.081 192.131 350.116 192.131 348.239C192.131 344.941 186.939 345.818 186.939 344.169C186.939 343.52 187.605 343.31 188.289 343.31C189.307 343.31 189.921 343.801 189.973 344.678L191.885 344.327C191.815 342.608 190.412 341.608 188.377 341.608C186.553 341.608 184.869 342.415 184.869 344.257C184.869 347.502 190.061 346.59 190.061 348.379C190.061 349.028 189.412 349.397 188.482 349.397C187.342 349.397 186.553 348.888 186.395 347.66L184.535 348.064C184.693 349.976 186.149 351.081 188.359 351.081Z" fill="#121212"/>
<path d="M114.2 375.034C116.612 375.034 117.826 373.806 117.826 372.008C117.826 368.061 111.964 369.596 111.964 367.155C111.964 366.234 112.768 365.664 114.01 365.664C115.355 365.664 116.057 366.38 116.364 367.579L117.694 367.155C117.387 365.386 115.998 364.421 114.113 364.421C111.861 364.421 110.502 365.518 110.502 367.286C110.502 370.941 116.364 369.479 116.364 372.081C116.364 373.075 115.589 373.762 114.215 373.762C112.592 373.762 111.803 372.841 111.613 371.409L110.166 371.716C110.429 373.908 111.964 375.034 114.2 375.034ZM122.481 367.169C120.186 367.169 118.929 368.821 118.929 371.175C118.929 373.528 120.289 375.034 122.423 375.034C123.987 375.034 125.244 374.186 125.712 372.753L124.499 372.344C124.192 373.236 123.505 373.821 122.467 373.821C121.18 373.821 120.449 373.002 120.362 371.54H125.785C125.975 368.807 124.732 367.169 122.481 367.169ZM122.423 368.368C123.636 368.368 124.338 369.099 124.411 370.385H120.376C120.493 369.216 121.151 368.368 122.423 368.368ZM130.36 375.034C131.997 375.034 133.108 374.23 133.575 372.753L132.362 372.344C132.055 373.148 131.5 373.821 130.418 373.821C129.088 373.821 128.298 372.753 128.298 371.058C128.298 369.377 129.146 368.368 130.403 368.368C131.354 368.368 131.982 368.938 132.318 369.771L133.502 369.304C132.976 367.944 131.836 367.169 130.36 367.169C128.401 367.169 126.88 368.602 126.88 371.116C126.88 373.601 128.255 375.034 130.36 375.034ZM139.636 371.394C139.636 372.622 139.066 373.791 137.707 373.791C136.289 373.791 136.26 372.71 136.26 371.409V367.316H134.871V371.496C134.871 372.944 134.871 375.034 137.385 375.034C138.525 375.034 139.271 374.537 139.753 373.806V374.888H141.025V367.316H139.636V371.394ZM146.43 367.169C145.406 367.169 144.719 367.769 144.398 368.339V367.316H143.009V374.888H144.398V371.146C144.398 369.274 145.172 368.514 146.415 368.514C146.663 368.514 146.897 368.529 147.043 368.544V367.257C146.868 367.213 146.649 367.169 146.43 367.169ZM151.032 367.169C148.737 367.169 147.48 368.821 147.48 371.175C147.48 373.528 148.839 375.034 150.973 375.034C152.538 375.034 153.795 374.186 154.262 372.753L153.049 372.344C152.742 373.236 152.055 373.821 151.017 373.821C149.731 373.821 149 373.002 148.912 371.54H154.336C154.526 368.807 153.283 367.169 151.032 367.169ZM150.973 368.368C152.187 368.368 152.888 369.099 152.961 370.385H148.927C149.044 369.216 149.702 368.368 150.973 368.368Z" fill="#121212"/>
<path d="M120.278 115.254L117.524 109.886C119.015 109.325 119.893 108.22 119.893 106.553C119.893 104.308 118.472 102.87 115.455 102.87H110.929V115.254H113.069V110.29H115.332L117.805 115.254H120.278ZM115.507 104.799C117.086 104.799 117.717 105.378 117.717 106.553C117.717 107.676 116.998 108.36 115.507 108.36H113.069V104.799H115.507ZM124.199 104.904V102.87H122.059V104.904H124.199ZM124.181 115.254V106.167H122.076V115.254H124.181ZM129.619 115.447C131.742 115.447 133.391 114.482 133.391 112.605C133.391 109.307 128.199 110.184 128.199 108.536C128.199 107.886 128.865 107.676 129.549 107.676C130.567 107.676 131.181 108.167 131.233 109.044L133.145 108.693C133.075 106.974 131.672 105.974 129.637 105.974C127.813 105.974 126.129 106.781 126.129 108.623C126.129 111.868 131.321 110.956 131.321 112.745C131.321 113.395 130.672 113.763 129.742 113.763C128.602 113.763 127.813 113.254 127.655 112.026L125.795 112.43C125.953 114.342 127.409 115.447 129.619 115.447ZM143.445 115.254L139.604 109.518L142.972 106.167H140.411L137.183 109.43V102.87H135.078V115.254H137.183V111.956L138.148 110.991L140.919 115.254H143.445Z" fill="#121212"/>
<path d="M112.198 139.254V128.934H110.78V139.254H112.198ZM119.416 132.544C118.919 131.916 118.144 131.536 117.077 131.536C115.279 131.536 113.861 132.939 113.861 135.453C113.861 137.938 115.177 139.4 117.077 139.4C118.115 139.4 118.89 139.035 119.431 138.275V139.254H120.805V128.934H119.416V132.544ZM117.326 138.201C116.025 138.201 115.235 137.193 115.235 135.482C115.235 133.801 116.025 132.734 117.34 132.734C118.627 132.734 119.46 133.743 119.46 135.453C119.46 137.178 118.656 138.201 117.326 138.201ZM125.779 131.536C123.484 131.536 122.227 133.187 122.227 135.541C122.227 137.894 123.586 139.4 125.72 139.4C127.285 139.4 128.542 138.552 129.009 137.12L127.796 136.71C127.489 137.602 126.802 138.187 125.764 138.187C124.478 138.187 123.747 137.368 123.659 135.906H129.083C129.273 133.173 128.03 131.536 125.779 131.536ZM125.72 132.734C126.934 132.734 127.635 133.465 127.708 134.752H123.674C123.791 133.582 124.449 132.734 125.72 132.734ZM134.273 131.536C133.279 131.536 132.548 131.916 131.992 132.544V131.682H130.604V139.254H131.992V135.161C131.992 133.743 132.753 132.778 133.951 132.778C135.428 132.778 135.442 134.05 135.442 135.263V139.254H136.831V135.234C136.831 133.801 136.831 131.536 134.273 131.536ZM140.701 132.851H142.178V131.682H140.701V129.606H139.313V131.682H138.085V132.851H139.313V137.646C139.313 138.815 139.81 139.4 140.95 139.4C141.505 139.4 141.944 139.312 142.295 139.195V138.07C141.038 138.318 140.701 138.26 140.701 137.193V132.851ZM145.198 130.483V128.934H143.751V130.483H145.198ZM145.169 139.254V131.682H143.78V139.254H145.169ZM150.847 128.934C149.02 128.524 147.792 129.007 147.792 130.907V131.682H146.549V132.851H147.792V139.254H149.18V132.851H150.847V131.682H149.18V131.141C149.18 130.045 149.473 129.884 150.847 130.103V128.934ZM155.02 137.076L153.193 131.682H151.673L154.333 139.035L154.099 139.634C153.778 140.482 153.529 140.745 152.725 140.745C152.389 140.745 152.082 140.701 151.746 140.643L151.717 141.885C151.995 141.958 152.404 142.031 152.93 142.031C153.939 142.031 154.699 141.68 155.21 140.306L158.426 131.682H156.95L155.02 137.076Z" fill="#121212"/>
<path d="M120.278 271.781L117.524 266.414C119.015 265.852 119.893 264.747 119.893 263.081C119.893 260.835 118.472 259.397 115.455 259.397H110.929V271.781H113.069V266.817H115.332L117.805 271.781H120.278ZM115.507 261.327C117.086 261.327 117.717 261.905 117.717 263.081C117.717 264.203 116.998 264.887 115.507 264.887H113.069V261.327H115.507ZM125.695 262.502C122.836 262.502 121.24 264.449 121.24 267.291C121.24 270.167 122.941 271.974 125.607 271.974C127.554 271.974 129.133 270.974 129.695 269.255L127.853 268.659C127.537 269.571 126.8 270.185 125.66 270.185C124.309 270.185 123.485 269.343 123.362 267.887H129.835C130.08 264.519 128.519 262.502 125.695 262.502ZM125.642 264.238C126.888 264.238 127.642 264.975 127.765 266.256H123.397C123.555 265.045 124.309 264.238 125.642 264.238ZM134.707 271.974C136.83 271.974 138.479 271.009 138.479 269.132C138.479 265.835 133.286 266.712 133.286 265.063C133.286 264.414 133.953 264.203 134.637 264.203C135.654 264.203 136.268 264.694 136.321 265.572L138.233 265.221C138.163 263.502 136.76 262.502 134.725 262.502C132.9 262.502 131.216 263.309 131.216 265.151C131.216 268.396 136.409 267.484 136.409 269.273C136.409 269.922 135.76 270.29 134.83 270.29C133.69 270.29 132.9 269.782 132.743 268.554L130.883 268.957C131.041 270.869 132.497 271.974 134.707 271.974ZM144.867 262.502C143.779 262.502 142.885 262.958 142.271 263.712V262.695H140.166V274.939H142.271V270.974C142.867 271.606 143.779 271.974 144.832 271.974C147.112 271.974 148.779 270.22 148.779 267.185C148.779 264.361 147.253 262.502 144.867 262.502ZM144.481 270.203C143.078 270.203 142.218 269.115 142.218 267.238C142.218 265.379 143.078 264.273 144.499 264.273C145.884 264.273 146.726 265.379 146.726 267.22C146.726 269.045 145.884 270.203 144.481 270.203ZM154.284 271.974C157.003 271.974 158.669 270.097 158.669 267.22C158.669 264.361 157.003 262.502 154.284 262.502C151.582 262.502 149.916 264.361 149.916 267.22C149.916 270.097 151.582 271.974 154.284 271.974ZM154.284 270.203C152.793 270.203 152.003 269.027 152.003 267.22C152.003 265.449 152.793 264.273 154.301 264.273C155.81 264.273 156.599 265.449 156.599 267.22C156.599 268.992 155.81 270.203 154.284 270.203ZM164.873 262.502C163.751 262.502 162.979 262.905 162.365 263.537V262.695H160.26V271.781H162.365V266.992C162.365 265.484 163.014 264.361 164.365 264.361C165.908 264.361 165.926 265.712 165.926 266.992V271.781H168.031V266.975C168.031 265.238 168.031 262.502 164.873 262.502ZM173.422 271.974C175.544 271.974 177.193 271.009 177.193 269.132C177.193 265.835 172.001 266.712 172.001 265.063C172.001 264.414 172.668 264.203 173.352 264.203C174.369 264.203 174.983 264.694 175.036 265.572L176.948 265.221C176.877 263.502 175.474 262.502 173.439 262.502C171.615 262.502 169.931 263.309 169.931 265.151C169.931 268.396 175.123 267.484 175.123 269.273C175.123 269.922 174.474 270.29 173.545 270.29C172.404 270.29 171.615 269.782 171.457 268.554L169.598 268.957C169.756 270.869 171.212 271.974 173.422 271.974ZM182.722 262.502C179.863 262.502 178.267 264.449 178.267 267.291C178.267 270.167 179.968 271.974 182.634 271.974C184.581 271.974 186.16 270.974 186.722 269.255L184.88 268.659C184.564 269.571 183.827 270.185 182.687 270.185C181.336 270.185 180.512 269.343 180.389 267.887H186.862C187.107 264.519 185.546 262.502 182.722 262.502ZM182.669 264.238C183.915 264.238 184.669 264.975 184.792 266.256H180.424C180.582 265.045 181.336 264.238 182.669 264.238ZM192.07 259.397V261.327H195.508V271.781H197.648V261.327H201.069V259.397H192.07ZM205.266 262.502C202.406 262.502 200.81 264.449 200.81 267.291C200.81 270.167 202.512 271.974 205.178 271.974C207.125 271.974 208.704 270.974 209.265 269.255L207.423 268.659C207.108 269.571 206.371 270.185 205.231 270.185C203.88 270.185 203.055 269.343 202.933 267.887H209.405C209.651 264.519 208.09 262.502 205.266 262.502ZM205.213 264.238C206.458 264.238 207.213 264.975 207.336 266.256H202.968C203.126 265.045 203.88 264.238 205.213 264.238ZM218.558 271.781C218.33 270.781 218.277 270.01 218.277 269.132V266.291C218.277 264.765 218.225 262.502 214.751 262.502C212.541 262.502 211.015 263.449 210.805 265.642L212.91 265.694C212.962 264.677 213.453 264.221 214.629 264.221C215.804 264.221 216.242 264.659 216.242 265.344C216.242 265.817 216.049 265.887 215.576 265.975L213.331 266.378C211.857 266.642 210.559 267.256 210.559 269.08C210.559 270.887 211.787 271.974 213.734 271.974C214.962 271.974 215.839 271.536 216.348 270.887C216.435 271.29 216.541 271.588 216.646 271.781H218.558ZM214.102 270.255C213.26 270.255 212.699 269.834 212.699 269.097C212.699 268.519 213.05 268.115 214.05 267.905L215.576 267.606C215.821 267.554 216.032 267.501 216.225 267.431V267.887C216.225 269.466 215.26 270.255 214.102 270.255ZM230.317 262.537C229.001 262.537 228.089 263.046 227.422 263.835C226.914 262.993 226.019 262.502 224.809 262.502C223.914 262.502 223.142 262.818 222.458 263.537V262.695H220.353V271.781H222.458V266.887C222.458 265.256 223.16 264.361 224.265 264.361C225.791 264.361 225.791 265.94 225.791 266.922V271.781H227.896V266.922C227.896 265.238 228.598 264.361 229.755 264.361C231.229 264.361 231.229 265.887 231.229 266.887V271.781H233.334V266.887C233.334 265.115 233.334 262.537 230.317 262.537Z" fill="#121212"/>
<path d="M115.048 295.927C117.562 295.927 119.127 294.495 119.565 292.58L118.176 292.331C117.84 293.589 116.846 294.626 115.077 294.626C112.841 294.626 111.613 292.989 111.613 290.65C111.613 288.253 112.885 286.616 115.092 286.616C116.554 286.616 117.533 287.332 118.016 288.472L119.346 288.048C118.747 286.367 117.212 285.315 115.092 285.315C112.066 285.315 110.151 287.449 110.151 290.694C110.151 293.866 112.008 295.927 115.048 295.927ZM124.417 288.063C123.394 288.063 122.707 288.662 122.385 289.232V288.209H120.996V295.781H122.385V292.039C122.385 290.168 123.16 289.408 124.402 289.408C124.651 289.408 124.885 289.422 125.031 289.437V288.151C124.856 288.107 124.636 288.063 124.417 288.063ZM129.019 288.063C126.724 288.063 125.467 289.715 125.467 292.068C125.467 294.422 126.827 295.927 128.961 295.927C130.525 295.927 131.782 295.08 132.25 293.647L131.037 293.238C130.73 294.129 130.043 294.714 129.005 294.714C127.718 294.714 126.987 293.896 126.9 292.434H132.323C132.513 289.7 131.271 288.063 129.019 288.063ZM128.961 289.262C130.174 289.262 130.876 289.993 130.949 291.279H126.914C127.031 290.109 127.689 289.262 128.961 289.262ZM139.779 295.781C139.589 294.948 139.545 294.305 139.545 293.574V291.133C139.545 289.817 139.443 288.063 136.724 288.063C134.999 288.063 133.786 288.838 133.61 290.607L134.999 290.65C135.087 289.7 135.598 289.247 136.651 289.247C137.835 289.247 138.186 289.744 138.186 290.373C138.186 290.855 137.996 290.928 137.601 290.987L135.701 291.337C134.312 291.586 133.406 292.214 133.406 293.589C133.406 295.036 134.429 295.927 135.978 295.927C137.016 295.927 137.82 295.533 138.273 294.919C138.317 295.299 138.42 295.606 138.507 295.781H139.779ZM136.212 294.729C135.408 294.729 134.824 294.334 134.824 293.603C134.824 293.106 135.057 292.638 136.154 292.434L137.572 292.156C137.806 292.098 138.01 292.054 138.186 291.981V292.595C138.186 294.086 137.25 294.729 136.212 294.729ZM143.271 289.379H144.747V288.209H143.271V286.133H141.882V288.209H140.654V289.379H141.882V294.173C141.882 295.343 142.379 295.927 143.52 295.927C144.075 295.927 144.514 295.84 144.864 295.723V294.597C143.607 294.846 143.271 294.787 143.271 293.72V289.379ZM149.276 288.063C146.981 288.063 145.724 289.715 145.724 292.068C145.724 294.422 147.083 295.927 149.218 295.927C150.782 295.927 152.039 295.08 152.507 293.647L151.293 293.238C150.986 294.129 150.299 294.714 149.261 294.714C147.975 294.714 147.244 293.896 147.156 292.434H152.58C152.77 289.7 151.527 288.063 149.276 288.063ZM149.218 289.262C150.431 289.262 151.133 289.993 151.206 291.279H147.171C147.288 290.109 147.946 289.262 149.218 289.262Z" fill="#121212"/>
<path d="M109.964 414.243V416.172H113.402V426.627H115.542V416.172H118.963V414.243H109.964ZM124.015 417.347C122.804 417.347 121.998 418.014 121.612 418.646V417.54H119.507V426.627H121.612V422.294C121.612 420.207 122.489 419.347 124.015 419.347C124.313 419.347 124.611 419.365 124.787 419.382V417.47C124.576 417.4 124.313 417.347 124.015 417.347ZM133.403 426.627C133.175 425.627 133.122 424.855 133.122 423.978V421.136C133.122 419.61 133.07 417.347 129.596 417.347C127.386 417.347 125.86 418.295 125.649 420.487L127.754 420.54C127.807 419.523 128.298 419.067 129.474 419.067C130.649 419.067 131.087 419.505 131.087 420.189C131.087 420.663 130.894 420.733 130.421 420.821L128.175 421.224C126.702 421.487 125.404 422.101 125.404 423.926C125.404 425.732 126.632 426.82 128.579 426.82C129.807 426.82 130.684 426.381 131.193 425.732C131.28 426.136 131.386 426.434 131.491 426.627H133.403ZM128.947 425.101C128.105 425.101 127.544 424.68 127.544 423.943C127.544 423.364 127.895 422.961 128.895 422.75L130.421 422.452C130.666 422.399 130.877 422.347 131.07 422.277V422.733C131.07 424.311 130.105 425.101 128.947 425.101ZM137.321 416.277V414.243H135.181V416.277H137.321ZM137.303 426.627V417.54H135.198V426.627H137.303ZM144.18 417.347C143.057 417.347 142.285 417.751 141.671 418.382V417.54H139.566V426.627H141.671V421.838C141.671 420.33 142.32 419.207 143.671 419.207C145.215 419.207 145.232 420.558 145.232 421.838V426.627H147.337V421.821C147.337 420.084 147.337 417.347 144.18 417.347ZM151.676 416.277V414.243H149.536V416.277H151.676ZM151.658 426.627V417.54H149.553V426.627H151.658ZM158.535 417.347C157.412 417.347 156.64 417.751 156.027 418.382V417.54H153.922V426.627H156.027V421.838C156.027 420.33 156.676 419.207 158.026 419.207C159.57 419.207 159.587 420.558 159.587 421.838V426.627H161.692V421.821C161.692 420.084 161.692 417.347 158.535 417.347ZM169.96 418.33C169.452 417.821 168.627 417.347 167.434 417.347C164.926 417.347 163.452 419.312 163.452 421.803C163.452 424.61 165.172 426.311 167.487 426.311C168.61 426.311 169.469 425.925 169.978 425.276V425.68C169.978 426.908 169.68 428.241 167.873 428.241C166.645 428.241 165.943 427.609 165.628 426.574L163.716 426.978C164.172 428.872 165.452 429.96 167.873 429.96C171.609 429.96 172.048 427.258 172.048 425.276V417.54H169.96V418.33ZM167.75 424.54C166.294 424.54 165.487 423.54 165.487 421.803C165.487 420.224 166.294 419.119 167.698 419.119C169.136 419.119 170.013 420.189 170.013 421.838C170.013 423.575 169.224 424.54 167.75 424.54Z" fill="#121212"/>
<path d="M112.198 450.627V440.307H110.78V450.627H112.198ZM122.574 442.923C121.448 442.923 120.644 443.42 120.089 444.151C119.665 443.333 118.875 442.909 117.852 442.909C117.048 442.909 116.346 443.23 115.747 443.903V443.055H114.358V450.627H115.747V446.505C115.747 444.999 116.478 444.151 117.53 444.151C119.007 444.151 119.007 445.657 119.007 446.563V450.627H120.396V446.578C120.396 444.984 121.112 444.151 122.237 444.151C123.641 444.151 123.655 445.511 123.655 446.519V450.627H125.044V446.505C125.044 445.087 125.029 442.923 122.574 442.923ZM130.705 442.909C129.711 442.909 128.922 443.333 128.381 444.049V443.055H126.992V453.258H128.381V449.764C128.878 450.393 129.667 450.773 130.647 450.773C132.532 450.773 133.921 449.355 133.921 446.797C133.921 444.4 132.62 442.909 130.705 442.909ZM130.456 449.574C129.17 449.574 128.337 448.566 128.337 446.841C128.337 445.131 129.156 444.107 130.471 444.107C131.772 444.107 132.561 445.116 132.561 446.826C132.561 448.507 131.772 449.574 130.456 449.574ZM136.746 450.627V440.307H135.357V450.627H136.746ZM141.724 442.909C139.429 442.909 138.172 444.561 138.172 446.914C138.172 449.267 139.532 450.773 141.666 450.773C143.23 450.773 144.487 449.925 144.955 448.493L143.742 448.083C143.435 448.975 142.748 449.56 141.71 449.56C140.423 449.56 139.693 448.741 139.605 447.279H145.028C145.218 444.546 143.976 442.909 141.724 442.909ZM141.666 444.107C142.879 444.107 143.581 444.838 143.654 446.125H139.619C139.736 444.955 140.394 444.107 141.666 444.107ZM154.764 442.923C153.639 442.923 152.835 443.42 152.279 444.151C151.856 443.333 151.066 442.909 150.043 442.909C149.239 442.909 148.537 443.23 147.938 443.903V443.055H146.549V450.627H147.938V446.505C147.938 444.999 148.669 444.151 149.721 444.151C151.198 444.151 151.198 445.657 151.198 446.563V450.627H152.586V446.578C152.586 444.984 153.303 444.151 154.428 444.151C155.832 444.151 155.846 445.511 155.846 446.519V450.627H157.235V446.505C157.235 445.087 157.22 442.923 154.764 442.923ZM162.238 442.909C159.943 442.909 158.686 444.561 158.686 446.914C158.686 449.267 160.045 450.773 162.18 450.773C163.744 450.773 165.001 449.925 165.469 448.493L164.255 448.083C163.948 448.975 163.261 449.56 162.223 449.56C160.937 449.56 160.206 448.741 160.118 447.279H165.542C165.732 444.546 164.489 442.909 162.238 442.909ZM162.18 444.107C163.393 444.107 164.094 444.838 164.168 446.125H160.133C160.25 444.955 160.908 444.107 162.18 444.107ZM170.732 442.909C169.738 442.909 169.007 443.289 168.452 443.917V443.055H167.063V450.627H168.452V446.534C168.452 445.116 169.212 444.151 170.41 444.151C171.887 444.151 171.901 445.423 171.901 446.636V450.627H173.29V446.607C173.29 445.174 173.29 442.909 170.732 442.909ZM177.161 444.224H178.637V443.055H177.161V440.979H175.772V443.055H174.544V444.224H175.772V449.019C175.772 450.188 176.269 450.773 177.409 450.773C177.965 450.773 178.403 450.685 178.754 450.568V449.443C177.497 449.691 177.161 449.633 177.161 448.566V444.224Z" fill="#121212"/>
<circle cx="76.5822" cy="40.5529" r="19.3556" fill="#CFF1B2"/>
<path d="M77.6501 37.4149H76.2834L76.2716 37.521C76.1891 38.3221 75.8003 38.6756 74.2569 39.1704V40.5606L76.0124 39.9598V45.6621H77.6501V37.4149Z" fill="#121212"/>
<circle cx="76.5822" cy="119.658" r="19.3556" fill="#D7C9B1"/>
<path d="M74.469 119.336H76.0595C76.0949 118.358 76.5308 117.828 77.061 117.828H77.4851C77.9446 117.828 78.3216 118.276 78.3216 118.818C78.3216 119.43 78.0035 120.031 77.273 120.762L74.5397 123.342L74.5515 124.768H79.9475V123.354H76.5661L78.1802 121.834C79.4644 120.703 79.9828 119.866 79.9828 118.818C79.9828 117.486 78.9814 116.426 77.544 116.426H77.1317C75.6707 116.426 74.4808 117.604 74.469 119.336Z" fill="#121212"/>
<circle cx="76.5822" cy="198.764" r="19.3556" fill="#D7C9B1"/>
<path d="M77.167 203.967H77.6265C78.9578 203.967 80.3009 202.942 80.3009 201.446C80.3009 200.527 79.759 199.808 79.0167 199.526C79.6058 199.207 80.03 198.583 80.03 197.747C80.03 196.616 79.0756 195.543 77.5676 195.543H77.2024C75.7414 195.543 74.5043 196.557 74.5279 198.277H76.0949C76.142 197.44 76.5544 196.945 77.1199 196.945H77.5087C77.9564 196.945 78.3805 197.346 78.3805 197.9C78.3805 198.512 77.9799 198.948 77.3437 198.948H76.6722V200.291H77.3791C78.1331 200.291 78.6397 200.704 78.6397 201.399C78.6397 202.094 78.1331 202.553 77.6265 202.553H77.167C76.6133 202.553 76.0595 202.047 76.0477 201.104H74.4572C74.4926 202.954 75.6472 203.967 77.167 203.967Z" fill="#121212"/>
<circle cx="76.5822" cy="277.869" r="19.3556" fill="#D7C9B1"/>
<path d="M76.2983 282.979H77.9242V281.282H78.8785V279.868H77.9242V274.731H76.1569L72.6106 279.856V281.282H76.2983V282.979ZM74.1423 279.868L76.2983 276.664V279.868H74.1423Z" fill="#121212"/>
<circle cx="76.5822" cy="437.764" r="19.3556" fill="#D7C9B1"/>
<path d="M76.5339 437.418H76.1098C75.3793 437.418 74.802 437.807 74.4839 438.349C74.5075 437.076 75.0612 435.934 76.1098 435.934C76.746 435.934 77.1348 436.346 77.2291 436.9H78.8549C78.7018 435.568 77.7239 434.532 76.1216 434.532C74.2012 434.532 72.8345 436.24 72.8345 439.056C72.8345 441.259 73.8241 442.967 75.7092 442.967H76.1334C77.7592 442.967 78.8078 441.553 78.8078 440.175C78.8078 438.537 77.8417 437.418 76.5339 437.418ZM74.6842 440.175C74.6842 439.421 75.2144 438.82 75.7681 438.82H76.1569C76.6989 438.82 77.1466 439.409 77.1466 440.175C77.1466 440.906 76.7224 441.553 76.1216 441.553H75.7328C75.1555 441.553 74.6842 440.964 74.6842 440.175Z" fill="#121212"/>
<circle cx="76.5822" cy="358.658" r="19.3556" fill="#D7C9B1"/>
<path d="M77.0728 363.862H77.4969C79.0285 363.862 80.1713 362.648 80.1713 361.022C80.1713 359.42 79.2406 358.218 77.8032 358.218H77.4615C76.896 358.218 76.4837 358.478 76.1656 358.819L76.4719 356.922H79.6883V355.52H75.2112L74.7635 358.76C74.6929 359.326 74.5161 360.257 74.5161 360.257H76.1302C76.2834 359.821 76.6486 359.562 77.0845 359.562H77.4851C78.086 359.562 78.5101 360.162 78.5101 361.022C78.5101 361.859 77.9917 362.448 77.4969 362.448H77.0492C76.5661 362.448 76.1067 362.047 76.0595 361.329H74.4926C74.5161 362.719 75.5883 363.862 77.0728 363.862Z" fill="#121212"/>
<path d="M0 1H467.901C489.746 1 507.454 18.7084 507.454 40.5528C507.454 62.3972 489.746 80.1056 467.901 80.1056H76.581" stroke="#EAE5E1" stroke-width="1.6831"/>
<path d="M76.5802 80.1055C54.7357 80.1055 37.0273 97.8139 37.0273 119.658C37.0273 141.503 54.7357 159.211 76.5802 159.211H467.901" stroke="#EAE5E1" stroke-width="1.6831"/>
<path d="M76.5802 238.317C54.7357 238.317 37.0273 256.026 37.0273 277.87C37.0273 299.715 54.7357 317.423 76.5802 317.423H467.901" stroke="#EAE5E1" stroke-width="1.6831"/>
<path d="M76.5802 396.528C54.7357 396.528 37.0273 414.237 37.0273 436.081C37.0273 457.926 54.7357 475.634 76.5802 475.634H507.453" stroke="#EAE5E1" stroke-width="1.6831"/>
<path d="M467.901 159.211C489.745 159.211 507.453 176.919 507.453 198.764C507.453 220.608 489.745 238.317 467.901 238.317H76.5801" stroke="#EAE5E1" stroke-width="1.6831"/>
<path d="M467.901 317.423C489.745 317.423 507.453 335.131 507.453 356.976C507.453 378.82 489.745 396.528 467.901 396.528H76.5801" stroke="#EAE5E1" stroke-width="1.6831"/>
<path d="M76.5802 317.423C54.7357 317.423 37.0273 299.715 37.0273 277.87C37.0273 256.026 54.7357 238.317 76.5802 238.317" stroke="#EAE5E1" stroke-width="1.6831"/>
<circle cx="509.979" cy="475.634" r="2.52465" stroke="#EAE5E1" stroke-width="1.6831"/>
</svg>
