<svg width="490" height="723" viewBox="0 0 490 723" fill="none" xmlns="http://www.w3.org/2000/svg">
<g clip-path="url(#clip0_2665_73561)">
<rect y="-28" width="539" height="561" fill="white"/>
<path d="M380.965 33.6865V440.504" stroke="#F0EDEB" stroke-width="1.20839"/>
<path d="M-426.881 441.229H257.905" stroke="#F0EDEB" stroke-width="1.20839"/>
<path d="M-425.434 360.878H926.765" stroke="#F0EDEB" stroke-width="1.20839"/>
<path d="M-425.434 279.804H926.765" stroke="#F0EDEB" stroke-width="1.20839"/>
<path d="M-425.434 197.282H926.765" stroke="#F0EDEB" stroke-width="1.20839"/>
<path d="M-425.434 116.208H926.765" stroke="#F0EDEB" stroke-width="1.20839"/>
<path d="M-426.881 33.6865H929.661" stroke="#F0EDEB" stroke-width="1.20839"/>
<path d="M-426.881 441.952H929.661" stroke="#F0EDEB" stroke-width="1.20839"/>
<path d="M-426.881 260.259V72.3975C-273.419 72.3975 -166.708 82.1168 -132.642 85.9381C69.5067 99.0399 229.354 190.206 284.009 236.608L447.974 368.444C514.459 426.092 316.539 399.243 115.301 295.005L-426.881 260.259Z" fill="#CCD055"/>
<path d="M-426.881 440.504V260.064C-273.248 257.798 -166.708 263.435 -132.642 265.323C69.5067 271.796 229.354 316.839 284.009 339.765L447.974 404.901C513.997 433.186 618.71 441.832 663.786 441.95L-426.881 440.504Z" fill="#F99E67"/>
<mask id="mask0_2665_73561" style="mask-type:alpha" maskUnits="userSpaceOnUse" x="114" y="27" width="813" height="415">
<rect x="114.578" y="27.8955" width="812.188" height="414.056" fill="#D9D9D9"/>
</mask>
<g mask="url(#mask0_2665_73561)">
<path d="M-426.879 440.504V72.3975C-273.417 72.3975 -166.706 82.1168 -132.64 85.9381C69.5087 99.0399 229.356 190.206 284.011 236.608L447.976 368.444C514.212 425.877 619.387 441.833 664.223 441.951L-426.879 440.504Z" fill="#CFF1B2"/>
<path d="M-426.879 440.504V260.064C-273.246 257.798 -166.706 263.435 -132.64 265.323C69.5087 271.796 229.356 316.839 284.011 339.765L447.976 404.901C513.999 433.186 618.712 441.832 663.788 441.95L-426.879 440.504Z" fill="#D7C9B1"/>
</g>
<path d="M82.4905 465.157C82.4905 463.025 80.794 462.445 79.2569 462.025V459.299C80.0109 459.516 80.4459 460.096 80.6635 460.894L82.3165 460.372C82.0555 458.849 80.8665 457.906 79.2569 457.718V456.442H78.0098V457.718C76.0667 457.906 74.9067 458.965 74.9067 460.618C74.9067 462.547 76.5018 463.112 78.0098 463.533V466.607C77.0238 466.375 76.5018 465.621 76.3568 464.591L74.5732 464.983C74.8052 466.897 76.1247 467.984 78.0098 468.202V469.536H79.2569V468.231C81.403 468.071 82.4905 466.897 82.4905 465.157ZM76.7193 460.444C76.7193 459.806 77.2123 459.386 78.0098 459.255V461.677C77.2558 461.416 76.7193 461.097 76.7193 460.444ZM79.2569 463.895C80.0689 464.156 80.678 464.519 80.678 465.258C80.678 465.998 80.1704 466.52 79.2569 466.65V463.895ZM86.2648 466.476C89.0779 464.098 90.6295 462.982 90.6295 460.662C90.6295 458.791 89.3969 457.689 87.3523 457.689C84.9887 457.689 83.6982 459.154 83.7562 461.59L85.4528 461.735C85.4673 460.111 86.1198 459.241 87.3088 459.241C88.3239 459.241 88.8314 459.864 88.8314 460.72C88.8314 462.373 87.4103 463.344 83.7997 466.505V468.086H90.8035V466.476H86.2648ZM92.3245 470.087C93.3395 470.073 94.2531 469.522 94.2531 468.187V466.114H92.3245V468.086H93.209V468.318C93.209 468.927 92.8175 469.057 92.3245 469.13V470.087ZM99.008 468.245C101.937 468.245 102.836 465.577 102.836 462.967C102.836 460.357 101.966 457.689 99.037 457.689C96.1659 457.689 95.2379 460.357 95.2379 462.967C95.2379 465.577 96.1369 468.245 99.008 468.245ZM99.008 466.752C97.645 466.752 96.9924 465.273 96.9924 462.909C96.9924 460.546 97.674 459.183 99.037 459.183C100.444 459.183 101.067 460.546 101.067 462.909C101.067 465.273 100.415 466.752 99.008 466.752ZM107.944 468.245C110.873 468.245 111.772 465.577 111.772 462.967C111.772 460.357 110.902 457.689 107.973 457.689C105.101 457.689 104.173 460.357 104.173 462.967C104.173 465.577 105.072 468.245 107.944 468.245ZM107.944 466.752C106.58 466.752 105.928 465.273 105.928 462.909C105.928 460.546 106.609 459.183 107.973 459.183C109.379 459.183 110.003 460.546 110.003 462.909C110.003 465.273 109.35 466.752 107.944 466.752ZM116.879 468.245C119.808 468.245 120.707 465.577 120.707 462.967C120.707 460.357 119.837 457.689 116.908 457.689C114.037 457.689 113.109 460.357 113.109 462.967C113.109 465.577 114.008 468.245 116.879 468.245ZM116.879 466.752C115.516 466.752 114.863 465.273 114.863 462.909C114.863 460.546 115.545 459.183 116.908 459.183C118.315 459.183 118.938 460.546 118.938 462.909C118.938 465.273 118.286 466.752 116.879 466.752ZM121.68 470.087C122.695 470.073 123.608 469.522 123.608 468.187V466.114H121.68V468.086H122.564V468.318C122.564 468.927 122.173 469.057 121.68 469.13V470.087ZM128.363 468.245C131.293 468.245 132.192 465.577 132.192 462.967C132.192 460.357 131.322 457.689 128.392 457.689C125.521 457.689 124.593 460.357 124.593 462.967C124.593 465.577 125.492 468.245 128.363 468.245ZM128.363 466.752C127 466.752 126.348 465.273 126.348 462.909C126.348 460.546 127.029 459.183 128.392 459.183C129.799 459.183 130.422 460.546 130.422 462.909C130.422 465.273 129.77 466.752 128.363 466.752ZM137.299 468.245C140.228 468.245 141.127 465.577 141.127 462.967C141.127 460.357 140.257 457.689 137.328 457.689C134.457 457.689 133.529 460.357 133.529 462.967C133.529 465.577 134.428 468.245 137.299 468.245ZM137.299 466.752C135.936 466.752 135.283 465.273 135.283 462.909C135.283 460.546 135.965 459.183 137.328 459.183C138.734 459.183 139.358 460.546 139.358 462.909C139.358 465.273 138.705 466.752 137.299 466.752ZM146.234 468.245C149.163 468.245 150.062 465.577 150.062 462.967C150.062 460.357 149.192 457.689 146.263 457.689C143.392 457.689 142.464 460.357 142.464 462.967C142.464 465.577 143.363 468.245 146.234 468.245ZM146.234 466.752C144.871 466.752 144.219 465.273 144.219 462.909C144.219 460.546 144.9 459.183 146.263 459.183C147.67 459.183 148.293 460.546 148.293 462.909C148.293 465.273 147.641 466.752 146.234 466.752Z" fill="#121212"/>
<path d="M351.779 465.157C351.779 463.025 350.082 462.445 348.545 462.025V459.299C349.299 459.516 349.734 460.096 349.952 460.894L351.605 460.372C351.344 458.849 350.155 457.906 348.545 457.718V456.442H347.298V457.718C345.355 457.906 344.195 458.965 344.195 460.618C344.195 462.547 345.79 463.112 347.298 463.533V466.607C346.312 466.375 345.79 465.621 345.645 464.591L343.862 464.983C344.094 466.897 345.413 467.984 347.298 468.202V469.536H348.545V468.231C350.691 468.071 351.779 466.897 351.779 465.157ZM346.008 460.444C346.008 459.806 346.501 459.386 347.298 459.255V461.677C346.544 461.416 346.008 461.097 346.008 460.444ZM348.545 463.895C349.357 464.156 349.966 464.519 349.966 465.258C349.966 465.998 349.459 466.52 348.545 466.65V463.895ZM359.004 464.359V457.848H357.409L352.943 464.301V465.94H357.25V468.086H359.004V465.94H360.353V464.359H359.004ZM357.25 460.633V464.359H354.727L357.25 460.633ZM361.599 470.087C362.614 470.073 363.527 469.522 363.527 468.187V466.114H361.599V468.086H362.483V468.318C362.483 468.927 362.092 469.057 361.599 469.13V470.087ZM368.282 468.245C371.211 468.245 372.11 465.577 372.11 462.967C372.11 460.357 371.24 457.689 368.311 457.689C365.44 457.689 364.512 460.357 364.512 462.967C364.512 465.577 365.411 468.245 368.282 468.245ZM368.282 466.752C366.919 466.752 366.267 465.273 366.267 462.909C366.267 460.546 366.948 459.183 368.311 459.183C369.718 459.183 370.341 460.546 370.341 462.909C370.341 465.273 369.689 466.752 368.282 466.752ZM377.218 468.245C380.147 468.245 381.046 465.577 381.046 462.967C381.046 460.357 380.176 457.689 377.247 457.689C374.376 457.689 373.448 460.357 373.448 462.967C373.448 465.577 374.347 468.245 377.218 468.245ZM377.218 466.752C375.855 466.752 375.202 465.273 375.202 462.909C375.202 460.546 375.884 459.183 377.247 459.183C378.653 459.183 379.277 460.546 379.277 462.909C379.277 465.273 378.624 466.752 377.218 466.752ZM386.153 468.245C389.082 468.245 389.981 465.577 389.981 462.967C389.981 460.357 389.111 457.689 386.182 457.689C383.311 457.689 382.383 460.357 382.383 462.967C382.383 465.577 383.282 468.245 386.153 468.245ZM386.153 466.752C384.79 466.752 384.138 465.273 384.138 462.909C384.138 460.546 384.819 459.183 386.182 459.183C387.589 459.183 388.212 460.546 388.212 462.909C388.212 465.273 387.56 466.752 386.153 466.752ZM390.954 470.087C391.969 470.073 392.883 469.522 392.883 468.187V466.114H390.954V468.086H391.839V468.318C391.839 468.927 391.447 469.057 390.954 469.13V470.087ZM397.638 468.245C400.567 468.245 401.466 465.577 401.466 462.967C401.466 460.357 400.596 457.689 397.667 457.689C394.795 457.689 393.867 460.357 393.867 462.967C393.867 465.577 394.766 468.245 397.638 468.245ZM397.638 466.752C396.274 466.752 395.622 465.273 395.622 462.909C395.622 460.546 396.303 459.183 397.667 459.183C399.073 459.183 399.697 460.546 399.697 462.909C399.697 465.273 399.044 466.752 397.638 466.752ZM406.573 468.245C409.502 468.245 410.401 465.577 410.401 462.967C410.401 460.357 409.531 457.689 406.602 457.689C403.731 457.689 402.803 460.357 402.803 462.967C402.803 465.577 403.702 468.245 406.573 468.245ZM406.573 466.752C405.21 466.752 404.557 465.273 404.557 462.909C404.557 460.546 405.239 459.183 406.602 459.183C408.009 459.183 408.632 460.546 408.632 462.909C408.632 465.273 407.98 466.752 406.573 466.752ZM415.508 468.245C418.438 468.245 419.337 465.577 419.337 462.967C419.337 460.357 418.467 457.689 415.537 457.689C412.666 457.689 411.738 460.357 411.738 462.967C411.738 465.577 412.637 468.245 415.508 468.245ZM415.508 466.752C414.145 466.752 413.493 465.273 413.493 462.909C413.493 460.546 414.174 459.183 415.537 459.183C416.944 459.183 417.568 460.546 417.568 462.909C417.568 465.273 416.915 466.752 415.508 466.752Z" fill="#121212"/>
<path d="M114.578 33.6865V440.504" stroke="#464D41" stroke-width="2.41678" stroke-dasharray="9.67 9.67"/>
<path d="M114.576 148.059C113.041 148.059 111.568 147.449 110.482 146.363C109.396 145.277 108.786 143.805 108.785 142.269C108.785 140.733 109.394 139.261 110.48 138.174C111.565 137.088 113.038 136.477 114.573 136.477C116.109 136.476 117.582 137.085 118.668 138.17C119.755 139.255 120.366 140.728 120.367 142.263C120.368 143.799 119.759 145.272 118.675 146.359C117.59 147.446 116.118 148.057 114.582 148.059H114.576Z" fill="#121212"/>
<path d="M380.963 321.789C379.427 321.789 377.955 321.179 376.869 320.093C375.783 319.008 375.172 317.535 375.172 315.999C375.171 314.464 375.781 312.991 376.866 311.905C377.952 310.818 379.424 310.208 380.96 310.207C382.496 310.206 383.969 310.815 385.055 311.901C386.142 312.986 386.753 314.458 386.754 315.994C386.755 317.529 386.146 319.003 385.061 320.089C383.976 321.176 382.504 321.787 380.969 321.789H380.963Z" fill="#121212"/>
<path d="M114.576 298.625C113.041 298.625 111.568 298.015 110.482 296.929C109.396 295.844 108.786 294.371 108.785 292.835C108.785 291.3 109.394 289.827 110.48 288.741C111.565 287.654 113.038 287.044 114.573 287.043C116.109 287.042 117.582 287.651 118.668 288.737C119.755 289.822 120.366 291.294 120.367 292.83C120.368 294.365 119.759 295.838 118.675 296.925C117.59 298.012 116.118 298.623 114.582 298.625H114.576Z" fill="#121212"/>
<path d="M380.963 385.49C379.427 385.49 377.955 384.88 376.869 383.795C375.783 382.709 375.172 381.236 375.172 379.701C375.171 378.165 375.781 376.692 376.866 375.606C377.952 374.52 379.424 373.909 380.96 373.908C382.496 373.907 383.969 374.517 385.055 375.602C386.142 376.687 386.753 378.159 386.754 379.695C386.755 381.23 386.146 382.704 385.061 383.79C383.976 384.877 382.504 385.489 380.969 385.49H380.963Z" fill="#121212"/>
</g>
<rect x="0.5" y="0.5" width="489" height="496" rx="7.5" stroke="black"/>
<rect x="0.5" y="549.5" width="229.973" height="73" rx="7.5" fill="white" stroke="black"/>
<path d="M73.597 590.139C75.7396 590.139 77.1595 589.024 77.5526 587.236L76.0312 586.983C75.765 588.022 74.9536 588.732 73.6224 588.732C71.8348 588.732 70.8839 587.426 70.8839 585.525C70.8839 583.585 71.8855 582.317 73.6351 582.317C74.7761 582.317 75.5241 582.862 75.9044 583.737L77.3497 583.281C76.8299 581.81 75.4734 580.91 73.6097 580.91C70.9473 580.91 69.2992 582.761 69.2992 585.588C69.2992 588.365 70.8839 590.139 73.597 590.139ZM82.7235 586.881C82.7235 587.705 82.4699 588.796 81.2782 588.796C80.2386 588.796 80.2132 588.01 80.2132 586.907V583.433H78.6919V587.109C78.6919 588.301 78.6919 590.139 80.9105 590.139C81.8994 590.139 82.4699 589.734 82.8629 589.151V590H84.2448V583.433H82.7235V586.881ZM89.1567 583.293C88.2819 583.293 87.6987 583.775 87.4198 584.232V583.433H85.8984V590H87.4198V586.869C87.4198 585.36 88.0537 584.739 89.1567 584.739C89.3722 584.739 89.5877 584.751 89.7145 584.764V583.382C89.5624 583.331 89.3722 583.293 89.1567 583.293ZM93.849 583.293C92.9742 583.293 92.391 583.775 92.1121 584.232V583.433H90.5908V590H92.1121V586.869C92.1121 585.36 92.746 584.739 93.849 584.739C94.0645 584.739 94.28 584.751 94.4068 584.764V583.382C94.2547 583.331 94.0645 583.293 93.849 583.293ZM97.9853 583.293C95.9188 583.293 94.7651 584.701 94.7651 586.754C94.7651 588.834 95.9948 590.139 97.9219 590.139C99.3291 590.139 100.47 589.417 100.876 588.174L99.5447 587.743C99.3165 588.403 98.784 588.846 97.9599 588.846C96.9837 588.846 96.3879 588.238 96.2991 587.185H100.977C101.155 584.751 100.026 583.293 97.9853 583.293ZM97.9472 584.548C98.8474 584.548 99.3925 585.081 99.4813 586.006H96.3245C96.4386 585.132 96.9837 584.548 97.9472 584.548ZM105.538 583.293C104.727 583.293 104.169 583.585 103.725 584.041V583.433H102.204V590H103.725V586.539C103.725 585.449 104.194 584.637 105.171 584.637C106.286 584.637 106.299 585.613 106.299 586.539V590H107.82V586.526C107.82 585.271 107.82 583.293 105.538 583.293ZM111.351 584.688H112.492V583.433H111.351V581.633H109.829V583.433H108.866V584.688H109.829V588.605C109.829 589.632 110.311 590.139 111.376 590.139C111.896 590.139 112.289 590.063 112.593 589.975V588.783C111.604 588.948 111.351 588.897 111.351 588.124V584.688ZM118.434 590V581.049H116.912V590H118.434ZM122.721 590.139C124.686 590.139 125.89 588.783 125.89 586.704C125.89 584.637 124.686 583.293 122.721 583.293C120.768 583.293 119.564 584.637 119.564 586.704C119.564 588.783 120.768 590.139 122.721 590.139ZM122.721 588.859C121.643 588.859 121.073 588.01 121.073 586.704C121.073 585.423 121.643 584.574 122.733 584.574C123.824 584.574 124.394 585.423 124.394 586.704C124.394 587.984 123.824 588.859 122.721 588.859ZM129.397 590.139C130.931 590.139 132.122 589.442 132.122 588.086C132.122 585.702 128.37 586.336 128.37 585.144C128.37 584.675 128.851 584.523 129.346 584.523C130.081 584.523 130.525 584.878 130.563 585.512L131.945 585.258C131.894 584.016 130.88 583.293 129.409 583.293C128.091 583.293 126.874 583.877 126.874 585.208C126.874 587.553 130.626 586.894 130.626 588.187C130.626 588.656 130.157 588.922 129.485 588.922C128.661 588.922 128.091 588.555 127.977 587.667L126.633 587.959C126.747 589.341 127.799 590.139 129.397 590.139ZM135.636 590.139C137.17 590.139 138.362 589.442 138.362 588.086C138.362 585.702 134.61 586.336 134.61 585.144C134.61 584.675 135.091 584.523 135.586 584.523C136.321 584.523 136.765 584.878 136.803 585.512L138.185 585.258C138.134 584.016 137.12 583.293 135.649 583.293C134.331 583.293 133.114 583.877 133.114 585.208C133.114 587.553 136.866 586.894 136.866 588.187C136.866 588.656 136.397 588.922 135.725 588.922C134.901 588.922 134.331 588.555 134.217 587.667L132.873 587.959C132.987 589.341 134.039 590.139 135.636 590.139ZM146.075 583.293C145.289 583.293 144.642 583.623 144.198 584.168V583.433H142.677V592.282H144.198V589.417C144.629 589.873 145.289 590.139 146.049 590.139C147.697 590.139 148.902 588.872 148.902 586.678C148.902 584.637 147.799 583.293 146.075 583.293ZM145.796 588.859C144.781 588.859 144.16 588.073 144.16 586.716C144.16 585.373 144.781 584.574 145.808 584.574C146.81 584.574 147.418 585.373 147.418 586.704C147.418 588.022 146.81 588.859 145.796 588.859ZM152.88 590.139C154.845 590.139 156.05 588.783 156.05 586.704C156.05 584.637 154.845 583.293 152.88 583.293C150.928 583.293 149.724 584.637 149.724 586.704C149.724 588.783 150.928 590.139 152.88 590.139ZM152.88 588.859C151.803 588.859 151.232 588.01 151.232 586.704C151.232 585.423 151.803 584.574 152.893 584.574C153.983 584.574 154.554 585.423 154.554 586.704C154.554 587.984 153.983 588.859 152.88 588.859ZM159.141 584.688H160.282V583.433H159.141V581.633H157.619V583.433H156.656V584.688H157.619V588.605C157.619 589.632 158.101 590.139 159.166 590.139C159.686 590.139 160.079 590.063 160.383 589.975V588.783C159.394 588.948 159.141 588.897 159.141 588.124V584.688ZM164.309 583.293C162.243 583.293 161.089 584.701 161.089 586.754C161.089 588.834 162.319 590.139 164.246 590.139C165.653 590.139 166.794 589.417 167.2 588.174L165.869 587.743C165.641 588.403 165.108 588.846 164.284 588.846C163.308 588.846 162.712 588.238 162.623 587.185H167.301C167.479 584.751 166.351 583.293 164.309 583.293ZM164.271 584.548C165.171 584.548 165.717 585.081 165.805 586.006H162.649C162.763 585.132 163.308 584.548 164.271 584.548ZM171.862 583.293C171.051 583.293 170.493 583.585 170.049 584.041V583.433H168.528V590H170.049V586.539C170.049 585.449 170.518 584.637 171.495 584.637C172.61 584.637 172.623 585.613 172.623 586.539V590H174.144V586.526C174.144 585.271 174.144 583.293 171.862 583.293ZM177.675 584.688H178.816V583.433H177.675V581.633H176.154V583.433H175.19V584.688H176.154V588.605C176.154 589.632 176.635 590.139 177.7 590.139C178.22 590.139 178.613 590.063 178.917 589.975V588.783C177.928 588.948 177.675 588.897 177.675 588.124V584.688ZM181.675 582.52V581.049H180.129V582.52H181.675ZM181.663 590V583.433H180.141V590H181.663ZM188.687 590C188.522 589.277 188.484 588.72 188.484 588.086V586.032C188.484 584.929 188.446 583.293 185.935 583.293C184.338 583.293 183.235 583.978 183.083 585.563L184.604 585.601C184.642 584.865 184.997 584.536 185.847 584.536C186.696 584.536 187.013 584.853 187.013 585.347C187.013 585.689 186.874 585.74 186.531 585.804L184.908 586.095C183.844 586.285 182.905 586.729 182.905 588.048C182.905 589.353 183.793 590.139 185.2 590.139C186.088 590.139 186.721 589.823 187.089 589.353C187.152 589.645 187.229 589.861 187.305 590H188.687ZM185.466 588.897C184.858 588.897 184.452 588.593 184.452 588.06C184.452 587.642 184.706 587.35 185.428 587.198L186.531 586.983C186.709 586.945 186.861 586.907 187 586.856V587.185C187 588.327 186.303 588.897 185.466 588.897ZM191.505 590V581.049H189.984V590H191.505Z" fill="#121212"/>
<rect x="36" y="584.716" width="26.6745" height="3.96186" fill="#4D5133"/>
<rect x="259.527" y="548.5" width="229.973" height="73" rx="7.5" fill="white" stroke="black"/>
<path d="M328.339 571.048H326.792V580H332.764V578.605H328.339V571.048ZM336.486 580.139C338.451 580.139 339.656 578.783 339.656 576.703C339.656 574.636 338.451 573.292 336.486 573.292C334.533 573.292 333.329 574.636 333.329 576.703C333.329 578.783 334.533 580.139 336.486 580.139ZM336.486 578.859C335.408 578.859 334.838 578.009 334.838 576.703C334.838 575.423 335.408 574.573 336.499 574.573C337.589 574.573 338.16 575.423 338.16 576.703C338.16 577.984 337.589 578.859 336.486 578.859ZM343.163 580.139C344.697 580.139 345.889 579.442 345.889 578.085C345.889 575.701 342.136 576.335 342.136 575.144C342.136 574.674 342.618 574.522 343.112 574.522C343.848 574.522 344.291 574.877 344.329 575.511L345.712 575.258C345.661 574.015 344.646 573.292 343.176 573.292C341.857 573.292 340.64 573.876 340.64 575.207C340.64 577.553 344.393 576.893 344.393 578.187C344.393 578.656 343.924 578.922 343.252 578.922C342.427 578.922 341.857 578.554 341.743 577.667L340.399 577.959C340.513 579.341 341.565 580.139 343.163 580.139ZM349.404 580.139C350.938 580.139 352.13 579.442 352.13 578.085C352.13 575.701 348.377 576.335 348.377 575.144C348.377 574.674 348.859 574.522 349.353 574.522C350.089 574.522 350.532 574.877 350.57 575.511L351.952 575.258C351.902 574.015 350.887 573.292 349.416 573.292C348.098 573.292 346.88 573.876 346.88 575.207C346.88 577.553 350.634 576.893 350.634 578.187C350.634 578.656 350.165 578.922 349.493 578.922C348.668 578.922 348.098 578.554 347.984 577.667L346.64 577.959C346.754 579.341 347.806 580.139 349.404 580.139ZM359.844 573.292C359.057 573.292 358.411 573.622 357.967 574.167V573.432H356.445V582.282H357.967V579.417C358.398 579.873 359.057 580.139 359.818 580.139C361.467 580.139 362.671 578.871 362.671 576.678C362.671 574.636 361.568 573.292 359.844 573.292ZM359.565 578.859C358.55 578.859 357.929 578.073 357.929 576.716C357.929 575.372 358.55 574.573 359.577 574.573C360.579 574.573 361.188 575.372 361.188 576.703C361.188 578.022 360.579 578.859 359.565 578.859ZM366.65 580.139C368.616 580.139 369.82 578.783 369.82 576.703C369.82 574.636 368.616 573.292 366.65 573.292C364.698 573.292 363.493 574.636 363.493 576.703C363.493 578.783 364.698 580.139 366.65 580.139ZM366.65 578.859C365.573 578.859 365.002 578.009 365.002 576.703C365.002 575.423 365.573 574.573 366.663 574.573C367.754 574.573 368.324 575.423 368.324 576.703C368.324 577.984 367.754 578.859 366.65 578.859ZM372.912 574.687H374.053V573.432H372.912V571.631H371.39V573.432H370.427V574.687H371.39V578.605C371.39 579.632 371.872 580.139 372.937 580.139C373.457 580.139 373.85 580.063 374.155 579.975V578.783C373.166 578.948 372.912 578.897 372.912 578.123V574.687ZM378.081 573.292C376.014 573.292 374.861 574.7 374.861 576.754C374.861 578.833 376.091 580.139 378.018 580.139C379.425 580.139 380.567 579.417 380.972 578.174L379.641 577.743C379.413 578.402 378.88 578.846 378.056 578.846C377.08 578.846 376.484 578.237 376.395 577.185H381.074C381.251 574.75 380.123 573.292 378.081 573.292ZM378.043 574.548C378.944 574.548 379.489 575.08 379.578 576.006H376.42C376.534 575.131 377.08 574.548 378.043 574.548ZM385.636 573.292C384.824 573.292 384.266 573.584 383.822 574.04V573.432H382.301V580H383.822V576.538C383.822 575.448 384.291 574.636 385.268 574.636C386.384 574.636 386.396 575.613 386.396 576.538V580H387.918V576.526C387.918 575.27 387.918 573.292 385.636 573.292ZM391.449 574.687H392.59V573.432H391.449V571.631H389.927V573.432H388.964V574.687H389.927V578.605C389.927 579.632 390.409 580.139 391.474 580.139C391.994 580.139 392.387 580.063 392.692 579.975V578.783C391.703 578.948 391.449 578.897 391.449 578.123V574.687ZM395.45 572.519V571.048H393.903V572.519H395.45ZM395.437 580V573.432H393.916V580H395.437ZM402.462 580C402.298 579.277 402.26 578.719 402.26 578.085V576.031C402.26 574.928 402.221 573.292 399.711 573.292C398.113 573.292 397.01 573.977 396.858 575.562L398.379 575.6C398.417 574.865 398.773 574.535 399.622 574.535C400.472 574.535 400.789 574.852 400.789 575.346C400.789 575.689 400.649 575.74 400.307 575.803L398.684 576.095C397.619 576.285 396.68 576.729 396.68 578.047C396.68 579.353 397.568 580.139 398.975 580.139C399.863 580.139 400.497 579.822 400.865 579.353C400.928 579.645 401.004 579.861 401.08 580H402.462ZM399.242 578.897C398.633 578.897 398.227 578.593 398.227 578.06C398.227 577.642 398.481 577.35 399.204 577.198L400.307 576.982C400.484 576.944 400.636 576.906 400.776 576.855V577.185C400.776 578.326 400.079 578.897 399.242 578.897ZM405.282 580V571.048H403.76V580H405.282ZM416.29 577.882L415.009 573.432H413.5L412.22 577.882L410.926 573.432H409.291L411.484 580H412.917L414.223 575.232L415.555 580H416.987L419.168 573.432H417.583L416.29 577.882ZM421.627 572.519V571.048H420.08V572.519H421.627ZM421.615 580V573.432H420.093V580H421.615ZM425.254 574.687H426.395V573.432H425.254V571.631H423.732V573.432H422.769V574.687H423.732V578.605C423.732 579.632 424.214 580.139 425.279 580.139C425.799 580.139 426.192 580.063 426.497 579.975V578.783C425.508 578.948 425.254 578.897 425.254 578.123V574.687ZM431.043 573.292C430.231 573.292 429.686 573.571 429.242 574.028V571.048H427.721V580H429.242V576.538C429.242 575.461 429.686 574.636 430.663 574.636C431.791 574.636 431.816 575.663 431.816 576.526V580H433.338V576.272C433.338 575.08 433.211 573.292 431.043 573.292ZM330.57 599.139C332.713 599.139 334.134 598.024 334.527 596.236L333.005 595.982C332.739 597.022 331.927 597.732 330.596 597.732C328.808 597.732 327.857 596.426 327.857 594.524C327.857 592.584 328.859 591.316 330.608 591.316C331.75 591.316 332.498 591.861 332.878 592.736L334.324 592.28C333.804 590.809 332.447 589.908 330.583 589.908C327.92 589.908 326.272 591.76 326.272 594.587C326.272 597.364 327.857 599.139 330.57 599.139ZM343.162 599L339.713 590.048H338.267L334.844 599H336.441L337.19 597.009H340.765L341.513 599H343.162ZM338.965 592.28L340.233 595.627H337.709L338.965 592.28ZM344.165 590.048V599H345.712V595.488H347.487C349.592 595.488 350.67 594.372 350.67 592.736C350.67 590.948 349.44 590.048 347.487 590.048H344.165ZM345.712 594.093V591.443H347.487C348.539 591.443 349.097 591.874 349.097 592.749C349.097 593.586 348.552 594.093 347.487 594.093H345.712ZM358.268 590.035C356.619 589.68 355.465 590.099 355.465 591.747V592.432H354.464V593.687H355.465V599H356.987V593.687H358.268V592.432H356.987V592.026C356.987 591.278 357.203 591.151 358.268 591.291V590.035ZM363.312 595.881C363.312 596.705 363.059 597.795 361.867 597.795C360.827 597.795 360.802 597.009 360.802 595.906V592.432H359.28V596.109C359.28 597.301 359.28 599.139 361.499 599.139C362.488 599.139 363.059 598.734 363.452 598.15V599H364.834V592.432H363.312V595.881ZM368.009 599V590.048H366.488V599H368.009ZM371.167 599V590.048H369.645V599H371.167ZM375.225 596.718L373.779 592.432H372.156L374.464 598.848L374.299 599.304C374.084 599.85 373.868 600.04 373.247 600.04C372.955 600.04 372.664 600.002 372.372 599.951L372.347 601.282C372.6 601.346 372.981 601.422 373.475 601.422C374.35 601.422 375.085 601.13 375.504 600.002L378.332 592.432H376.721L375.225 596.718ZM383.872 591.519V590.048H382.325V591.519H383.872ZM383.859 599V592.432H382.338V599H383.859ZM392.698 592.318C391.747 592.318 391.087 592.685 390.605 593.256C390.238 592.647 389.591 592.292 388.716 592.292C388.069 592.292 387.512 592.521 387.017 593.04V592.432H385.495V599H387.017V595.462C387.017 594.283 387.524 593.636 388.323 593.636C389.426 593.636 389.426 594.778 389.426 595.488V599H390.948V595.488C390.948 594.27 391.455 593.636 392.292 593.636C393.357 593.636 393.357 594.74 393.357 595.462V599H394.879V595.462C394.879 594.182 394.879 592.318 392.698 592.318ZM399.89 592.292C399.103 592.292 398.457 592.622 398.013 593.167V592.432H396.491V601.282H398.013V598.417C398.444 598.873 399.103 599.139 399.864 599.139C401.513 599.139 402.717 597.871 402.717 595.678C402.717 593.636 401.614 592.292 399.89 592.292ZM399.611 597.859C398.596 597.859 397.975 597.073 397.975 595.716C397.975 594.372 398.596 593.573 399.623 593.573C400.625 593.573 401.234 594.372 401.234 595.703C401.234 597.022 400.625 597.859 399.611 597.859ZM405.393 599V590.048H403.872V599H405.393ZM409.744 592.292C407.677 592.292 406.523 593.7 406.523 595.754C406.523 597.833 407.753 599.139 409.681 599.139C411.088 599.139 412.229 598.417 412.635 597.174L411.304 596.743C411.076 597.402 410.543 597.846 409.719 597.846C408.742 597.846 408.146 597.237 408.058 596.185H412.737C412.914 593.75 411.786 592.292 409.744 592.292ZM409.706 593.548C410.606 593.548 411.152 594.08 411.24 595.006H408.083C408.197 594.131 408.742 593.548 409.706 593.548ZM421.166 592.318C420.215 592.318 419.555 592.685 419.074 593.256C418.706 592.647 418.059 592.292 417.184 592.292C416.538 592.292 415.98 592.521 415.485 593.04V592.432H413.964V599H415.485V595.462C415.485 594.283 415.992 593.636 416.791 593.636C417.894 593.636 417.894 594.778 417.894 595.488V599H419.416V595.488C419.416 594.27 419.923 593.636 420.76 593.636C421.825 593.636 421.825 594.74 421.825 595.462V599H423.347V595.462C423.347 594.182 423.347 592.318 421.166 592.318ZM427.736 592.292C425.67 592.292 424.516 593.7 424.516 595.754C424.516 597.833 425.746 599.139 427.673 599.139C429.08 599.139 430.222 598.417 430.627 597.174L429.296 596.743C429.068 597.402 428.535 597.846 427.711 597.846C426.735 597.846 426.139 597.237 426.05 596.185H430.729C430.906 593.75 429.778 592.292 427.736 592.292ZM427.698 593.548C428.599 593.548 429.144 594.08 429.233 595.006H426.075C426.189 594.131 426.735 593.548 427.698 593.548ZM435.291 592.292C434.479 592.292 433.921 592.584 433.477 593.04V592.432H431.956V599H433.477V595.538C433.477 594.448 433.947 593.636 434.923 593.636C436.039 593.636 436.051 594.613 436.051 595.538V599H437.573V595.526C437.573 594.27 437.573 592.292 435.291 592.292ZM441.104 593.687H442.245V592.432H441.104V590.631H439.582V592.432H438.619V593.687H439.582V597.605C439.582 598.632 440.064 599.139 441.129 599.139C441.649 599.139 442.042 599.063 442.347 598.975V597.783C441.358 597.948 441.104 597.897 441.104 597.123V593.687ZM446.273 592.292C444.207 592.292 443.053 593.7 443.053 595.754C443.053 597.833 444.283 599.139 446.21 599.139C447.618 599.139 448.759 598.417 449.165 597.174L447.833 596.743C447.605 597.402 447.072 597.846 446.248 597.846C445.272 597.846 444.676 597.237 444.587 596.185H449.266C449.443 593.75 448.315 592.292 446.273 592.292ZM446.235 593.548C447.136 593.548 447.681 594.08 447.77 595.006H444.612C444.727 594.131 445.272 593.548 446.235 593.548ZM454.853 593.015C454.422 592.559 453.775 592.292 452.976 592.292C451.353 592.292 450.136 593.548 450.136 595.729C450.136 597.821 451.239 599.139 452.963 599.139C453.813 599.139 454.434 598.848 454.878 598.277V599H456.374V590.048H454.853V593.015ZM453.242 597.859C452.241 597.859 451.619 597.06 451.619 595.729C451.619 594.41 452.241 593.573 453.255 593.573C454.257 593.573 454.891 594.359 454.891 595.703C454.891 597.06 454.269 597.859 453.242 597.859Z" fill="#121212"/>
<rect x="292" y="582.716" width="26.6745" height="3.96186" fill="#4D5133"/>
<rect x="129.545" y="649.5" width="229.973" height="73" rx="7.5" fill="white" stroke="black"/>
<path d="M185.631 690.139C187.774 690.139 189.194 689.024 189.587 687.236L188.066 686.982C187.799 688.022 186.988 688.732 185.656 688.732C183.868 688.732 182.917 687.426 182.917 685.524C182.917 683.584 183.919 682.316 185.669 682.316C186.81 682.316 187.558 682.861 187.939 683.736L189.384 683.28C188.864 681.809 187.508 680.908 185.644 680.908C182.981 680.908 181.332 682.76 181.332 685.587C181.332 688.364 182.917 690.139 185.631 690.139ZM194.759 686.881C194.759 687.705 194.505 688.795 193.313 688.795C192.274 688.795 192.248 688.009 192.248 686.906V683.432H190.727V687.109C190.727 688.301 190.727 690.139 192.946 690.139C193.935 690.139 194.505 689.734 194.898 689.15V690H196.281V683.432H194.759V686.881ZM201.193 683.292C200.318 683.292 199.735 683.774 199.456 684.231V683.432H197.934V690H199.456V686.868C199.456 685.359 200.09 684.738 201.193 684.738C201.409 684.738 201.624 684.75 201.751 684.763V683.381C201.599 683.33 201.409 683.292 201.193 683.292ZM205.886 683.292C205.011 683.292 204.428 683.774 204.149 684.231V683.432H202.627V690H204.149V686.868C204.149 685.359 204.783 684.738 205.886 684.738C206.102 684.738 206.317 684.75 206.444 684.763V683.381C206.292 683.33 206.102 683.292 205.886 683.292ZM210.023 683.292C207.956 683.292 206.802 684.7 206.802 686.754C206.802 688.833 208.032 690.139 209.96 690.139C211.367 690.139 212.508 689.417 212.914 688.174L211.583 687.743C211.355 688.402 210.822 688.846 209.998 688.846C209.021 688.846 208.425 688.237 208.337 687.185H213.016C213.193 684.75 212.065 683.292 210.023 683.292ZM209.985 684.548C210.885 684.548 211.431 685.08 211.519 686.006H208.362C208.476 685.131 209.021 684.548 209.985 684.548ZM217.577 683.292C216.766 683.292 216.208 683.584 215.764 684.04V683.432H214.243V690H215.764V686.538C215.764 685.448 216.233 684.636 217.21 684.636C218.325 684.636 218.338 685.613 218.338 686.538V690H219.86V686.526C219.86 685.27 219.86 683.292 217.577 683.292ZM223.391 684.687H224.532V683.432H223.391V681.631H221.869V683.432H220.906V684.687H221.869V688.605C221.869 689.632 222.351 690.139 223.416 690.139C223.936 690.139 224.329 690.063 224.633 689.975V688.783C223.644 688.948 223.391 688.897 223.391 688.123V684.687ZM230.488 682.519V681.048H228.941V682.519H230.488ZM230.475 690V683.432H228.953V690H230.475ZM235.446 683.292C234.634 683.292 234.076 683.584 233.633 684.04V683.432H232.111V690H233.633V686.538C233.633 685.448 234.102 684.636 235.078 684.636C236.194 684.636 236.207 685.613 236.207 686.538V690H237.728V686.526C237.728 685.27 237.728 683.292 235.446 683.292ZM241.625 690.139C243.159 690.139 244.351 689.442 244.351 688.085C244.351 685.701 240.598 686.335 240.598 685.144C240.598 684.674 241.08 684.522 241.574 684.522C242.31 684.522 242.754 684.877 242.792 685.511L244.174 685.258C244.123 684.015 243.109 683.292 241.638 683.292C240.319 683.292 239.102 683.876 239.102 685.207C239.102 687.553 242.855 686.893 242.855 688.187C242.855 688.656 242.386 688.922 241.714 688.922C240.89 688.922 240.319 688.554 240.205 687.667L238.861 687.959C238.975 689.341 240.028 690.139 241.625 690.139ZM249.565 686.881C249.565 687.705 249.312 688.795 248.12 688.795C247.08 688.795 247.055 688.009 247.055 686.906V683.432H245.533V687.109C245.533 688.301 245.533 690.139 247.752 690.139C248.741 690.139 249.312 689.734 249.705 689.15V690H251.087V683.432H249.565V686.881ZM255.999 683.292C255.125 683.292 254.541 683.774 254.262 684.231V683.432H252.741V690H254.262V686.868C254.262 685.359 254.896 684.738 255.999 684.738C256.215 684.738 256.431 684.75 256.557 684.763V683.381C256.405 683.33 256.215 683.292 255.999 683.292ZM262.786 690C262.621 689.277 262.583 688.719 262.583 688.085V686.031C262.583 684.928 262.545 683.292 260.034 683.292C258.436 683.292 257.333 683.977 257.181 685.562L258.703 685.6C258.741 684.865 259.096 684.535 259.945 684.535C260.795 684.535 261.112 684.852 261.112 685.346C261.112 685.689 260.972 685.74 260.63 685.803L259.007 686.095C257.942 686.285 257.004 686.729 257.004 688.047C257.004 689.353 257.891 690.139 259.299 690.139C260.186 690.139 260.82 689.822 261.188 689.353C261.251 689.645 261.327 689.861 261.404 690H262.786ZM259.565 688.897C258.956 688.897 258.551 688.593 258.551 688.06C258.551 687.642 258.804 687.35 259.527 687.198L260.63 686.982C260.808 686.944 260.96 686.906 261.099 686.855V687.185C261.099 688.326 260.402 688.897 259.565 688.897ZM267.418 683.292C266.607 683.292 266.049 683.584 265.605 684.04V683.432H264.083V690H265.605V686.538C265.605 685.448 266.074 684.636 267.05 684.636C268.166 684.636 268.179 685.613 268.179 686.538V690H269.701V686.526C269.701 685.27 269.701 683.292 267.418 683.292ZM274.029 690.139C275.512 690.139 276.489 689.417 276.882 688.174L275.563 687.73C275.335 688.352 274.891 688.833 274.079 688.833C273.014 688.833 272.393 688.009 272.393 686.678C272.393 685.359 273.065 684.573 274.067 684.573C274.802 684.573 275.322 685.004 275.563 685.625L276.831 685.131C276.375 683.964 275.335 683.292 274.016 683.292C272.254 683.292 270.859 684.535 270.859 686.741C270.859 688.897 272.114 690.139 274.029 690.139ZM280.741 683.292C278.675 683.292 277.521 684.7 277.521 686.754C277.521 688.833 278.751 690.139 280.678 690.139C282.085 690.139 283.227 689.417 283.632 688.174L282.301 687.743C282.073 688.402 281.54 688.846 280.716 688.846C279.74 688.846 279.144 688.237 279.055 687.185H283.734C283.911 684.75 282.783 683.292 280.741 683.292ZM280.703 684.548C281.604 684.548 282.149 685.08 282.238 686.006H279.08C279.194 685.131 279.74 684.548 280.703 684.548ZM289.578 690V681.048H288.056V690H289.578ZM292.748 682.519V681.048H291.201V682.519H292.748ZM292.736 690V683.432H291.214V690H292.736ZM301.574 683.318C300.623 683.318 299.964 683.685 299.482 684.256C299.114 683.647 298.467 683.292 297.592 683.292C296.946 683.292 296.388 683.521 295.893 684.04V683.432H294.372V690H295.893V686.462C295.893 685.283 296.401 684.636 297.199 684.636C298.303 684.636 298.303 685.778 298.303 686.488V690H299.824V686.488C299.824 685.27 300.331 684.636 301.168 684.636C302.233 684.636 302.233 685.74 302.233 686.462V690H303.755V686.462C303.755 685.182 303.755 683.318 301.574 683.318ZM306.902 682.519V681.048H305.355V682.519H306.902ZM306.889 690V683.432H305.368V690H306.889ZM310.529 684.687H311.67V683.432H310.529V681.631H309.007V683.432H308.043V684.687H309.007V688.605C309.007 689.632 309.489 690.139 310.554 690.139C311.074 690.139 311.467 690.063 311.771 689.975V688.783C310.782 688.948 310.529 688.897 310.529 688.123V684.687Z" fill="#121212"/>
<path d="M170.191 701L170.191 671" stroke="#121212" stroke-width="2" stroke-dasharray="8 4"/>
<defs>
<clipPath id="clip0_2665_73561">
<rect width="490" height="497" rx="8" fill="white"/>
</clipPath>
</defs>
</svg>
