<svg width="374" height="757" viewBox="0 0 374 757" fill="none" xmlns="http://www.w3.org/2000/svg">
<rect x="0.5" y="0.5" width="373" height="369" rx="7.5" fill="white"/>
<path d="M185.518 24.1866C213.727 23.9879 241.484 31.2745 265.959 45.3031C290.433 59.3318 310.749 79.6005 324.835 104.042C338.921 128.484 346.272 156.224 346.139 184.434C346.006 212.644 338.394 240.313 324.078 264.621L304.837 253.29C317.148 232.385 323.695 208.589 323.809 184.329C323.923 160.068 317.601 136.212 305.488 115.192C293.374 94.172 275.902 76.7409 254.854 64.6763C233.806 52.6117 209.935 46.3452 185.675 46.516L185.518 24.1866Z" fill="#4D5133"/>
<path d="M322.376 267.446C304.119 297.031 276.695 319.841 244.28 332.404C211.865 344.967 176.232 346.595 142.806 337.041L148.943 315.571C177.689 323.787 208.333 322.387 236.21 311.583C264.088 300.778 287.672 281.162 303.373 255.719L322.376 267.446Z" fill="#CCD055"/>
<path d="M138.334 335.692C98.0192 322.88 64.4445 294.578 44.9964 257.012L64.8266 246.746C81.5519 279.053 110.426 303.392 145.097 314.41L138.334 335.692Z" fill="#CFF1B2"/>
<path d="M43.1042 253.235C31.8445 229.998 26.3946 204.375 27.2227 178.567C28.0508 152.759 35.1322 127.538 47.8585 105.071L67.288 116.077C56.3434 135.399 50.2534 157.089 49.5412 179.283C48.829 201.478 53.5159 223.514 63.1993 243.498L43.1042 253.235Z" fill="#F99E67"/>
<path d="M49.8018 101.735C63.5769 78.733 82.9282 59.5744 106.067 46.0303C129.206 32.4861 155.386 24.9935 182.187 24.2448L182.81 46.5661C159.762 47.21 137.247 53.6537 117.347 65.3016C97.448 76.9496 80.8058 93.4259 68.9592 113.208L49.8018 101.735Z" fill="#D7D7D7"/>
<path d="M174.802 179.818H176.429C180.793 179.818 185.117 176.367 185.117 171.488C185.117 168.314 183.133 165.854 180.555 164.863C182.578 163.831 184.165 161.61 184.165 158.714C184.165 154.905 180.912 151.414 176.23 151.414H174.842C170.042 151.414 166.154 154.826 166.194 160.538H170.478C170.677 157.166 172.382 155.342 174.644 155.342H176.072C177.897 155.342 179.602 156.889 179.602 159.11C179.602 161.491 177.976 163.276 175.397 163.276H173.255V167.005H175.516C178.492 167.005 180.555 168.631 180.555 171.408C180.555 174.026 178.611 175.931 176.429 175.931H174.763C172.422 175.931 170.28 173.828 170.24 170.099H165.876C165.956 176.288 169.764 179.818 174.802 179.818ZM199.495 179.501H203.978V173.193H207.549V169.306H203.978V151.732H198.98L186.801 169.266V173.193H199.495V179.501ZM191.046 169.306L199.535 156.968V169.306H191.046Z" fill="black"/>
<path d="M89.6679 223.807V205.135H87.1025V223.807H89.6679ZM100.215 209.843C98.4169 209.843 97.0946 210.53 96.0896 211.667V210.107H93.5771V223.807H96.0896V216.401C96.0896 213.836 97.4648 212.091 99.6335 212.091C102.305 212.091 102.331 214.391 102.331 216.587V223.807H104.844V216.534C104.844 213.942 104.844 209.843 100.215 209.843ZM113.745 224.071C116.708 224.071 118.718 222.617 119.564 219.945L117.369 219.205C116.813 220.659 115.808 221.876 113.851 221.876C111.445 221.876 110.016 219.945 110.016 216.878C110.016 213.836 111.55 212.011 113.825 212.011C115.544 212.011 116.681 213.043 117.289 214.55L119.432 213.704C118.48 211.244 116.417 209.843 113.745 209.843C110.202 209.843 107.451 212.434 107.451 216.983C107.451 221.479 109.937 224.071 113.745 224.071ZM127.541 224.071C131.561 224.071 133.994 221.188 133.994 216.93C133.994 212.699 131.561 209.843 127.541 209.843C123.547 209.843 121.088 212.699 121.088 216.93C121.088 221.188 123.547 224.071 127.541 224.071ZM127.541 221.902C124.949 221.902 123.6 219.787 123.6 216.93C123.6 214.127 124.949 212.011 127.567 212.011C130.186 212.011 131.508 214.101 131.508 216.904C131.508 219.707 130.212 221.902 127.541 221.902ZM151.443 209.869C149.406 209.869 147.952 210.768 146.947 212.091C146.18 210.61 144.752 209.843 142.9 209.843C141.446 209.843 140.176 210.424 139.092 211.641V210.107H136.579V223.807H139.092V216.349C139.092 213.625 140.414 212.091 142.318 212.091C144.99 212.091 144.99 214.815 144.99 216.454V223.807H147.502V216.481C147.502 213.598 148.798 212.091 150.834 212.091C153.373 212.091 153.4 214.55 153.4 216.375V223.807H155.912V216.349C155.912 213.783 155.886 209.869 151.443 209.869ZM166.154 209.843C164.356 209.843 162.928 210.61 161.949 211.905V210.107H159.436V228.567H161.949V222.246C162.848 223.383 164.276 224.071 166.048 224.071C169.46 224.071 171.972 221.506 171.972 216.878C171.972 212.54 169.619 209.843 166.154 209.843ZM165.704 221.902C163.377 221.902 161.87 220.078 161.87 216.957C161.87 213.863 163.351 212.011 165.731 212.011C168.085 212.011 169.513 213.836 169.513 216.93C169.513 219.972 168.085 221.902 165.704 221.902ZM177.084 223.807V205.135H174.571V223.807H177.084ZM186.091 209.843C181.938 209.843 179.664 212.831 179.664 217.089C179.664 221.347 182.124 224.071 185.985 224.071C188.815 224.071 191.089 222.537 191.935 219.945L189.74 219.205C189.185 220.818 187.942 221.876 186.064 221.876C183.737 221.876 182.414 220.395 182.256 217.75H192.068C192.411 212.805 190.163 209.843 186.091 209.843ZM185.985 212.011C188.18 212.011 189.449 213.334 189.582 215.661H182.282C182.494 213.545 183.684 212.011 185.985 212.011ZM198.393 212.223H201.064V210.107H198.393V206.352H195.881V210.107H193.659V212.223H195.881V220.897C195.881 223.013 196.78 224.071 198.843 224.071C199.848 224.071 200.641 223.912 201.276 223.701V221.664C199.002 222.114 198.393 222.008 198.393 220.078V212.223ZM209.258 209.843C205.105 209.843 202.831 212.831 202.831 217.089C202.831 221.347 205.291 224.071 209.152 224.071C211.982 224.071 214.256 222.537 215.102 219.945L212.907 219.205C212.352 220.818 211.109 221.876 209.231 221.876C206.904 221.876 205.581 220.395 205.423 217.75H215.235C215.578 212.805 213.33 209.843 209.258 209.843ZM209.152 212.011C211.347 212.011 212.616 213.334 212.749 215.661H205.449C205.661 213.545 206.851 212.011 209.152 212.011ZM227.345 207.938V205.135H224.726V207.938H227.345ZM227.292 223.807V210.107H224.779V223.807H227.292ZM234.603 212.223H237.274V210.107H234.603V206.352H232.091V210.107H229.869V212.223H232.091V220.897C232.091 223.013 232.99 224.071 235.053 224.071C236.058 224.071 236.851 223.912 237.486 223.701V221.664C235.211 222.114 234.603 222.008 234.603 220.078V212.223ZM245.467 209.843C241.315 209.843 239.041 212.831 239.041 217.089C239.041 221.347 241.5 224.071 245.362 224.071C248.191 224.071 250.466 222.537 251.312 219.945L249.117 219.205C248.562 220.818 247.319 221.876 245.441 221.876C243.114 221.876 241.791 220.395 241.633 217.75H251.444C251.788 212.805 249.54 209.843 245.467 209.843ZM245.362 212.011C247.557 212.011 248.826 213.334 248.958 215.661H241.659C241.871 213.545 243.061 212.011 245.362 212.011ZM269.06 209.869C267.023 209.869 265.569 210.768 264.564 212.091C263.797 210.61 262.369 209.843 260.517 209.843C259.063 209.843 257.793 210.424 256.709 211.641V210.107H254.197V223.807H256.709V216.349C256.709 213.625 258.031 212.091 259.936 212.091C262.607 212.091 262.607 214.815 262.607 216.454V223.807H265.119V216.481C265.119 213.598 266.415 212.091 268.451 212.091C270.99 212.091 271.017 214.55 271.017 216.375V223.807H273.529V216.349C273.529 213.783 273.503 209.869 269.06 209.869ZM281.682 224.071C284.697 224.071 287.077 222.696 287.077 219.945C287.077 214.868 279.143 216.534 279.143 213.625C279.143 212.329 280.359 211.932 281.629 211.932C283.427 211.932 284.406 212.858 284.485 214.391L286.786 213.968C286.707 211.297 284.67 209.843 281.682 209.843C279.064 209.843 276.657 211.006 276.657 213.73C276.657 218.676 284.617 216.93 284.617 220.078C284.617 221.321 283.507 222.008 281.814 222.008C279.91 222.008 278.667 221.083 278.429 218.993L276.154 219.496C276.366 222.431 278.508 224.071 281.682 224.071Z" fill="#464D41"/>
<rect x="0.5" y="0.5" width="373" height="369" rx="7.5" stroke="black"/>
<rect x="0.5" y="391.5" width="373" height="172.831" rx="7.5" fill="white" stroke="black"/>
<rect x="21.0703" y="483.183" width="84.2817" height="13.169" fill="#4D5133"/>
<rect x="105.352" y="483.183" width="85.5986" height="13.169" fill="#CCD055"/>
<rect x="190.951" y="483.183" width="110.62" height="13.169" fill="#CFF1B2"/>
<rect x="301.57" y="483.183" width="50.0423" height="13.169" fill="#F99E67"/>
<path d="M37.2035 531.154V518.446H35.4395C35.1335 520.048 33.8375 520.732 32.1635 520.804V522.46H35.0075V531.154H37.2035ZM42.67 529.156C46.162 526.204 48.088 524.818 48.088 521.938C48.088 519.616 46.558 518.248 44.02 518.248C41.086 518.248 39.484 520.066 39.556 523.09L41.662 523.27C41.68 521.254 42.49 520.174 43.966 520.174C45.226 520.174 45.856 520.948 45.856 522.01C45.856 524.062 44.092 525.268 39.61 529.192V531.154H48.304V529.156H42.67Z" fill="#464D41"/>
<path d="M67.8465 522.656V526.148H64.1025V522.656H62.7465V531.056H64.1025V527.324H67.8465V531.056H69.2025V522.656H67.8465ZM70.7948 531.056H72.0668V525.008H70.7948V531.056ZM70.7348 524.036H72.1148V522.644H70.7348V524.036ZM75.2764 533.504H76.6084C77.9044 533.504 78.8644 532.772 78.8644 531.632C78.8644 530.612 78.0964 529.904 76.8964 529.904H75.0004C74.6644 529.904 74.4604 529.724 74.4604 529.508C74.4604 529.256 74.6524 529.1 74.9644 529.1H76.0924C77.2564 529.1 78.2164 528.188 78.2164 527.048C78.2164 526.604 78.0844 526.244 77.8084 525.908H78.8404V525.008H77.5564C76.9324 525.008 76.5724 524.912 76.0924 524.912H75.6844C74.5204 524.912 73.5484 525.752 73.5484 527C73.5484 527.6 73.8124 528.092 74.2564 528.5C73.6684 528.596 73.2604 529.076 73.2604 529.544C73.2604 529.892 73.4164 530.228 73.7524 530.432C73.2604 530.768 73.0444 531.224 73.0444 531.8C73.0444 532.796 73.8244 533.504 75.2764 533.504ZM74.3164 531.704C74.3164 531.356 74.4604 530.9 75.2284 530.9H76.7044C77.2564 530.9 77.6044 531.2 77.6044 531.656C77.6044 532.184 77.2204 532.496 76.6684 532.496H75.2884C74.6404 532.496 74.3164 532.148 74.3164 531.704ZM74.7724 527C74.7724 526.328 75.3004 525.92 75.7084 525.92H76.0564C76.6084 525.92 76.9804 526.436 76.9804 527C76.9804 527.564 76.6084 528.104 76.0564 528.104H75.6964C75.3004 528.104 74.7724 527.684 74.7724 527ZM79.8299 531.056H81.1019V527.816C81.1019 526.916 81.6179 526.04 82.3979 526.04H82.8419C83.4299 526.04 83.8499 526.64 83.8499 527.444V531.056H85.1099V527.264C85.1099 525.884 84.2699 524.912 83.1659 524.912H82.6739C82.0379 524.912 81.3899 525.356 81.1019 525.92V522.464H79.8299V531.056Z" fill="#464D41"/>
<path d="M116.217 531.154V518.446H114.453C114.147 520.048 112.851 520.732 111.177 520.804V522.46H114.021V531.154H116.217ZM123.106 531.352C126.742 531.352 127.858 528.04 127.858 524.8C127.858 521.56 126.778 518.248 123.142 518.248C119.578 518.248 118.426 521.56 118.426 524.8C118.426 528.04 119.542 531.352 123.106 531.352ZM123.106 529.498C121.414 529.498 120.604 527.662 120.604 524.728C120.604 521.794 121.45 520.102 123.142 520.102C124.888 520.102 125.662 521.794 125.662 524.728C125.662 527.662 124.852 529.498 123.106 529.498Z" fill="#464D41"/>
<path d="M141.76 531.056H143.068V525.728C143.068 525.392 143.056 524.768 143.056 524.768H143.08C143.08 524.768 143.284 525.368 143.38 525.68L145.396 531.056H146.428L148.456 525.668C148.564 525.368 148.768 524.768 148.768 524.768H148.804C148.804 524.768 148.78 525.404 148.78 525.728V531.056H150.088V522.656H148.372L146.248 528.284C146.14 528.584 145.936 529.184 145.936 529.184H145.9C145.9 529.184 145.708 528.584 145.6 528.284L143.476 522.656H141.76V531.056ZM151.277 528.008C151.277 529.832 152.393 531.152 153.881 531.152H154.337C155.597 531.152 156.605 530.24 156.737 529.064H155.525C155.417 529.616 154.973 530.072 154.337 530.072H153.893C153.209 530.072 152.633 529.388 152.549 528.284H156.761C156.773 528.164 156.785 528.056 156.785 527.792C156.785 526.22 155.753 524.912 154.337 524.912H153.857C152.573 524.912 151.277 526.112 151.277 528.008ZM152.609 527.324C152.801 526.448 153.341 525.944 153.905 525.944H154.337C154.973 525.944 155.489 526.568 155.513 527.324H152.609ZM160.161 531.152H160.509C161.013 531.152 161.697 530.792 162.033 530.312V531.056H163.293V522.464H162.033V525.764C161.733 525.296 161.109 524.912 160.545 524.912H160.173C158.649 524.912 157.617 526.292 157.617 528.032C157.617 529.724 158.685 531.152 160.161 531.152ZM158.901 528.032C158.901 526.832 159.573 526.004 160.305 526.004H160.725C161.505 526.004 162.129 526.832 162.129 528.032C162.129 529.232 161.505 530.06 160.725 530.06H160.305C159.573 530.06 158.901 529.232 158.901 528.032Z" fill="#464D41"/>
<path d="M197.771 524.296C198.599 523.846 199.265 522.82 199.265 521.56C199.265 519.652 197.753 518.248 195.287 518.248C192.713 518.248 191.039 519.742 190.859 522.226L192.965 522.586C193.109 521.02 193.901 520.156 195.269 520.156C196.367 520.156 197.087 520.786 197.087 521.74C197.087 522.82 196.367 523.486 194.963 523.486H194.171V525.358C194.477 525.322 194.747 525.304 195.071 525.304C196.637 525.304 197.555 526.096 197.555 527.374C197.555 528.67 196.637 529.444 195.287 529.444C193.685 529.444 192.713 528.418 192.605 526.6L190.463 526.96C190.535 529.606 192.335 531.352 195.215 531.352C197.861 531.352 199.751 529.84 199.751 527.356C199.751 525.934 199.085 524.674 197.771 524.296Z" fill="#464D41"/>
<path d="M210.241 531.056H215.365V529.88H211.597V522.656H210.241V531.056ZM218.401 531.152H218.857C220.369 531.152 221.497 529.844 221.497 528.032C221.497 526.22 220.357 524.912 218.857 524.912H218.401C216.889 524.912 215.761 526.232 215.761 528.032C215.761 529.82 216.889 531.152 218.401 531.152ZM217.057 528.032C217.057 526.844 217.669 526.004 218.425 526.004H218.833C219.589 526.004 220.201 526.868 220.201 528.032C220.201 529.196 219.589 530.06 218.833 530.06H218.425C217.669 530.06 217.057 529.22 217.057 528.032ZM223.672 531.056H224.932L225.952 527.66C226.06 527.3 226.192 526.7 226.192 526.7H226.24C226.24 526.7 226.372 527.312 226.468 527.66L227.476 531.056H228.724L230.464 525.008H229.18L228.268 528.38C228.172 528.728 228.052 529.328 228.052 529.328H228.016C228.016 529.328 227.884 528.728 227.8 528.38L226.816 525.008H225.604L224.62 528.38C224.524 528.74 224.392 529.328 224.392 529.328H224.356C224.356 529.328 224.236 528.728 224.152 528.368L223.228 525.008H221.944L223.672 531.056Z" fill="#464D41"/>
<path d="M263.525 524.224C264.425 523.72 265.019 522.82 265.019 521.632C265.019 519.778 263.507 518.248 260.951 518.248C258.395 518.248 256.883 519.778 256.883 521.632C256.883 522.82 257.495 523.72 258.377 524.224C257.171 524.764 256.343 525.934 256.343 527.446C256.343 529.714 258.197 531.352 260.951 531.352C263.705 531.352 265.559 529.714 265.559 527.446C265.559 525.934 264.731 524.764 263.525 524.224ZM260.951 520.084C262.103 520.084 262.823 520.678 262.823 521.686C262.823 522.712 262.103 523.396 260.951 523.396C259.817 523.396 259.079 522.712 259.079 521.686C259.079 520.678 259.799 520.084 260.951 520.084ZM260.951 529.444C259.475 529.444 258.557 528.688 258.557 527.41C258.557 526.114 259.493 525.304 260.951 525.304C262.409 525.304 263.345 526.114 263.345 527.41C263.345 528.688 262.427 529.444 260.951 529.444Z" fill="#464D41"/>
<path d="M279.252 531.152H279.876C281.412 531.152 282.864 529.796 283.008 528.044H281.688C281.556 529.1 280.824 529.988 279.876 529.988H279.252C278.124 529.988 277.08 528.788 277.08 526.856C277.08 524.912 278.16 523.736 279.276 523.736H279.912C280.848 523.736 281.544 524.552 281.652 525.668H283.02C282.864 523.916 281.604 522.56 279.912 522.56H279.264C277.572 522.56 275.7 524.06 275.7 526.856C275.7 529.652 277.488 531.152 279.252 531.152ZM286.413 531.152H286.869C288.381 531.152 289.509 529.844 289.509 528.032C289.509 526.22 288.369 524.912 286.869 524.912H286.413C284.901 524.912 283.773 526.232 283.773 528.032C283.773 529.82 284.901 531.152 286.413 531.152ZM285.069 528.032C285.069 526.844 285.681 526.004 286.437 526.004H286.845C287.601 526.004 288.213 526.868 288.213 528.032C288.213 529.196 287.601 530.06 286.845 530.06H286.437C285.681 530.06 285.069 529.22 285.069 528.032ZM290.648 531.056H291.908V527.816C291.908 526.892 292.388 526.04 293.06 526.04H293.456C293.996 526.04 294.368 526.592 294.368 527.384V531.056H295.628V527.816C295.628 526.868 296.108 526.04 296.78 526.04H297.164C297.716 526.04 298.088 526.616 298.088 527.384V531.056H299.348V527.156C299.348 525.872 298.58 524.912 297.488 524.912H297.032C296.372 524.912 295.724 525.38 295.424 525.944C295.112 525.344 294.692 524.912 293.828 524.912H293.372C292.784 524.912 292.172 525.368 291.908 525.92V525.008H290.648V531.056ZM303.917 524.912H303.557C302.993 524.912 302.357 525.296 302.045 525.764V525.008H300.773V533.504H302.045V530.3C302.369 530.78 302.981 531.152 303.521 531.152H303.893C305.417 531.152 306.461 529.784 306.461 528.032C306.461 526.34 305.381 524.912 303.917 524.912ZM301.949 528.032C301.949 526.832 302.573 526.004 303.353 526.004H303.773C304.505 526.004 305.177 526.832 305.177 528.032C305.177 529.232 304.493 530.06 303.773 530.06H303.353C302.573 530.06 301.949 529.232 301.949 528.032ZM307.617 531.056H308.877V522.464H307.617V531.056ZM310.023 528.008C310.023 529.832 311.139 531.152 312.627 531.152H313.083C314.343 531.152 315.351 530.24 315.483 529.064H314.271C314.163 529.616 313.719 530.072 313.083 530.072H312.639C311.955 530.072 311.379 529.388 311.295 528.284H315.507C315.519 528.164 315.531 528.056 315.531 527.792C315.531 526.22 314.499 524.912 313.083 524.912H312.603C311.319 524.912 310.023 526.112 310.023 528.008ZM311.355 527.324C311.547 526.448 312.087 525.944 312.651 525.944H313.083C313.719 525.944 314.235 526.568 314.259 527.324H311.355ZM317.205 523.532V525.008H315.981V526.076H317.205V529.412C317.205 530.552 317.769 531.056 318.777 531.056H320.169V529.988H319.113C318.717 529.988 318.465 529.796 318.465 529.28V526.076H320.241V525.008H318.465V522.932L317.205 523.532ZM320.722 528.008C320.722 529.832 321.838 531.152 323.326 531.152H323.782C325.042 531.152 326.05 530.24 326.182 529.064H324.97C324.862 529.616 324.418 530.072 323.782 530.072H323.338C322.654 530.072 322.078 529.388 321.994 528.284H326.206C326.218 528.164 326.23 528.056 326.23 527.792C326.23 526.22 325.198 524.912 323.782 524.912H323.302C322.018 524.912 320.722 526.112 320.722 528.008ZM322.054 527.324C322.246 526.448 322.786 525.944 323.35 525.944H323.782C324.418 525.944 324.934 526.568 324.958 527.324H322.054ZM329.606 531.152H329.954C330.458 531.152 331.142 530.792 331.478 530.312V531.056H332.738V522.464H331.478V525.764C331.178 525.296 330.554 524.912 329.99 524.912H329.618C328.094 524.912 327.062 526.292 327.062 528.032C327.062 529.724 328.13 531.152 329.606 531.152ZM328.346 528.032C328.346 526.832 329.018 526.004 329.75 526.004H330.17C330.95 526.004 331.574 526.832 331.574 528.032C331.574 529.232 330.95 530.06 330.17 530.06H329.75C329.018 530.06 328.346 529.232 328.346 528.032Z" fill="#464D41"/>
<rect x="21.0703" y="514.788" width="3.9507" height="26.338" fill="#4D5133"/>
<rect x="100.084" y="514.788" width="3.9507" height="26.338" fill="#CCD055"/>
<rect x="179.098" y="514.788" width="3.9507" height="26.338" fill="#CFF1B2"/>
<rect x="244.943" y="514.788" width="3.9507" height="26.338" fill="#F99E67"/>
<path d="M24.8899 430.246C27.6419 430.246 29.0339 428.902 29.0339 426.838C29.0339 422.486 22.6659 424.006 22.6659 421.638C22.6659 420.774 23.4659 420.278 24.6819 420.278C26.0259 420.278 26.7299 421.014 27.0179 422.134L28.8419 421.558C28.5219 419.67 26.9219 418.598 24.7939 418.598C22.2339 418.598 20.6659 419.814 20.6659 421.83C20.6659 425.894 27.0339 424.454 27.0339 426.95C27.0339 427.894 26.2659 428.534 24.9059 428.534C23.2739 428.534 22.4579 427.622 22.2659 426.214L20.2979 426.646C20.5859 429.03 22.3939 430.246 24.8899 430.246ZM33.1344 423.366H34.5744V421.782H33.1344V419.51H31.2144V421.782H29.9984V423.366H31.2144V428.31C31.2144 429.606 31.8224 430.246 33.1664 430.246C33.8224 430.246 34.3184 430.15 34.7024 430.038V428.534C33.4544 428.742 33.1344 428.678 33.1344 427.702V423.366ZM40.359 421.606C39.255 421.606 38.519 422.214 38.167 422.79V421.782H36.247V430.07H38.167V426.118C38.167 424.214 38.967 423.43 40.359 423.43C40.631 423.43 40.903 423.446 41.063 423.462V421.718C40.871 421.654 40.631 421.606 40.359 421.606ZM48.922 430.07C48.714 429.158 48.666 428.454 48.666 427.654V425.062C48.666 423.67 48.618 421.606 45.45 421.606C43.434 421.606 42.042 422.47 41.85 424.47L43.77 424.518C43.818 423.59 44.266 423.174 45.338 423.174C46.41 423.174 46.81 423.574 46.81 424.198C46.81 424.63 46.634 424.694 46.202 424.774L44.154 425.142C42.81 425.382 41.626 425.942 41.626 427.606C41.626 429.254 42.746 430.246 44.522 430.246C45.642 430.246 46.442 429.846 46.906 429.254C46.986 429.622 47.082 429.894 47.178 430.07H48.922ZM44.858 428.678C44.09 428.678 43.578 428.294 43.578 427.622C43.578 427.094 43.898 426.726 44.81 426.534L46.202 426.262C46.426 426.214 46.618 426.166 46.794 426.102V426.518C46.794 427.958 45.914 428.678 44.858 428.678ZM52.9313 423.366H54.3713V421.782H52.9313V419.51H51.0113V421.782H49.7953V423.366H51.0113V428.31C51.0113 429.606 51.6193 430.246 52.9633 430.246C53.6193 430.246 54.1153 430.15 54.4993 430.038V428.534C53.2513 428.742 52.9313 428.678 52.9313 427.702V423.366ZM59.4542 421.606C56.8462 421.606 55.3902 423.382 55.3902 425.974C55.3902 428.598 56.9422 430.246 59.3742 430.246C61.1502 430.246 62.5902 429.334 63.1022 427.766L61.4222 427.222C61.1342 428.054 60.4622 428.614 59.4222 428.614C58.1902 428.614 57.4382 427.846 57.3262 426.518H63.2302C63.4542 423.446 62.0302 421.606 59.4542 421.606ZM59.4062 423.19C60.5422 423.19 61.2302 423.862 61.3422 425.03H57.3582C57.5022 423.926 58.1902 423.19 59.4062 423.19ZM70.2983 422.502C69.8343 422.038 69.0823 421.606 67.9943 421.606C65.7063 421.606 64.3623 423.398 64.3623 425.67C64.3623 428.23 65.9303 429.782 68.0423 429.782C69.0663 429.782 69.8503 429.43 70.3143 428.838V429.206C70.3143 430.326 70.0423 431.542 68.3943 431.542C67.2743 431.542 66.6343 430.966 66.3463 430.022L64.6023 430.39C65.0183 432.118 66.1863 433.11 68.3943 433.11C71.8023 433.11 72.2023 430.646 72.2023 428.838V421.782H70.2983V422.502ZM68.2823 428.166C66.9543 428.166 66.2183 427.254 66.2183 425.67C66.2183 424.23 66.9543 423.222 68.2343 423.222C69.5463 423.222 70.3463 424.198 70.3463 425.702C70.3463 427.286 69.6263 428.166 68.2823 428.166ZM76.2143 420.63V418.774H74.2623V420.63H76.2143ZM76.1983 430.07V421.782H74.2783V430.07H76.1983ZM81.7027 430.246C83.5747 430.246 84.8067 429.334 85.3027 427.766L83.6387 427.206C83.3507 427.99 82.7907 428.598 81.7667 428.598C80.4227 428.598 79.6387 427.558 79.6387 425.878C79.6387 424.214 80.4867 423.222 81.7507 423.222C82.6787 423.222 83.3347 423.766 83.6387 424.55L85.2387 423.926C84.6627 422.454 83.3507 421.606 81.6867 421.606C79.4627 421.606 77.7027 423.174 77.7027 425.958C77.7027 428.678 79.2867 430.246 81.7027 430.246Z" fill="#121212"/>
<path d="M22.6219 455.993H24.2659L26.9899 447.593H25.6219L23.7379 453.413C23.6179 453.761 23.4619 454.349 23.4619 454.349H23.4259C23.4259 454.349 23.2819 453.749 23.1739 453.401L21.2539 447.593H19.8859L22.6219 455.993ZM28.8453 456.089C29.7093 456.089 30.4413 455.693 30.7533 455.093C30.7533 455.729 31.1853 455.993 31.7373 455.993H32.5893V454.925C32.0973 454.925 31.9053 454.889 31.9053 454.457V452.117C31.9053 450.821 31.0773 449.849 29.6853 449.849H29.2173C28.1133 449.849 27.0093 450.617 26.9133 451.889H28.1853C28.2453 451.253 28.6773 450.905 29.2413 450.905H29.7093C30.2373 450.905 30.6453 451.385 30.6453 452.069V452.177L29.0013 452.441C27.7773 452.633 26.8533 453.185 26.8533 454.349C26.8533 455.417 27.6333 456.089 28.8453 456.089ZM28.1493 454.301C28.1493 453.665 28.6053 453.497 29.3133 453.365L30.6453 453.125V453.449C30.6453 454.433 29.9853 455.069 29.0493 455.069C28.5333 455.069 28.1493 454.781 28.1493 454.301ZM33.5174 455.993H34.7774V447.401H33.5174V455.993ZM41.4796 449.945H40.2196V453.185C40.2196 454.121 39.6916 454.961 38.9236 454.961H38.4796C37.8676 454.961 37.4596 454.373 37.4596 453.605V449.945H36.1996V453.773C36.1996 455.117 37.0396 456.089 38.1556 456.089H38.6356C39.2716 456.089 39.9196 455.645 40.2196 455.081V455.993H41.4796V449.945ZM42.6268 452.945C42.6268 454.769 43.7428 456.089 45.2308 456.089H45.6868C46.9468 456.089 47.9548 455.177 48.0868 454.001H46.8748C46.7668 454.553 46.3228 455.009 45.6868 455.009H45.2428C44.5588 455.009 43.9827 454.325 43.8988 453.221H48.1108C48.1228 453.101 48.1348 452.993 48.1348 452.729C48.1348 451.157 47.1028 449.849 45.6868 449.849H45.2068C43.9228 449.849 42.6268 451.049 42.6268 452.945ZM43.9588 452.261C44.1508 451.385 44.6908 450.881 45.2548 450.881H45.6868C46.3228 450.881 46.8388 451.505 46.8628 452.261H43.9588ZM53.5719 456.089C54.4359 456.089 55.1679 455.693 55.4799 455.093C55.4799 455.729 55.9119 455.993 56.4639 455.993H57.3159V454.925C56.8239 454.925 56.6319 454.889 56.6319 454.457V452.117C56.6319 450.821 55.8039 449.849 54.4119 449.849H53.9439C52.8399 449.849 51.7359 450.617 51.6399 451.889H52.9119C52.9719 451.253 53.4039 450.905 53.9679 450.905H54.4359C54.9639 450.905 55.3719 451.385 55.3719 452.069V452.177L53.7279 452.441C52.5039 452.633 51.5799 453.185 51.5799 454.349C51.5799 455.417 52.3599 456.089 53.5719 456.089ZM52.8759 454.301C52.8759 453.665 53.3319 453.497 54.0399 453.365L55.3719 453.125V453.449C55.3719 454.433 54.7119 455.069 53.7759 455.069C53.2599 455.069 52.8759 454.781 52.8759 454.301ZM58.762 448.469V449.945H57.538V451.013H58.762V454.349C58.762 455.489 59.326 455.993 60.334 455.993H61.726V454.925H60.67C60.274 454.925 60.022 454.733 60.022 454.217V451.013H61.798V449.945H60.022V447.869L58.762 448.469ZM65.4184 455.993H66.7744V452.525H67.8184C68.2624 452.525 68.4904 452.681 68.7904 453.209L70.3024 455.993H71.9464L69.6904 452.177C70.6504 451.925 71.4904 451.085 71.4904 449.969C71.4904 448.481 70.4344 447.593 68.7664 447.593H65.4184V455.993ZM66.7744 451.349V448.769H68.6824C69.6064 448.769 70.1224 449.285 70.1224 450.005C70.1224 450.797 69.5704 451.349 68.6344 451.349H66.7744ZM72.8807 455.993H74.1527V449.945H72.8807V455.993ZM72.8207 448.973H74.2007V447.581H72.8207V448.973ZM77.4943 456.089H77.9743C79.1023 456.089 80.0743 455.345 80.0743 454.217C80.0743 453.077 79.4743 452.681 78.5263 452.489L77.3623 452.261C76.8823 452.165 76.6663 451.901 76.6663 451.553C76.6663 451.097 77.0143 450.869 77.4343 450.869H77.8663C78.2983 450.869 78.6703 451.193 78.7063 451.625H79.9303C79.9063 450.557 78.9343 449.861 77.8903 449.861H77.3983C76.3543 449.861 75.3943 450.581 75.3943 451.661C75.3943 452.549 75.9223 453.137 76.8943 453.329L78.0343 453.557C78.5503 453.641 78.8023 453.881 78.8023 454.313C78.8023 454.865 78.3703 455.081 77.9263 455.081H77.4943C77.0143 455.081 76.5823 454.757 76.5223 454.217H75.2743C75.3103 455.369 76.3303 456.089 77.4943 456.089ZM82.473 455.993V453.881L83.193 453.173L85.137 455.993H86.625L84.105 452.225L86.421 449.945H84.801L82.473 452.261V447.401H81.201V455.993H82.473ZM91.8317 457.085L93.0077 457.097V456.077C94.3277 455.945 95.3837 455.045 95.3837 453.629C95.3837 451.949 94.1717 451.481 93.0077 451.145V448.733C93.4757 448.865 93.7637 449.237 93.8477 449.873H95.1917C95.0477 448.445 94.1717 447.665 93.0077 447.521V446.561H91.8317V447.497C90.5717 447.581 89.5157 448.481 89.5157 449.813C89.5157 451.385 90.6797 451.865 91.8317 452.213V454.877C91.2197 454.745 90.8117 454.241 90.7637 453.497H89.3837C89.4677 454.973 90.4637 455.969 91.8317 456.077V457.085ZM90.8957 449.729C90.8957 449.129 91.3397 448.757 91.8317 448.685V450.785C91.2797 450.569 90.8957 450.281 90.8957 449.729ZM93.0077 454.889V452.573C93.5957 452.801 94.0157 453.101 94.0157 453.689C94.0157 454.409 93.5117 454.793 93.0077 454.889ZM99.1809 447.593H98.0529L98.0409 447.701C97.9329 448.565 97.5609 448.865 96.0129 449.453V450.605L97.8249 449.909V455.993H99.1809V447.593ZM103.471 456.089H103.963C105.679 456.089 106.842 454.301 106.842 451.793C106.842 449.285 105.679 447.497 103.963 447.497H103.471C101.803 447.497 100.591 449.273 100.591 451.793C100.591 454.313 101.803 456.089 103.471 456.089ZM101.971 451.793C101.971 449.969 102.619 448.673 103.495 448.673H103.927C104.851 448.673 105.463 449.969 105.463 451.793C105.463 453.617 104.851 454.913 103.927 454.913H103.495C102.619 454.913 101.971 453.617 101.971 451.793ZM107.563 457.817H108.379L109.039 455.969V454.577H107.635V455.993L108.211 456.113L107.563 457.817ZM112.67 456.089H113.162C114.878 456.089 116.042 454.301 116.042 451.793C116.042 449.285 114.878 447.497 113.162 447.497H112.67C111.002 447.497 109.79 449.273 109.79 451.793C109.79 454.313 111.002 456.089 112.67 456.089ZM111.17 451.793C111.17 449.969 111.818 448.673 112.694 448.673H113.126C114.05 448.673 114.662 449.969 114.662 451.793C114.662 453.617 114.05 454.913 113.126 454.913H112.694C111.818 454.913 111.17 453.617 111.17 451.793ZM119.982 456.089H120.474C122.19 456.089 123.354 454.301 123.354 451.793C123.354 449.285 122.19 447.497 120.474 447.497H119.982C118.314 447.497 117.102 449.273 117.102 451.793C117.102 454.313 118.314 456.089 119.982 456.089ZM118.482 451.793C118.482 449.969 119.13 448.673 120.006 448.673H120.438C121.362 448.673 121.974 449.969 121.974 451.793C121.974 453.617 121.362 454.913 120.438 454.913H120.006C119.13 454.913 118.482 453.617 118.482 451.793ZM127.295 456.089H127.787C129.503 456.089 130.667 454.301 130.667 451.793C130.667 449.285 129.503 447.497 127.787 447.497H127.295C125.627 447.497 124.415 449.273 124.415 451.793C124.415 454.313 125.627 456.089 127.295 456.089ZM125.795 451.793C125.795 449.969 126.443 448.673 127.319 448.673H127.751C128.675 448.673 129.287 449.969 129.287 451.793C129.287 453.617 128.675 454.913 127.751 454.913H127.319C126.443 454.913 125.795 453.617 125.795 451.793Z" fill="#464D41"/>
<rect x="0.5" y="583.5" width="373" height="172.831" rx="7.5" fill="white" stroke="black"/>
<rect x="21.0703" y="675.183" width="84.2817" height="13.169" fill="#4D5133"/>
<rect x="105.352" y="675.183" width="85.5986" height="13.169" fill="#CCD055"/>
<rect x="190.951" y="675.183" width="110.62" height="13.169" fill="#CFF1B2"/>
<rect x="301.57" y="675.183" width="50.0423" height="13.169" fill="#F99E67"/>
<path d="M37.2035 723.154V710.446H35.4395C35.1335 712.048 33.8375 712.732 32.1635 712.804V714.46H35.0075V723.154H37.2035ZM42.67 721.156C46.162 718.204 48.088 716.818 48.088 713.938C48.088 711.616 46.558 710.248 44.02 710.248C41.086 710.248 39.484 712.066 39.556 715.09L41.662 715.27C41.68 713.254 42.49 712.174 43.966 712.174C45.226 712.174 45.856 712.948 45.856 714.01C45.856 716.062 44.092 717.268 39.61 721.192V723.154H48.304V721.156H42.67Z" fill="#464D41"/>
<path d="M67.8465 714.656V718.148H64.1025V714.656H62.7465V723.056H64.1025V719.324H67.8465V723.056H69.2025V714.656H67.8465ZM70.7948 723.056H72.0668V717.008H70.7948V723.056ZM70.7348 716.036H72.1148V714.644H70.7348V716.036ZM75.2764 725.504H76.6084C77.9044 725.504 78.8644 724.772 78.8644 723.632C78.8644 722.612 78.0964 721.904 76.8964 721.904H75.0004C74.6644 721.904 74.4604 721.724 74.4604 721.508C74.4604 721.256 74.6524 721.1 74.9644 721.1H76.0924C77.2564 721.1 78.2164 720.188 78.2164 719.048C78.2164 718.604 78.0844 718.244 77.8084 717.908H78.8404V717.008H77.5564C76.9324 717.008 76.5724 716.912 76.0924 716.912H75.6844C74.5204 716.912 73.5484 717.752 73.5484 719C73.5484 719.6 73.8124 720.092 74.2564 720.5C73.6684 720.596 73.2604 721.076 73.2604 721.544C73.2604 721.892 73.4164 722.228 73.7524 722.432C73.2604 722.768 73.0444 723.224 73.0444 723.8C73.0444 724.796 73.8244 725.504 75.2764 725.504ZM74.3164 723.704C74.3164 723.356 74.4604 722.9 75.2284 722.9H76.7044C77.2564 722.9 77.6044 723.2 77.6044 723.656C77.6044 724.184 77.2204 724.496 76.6684 724.496H75.2884C74.6404 724.496 74.3164 724.148 74.3164 723.704ZM74.7724 719C74.7724 718.328 75.3004 717.92 75.7084 717.92H76.0564C76.6084 717.92 76.9804 718.436 76.9804 719C76.9804 719.564 76.6084 720.104 76.0564 720.104H75.6964C75.3004 720.104 74.7724 719.684 74.7724 719ZM79.8299 723.056H81.1019V719.816C81.1019 718.916 81.6179 718.04 82.3979 718.04H82.8419C83.4299 718.04 83.8499 718.64 83.8499 719.444V723.056H85.1099V719.264C85.1099 717.884 84.2699 716.912 83.1659 716.912H82.6739C82.0379 716.912 81.3899 717.356 81.1019 717.92V714.464H79.8299V723.056Z" fill="#464D41"/>
<path d="M116.217 723.154V710.446H114.453C114.147 712.048 112.851 712.732 111.177 712.804V714.46H114.021V723.154H116.217ZM123.106 723.352C126.742 723.352 127.858 720.04 127.858 716.8C127.858 713.56 126.778 710.248 123.142 710.248C119.578 710.248 118.426 713.56 118.426 716.8C118.426 720.04 119.542 723.352 123.106 723.352ZM123.106 721.498C121.414 721.498 120.604 719.662 120.604 716.728C120.604 713.794 121.45 712.102 123.142 712.102C124.888 712.102 125.662 713.794 125.662 716.728C125.662 719.662 124.852 721.498 123.106 721.498Z" fill="#464D41"/>
<path d="M141.76 723.056H143.068V717.728C143.068 717.392 143.056 716.768 143.056 716.768H143.08C143.08 716.768 143.284 717.368 143.38 717.68L145.396 723.056H146.428L148.456 717.668C148.564 717.368 148.768 716.768 148.768 716.768H148.804C148.804 716.768 148.78 717.404 148.78 717.728V723.056H150.088V714.656H148.372L146.248 720.284C146.14 720.584 145.936 721.184 145.936 721.184H145.9C145.9 721.184 145.708 720.584 145.6 720.284L143.476 714.656H141.76V723.056ZM151.277 720.008C151.277 721.832 152.393 723.152 153.881 723.152H154.337C155.597 723.152 156.605 722.24 156.737 721.064H155.525C155.417 721.616 154.973 722.072 154.337 722.072H153.893C153.209 722.072 152.633 721.388 152.549 720.284H156.761C156.773 720.164 156.785 720.056 156.785 719.792C156.785 718.22 155.753 716.912 154.337 716.912H153.857C152.573 716.912 151.277 718.112 151.277 720.008ZM152.609 719.324C152.801 718.448 153.341 717.944 153.905 717.944H154.337C154.973 717.944 155.489 718.568 155.513 719.324H152.609ZM160.161 723.152H160.509C161.013 723.152 161.697 722.792 162.033 722.312V723.056H163.293V714.464H162.033V717.764C161.733 717.296 161.109 716.912 160.545 716.912H160.173C158.649 716.912 157.617 718.292 157.617 720.032C157.617 721.724 158.685 723.152 160.161 723.152ZM158.901 720.032C158.901 718.832 159.573 718.004 160.305 718.004H160.725C161.505 718.004 162.129 718.832 162.129 720.032C162.129 721.232 161.505 722.06 160.725 722.06H160.305C159.573 722.06 158.901 721.232 158.901 720.032Z" fill="#464D41"/>
<path d="M197.771 716.296C198.599 715.846 199.265 714.82 199.265 713.56C199.265 711.652 197.753 710.248 195.287 710.248C192.713 710.248 191.039 711.742 190.859 714.226L192.965 714.586C193.109 713.02 193.901 712.156 195.269 712.156C196.367 712.156 197.087 712.786 197.087 713.74C197.087 714.82 196.367 715.486 194.963 715.486H194.171V717.358C194.477 717.322 194.747 717.304 195.071 717.304C196.637 717.304 197.555 718.096 197.555 719.374C197.555 720.67 196.637 721.444 195.287 721.444C193.685 721.444 192.713 720.418 192.605 718.6L190.463 718.96C190.535 721.606 192.335 723.352 195.215 723.352C197.861 723.352 199.751 721.84 199.751 719.356C199.751 717.934 199.085 716.674 197.771 716.296Z" fill="#464D41"/>
<path d="M210.241 723.056H215.365V721.88H211.597V714.656H210.241V723.056ZM218.401 723.152H218.857C220.369 723.152 221.497 721.844 221.497 720.032C221.497 718.22 220.357 716.912 218.857 716.912H218.401C216.889 716.912 215.761 718.232 215.761 720.032C215.761 721.82 216.889 723.152 218.401 723.152ZM217.057 720.032C217.057 718.844 217.669 718.004 218.425 718.004H218.833C219.589 718.004 220.201 718.868 220.201 720.032C220.201 721.196 219.589 722.06 218.833 722.06H218.425C217.669 722.06 217.057 721.22 217.057 720.032ZM223.672 723.056H224.932L225.952 719.66C226.06 719.3 226.192 718.7 226.192 718.7H226.24C226.24 718.7 226.372 719.312 226.468 719.66L227.476 723.056H228.724L230.464 717.008H229.18L228.268 720.38C228.172 720.728 228.052 721.328 228.052 721.328H228.016C228.016 721.328 227.884 720.728 227.8 720.38L226.816 717.008H225.604L224.62 720.38C224.524 720.74 224.392 721.328 224.392 721.328H224.356C224.356 721.328 224.236 720.728 224.152 720.368L223.228 717.008H221.944L223.672 723.056Z" fill="#464D41"/>
<path d="M263.525 716.224C264.425 715.72 265.019 714.82 265.019 713.632C265.019 711.778 263.507 710.248 260.951 710.248C258.395 710.248 256.883 711.778 256.883 713.632C256.883 714.82 257.495 715.72 258.377 716.224C257.171 716.764 256.343 717.934 256.343 719.446C256.343 721.714 258.197 723.352 260.951 723.352C263.705 723.352 265.559 721.714 265.559 719.446C265.559 717.934 264.731 716.764 263.525 716.224ZM260.951 712.084C262.103 712.084 262.823 712.678 262.823 713.686C262.823 714.712 262.103 715.396 260.951 715.396C259.817 715.396 259.079 714.712 259.079 713.686C259.079 712.678 259.799 712.084 260.951 712.084ZM260.951 721.444C259.475 721.444 258.557 720.688 258.557 719.41C258.557 718.114 259.493 717.304 260.951 717.304C262.409 717.304 263.345 718.114 263.345 719.41C263.345 720.688 262.427 721.444 260.951 721.444Z" fill="#464D41"/>
<path d="M279.252 723.152H279.876C281.412 723.152 282.864 721.796 283.008 720.044H281.688C281.556 721.1 280.824 721.988 279.876 721.988H279.252C278.124 721.988 277.08 720.788 277.08 718.856C277.08 716.912 278.16 715.736 279.276 715.736H279.912C280.848 715.736 281.544 716.552 281.652 717.668H283.02C282.864 715.916 281.604 714.56 279.912 714.56H279.264C277.572 714.56 275.7 716.06 275.7 718.856C275.7 721.652 277.488 723.152 279.252 723.152ZM286.413 723.152H286.869C288.381 723.152 289.509 721.844 289.509 720.032C289.509 718.22 288.369 716.912 286.869 716.912H286.413C284.901 716.912 283.773 718.232 283.773 720.032C283.773 721.82 284.901 723.152 286.413 723.152ZM285.069 720.032C285.069 718.844 285.681 718.004 286.437 718.004H286.845C287.601 718.004 288.213 718.868 288.213 720.032C288.213 721.196 287.601 722.06 286.845 722.06H286.437C285.681 722.06 285.069 721.22 285.069 720.032ZM290.648 723.056H291.908V719.816C291.908 718.892 292.388 718.04 293.06 718.04H293.456C293.996 718.04 294.368 718.592 294.368 719.384V723.056H295.628V719.816C295.628 718.868 296.108 718.04 296.78 718.04H297.164C297.716 718.04 298.088 718.616 298.088 719.384V723.056H299.348V719.156C299.348 717.872 298.58 716.912 297.488 716.912H297.032C296.372 716.912 295.724 717.38 295.424 717.944C295.112 717.344 294.692 716.912 293.828 716.912H293.372C292.784 716.912 292.172 717.368 291.908 717.92V717.008H290.648V723.056ZM303.917 716.912H303.557C302.993 716.912 302.357 717.296 302.045 717.764V717.008H300.773V725.504H302.045V722.3C302.369 722.78 302.981 723.152 303.521 723.152H303.893C305.417 723.152 306.461 721.784 306.461 720.032C306.461 718.34 305.381 716.912 303.917 716.912ZM301.949 720.032C301.949 718.832 302.573 718.004 303.353 718.004H303.773C304.505 718.004 305.177 718.832 305.177 720.032C305.177 721.232 304.493 722.06 303.773 722.06H303.353C302.573 722.06 301.949 721.232 301.949 720.032ZM307.617 723.056H308.877V714.464H307.617V723.056ZM310.023 720.008C310.023 721.832 311.139 723.152 312.627 723.152H313.083C314.343 723.152 315.351 722.24 315.483 721.064H314.271C314.163 721.616 313.719 722.072 313.083 722.072H312.639C311.955 722.072 311.379 721.388 311.295 720.284H315.507C315.519 720.164 315.531 720.056 315.531 719.792C315.531 718.22 314.499 716.912 313.083 716.912H312.603C311.319 716.912 310.023 718.112 310.023 720.008ZM311.355 719.324C311.547 718.448 312.087 717.944 312.651 717.944H313.083C313.719 717.944 314.235 718.568 314.259 719.324H311.355ZM317.205 715.532V717.008H315.981V718.076H317.205V721.412C317.205 722.552 317.769 723.056 318.777 723.056H320.169V721.988H319.113C318.717 721.988 318.465 721.796 318.465 721.28V718.076H320.241V717.008H318.465V714.932L317.205 715.532ZM320.722 720.008C320.722 721.832 321.838 723.152 323.326 723.152H323.782C325.042 723.152 326.05 722.24 326.182 721.064H324.97C324.862 721.616 324.418 722.072 323.782 722.072H323.338C322.654 722.072 322.078 721.388 321.994 720.284H326.206C326.218 720.164 326.23 720.056 326.23 719.792C326.23 718.22 325.198 716.912 323.782 716.912H323.302C322.018 716.912 320.722 718.112 320.722 720.008ZM322.054 719.324C322.246 718.448 322.786 717.944 323.35 717.944H323.782C324.418 717.944 324.934 718.568 324.958 719.324H322.054ZM329.606 723.152H329.954C330.458 723.152 331.142 722.792 331.478 722.312V723.056H332.738V714.464H331.478V717.764C331.178 717.296 330.554 716.912 329.99 716.912H329.618C328.094 716.912 327.062 718.292 327.062 720.032C327.062 721.724 328.13 723.152 329.606 723.152ZM328.346 720.032C328.346 718.832 329.018 718.004 329.75 718.004H330.17C330.95 718.004 331.574 718.832 331.574 720.032C331.574 721.232 330.95 722.06 330.17 722.06H329.75C329.018 722.06 328.346 721.232 328.346 720.032Z" fill="#464D41"/>
<rect x="21.0703" y="706.788" width="3.9507" height="26.338" fill="#4D5133"/>
<rect x="100.084" y="706.788" width="3.9507" height="26.338" fill="#CCD055"/>
<rect x="179.098" y="706.788" width="3.9507" height="26.338" fill="#CFF1B2"/>
<rect x="244.943" y="706.788" width="3.9507" height="26.338" fill="#F99E67"/>
<path d="M20.0899 610.774V612.534H23.2259V622.07H25.1779V612.534H28.2979V610.774H20.0899ZM35.422 622.07C35.214 621.158 35.166 620.454 35.166 619.654V617.062C35.166 615.67 35.118 613.606 31.95 613.606C29.934 613.606 28.542 614.47 28.35 616.47L30.27 616.518C30.318 615.59 30.766 615.174 31.838 615.174C32.91 615.174 33.31 615.574 33.31 616.198C33.31 616.63 33.134 616.694 32.702 616.774L30.654 617.142C29.31 617.382 28.126 617.942 28.126 619.606C28.126 621.254 29.246 622.246 31.022 622.246C32.142 622.246 32.942 621.846 33.406 621.254C33.486 621.622 33.582 621.894 33.678 622.07H35.422ZM31.358 620.678C30.59 620.678 30.078 620.294 30.078 619.622C30.078 619.094 30.398 618.726 31.31 618.534L32.702 618.262C32.926 618.214 33.118 618.166 33.294 618.102V618.518C33.294 619.958 32.414 620.678 31.358 620.678ZM40.4995 622.246C42.3715 622.246 43.6035 621.334 44.0995 619.766L42.4355 619.206C42.1475 619.99 41.5875 620.598 40.5635 620.598C39.2195 620.598 38.4355 619.558 38.4355 617.878C38.4355 616.214 39.2835 615.222 40.5475 615.222C41.4755 615.222 42.1315 615.766 42.4355 616.55L44.0355 615.926C43.4595 614.454 42.1475 613.606 40.4835 613.606C38.2595 613.606 36.4995 615.174 36.4995 617.958C36.4995 620.678 38.0835 622.246 40.4995 622.246ZM47.9313 615.366H49.3713V613.782H47.9313V611.51H46.0113V613.782H44.7953V615.366H46.0113V620.31C46.0113 621.606 46.6193 622.246 47.9633 622.246C48.6193 622.246 49.1153 622.15 49.4993 622.038V620.534C48.2513 620.742 47.9313 620.678 47.9313 619.702V615.366ZM52.9799 612.63V610.774H51.0279V612.63H52.9799ZM52.9639 622.07V613.782H51.0439V622.07H52.9639ZM58.4683 622.246C60.3403 622.246 61.5723 621.334 62.0683 619.766L60.4043 619.206C60.1163 619.99 59.5563 620.598 58.5323 620.598C57.1883 620.598 56.4043 619.558 56.4043 617.878C56.4043 616.214 57.2523 615.222 58.5163 615.222C59.4443 615.222 60.1003 615.766 60.4043 616.55L62.0043 615.926C61.4283 614.454 60.1163 613.606 58.4523 613.606C56.2283 613.606 54.4683 615.174 54.4683 617.958C54.4683 620.678 56.0523 622.246 58.4683 622.246ZM70.2345 622.07C70.0265 621.158 69.9785 620.454 69.9785 619.654V617.062C69.9785 615.67 69.9305 613.606 66.7625 613.606C64.7465 613.606 63.3545 614.47 63.1625 616.47L65.0825 616.518C65.1305 615.59 65.5785 615.174 66.6505 615.174C67.7225 615.174 68.1225 615.574 68.1225 616.198C68.1225 616.63 67.9465 616.694 67.5145 616.774L65.4665 617.142C64.1225 617.382 62.9385 617.942 62.9385 619.606C62.9385 621.254 64.0585 622.246 65.8345 622.246C66.9545 622.246 67.7545 621.846 68.2185 621.254C68.2985 621.622 68.3945 621.894 68.4905 622.07H70.2345ZM66.1705 620.678C65.4025 620.678 64.8905 620.294 64.8905 619.622C64.8905 619.094 65.2105 618.726 66.1225 618.534L67.5145 618.262C67.7385 618.214 67.9305 618.166 68.1065 618.102V618.518C68.1065 619.958 67.2265 620.678 66.1705 620.678ZM73.792 622.07V610.774H71.872V622.07H73.792Z" fill="#121212"/>
<path d="M22.6219 647.993H24.2659L26.9899 639.593H25.6219L23.7379 645.413C23.6179 645.761 23.4619 646.349 23.4619 646.349H23.4259C23.4259 646.349 23.2819 645.749 23.1739 645.401L21.2539 639.593H19.8859L22.6219 647.993ZM28.8453 648.089C29.7093 648.089 30.4413 647.693 30.7533 647.093C30.7533 647.729 31.1853 647.993 31.7373 647.993H32.5893V646.925C32.0973 646.925 31.9053 646.889 31.9053 646.457V644.117C31.9053 642.821 31.0773 641.849 29.6853 641.849H29.2173C28.1133 641.849 27.0093 642.617 26.9133 643.889H28.1853C28.2453 643.253 28.6773 642.905 29.2413 642.905H29.7093C30.2373 642.905 30.6453 643.385 30.6453 644.069V644.177L29.0013 644.441C27.7773 644.633 26.8533 645.185 26.8533 646.349C26.8533 647.417 27.6333 648.089 28.8453 648.089ZM28.1493 646.301C28.1493 645.665 28.6053 645.497 29.3133 645.365L30.6453 645.125V645.449C30.6453 646.433 29.9853 647.069 29.0493 647.069C28.5333 647.069 28.1493 646.781 28.1493 646.301ZM33.5174 647.993H34.7774V639.401H33.5174V647.993ZM41.4796 641.945H40.2196V645.185C40.2196 646.121 39.6916 646.961 38.9236 646.961H38.4796C37.8676 646.961 37.4596 646.373 37.4596 645.605V641.945H36.1996V645.773C36.1996 647.117 37.0396 648.089 38.1556 648.089H38.6356C39.2716 648.089 39.9196 647.645 40.2196 647.081V647.993H41.4796V641.945ZM42.6268 644.945C42.6268 646.769 43.7428 648.089 45.2308 648.089H45.6868C46.9468 648.089 47.9548 647.177 48.0868 646.001H46.8748C46.7668 646.553 46.3228 647.009 45.6868 647.009H45.2428C44.5588 647.009 43.9827 646.325 43.8988 645.221H48.1108C48.1228 645.101 48.1348 644.993 48.1348 644.729C48.1348 643.157 47.1028 641.849 45.6868 641.849H45.2068C43.9228 641.849 42.6268 643.049 42.6268 644.945ZM43.9588 644.261C44.1508 643.385 44.6908 642.881 45.2548 642.881H45.6868C46.3228 642.881 46.8388 643.505 46.8628 644.261H43.9588ZM53.5719 648.089C54.4359 648.089 55.1679 647.693 55.4799 647.093C55.4799 647.729 55.9119 647.993 56.4639 647.993H57.3159V646.925C56.8239 646.925 56.6319 646.889 56.6319 646.457V644.117C56.6319 642.821 55.8039 641.849 54.4119 641.849H53.9439C52.8399 641.849 51.7359 642.617 51.6399 643.889H52.9119C52.9719 643.253 53.4039 642.905 53.9679 642.905H54.4359C54.9639 642.905 55.3719 643.385 55.3719 644.069V644.177L53.7279 644.441C52.5039 644.633 51.5799 645.185 51.5799 646.349C51.5799 647.417 52.3599 648.089 53.5719 648.089ZM52.8759 646.301C52.8759 645.665 53.3319 645.497 54.0399 645.365L55.3719 645.125V645.449C55.3719 646.433 54.7119 647.069 53.7759 647.069C53.2599 647.069 52.8759 646.781 52.8759 646.301ZM58.762 640.469V641.945H57.538V643.013H58.762V646.349C58.762 647.489 59.326 647.993 60.334 647.993H61.726V646.925H60.67C60.274 646.925 60.022 646.733 60.022 646.217V643.013H61.798V641.945H60.022V639.869L58.762 640.469ZM65.4184 647.993H66.7744V644.525H67.8184C68.2624 644.525 68.4904 644.681 68.7904 645.209L70.3024 647.993H71.9464L69.6904 644.177C70.6504 643.925 71.4904 643.085 71.4904 641.969C71.4904 640.481 70.4344 639.593 68.7664 639.593H65.4184V647.993ZM66.7744 643.349V640.769H68.6824C69.6064 640.769 70.1224 641.285 70.1224 642.005C70.1224 642.797 69.5704 643.349 68.6344 643.349H66.7744ZM72.8807 647.993H74.1527V641.945H72.8807V647.993ZM72.8207 640.973H74.2007V639.581H72.8207V640.973ZM77.4943 648.089H77.9743C79.1023 648.089 80.0743 647.345 80.0743 646.217C80.0743 645.077 79.4743 644.681 78.5263 644.489L77.3623 644.261C76.8823 644.165 76.6663 643.901 76.6663 643.553C76.6663 643.097 77.0143 642.869 77.4343 642.869H77.8663C78.2983 642.869 78.6703 643.193 78.7063 643.625H79.9303C79.9063 642.557 78.9343 641.861 77.8903 641.861H77.3983C76.3543 641.861 75.3943 642.581 75.3943 643.661C75.3943 644.549 75.9223 645.137 76.8943 645.329L78.0343 645.557C78.5503 645.641 78.8023 645.881 78.8023 646.313C78.8023 646.865 78.3703 647.081 77.9263 647.081H77.4943C77.0143 647.081 76.5823 646.757 76.5223 646.217H75.2743C75.3103 647.369 76.3303 648.089 77.4943 648.089ZM82.473 647.993V645.881L83.193 645.173L85.137 647.993H86.625L84.105 644.225L86.421 641.945H84.801L82.473 644.261V639.401H81.201V647.993H82.473ZM91.8317 649.085L93.0077 649.097V648.077C94.3277 647.945 95.3837 647.045 95.3837 645.629C95.3837 643.949 94.1717 643.481 93.0077 643.145V640.733C93.4757 640.865 93.7637 641.237 93.8477 641.873H95.1917C95.0477 640.445 94.1717 639.665 93.0077 639.521V638.561H91.8317V639.497C90.5717 639.581 89.5157 640.481 89.5157 641.813C89.5157 643.385 90.6797 643.865 91.8317 644.213V646.877C91.2197 646.745 90.8117 646.241 90.7637 645.497H89.3837C89.4677 646.973 90.4637 647.969 91.8317 648.077V649.085ZM90.8957 641.729C90.8957 641.129 91.3397 640.757 91.8317 640.685V642.785C91.2797 642.569 90.8957 642.281 90.8957 641.729ZM93.0077 646.889V644.573C93.5957 644.801 94.0157 645.101 94.0157 645.689C94.0157 646.409 93.5117 646.793 93.0077 646.889ZM99.1809 639.593H98.0529L98.0409 639.701C97.9329 640.565 97.5609 640.865 96.0129 641.453V642.605L97.8249 641.909V647.993H99.1809V639.593ZM103.471 648.089H103.963C105.679 648.089 106.842 646.301 106.842 643.793C106.842 641.285 105.679 639.497 103.963 639.497H103.471C101.803 639.497 100.591 641.273 100.591 643.793C100.591 646.313 101.803 648.089 103.471 648.089ZM101.971 643.793C101.971 641.969 102.619 640.673 103.495 640.673H103.927C104.851 640.673 105.463 641.969 105.463 643.793C105.463 645.617 104.851 646.913 103.927 646.913H103.495C102.619 646.913 101.971 645.617 101.971 643.793ZM107.563 649.817H108.379L109.039 647.969V646.577H107.635V647.993L108.211 648.113L107.563 649.817ZM112.67 648.089H113.162C114.878 648.089 116.042 646.301 116.042 643.793C116.042 641.285 114.878 639.497 113.162 639.497H112.67C111.002 639.497 109.79 641.273 109.79 643.793C109.79 646.313 111.002 648.089 112.67 648.089ZM111.17 643.793C111.17 641.969 111.818 640.673 112.694 640.673H113.126C114.05 640.673 114.662 641.969 114.662 643.793C114.662 645.617 114.05 646.913 113.126 646.913H112.694C111.818 646.913 111.17 645.617 111.17 643.793ZM119.982 648.089H120.474C122.19 648.089 123.354 646.301 123.354 643.793C123.354 641.285 122.19 639.497 120.474 639.497H119.982C118.314 639.497 117.102 641.273 117.102 643.793C117.102 646.313 118.314 648.089 119.982 648.089ZM118.482 643.793C118.482 641.969 119.13 640.673 120.006 640.673H120.438C121.362 640.673 121.974 641.969 121.974 643.793C121.974 645.617 121.362 646.913 120.438 646.913H120.006C119.13 646.913 118.482 645.617 118.482 643.793ZM127.295 648.089H127.787C129.503 648.089 130.667 646.301 130.667 643.793C130.667 641.285 129.503 639.497 127.787 639.497H127.295C125.627 639.497 124.415 641.273 124.415 643.793C124.415 646.313 125.627 648.089 127.295 648.089ZM125.795 643.793C125.795 641.969 126.443 640.673 127.319 640.673H127.751C128.675 640.673 129.287 641.969 129.287 643.793C129.287 645.617 128.675 646.913 127.751 646.913H127.319C126.443 646.913 125.795 645.617 125.795 643.793Z" fill="#464D41"/>
</svg>
