<svg width="117" height="21" viewBox="0 0 117 21" fill="none" xmlns="http://www.w3.org/2000/svg">
<g clip-path="url(#clip0_2532_69224)">
<path d="M17.794 5.99609C21.8232 5.99609 24.4937 8.64844 24.4937 13.0117V13.7953C24.4937 13.9517 24.3674 14.0783 24.2114 14.0783H14.5208C14.3506 14.0783 14.2173 14.229 14.24 14.3969C14.491 16.1988 15.8851 17.3507 17.9656 17.3507C19.6292 17.3507 20.9992 16.6126 21.8033 15.4094C21.9054 15.2559 22.1224 15.2345 22.2472 15.371L23.7505 17.0151C23.8399 17.1132 23.8484 17.2597 23.7732 17.3706C22.6117 19.0616 20.2731 20.0287 17.8663 20.0287C13.7876 20.0287 10.9199 17.3507 10.9199 13.0373C10.9199 8.72382 13.5649 5.99752 17.7926 5.99752L17.794 5.99609ZM20.9439 11.7971C21.1126 11.7971 21.2474 11.6478 21.2247 11.48C20.9864 9.72645 19.7299 8.60009 17.7458 8.60009C15.8979 8.60009 14.5378 9.64254 14.2697 11.4771C14.2456 11.6464 14.3789 11.7986 14.5491 11.7986H20.9439V11.7971Z" fill="white"/>
<path d="M109.967 5.99556C113.997 5.99556 116.667 8.64791 116.667 13.0111V13.7535C116.667 13.9327 116.522 14.0763 116.345 14.0763H106.742C106.543 14.0763 106.394 14.257 106.425 14.4546C106.698 16.221 108.086 17.3473 110.142 17.3473C111.791 17.3473 113.153 16.622 113.96 15.4374C114.076 15.2681 114.321 15.2553 114.46 15.4061L115.906 16.9875C116.008 17.0999 116.019 17.2691 115.931 17.3943C114.762 19.0682 112.437 20.0253 110.044 20.0253C105.965 20.0253 103.098 17.3473 103.098 13.0339C103.098 8.72044 105.743 5.99414 109.97 5.99414L109.967 5.99556ZM113.071 11.7966C113.269 11.7966 113.418 11.6174 113.39 11.4197C113.132 9.70032 111.881 8.59814 109.919 8.59814C108.087 8.59814 106.734 9.62352 106.45 11.4297C106.421 11.6231 106.575 11.7966 106.769 11.7966H113.071V11.7966Z" fill="white"/>
<path d="M95.5763 5.99609C98.8197 5.99609 101.052 7.65719 101.804 10.2242C101.849 10.3806 101.763 10.5442 101.608 10.5926L99.0651 11.3819C98.9062 11.4316 98.7389 11.3378 98.6949 11.1756C98.2468 9.54583 96.9902 8.77217 95.4033 8.77217C93.154 8.77217 91.8676 10.483 91.8676 13.0117C91.8676 15.7138 93.3256 17.2512 95.4274 17.2512C97.1661 17.2512 98.3177 16.2912 98.7403 14.8434C98.7871 14.6841 98.9516 14.5917 99.1105 14.6401L101.658 15.4308C101.812 15.4791 101.9 15.6427 101.853 15.7991C101.099 18.3434 98.5233 20.0272 95.3281 20.0272C91.2493 20.0272 88.5547 17.3009 88.5547 13.0856C88.5547 8.8703 91.3486 5.99609 95.5749 5.99609H95.5763Z" fill="white"/>
<path d="M65.9181 5.99609C69.9473 5.99609 72.6178 8.64844 72.6178 13.0117V13.6929C72.6178 13.9062 72.4462 14.0783 72.2334 14.0783H62.7654C62.5272 14.0783 62.3456 14.2945 62.3868 14.5305C62.686 16.2556 64.0631 17.3507 66.0912 17.3507C67.7122 17.3507 69.0524 16.651 69.865 15.5033C70.0068 15.3042 70.2947 15.2857 70.4607 15.4663L71.8207 16.9553C71.9427 17.089 71.9569 17.291 71.8519 17.4389C70.6748 19.0872 68.3674 20.0287 65.9933 20.0287C61.9145 20.0287 59.0469 17.3507 59.0469 13.0373C59.0469 8.72382 61.6918 5.99752 65.9195 5.99752L65.9181 5.99609ZM68.9474 11.7971C69.1843 11.7971 69.3658 11.5824 69.3275 11.3477C69.0453 9.66956 67.8029 8.59867 65.8685 8.59867C64.0659 8.59867 62.7271 9.59134 62.4151 11.342C62.3726 11.5781 62.5541 11.7957 62.7938 11.7957H68.9489L68.9474 11.7971Z" fill="white"/>
<path d="M53.252 2.17482C53.252 0.880647 54.1029 0.0273438 55.4445 0.0273438C56.7861 0.0273438 57.664 0.880647 57.664 2.17482C57.664 3.469 56.7606 4.2967 55.4445 4.2967C54.1284 4.2967 53.252 3.4434 53.252 2.17482ZM54.0249 6.31476H56.8656C57.0358 6.31476 57.1733 6.45272 57.1733 6.62338V19.7187C57.1733 19.8894 57.0358 20.0273 56.8656 20.0273H54.0249C53.8547 20.0273 53.7171 19.8894 53.7171 19.7187V6.62338C53.7171 6.45272 53.8547 6.31476 54.0249 6.31476V6.31476Z" fill="white"/>
<path d="M47.3154 1.13965H50.1774C50.3419 1.13965 50.4752 1.27333 50.4752 1.4383V19.7289C50.4752 19.8938 50.3419 20.0275 50.1774 20.0275H47.3154C47.1509 20.0275 47.0176 19.8938 47.0176 19.7289V1.4383C47.0176 1.27333 47.1509 1.13965 47.3154 1.13965Z" fill="white"/>
<path d="M40.0156 2.17482C40.0156 0.880647 40.8666 0.0273438 42.2082 0.0273438C43.5498 0.0273438 44.4277 0.880647 44.4277 2.17482C44.4277 3.469 43.5243 4.2967 42.2082 4.2967C40.8921 4.2967 40.0156 3.4434 40.0156 2.17482ZM40.7871 6.31476H43.6307C43.8008 6.31476 43.9384 6.45272 43.9384 6.62338V19.7202C43.9384 19.8908 43.8008 20.0288 43.6307 20.0288H40.7871C40.6169 20.0288 40.4794 19.8908 40.4794 19.7202V6.62195C40.4794 6.45129 40.6169 6.31334 40.7871 6.31334V6.31476Z" fill="white"/>
<path d="M28.3761 14.9301C28.5449 14.8718 28.725 14.9728 28.7704 15.1463C29.1802 16.6936 30.3857 17.4971 32.3074 17.4971C33.8646 17.4971 34.7552 16.9268 34.7552 15.91C34.7552 14.5717 33.1725 14.448 31.2948 14.0995C28.9959 13.6786 26.4246 12.885 26.4246 10.1089C26.4246 7.50635 28.7236 5.99316 32.0606 5.99316C35.3977 5.99316 37.4839 7.4068 38.0313 9.59979C38.071 9.75765 37.9788 9.9212 37.8228 9.96813L35.7295 10.6152C35.575 10.6636 35.4133 10.5811 35.3537 10.4303C34.8347 9.10772 33.5583 8.49619 31.9117 8.49619C30.4283 8.49619 29.6865 9.04088 29.6865 9.88423C29.6865 11.1485 31.3926 11.2979 33.4193 11.6691C35.9167 12.1398 38.0923 12.8338 38.0923 15.6113C38.0923 18.3888 35.8926 20.0243 32.0847 20.0243C28.2768 20.0243 26.4388 18.5424 25.9722 16.028C25.9439 15.8773 26.029 15.7265 26.175 15.6767L28.3761 14.9287V14.9301Z" fill="white"/>
<path d="M86.5545 6.56678C86.5545 6.3947 86.4155 6.25391 86.2453 6.25533C85.3575 6.25817 83.2798 6.2596 82.4729 6.25391C82.2729 6.25248 79.1528 8.50236 78.3742 9.06554C78.3005 9.11816 78.1984 9.06554 78.1984 8.97594C78.197 8.54929 78.1927 7.55946 78.1927 6.65212C78.1927 6.34208 78.0665 6.2724 77.8084 6.2724C76.3703 6.2724 76.5618 6.26386 75.1223 6.26386C74.7833 6.26386 74.7507 6.46154 74.7507 6.77584C74.7507 11.3183 74.7422 15.0486 74.7422 19.591C74.7422 19.8612 74.9138 19.948 75.1081 19.948H77.824C78.0821 19.948 78.1856 19.8413 78.1856 19.6053C78.1856 16.704 78.1913 13.9535 78.1913 11.0523C78.1913 10.9869 78.1998 10.465 78.204 10.1848C78.2055 10.0881 78.2835 10.0099 78.3799 10.0099C78.6465 10.0099 79.1514 10.007 79.3684 10.007C80.3512 10.007 81.7042 9.99991 83.0416 9.9928C83.1423 9.9928 83.2231 10.0739 83.2231 10.1748V19.5896C83.2231 19.7532 83.355 19.8854 83.5181 19.8854H86.2453C86.4084 19.8854 86.5403 19.7532 86.5403 19.5896V9.43104C86.5403 9.41682 86.5446 9.40259 86.5446 9.38837C86.5446 8.28619 86.5474 7.78701 86.5503 6.56678H86.5545Z" fill="white"/>
<path d="M10.2055 6.33713C10.2055 6.2006 10.0949 6.08825 9.95729 6.08825C9.05105 6.08825 8.14481 6.08683 7.72927 6.08399C7.53072 6.08256 4.45036 8.30826 3.64765 8.88851C3.56823 8.94682 3.45761 8.88851 3.45619 8.79038C3.45335 8.35235 3.44768 7.37532 3.44768 6.48077C3.44768 6.17074 3.32146 6.10105 3.06335 6.10105C1.62527 6.10105 1.81673 6.09252 0.377245 6.09252C0.03971 6.09536 0.00850929 6.29162 0.00850929 6.60734C0.00850929 11.1498 0 14.8801 0 19.4225C0 19.6927 0.171604 19.7795 0.3659 19.7795H3.08178C3.3399 19.7795 3.44343 19.6728 3.44343 19.4368C3.44343 16.5355 3.4491 14.0908 3.4491 11.1896C3.4491 11.1298 3.45335 10.6861 3.45619 10.3946C3.45619 10.2538 3.57107 10.1414 3.71005 10.1429C3.98944 10.1429 4.42909 10.1443 4.62764 10.1443C5.90687 10.1443 8.09943 10.1329 9.95871 10.1244C10.0949 10.1244 10.2041 10.0134 10.2041 9.8755V6.33571L10.2055 6.33713Z" fill="white"/>
</g>
<defs>
<clipPath id="clip0_2532_69224">
<rect width="116.667" height="20" fill="white" transform="translate(0 0.0273438)"/>
</clipPath>
</defs>
</svg>
