<svg width="159" height="27" viewBox="0 0 159 27" fill="none" xmlns="http://www.w3.org/2000/svg">
<g clip-path="url(#clip0_2601_50685)">
<path d="M24.872 8.05859C30.3286 8.05859 33.9452 11.6393 33.9452 17.5296V18.5875C33.9452 18.7987 33.7743 18.9696 33.563 18.9696H20.4391C20.2086 18.9696 20.0281 19.1731 20.0588 19.3996C20.3987 21.8322 22.2868 23.3873 25.1044 23.3873C27.3573 23.3873 29.2127 22.3909 30.3017 20.7666C30.44 20.5593 30.7339 20.5305 30.9029 20.7148L32.9388 22.9342C33.0598 23.0667 33.0713 23.2645 32.9695 23.4142C31.3965 25.697 28.2293 27.0026 24.9699 27.0026C19.4461 27.0026 15.5625 23.3873 15.5625 17.5642C15.5625 11.741 19.1445 8.06051 24.8701 8.06051L24.872 8.05859ZM29.1378 15.89C29.3663 15.89 29.5488 15.6884 29.5181 15.4618C29.1954 13.0946 27.4937 11.574 24.8067 11.574C22.304 11.574 20.4621 12.9813 20.0991 15.458C20.0665 15.6865 20.247 15.8919 20.4775 15.8919H29.1378V15.89Z" fill="#121212"/>
<path d="M149.702 8.05661C155.159 8.05661 158.775 11.6373 158.775 17.5276V18.5298C158.775 18.7717 158.579 18.9657 158.339 18.9657H145.335C145.064 18.9657 144.862 19.2095 144.904 19.4764C145.275 21.8609 147.153 23.3815 149.938 23.3815C152.172 23.3815 154.016 22.4023 155.109 20.803C155.266 20.5746 155.599 20.5573 155.787 20.7608L157.744 22.8958C157.882 23.0474 157.898 23.2759 157.779 23.4449C156.196 25.7046 153.046 26.9967 149.806 26.9967C144.282 26.9967 140.398 23.3815 140.398 17.5583C140.398 11.7352 143.98 8.05469 149.706 8.05469L149.702 8.05661ZM153.905 15.888C154.173 15.888 154.375 15.6461 154.337 15.3792C153.987 13.058 152.293 11.5701 149.637 11.5701C147.155 11.5701 145.323 12.9544 144.939 15.3927C144.899 15.6538 145.108 15.888 145.371 15.888H153.905Z" fill="#121212"/>
<path d="M130.21 8.05859C134.603 8.05859 137.626 10.3011 138.644 13.7666C138.706 13.9777 138.588 14.1985 138.379 14.2638L134.935 15.3294C134.72 15.3966 134.493 15.2699 134.434 15.051C133.827 12.8507 132.125 11.8063 129.976 11.8063C126.93 11.8063 125.188 14.116 125.188 17.5296C125.188 21.1775 127.162 23.2529 130.009 23.2529C132.363 23.2529 133.923 21.957 134.495 20.0025C134.559 19.7875 134.782 19.6627 134.997 19.7279L138.446 20.7954C138.656 20.8607 138.775 21.0815 138.711 21.2927C137.689 24.7274 134.202 27.0006 129.874 27.0006C124.35 27.0006 120.701 23.3201 120.701 17.6295C120.701 11.9388 124.485 8.05859 130.208 8.05859H130.21Z" fill="#121212"/>
<path d="M90.0459 8.05859C95.5025 8.05859 99.1191 11.6393 99.1191 17.5296V18.4493C99.1191 18.7373 98.8867 18.9696 98.5986 18.9696H85.7762C85.4536 18.9696 85.2077 19.2614 85.2634 19.5801C85.6687 21.909 87.5336 23.3873 90.2802 23.3873C92.4755 23.3873 94.2906 22.4427 95.3911 20.8933C95.5832 20.6245 95.9731 20.5996 96.1978 20.8434L98.0397 22.8536C98.2049 23.0341 98.2241 23.3067 98.082 23.5064C96.4878 25.7316 93.3629 27.0026 90.1477 27.0026C84.6238 27.0026 80.7402 23.3873 80.7402 17.5642C80.7402 11.741 84.3223 8.06051 90.0478 8.06051L90.0459 8.05859ZM94.1484 15.89C94.4692 15.89 94.715 15.6001 94.6632 15.2833C94.281 13.0178 92.5984 11.5721 89.9787 11.5721C87.5375 11.5721 85.7244 12.9122 85.3018 15.2756C85.2442 15.5943 85.4901 15.8881 85.8146 15.8881H94.1503L94.1484 15.89Z" fill="#121212"/>
<path d="M72.8926 2.8991C72.8926 1.15196 74.045 0 75.8619 0C77.6789 0 78.8678 1.15196 78.8678 2.8991C78.8678 4.64623 77.6443 5.76363 75.8619 5.76363C74.0795 5.76363 72.8926 4.61168 72.8926 2.8991ZM73.9393 8.48802H77.7864C78.0169 8.48802 78.2032 8.67425 78.2032 8.90464V26.5834C78.2032 26.8138 78.0169 27 77.7864 27H73.9393C73.7089 27 73.5226 26.8138 73.5226 26.5834V8.90464C73.5226 8.67425 73.7089 8.48802 73.9393 8.48802Z" fill="#121212"/>
<path d="M64.8526 1.50195H68.7285C68.9513 1.50195 69.1318 1.68243 69.1318 1.90514V26.5974C69.1318 26.8201 68.9513 27.0006 68.7285 27.0006H64.8526C64.6298 27.0006 64.4492 26.8201 64.4492 26.5974V1.90514C64.4492 1.68243 64.6298 1.50195 64.8526 1.50195Z" fill="#121212"/>
<path d="M54.9668 2.8991C54.9668 1.15196 56.1192 0 57.9361 0C59.7531 0 60.942 1.15196 60.942 2.8991C60.942 4.64623 59.7185 5.76363 57.9361 5.76363C56.1538 5.76363 54.9668 4.61168 54.9668 2.8991ZM56.0116 8.48802H59.8626C60.0931 8.48802 60.2794 8.67425 60.2794 8.90464V26.5853C60.2794 26.8157 60.0931 27.0019 59.8626 27.0019H56.0116C55.7812 27.0019 55.5949 26.8157 55.5949 26.5853V8.90272C55.5949 8.67233 55.7812 8.4861 56.0116 8.4861V8.48802Z" fill="#121212"/>
<path d="M39.2023 20.1195C39.4309 20.0408 39.6748 20.1771 39.7363 20.4114C40.2914 22.5003 41.9239 23.585 44.5264 23.585C46.6353 23.585 47.8415 22.8151 47.8415 21.4424C47.8415 19.6357 45.698 19.4687 43.1551 18.9983C40.0417 18.43 36.5595 17.3587 36.5595 13.611C36.5595 10.0975 39.6729 8.05469 44.1922 8.05469C48.7116 8.05469 51.5369 9.9631 52.2782 12.9236C52.332 13.1367 52.2072 13.3575 51.9959 13.4209L49.161 14.2945C48.9516 14.3597 48.7327 14.2484 48.652 14.0449C47.9491 12.2593 46.2205 11.4338 43.9906 11.4338C41.9815 11.4338 40.977 12.1691 40.977 13.3076C40.977 15.0144 43.2876 15.216 46.0322 15.7171C49.4145 16.3526 52.3608 17.2896 52.3608 21.0392C52.3608 24.7888 49.3819 26.9967 44.2249 26.9967C39.0679 26.9967 36.5787 24.9962 35.9468 21.6017C35.9084 21.3982 36.0236 21.1947 36.2215 21.1275L39.2023 20.1176V20.1195Z" fill="#121212"/>
<path d="M117.993 8.82864C117.993 8.59632 117.805 8.40625 117.575 8.40817C116.372 8.41201 113.559 8.41393 112.466 8.40625C112.195 8.40433 107.969 11.4417 106.915 12.202C106.815 12.273 106.677 12.202 106.677 12.081C106.675 11.505 106.669 10.1687 106.669 8.94383C106.669 8.52529 106.498 8.43121 106.149 8.43121C104.201 8.43121 104.46 8.41969 102.511 8.41969C102.052 8.41969 102.008 8.68656 102.008 9.11087C102.008 15.2431 101.996 20.2791 101.996 26.4114C101.996 26.7762 102.228 26.8933 102.492 26.8933H106.17C106.519 26.8933 106.659 26.7493 106.659 26.4306C106.659 22.5139 106.667 18.8008 106.667 14.8841C106.667 14.7958 106.679 14.0912 106.684 13.7129C106.686 13.5824 106.792 13.4768 106.923 13.4768C107.284 13.4768 107.967 13.4729 108.261 13.4729C109.592 13.4729 111.425 13.4634 113.236 13.4538C113.372 13.4538 113.482 13.5632 113.482 13.6995V26.4095C113.482 26.6302 113.66 26.8088 113.881 26.8088H117.575C117.796 26.8088 117.974 26.6302 117.974 26.4095V12.6954C117.974 12.6762 117.98 12.657 117.98 12.6378C117.98 11.1498 117.984 10.4759 117.988 8.82864H117.993Z" fill="#121212"/>
<path d="M14.5946 8.51753C14.5946 8.33322 14.4448 8.18154 14.2585 8.18154C13.0311 8.18154 11.8038 8.17962 11.2411 8.17578C10.9722 8.17386 6.8005 11.1786 5.7134 11.9619C5.60584 12.0406 5.45603 11.9619 5.45411 11.8294C5.45027 11.2381 5.44258 9.91908 5.44258 8.71144C5.44258 8.2929 5.27164 8.19882 4.92208 8.19882C2.97452 8.19882 3.23381 8.1873 1.28434 8.1873C0.827216 8.19114 0.784962 8.45609 0.784962 8.88232C0.784962 15.0146 0.773438 20.0506 0.773438 26.1828C0.773438 26.5476 1.00584 26.6647 1.26897 26.6647H4.94705C5.29661 26.6647 5.43682 26.5207 5.43682 26.202C5.43682 22.2854 5.4445 18.985 5.4445 15.0683C5.4445 14.9877 5.45027 14.3887 5.45411 13.9951C5.45411 13.805 5.60968 13.6533 5.79791 13.6553C6.17628 13.6553 6.77169 13.6572 7.04058 13.6572C8.77302 13.6572 11.7424 13.6418 14.2604 13.6303C14.4448 13.6303 14.5926 13.4806 14.5926 13.2943V8.51561L14.5946 8.51753Z" fill="#121212"/>
</g>
<defs>
<clipPath id="clip0_2601_50685">
<rect width="158" height="27" fill="white" transform="translate(0.773438)"/>
</clipPath>
</defs>
</svg>
