<svg width="40" height="40" viewBox="0 0 40 40" fill="none" xmlns="http://www.w3.org/2000/svg">
<path d="M5 35.2413V6C5 5.44772 5.44772 5 6 5H34C34.5523 5 35 5.44772 35 6V27.3333C35 27.8856 34.5523 28.3333 34 28.3333H12.1473C11.8435 28.3333 11.5562 28.4714 11.3664 28.7086L5.89043 35.5536C5.59518 35.9227 5 35.7139 5 35.2413Z" fill="#4D5133"/>
<path d="M17.5 16.667H13.5C12.9477 16.667 12.5 16.2193 12.5 15.667V12.667C12.5 12.1147 12.9477 11.667 13.5 11.667H16.5C17.0523 11.667 17.5 12.1147 17.5 12.667V16.667ZM17.5 16.667C17.5 18.3337 15.8333 20.0003 14.1667 21.667" stroke="white" stroke-linecap="round"/>
<path d="M27.5 16.667H23.5C22.9477 16.667 22.5 16.2193 22.5 15.667V12.667C22.5 12.1147 22.9477 11.667 23.5 11.667H26.5C27.0523 11.667 27.5 12.1147 27.5 12.667V16.667ZM27.5 16.667C27.5 18.3337 25.8333 20.0003 24.1667 21.667" stroke="white" stroke-linecap="round"/>
</svg>
