<svg width="332" height="268" viewBox="0 0 332 268" fill="none" xmlns="http://www.w3.org/2000/svg">
<circle cx="293.784" cy="166.305" r="37.7154" fill="white" stroke="black"/>
<circle cx="293.785" cy="166.305" r="30.5081" stroke="black" stroke-linecap="round" stroke-linejoin="round" stroke-dasharray="0.25 5"/>
<path d="M294.106 212.87V248.195H78.3788V219.293H0.5" stroke="black"/>
<circle cx="182.671" cy="247.874" r="19.0894" fill="white" stroke="black"/>
<circle cx="294.106" cy="214.154" r="3.35366" fill="#CFF1B2" stroke="black"/>
<circle cx="294.106" cy="248.195" r="3.35366" fill="#CFF1B2" stroke="black"/>
<circle cx="78.3009" cy="219.293" r="3.35366" fill="#CFF1B2" stroke="black"/>
<circle cx="78.9435" cy="248.195" r="3.35366" fill="#CFF1B2" stroke="black"/>
<path d="M0 148.643H199.049V202.594H253.642" stroke="black"/>
<path d="M113.627 0V83.8937H294.107V121.667" stroke="black"/>
<circle cx="167.898" cy="86.0201" r="19.0894" fill="white" stroke="black"/>
<rect x="157.943" y="74.1377" width="19.2683" height="23.122" rx="3" stroke="black"/>
<path d="M165.65 93.8166C165.854 93.4417 166.212 93.1287 166.53 92.8538C166.932 92.5054 167.437 92.1221 167.995 92.1221C168.543 92.1221 168.554 92.9607 168.554 93.366C168.554 93.7074 168.554 94.0489 168.554 94.3904C168.554 94.4547 168.524 94.605 168.557 94.6638C168.627 94.7858 169.003 94.4623 169.045 94.4327C169.647 94.0115 170.223 93.3697 170.935 93.1426C171.233 93.0473 171.189 93.9588 171.257 94.1131C171.426 94.4963 172.013 94.4347 172.338 94.4058C172.708 94.3728 173.031 94.3395 173.358 94.1632" stroke="black" stroke-linecap="round"/>
<path d="M181.183 79.7983L169.153 91.8277C169.053 91.9283 168.89 91.9283 168.789 91.8277L167.136 90.1741C167.035 90.0735 167.035 89.9104 167.136 89.8098L179.165 77.7805C179.722 77.2233 180.626 77.2233 181.183 77.7805C181.74 78.3377 181.74 79.2411 181.183 79.7983Z" fill="white" stroke="black" stroke-linejoin="round"/>
<line x1="177.5" y1="78.739" x2="180.225" y2="81.464" stroke="black"/>
<line x1="175.078" y1="81.1611" x2="177.803" y2="83.886" stroke="black"/>
<path d="M171.47 83.6588L176.959 78.1701L177.916 77.9715" stroke="black" stroke-linecap="round"/>
<path d="M166.222 92.8501L167.213 89.754L169.318 91.8589L166.222 92.8501Z" fill="white" stroke="black" stroke-linejoin="round"/>
<line x1="161.654" y1="77.4912" x2="173.5" y2="77.4912" stroke="black" stroke-linecap="round"/>
<line x1="161.654" y1="82.6299" x2="169.646" y2="82.6299" stroke="black" stroke-linecap="round"/>
<line x1="161.654" y1="80.0605" x2="172.215" y2="80.0605" stroke="black" stroke-linecap="round"/>
<line x1="161.654" y1="85.1992" x2="168.362" y2="85.1992" stroke="black" stroke-linecap="round"/>
<line x1="161.654" y1="87.7676" x2="165.15" y2="87.7676" stroke="black" stroke-linecap="round"/>
<line x1="161.654" y1="90.3369" x2="162.581" y2="90.3369" stroke="black" stroke-linecap="round"/>
<circle cx="294.106" cy="117.813" r="3.35366" fill="#CFF1B2" stroke="black"/>
<circle cx="294.106" cy="83.1301" r="3.35366" fill="#CFF1B2" stroke="black"/>
<circle cx="199.049" cy="148.643" r="3.35366" fill="#CFF1B2" stroke="black"/>
<circle cx="199.049" cy="201.951" r="3.35366" fill="#CFF1B2" stroke="black"/>
<circle cx="251.715" cy="202.594" r="3.35366" fill="#CFF1B2" stroke="black"/>
<circle cx="113.625" cy="83.13" r="3.35366" fill="#CFF1B2" stroke="black"/>
<circle cx="102.386" cy="147.679" r="19.0894" fill="white" stroke="black"/>
<path d="M91.7891 146.715L98.533 137.081L106.24 145.752L112.021 140.935" stroke="black" stroke-linecap="round"/>
<circle cx="103.139" cy="150.191" r="6.88618" transform="rotate(-45 103.139 150.191)" fill="white" stroke="black"/>
<line x1="99.9961" y1="149.142" x2="99.9961" y2="151.353" stroke="black" stroke-linecap="round"/>
<line x1="106.418" y1="149.142" x2="106.418" y2="151.353" stroke="black" stroke-linecap="round"/>
<line x1="103.207" y1="147.215" x2="103.207" y2="152.638" stroke="black" stroke-linecap="round"/>
<line x1="111.736" y1="158.133" x2="108.59" y2="154.986" stroke="black" stroke-linecap="round"/>
<circle cx="91.7879" cy="146.716" r="2.06911" fill="white" stroke="black"/>
<circle cx="98.8543" cy="137.082" r="2.06911" fill="white" stroke="black"/>
<circle cx="112.341" cy="140.935" r="2.06911" fill="white" stroke="black"/>
<path d="M179.871 249.473V246.964C179.871 245.231 181.271 243.827 182.998 243.827C184.725 243.827 186.125 245.231 186.125 246.964V249.473" stroke="black"/>
<ellipse cx="182.997" cy="252.295" rx="0.938095" ry="0.940941" stroke="black"/>
<path d="M182.996 253.236V254.805" stroke="black" stroke-linecap="round"/>
<rect x="177.994" y="249.473" width="10.0063" height="7.52752" rx="2" stroke="black"/>
<path d="M175.285 252.049H174.321C172.016 252.049 170.146 250.18 170.146 247.874C170.146 245.895 171.524 244.237 173.373 243.807C173.363 243.666 173.358 243.522 173.358 243.378C173.358 240.008 176.09 237.276 179.459 237.276C181.936 237.276 184.068 238.752 185.024 240.872C185.581 240.625 186.197 240.488 186.846 240.488C188.883 240.488 190.604 241.843 191.156 243.701C193.399 243.773 195.195 245.614 195.195 247.874C195.195 250.18 193.326 252.049 191.02 252.049H190.699" stroke="black" stroke-linecap="round" stroke-linejoin="round"/>
<path d="M294.5 180.5C286.78 180.5 280.5 174.239 280.5 166.5C280.5 158.78 286.761 152.5 294.5 152.5C302.22 152.5 308.5 158.761 308.5 166.5C308.48 174.221 302.218 180.5 294.5 180.5Z" fill="white" stroke="black"/>
<path d="M298.617 161.189C298.617 161.07 298.538 160.991 298.418 160.991C297.683 160.991 296.947 160.991 296.628 160.991C296.469 160.991 293.983 162.781 293.327 163.258C293.267 163.298 293.167 163.258 293.167 163.178C293.167 162.82 293.167 162.045 293.167 161.329C293.167 161.07 293.068 161.03 292.849 161.03C291.696 161.03 291.835 161.03 290.681 161.03C290.403 161.03 290.383 161.189 290.383 161.448C290.383 165.108 290.383 168.111 290.383 171.771C290.383 171.99 290.522 172.049 290.681 172.049C291.775 172.049 291.835 172.049 292.869 172.049C293.068 172.049 293.167 171.97 293.167 171.771C293.167 169.444 293.167 167.475 293.167 165.128C293.167 165.088 293.167 164.73 293.167 164.491C293.167 164.372 293.267 164.292 293.366 164.292C293.585 164.292 293.943 164.292 294.102 164.292C295.137 164.292 296.907 164.292 298.399 164.272C298.518 164.272 298.597 164.173 298.597 164.074V161.189H298.617Z" fill="black"/>
</svg>
