<svg width="248" height="252" viewBox="0 0 248 252" fill="none" xmlns="http://www.w3.org/2000/svg">
<path d="M158.609 216.16C158.609 235.127 143.28 250.5 124.374 250.5C105.468 250.5 90.1387 235.127 90.1387 216.16C90.1387 197.193 105.468 181.819 124.374 181.819C143.28 181.819 158.609 197.193 158.609 216.16Z" fill="white" stroke="black"/>
<ellipse cx="124.747" cy="186.564" rx="64.241" ry="64.4358" stroke="black" stroke-linecap="round" stroke-dasharray="0.25 6"/>
<path d="M210.151 164.087C210.151 211.813 171.578 250.5 124 250.5C76.422 250.5 37.8496 211.813 37.8496 164.087C37.8496 116.36 76.422 77.6731 124 77.6731C171.578 77.6731 210.151 116.36 210.151 164.087Z" stroke="black"/>
<ellipse cx="124" cy="146.105" rx="104.578" ry="104.896" stroke="black" stroke-linecap="round" stroke-linejoin="round" stroke-dasharray="0.25 6"/>
<path d="M247.5 126.999C247.5 195.206 192.207 250.5 124 250.5C55.7928 250.5 0.5 195.206 0.5 126.999C0.5 58.7905 55.7928 3.49701 124 3.49701C192.207 3.49701 247.5 58.7905 247.5 126.999Z" stroke="black"/>
<path d="M121.259 193.682C121.259 206.028 111.281 216.034 98.9755 216.034C86.6703 216.034 76.6924 206.028 76.6924 193.682C76.6924 181.336 86.6703 171.33 98.9755 171.33C111.281 171.33 121.259 181.336 121.259 193.682Z" fill="white" stroke="black"/>
<path d="M94.8672 191.809V188.812C94.8672 186.743 96.5394 185.066 98.6021 185.066C100.665 185.066 102.337 186.743 102.337 188.812V191.809" stroke="black"/>
<ellipse cx="98.6029" cy="195.181" rx="1.12048" ry="1.12388" stroke="black"/>
<path d="M98.6025 196.304V198.178" stroke="black" stroke-linecap="round"/>
<rect x="92.626" y="191.809" width="11.9518" height="8.99104" rx="2" stroke="black"/>
<path d="M111.549 83.9165C111.549 96.048 101.579 105.894 89.2656 105.894C76.9525 105.894 66.9824 96.048 66.9824 83.9165C66.9824 71.7849 76.9525 61.9388 89.2656 61.9388C101.579 61.9388 111.549 71.7849 111.549 83.9165Z" fill="white" stroke="black"/>
<path d="M89.0961 82.0773C90.4462 82.0773 91.5407 80.9795 91.5407 79.6252C91.5407 78.2709 90.4462 77.1731 89.0961 77.1731C87.7459 77.1731 86.6514 78.2709 86.6514 79.6252C86.6514 80.9795 87.7459 82.0773 89.0961 82.0773Z" stroke="black" stroke-linecap="round" stroke-linejoin="round"/>
<path d="M84.8177 82.0773C83.4676 82.0773 82.373 80.9795 82.373 79.6252C82.373 78.2709 83.4676 77.1731 84.8177 77.1731" stroke="black" stroke-linecap="round" stroke-linejoin="round"/>
<path d="M93.374 82.0773C94.7242 82.0773 95.8187 80.9795 95.8187 79.6252C95.8187 78.2709 94.7242 77.1731 93.374 77.1731" stroke="black" stroke-linecap="round" stroke-linejoin="round"/>
<path d="M93.9848 90.6597V89.1425C93.9848 86.9333 92.1939 85.1425 89.9848 85.1425H88.2061C85.9969 85.1425 84.2061 86.9333 84.2061 89.1425V90.6597" stroke="black" stroke-linecap="round" stroke-linejoin="round"/>
<path d="M82.9836 85.1425V85.1425C81.2959 85.1425 79.9277 86.5106 79.9277 88.1983V90.6597" stroke="black" stroke-linecap="round" stroke-linejoin="round"/>
<path d="M95.207 85.1425V85.1425C96.8947 85.1425 98.2629 86.5106 98.2629 88.1983V90.6597" stroke="black" stroke-linecap="round" stroke-linejoin="round"/>
<path d="M207.163 22.8522C207.163 35.1985 197.185 45.2045 184.88 45.2045C172.575 45.2045 162.597 35.1985 162.597 22.8522C162.597 10.506 172.575 0.5 184.88 0.5C197.185 0.5 207.163 10.506 207.163 22.8522Z" fill="white" stroke="black"/>
<path d="M176.289 29.2209H175.169C172.487 29.2209 170.313 27.0404 170.313 24.3507C170.313 22.0416 171.916 20.1079 174.066 19.6068C174.054 19.4414 174.048 19.2743 174.048 19.1059C174.048 15.1748 177.226 11.988 181.145 11.988C184.025 11.988 186.505 13.7094 187.617 16.1825C188.264 15.8944 188.981 15.7343 189.735 15.7343C192.105 15.7343 194.106 17.3153 194.748 19.4831C197.357 19.5666 199.446 21.7139 199.446 24.3507C199.446 27.0404 197.272 29.2209 194.591 29.2209H194.217" stroke="black" stroke-linecap="round" stroke-linejoin="round"/>
<path d="M193.717 141.984C193.717 154.33 183.739 164.336 171.434 164.336C159.128 164.336 149.15 154.33 149.15 141.984C149.15 129.637 159.128 119.631 171.434 119.631C183.739 119.631 193.717 129.637 193.717 141.984Z" fill="white" stroke="black"/>
<path d="M170.561 141.609C170.561 143.817 168.776 145.604 166.579 145.604C164.381 145.604 162.597 143.817 162.597 141.609C162.597 139.401 164.381 137.613 166.579 137.613C168.776 137.613 170.561 139.401 170.561 141.609Z" stroke="black"/>
<path d="M171.061 141.609H181.518M175.887 141.859V144.606M179.373 141.609V145.355" stroke="black" stroke-linecap="round" stroke-linejoin="round"/>
<path d="M185.253 20.9791C184.719 21.5994 182.797 22.8399 179.377 22.8399C179.363 22.8399 179.377 23.9536 179.377 25.2505C179.377 26.5474 178.033 33.3281 185.213 35.9642" stroke="black" stroke-linecap="round"/>
<path d="M185.254 20.9791C185.787 21.5994 187.71 22.8399 191.13 22.8399C191.143 22.8399 191.13 23.9536 191.13 25.2505C191.13 26.5474 192.473 33.3281 185.294 35.9642" stroke="black" stroke-linecap="round"/>
<path d="M183.386 28.4552L185.019 29.9702L187.37 26.9731" stroke="black" stroke-linecap="round" stroke-linejoin="round"/>
</svg>
