<svg width="260" height="249" viewBox="0 0 260 249" fill="none" xmlns="http://www.w3.org/2000/svg">
<path d="M73.1955 125.192C44.6098 125.192 21.4365 148.262 21.4365 176.721C21.4365 205.18 44.6098 228.25 73.1955 228.25H150.745" stroke="black" stroke-linejoin="round" stroke-dasharray="0.25 5"/>
<path d="M72.6055 125.192H198.13C226.571 125.192 249.627 101.966 249.627 73.3167C249.627 44.6669 226.571 21.4417 198.13 21.4417H81.1883" stroke="black" stroke-linejoin="round" stroke-dasharray="0.25 5"/>
<path d="M114.979 21.0958C114.979 32.4707 105.76 41.6917 94.3883 41.6917C83.0166 41.6917 73.7979 32.4707 73.7979 21.0958C73.7979 9.72095 83.0166 0.5 94.3883 0.5C105.76 0.5 114.979 9.72095 114.979 21.0958Z" fill="white" stroke="black"/>
<path d="M170.298 227.904C170.298 239.279 161.079 248.5 149.708 248.5C138.336 248.5 129.117 239.279 129.117 227.904C129.117 216.529 138.336 207.308 149.708 207.308C161.079 207.308 170.298 216.529 170.298 227.904Z" fill="white" stroke="black"/>
<path d="M41.6809 174.646C41.6809 186.021 32.4621 195.242 21.0904 195.242C9.71877 195.242 0.5 186.021 0.5 174.646C0.5 163.271 9.71877 154.05 21.0904 154.05C32.4621 154.05 41.6809 163.271 41.6809 174.646Z" fill="white" stroke="black"/>
<path d="M259.5 101.329C259.5 112.704 250.281 121.925 238.91 121.925C227.538 121.925 218.319 112.704 218.319 101.329C218.319 89.9543 227.538 80.7333 238.91 80.7333C250.281 80.7333 259.5 89.9543 259.5 101.329Z" fill="white" stroke="black"/>
<path d="M259.5 101.329C259.5 112.704 250.281 121.925 238.91 121.925C227.538 121.925 218.319 112.704 218.319 101.329C218.319 89.9543 227.538 80.7333 238.91 80.7333C250.281 80.7333 259.5 89.9543 259.5 101.329Z" fill="white" stroke="black"/>
<rect x="229.574" y="89.9168" width="18.6702" height="22.1333" rx="2" stroke="black"/>
<path d="M237.873 107.885C238.056 107.583 238.377 107.33 238.662 107.108C239.023 106.826 239.476 106.517 239.976 106.517C240.469 106.517 240.478 107.194 240.478 107.521C240.478 107.797 240.478 108.073 240.478 108.349C240.478 108.401 240.451 108.522 240.481 108.57C240.544 108.668 240.881 108.407 240.919 108.383C241.458 108.043 241.975 107.524 242.614 107.341C242.882 107.264 242.842 108 242.903 108.125C243.055 108.434 243.582 108.385 243.873 108.361C244.205 108.335 244.495 108.308 244.788 108.165" stroke="black" stroke-linecap="round"/>
<path d="M233.032 94.7583H236.49" stroke="black" stroke-linecap="round"/>
<line x1="232.841" y1="100.483" x2="241.522" y2="100.483" stroke="black" stroke-linecap="round"/>
<line x1="232.841" y1="97.7167" x2="236.681" y2="97.7167" stroke="black" stroke-linecap="round"/>
<line x1="232.841" y1="103.25" x2="238.756" y2="103.25" stroke="black" stroke-linecap="round"/>
<line x1="232.841" y1="106.017" x2="235.99" y2="106.017" stroke="black" stroke-linecap="round"/>
<line x1="233.532" y1="105.325" x2="233.915" y2="105.325" stroke="black" stroke-linecap="round"/>
<path d="M87.2539 69.6101C87.2539 67.0126 89.2428 64.8477 91.8309 64.628L163.301 58.5603C166.218 58.3126 168.724 60.6141 168.724 63.5424L168.724 175.946C168.724 178.543 166.735 180.708 164.147 180.928L92.6769 186.995C89.7591 187.243 87.2539 184.942 87.2539 182.013L87.2539 69.6101Z" fill="#CFF1B2" stroke="black"/>
<path fill-rule="evenodd" clip-rule="evenodd" d="M92.1288 64.3249C89.3673 64.3249 87.1288 66.5634 87.1288 69.3249L87.1287 181.764C87.1287 184.525 89.3673 186.764 92.1287 186.764L170.513 186.764C172.99 186.764 175.046 184.963 175.444 182.6H179.736C180.841 182.6 181.736 181.704 181.736 180.6V152.744C181.736 151.969 181.289 151.264 180.588 150.934L175.513 148.546L175.513 69.3249C175.513 66.5634 173.275 64.3249 170.513 64.3249L92.1288 64.3249Z" fill="white"/>
<path d="M87.1289 69.3249H87.6289H87.1289ZM92.1289 64.3249V63.8249V64.3249ZM87.1289 181.764H86.6289H87.1289ZM92.1289 186.764V186.264V186.764ZM170.513 186.764V187.264V186.764ZM175.444 182.6V182.1H175.021L174.951 182.517L175.444 182.6ZM180.588 150.934L180.801 150.482L180.588 150.934ZM175.513 148.546H175.013V148.863L175.301 148.998L175.513 148.546ZM175.513 69.3249H176.013H175.513ZM170.513 64.3249V64.8249V64.3249ZM87.6289 69.3249C87.6289 66.8396 89.6436 64.8249 92.1289 64.8249V63.8249C89.0914 63.8249 86.6289 66.2873 86.6289 69.3249H87.6289ZM87.6289 181.764L87.6289 69.3249H86.6289L86.6289 181.764H87.6289ZM92.1289 186.264C89.6436 186.264 87.6289 184.249 87.6289 181.764H86.6289C86.6289 184.802 89.0913 187.264 92.1289 187.264V186.264ZM170.513 186.264L92.1289 186.264V187.264L170.513 187.264V186.264ZM174.951 182.517C174.593 184.644 172.742 186.264 170.513 186.264V187.264C173.238 187.264 175.499 185.283 175.937 182.683L174.951 182.517ZM179.736 182.1H175.444V183.1H179.736V182.1ZM181.236 180.6C181.236 181.428 180.565 182.1 179.736 182.1V183.1C181.117 183.1 182.236 181.981 182.236 180.6H181.236ZM181.236 152.744V180.6H182.236V152.744H181.236ZM180.375 151.387C180.901 151.634 181.236 152.163 181.236 152.744H182.236C182.236 151.776 181.677 150.894 180.801 150.482L180.375 151.387ZM175.301 148.998L180.375 151.387L180.801 150.482L175.726 148.093L175.301 148.998ZM175.013 69.3249L175.013 148.546H176.013L176.013 69.3249H175.013ZM170.513 64.8249C172.999 64.8249 175.013 66.8396 175.013 69.3249H176.013C176.013 66.2873 173.551 63.8249 170.513 63.8249V64.8249ZM92.1289 64.8249L170.513 64.8249V63.8249L92.1289 63.8249V64.8249Z" fill="black"/>
<rect width="11.7363" height="11.7363" rx="2" transform="matrix(0.707016 0.707197 -0.707016 0.707197 21.4375 166.692)" stroke="black"/>
<rect width="11.7363" height="11.7363" rx="2" transform="matrix(0.707016 0.707197 -0.707016 0.707197 26.9688 166.692)" stroke="black"/>
<rect width="11.7363" height="11.7363" rx="2" transform="matrix(0.707016 0.707197 -0.707016 0.707197 15.9053 166.692)" stroke="black"/>
<path d="M87.1279 15.9083H89.4513M101.649 15.9083H94.679" stroke="black" stroke-linecap="round"/>
<path d="M87.1279 26.2834H89.4513M101.649 26.2834H94.679" stroke="black" stroke-linecap="round"/>
<path d="M87.1279 20.75H94.0981M101.649 20.75H99.6162" stroke="black" stroke-linecap="round"/>
<ellipse cx="90.9299" cy="15.5625" rx="1.72872" ry="1.72917" fill="#CFF1B2" stroke="black"/>
<ellipse cx="97.8459" cy="21.0958" rx="1.72872" ry="1.72917" fill="#CFF1B2" stroke="black"/>
<ellipse cx="90.9299" cy="25.9375" rx="1.72872" ry="1.72917" fill="#CFF1B2" stroke="black"/>
<path fill-rule="evenodd" clip-rule="evenodd" d="M244.788 89.9167H239.947V96.8719L242.311 94.5077L244.788 96.9851V89.9167Z" fill="#CFF1B2"/>
<path d="M239.947 89.9167V89.4167C239.671 89.4167 239.447 89.6406 239.447 89.9167H239.947ZM244.788 89.9167H245.288C245.288 89.6406 245.064 89.4167 244.788 89.4167V89.9167ZM239.947 96.8719H239.447C239.447 97.0741 239.569 97.2565 239.756 97.3339C239.943 97.4112 240.158 97.3684 240.301 97.2254L239.947 96.8719ZM242.311 94.5077L242.664 94.1542C242.571 94.0604 242.444 94.0077 242.311 94.0077C242.178 94.0077 242.051 94.0604 241.957 94.1542L242.311 94.5077ZM244.788 96.9851L244.434 97.3386C244.577 97.4817 244.792 97.5245 244.979 97.4471C245.166 97.3697 245.288 97.1874 245.288 96.9851H244.788ZM239.947 90.4167H244.788V89.4167H239.947V90.4167ZM240.447 96.8719V89.9167H239.447V96.8719H240.447ZM240.301 97.2254L242.664 94.8612L241.957 94.1542L239.594 96.5184L240.301 97.2254ZM241.957 94.8612L244.434 97.3386L245.141 96.6316L242.664 94.1542L241.957 94.8612ZM244.288 89.9167V96.9851H245.288V89.9167H244.288Z" fill="black"/>
<path d="M146.468 238.801C147.487 239.135 148.575 239.316 149.706 239.316C150.837 239.316 151.926 239.135 152.945 238.801M139.346 228.446C139.537 224.374 142.075 220.916 145.638 219.395M153.775 219.395C157.337 220.916 159.875 224.373 160.067 228.444" stroke="black" stroke-linecap="round"/>
<path d="M158.005 234.129C156.287 234.129 154.894 235.469 154.894 237.122V238.02H161.117V237.122C161.117 235.469 159.724 234.129 158.005 234.129Z" fill="#CFF1B2" stroke="black" stroke-linejoin="round"/>
<path d="M141.41 234.129C139.691 234.129 138.298 235.469 138.298 237.122V238.02H144.521V237.122C144.521 235.469 143.128 234.129 141.41 234.129Z" fill="#CFF1B2" stroke="black" stroke-linejoin="round"/>
<ellipse cx="149.707" cy="218.567" rx="2.07447" ry="2.075" fill="#CFF1B2" stroke="black"/>
<ellipse cx="158.006" cy="232.054" rx="2.07447" ry="2.075" fill="#CFF1B2" stroke="black"/>
<ellipse cx="141.409" cy="232.054" rx="2.07447" ry="2.075" fill="#CFF1B2" stroke="black"/>
<path d="M149.707 220.642C147.989 220.642 146.596 221.981 146.596 223.634V224.532H152.819V223.634C152.819 221.981 151.426 220.642 149.707 220.642Z" stroke="black" stroke-linejoin="round"/>
<line x1="176.83" y1="154.05" x2="176.83" y2="177.95" stroke="black" stroke-linecap="round"/>
<line x1="172.682" y1="157.508" x2="172.682" y2="174.492" stroke="black" stroke-linecap="round"/>
<path d="M131.5 139.5C123.78 139.5 117.5 133.239 117.5 125.5C117.5 117.78 123.761 111.5 131.5 111.5C139.22 111.5 145.5 117.761 145.5 125.5C145.48 133.221 139.218 139.5 131.5 139.5Z" fill="white" stroke="black"/>
<path d="M135.617 120.189C135.617 120.07 135.538 119.991 135.418 119.991C134.683 119.991 133.947 119.991 133.628 119.991C133.469 119.991 130.983 121.781 130.327 122.258C130.267 122.298 130.167 122.258 130.167 122.178C130.167 121.82 130.167 121.045 130.167 120.329C130.167 120.07 130.068 120.03 129.849 120.03C128.696 120.03 128.835 120.03 127.681 120.03C127.403 120.03 127.383 120.189 127.383 120.448C127.383 124.108 127.383 127.111 127.383 130.771C127.383 130.99 127.522 131.05 127.681 131.05C128.775 131.05 128.835 131.05 129.869 131.05C130.068 131.05 130.167 130.97 130.167 130.771C130.167 128.444 130.167 126.475 130.167 124.128C130.167 124.088 130.167 123.73 130.167 123.491C130.167 123.372 130.267 123.292 130.366 123.292C130.585 123.292 130.943 123.292 131.102 123.292C132.137 123.292 133.907 123.292 135.399 123.272C135.518 123.272 135.597 123.173 135.597 123.074V120.189H135.617Z" fill="black"/>
</svg>
