<svg width="64" height="78" viewBox="0 0 64 78" fill="none" xmlns="http://www.w3.org/2000/svg">
<path d="M1 10.7803C1 9.12342 2.34315 7.78027 4 7.78027H53.37C55.0269 7.78027 56.37 9.12342 56.37 10.7803V71.4503C56.37 73.1071 55.0269 74.4503 53.37 74.4503H4C2.34315 74.4503 1 73.1071 1 71.4503V10.7803Z" fill="#EAE5E1" stroke="black"/>
<path d="M7.78125 17.6904C7.78125 16.5859 8.67668 15.6904 9.78125 15.6904H47.5913C48.6958 15.6904 49.5913 16.5859 49.5913 17.6904V64.5404C49.5913 65.645 48.6958 66.5404 47.5913 66.5404H9.78125C8.67668 66.5404 7.78125 65.645 7.78125 64.5404V17.6904Z" fill="white" stroke="black"/>
<path d="M16.6562 36.666H40.7765" stroke="black" stroke-linecap="round" stroke-linejoin="round"/>
<path d="M31.3828 28.9355H40.7768" stroke="black" stroke-linecap="round" stroke-linejoin="round"/>
<path d="M31.3828 22.1611H40.7768" stroke="black" stroke-linecap="round" stroke-linejoin="round"/>
<path d="M25.8614 25.295C25.8614 28.1033 23.5848 30.38 20.7764 30.38C17.968 30.38 15.6914 28.1033 15.6914 25.295C15.6914 22.4866 17.968 20.21 20.7764 20.21" stroke="black" stroke-linecap="round" stroke-linejoin="round"/>
<path d="M19.082 24.5199L20.617 26.1466C21.0361 26.5908 21.7521 26.5588 22.1299 26.079L25.862 21.3398" stroke="black" stroke-linecap="round" stroke-linejoin="round"/>
<path d="M25.8614 45.6358C25.8614 48.4441 23.5848 50.7208 20.7764 50.7208C17.968 50.7208 15.6914 48.4441 15.6914 45.6358C15.6914 42.8274 17.968 40.5508 20.7764 40.5508" stroke="black" stroke-linecap="round" stroke-linejoin="round"/>
<path d="M19.082 44.8607L20.617 46.4874C21.0361 46.9316 21.7521 46.8996 22.1299 46.4198L25.862 41.6807" stroke="black" stroke-linecap="round" stroke-linejoin="round"/>
<path d="M16.6562 58.1943H33.9693" stroke="black" stroke-linecap="round" stroke-linejoin="round"/>
<path d="M31.3828 49.1914H40.7768" stroke="black" stroke-linecap="round" stroke-linejoin="round"/>
<path d="M31.3828 42.417H40.7768" stroke="black" stroke-linecap="round" stroke-linejoin="round"/>
<path d="M49.346 76.1977C50.4649 77.1453 52.1049 77.1453 53.2238 76.1977L58.9055 71.3854C61.5976 69.1054 63.1499 65.7563 63.1499 62.2285V54.8639C63.1499 53.2364 61.8523 51.9057 60.2253 51.8648L56.5593 51.7727C56.0511 51.7599 55.5668 51.5541 55.2049 51.1971L52.6895 48.7155C51.9107 47.9472 50.6591 47.9472 49.8803 48.7155L47.3649 51.1971C47.003 51.5541 46.5187 51.7599 46.0105 51.7727L42.3446 51.8648C40.7176 51.9057 39.4199 53.2364 39.4199 54.8639V62.2285C39.4199 65.7563 40.9723 69.1054 43.6643 71.3854L49.346 76.1977Z" fill="#CFF2B3" stroke="black" stroke-linecap="round" stroke-linejoin="round"/>
<path d="M57.4295 58.6299L51.9215 64.1378C51.531 64.5283 50.8978 64.5283 50.5073 64.1378L47.3301 60.9605" stroke="black" stroke-linecap="round" stroke-linejoin="round"/>
<path d="M14.5586 5.77364C14.5586 4.66907 15.454 3.77364 16.5586 3.77364H21.4025C21.913 3.77364 22.4042 3.57841 22.7754 3.22794L24.2683 1.81854C24.8252 1.29285 25.562 1 26.3278 1H29.2486H32.3232C32.996 1 33.6493 1.22618 34.1781 1.64219L36.3432 3.34551C36.6957 3.62285 37.1313 3.77364 37.5798 3.77364H41.9386C43.0432 3.77364 43.9386 4.66907 43.9386 5.77364V9.17C43.9386 10.2746 43.0432 11.17 41.9386 11.17H16.5586C15.454 11.17 14.5586 10.2746 14.5586 9.17V5.77364Z" fill="white" stroke="black" stroke-linecap="round"/>
</svg>
