<svg width="113" height="113" viewBox="0 0 113 113" fill="none" xmlns="http://www.w3.org/2000/svg">
<path d="M43.5 23C45.9853 23 48 20.9853 48 18.5C48 16.0147 45.9853 14 43.5 14C41.0147 14 39 16.0147 39 18.5C39 20.9853 41.0147 23 43.5 23Z" stroke="#231F20" stroke-linecap="round" stroke-linejoin="round"/>
<path d="M43.5 23C45.9853 23 48 20.9853 48 18.5C48 16.0147 45.9853 14 43.5 14C41.0147 14 39 16.0147 39 18.5C39 20.9853 41.0147 23 43.5 23Z" fill="#EAE5E1" stroke="#231F20" stroke-linecap="round" stroke-linejoin="round"/>
<path d="M43 23V31" stroke="#231F20" stroke-linecap="round" stroke-linejoin="round"/>
<path d="M43.5 99C45.9853 99 48 96.9853 48 94.5C48 92.0147 45.9853 90 43.5 90C41.0147 90 39 92.0147 39 94.5C39 96.9853 41.0147 99 43.5 99Z" fill="#EAE5E1" stroke="#231F20" stroke-linecap="round" stroke-linejoin="round"/>
<path d="M43 90V82" stroke="#231F20" stroke-linecap="round" stroke-linejoin="round"/>
<path d="M18 39V47" stroke="#231F20" stroke-linecap="round" stroke-linejoin="round"/>
<path d="M22.9828 34.1325C23.0057 34.377 23.0057 34.623 22.9828 34.8675C22.888 36.0252 22.3492 37.1014 21.4792 37.871C20.6092 38.6405 19.4755 39.0437 18.3151 38.9962C17.1547 38.9488 16.0577 38.4543 15.2534 37.6163C14.4492 36.7783 14 35.6616 14 34.5C14 33.3384 14.4492 32.2217 15.2534 31.3837C16.0577 30.5457 17.1547 30.0512 18.3151 30.0038C19.4755 29.9563 20.6092 30.3595 21.4792 31.129C22.3492 31.8986 22.888 32.9748 22.9828 34.1325Z" fill="#EAE5E1" stroke="#231F20" stroke-linecap="round" stroke-linejoin="round"/>
<path d="M18.5 83C20.9853 83 23 80.9853 23 78.5C23 76.0147 20.9853 74 18.5 74C16.0147 74 14 76.0147 14 78.5C14 80.9853 16.0147 83 18.5 83Z" fill="#EAE5E1" stroke="#231F20" stroke-linecap="round" stroke-linejoin="round"/>
<path d="M18 74V66" stroke="#231F20" stroke-linecap="round" stroke-linejoin="round"/>
<path d="M68.5 39C70.9853 39 73 36.9853 73 34.5C73 32.0147 70.9853 30 68.5 30C66.0147 30 64 32.0147 64 34.5C64 36.9853 66.0147 39 68.5 39Z" fill="#EAE5E1" stroke="#231F20" stroke-linecap="round" stroke-linejoin="round"/>
<path d="M68 39V47" stroke="#231F20" stroke-linecap="round" stroke-linejoin="round"/>
<path d="M68.5 83C70.9853 83 73 80.9853 73 78.5C73 76.0147 70.9853 74 68.5 74C66.0147 74 64 76.0147 64 78.5C64 80.9853 66.0147 83 68.5 83Z" fill="#EAE5E1" stroke="#231F20" stroke-linecap="round" stroke-linejoin="round"/>
<path d="M68 74V66" stroke="#231F20" stroke-linecap="round" stroke-linejoin="round"/>
<path d="M81.5 61C83.9853 61 86 58.9853 86 56.5C86 54.0147 83.9853 52 81.5 52C79.0147 52 77 54.0147 77 56.5C77 58.9853 79.0147 61 81.5 61Z" fill="#EAE5E1" stroke="#231F20" stroke-linecap="round" stroke-linejoin="round"/>
<path d="M77 56H69" stroke="#231F20" stroke-linecap="round" stroke-linejoin="round"/>
<path d="M5.5 61C7.98528 61 10 58.9853 10 56.5C10 54.0147 7.98528 52 5.5 52C3.01472 52 1 54.0147 1 56.5C1 58.9853 3.01472 61 5.5 61Z" fill="#EAE5E1" stroke="#231F20" stroke-linecap="round" stroke-linejoin="round"/>
<path d="M10 56H18" stroke="#231F20" stroke-linecap="round" stroke-linejoin="round"/>
<path d="M35 22C31.0681 23.1797 27.3422 25.212 24 28" stroke="#231F20" stroke-linecap="round" stroke-linejoin="round"/>
<path d="M11 41C10.1374 43.2342 9.46678 45.5812 9 48" stroke="#231F20" stroke-linecap="round" stroke-linejoin="round"/>
<path d="M24 85C27.343 87.7882 31.0688 89.8205 35 91" stroke="#231F20" stroke-linecap="round" stroke-linejoin="round"/>
<path d="M9 64C9.4109 66.4069 9.96716 68.7569 10.6625 71.0227L11 72" stroke="#231F20" stroke-linecap="round" stroke-linejoin="round"/>
<path d="M63 28C59.3527 25.2046 55.2877 23.1721 51 22" stroke="#231F20" stroke-linecap="round" stroke-linejoin="round"/>
<path d="M78 48C77.5384 45.5801 76.8676 43.2326 76 41" stroke="#231F20" stroke-linecap="round" stroke-linejoin="round"/>
<path d="M76 72C76.8623 69.4452 77.5329 66.7631 78 64" stroke="#231F20" stroke-linecap="round" stroke-linejoin="round"/>
<path d="M51 91C55.2824 89.8078 59.3445 87.7768 63 85" stroke="#231F20" stroke-linecap="round" stroke-linejoin="round"/>
<path d="M40.4844 74.2499C41.9763 75.5134 44.1629 75.5134 45.6548 74.2499L48.7381 71.6384C54.3465 66.8883 57.5806 59.911 57.5806 52.5613V49.6376C57.5806 46.9251 55.4178 44.7073 52.7062 44.6392L52.508 44.6342C49.967 44.5703 47.5456 43.5413 45.7362 41.7562L44.4742 40.5111C43.6954 39.7428 42.4438 39.7428 41.665 40.5111L40.403 41.7562C38.5935 43.5413 36.1722 44.5703 33.6312 44.6342L33.433 44.6392C30.7214 44.7073 28.5586 46.9251 28.5586 49.6376V52.5614C28.5586 59.911 31.7927 66.8883 37.401 71.6384L40.4844 74.2499Z" fill="#CFF2B3" stroke="black" stroke-linecap="round" stroke-linejoin="round"/>
<path d="M50.584 52.9453L43.6901 59.8392C43.2996 60.2298 42.6664 60.2298 42.2759 59.8392L38.2324 55.7957" stroke="black" stroke-linecap="round" stroke-linejoin="round"/>
</svg>
