<svg width="80" height="74" viewBox="0 0 80 74" fill="none" xmlns="http://www.w3.org/2000/svg">
<g clip-path="url(#clip0_2532_73850)">
<path d="M8.24216 1H71.6578C71.8655 1 72.0712 1.04092 72.2632 1.12042C72.4551 1.19992 72.6295 1.31645 72.7764 1.46336C72.9233 1.61026 73.0398 1.78466 73.1193 1.97659C73.1988 2.16853 73.2398 2.37425 73.2398 2.582V47.0249H6.66016V2.582C6.66016 2.37425 6.70107 2.16853 6.78058 1.97659C6.86008 1.78466 6.97661 1.61026 7.12351 1.46336C7.27041 1.31645 7.44481 1.19992 7.63675 1.12042C7.82869 1.04092 8.0344 1 8.24216 1Z" stroke="black" stroke-linecap="round" stroke-linejoin="round"/>
<path d="M23.5654 41.3751L23.0004 30.3089L34.3004 29.5101L33.7354 26.6851L32.0404 23.2951C29.0477 20.1597 22.4354 16.5151 15.6554 21.6001C13.3663 23.3169 12.875 25.5965 12.2654 27.2501C10.776 31.2904 12.4882 34.4015 13.9604 36.8551C15.6554 39.6801 20.5727 41.1906 23.5654 41.3751Z" fill="#CFF2B3"/>
<path d="M1.53125 61.1498L6.61625 47.5898H72.7213L78.9362 62.2798H20.7412L1.53125 61.1498Z" fill="#EAE5E1"/>
<path d="M1 62.2461H78.9022V66.0881C78.9022 66.7175 78.6522 67.321 78.2072 67.7661C77.7621 68.2111 77.1586 68.4611 76.5292 68.4611H3.373C2.74364 68.4611 2.14006 68.2111 1.69503 67.7661C1.25001 67.321 1 66.7175 1 66.0881V62.2461Z" stroke="black" stroke-linecap="round" stroke-linejoin="round"/>
<path d="M78.9022 62.2465H1L6.6613 47.0254H73.2409L78.9022 62.2465Z" stroke="black" stroke-linecap="round" stroke-linejoin="round"/>
<path d="M10.2305 72.71H29.3275" stroke="black" stroke-linecap="round" stroke-linejoin="round"/>
<path d="M40.7656 72.5625H43.7262" stroke="black" stroke-linecap="round" stroke-linejoin="round"/>
<path d="M34.3008 72.5625H36.1314" stroke="black" stroke-linecap="round" stroke-linejoin="round"/>
<path d="M47.9531 72.71H67.0388" stroke="black" stroke-linecap="round" stroke-linejoin="round"/>
<path d="M23.0347 41.4199C29.2131 41.4199 34.2217 36.4113 34.2217 30.2329C34.2217 24.0545 29.2131 19.0459 23.0347 19.0459C16.8562 19.0459 11.8477 24.0545 11.8477 30.2329C11.8477 36.4113 16.8562 41.4199 23.0347 41.4199Z" stroke="black" stroke-linecap="round" stroke-linejoin="round"/>
<path d="M14.7734 22.6846L23.0337 30.233" stroke="black" stroke-linecap="round" stroke-linejoin="round"/>
<path d="M23.0352 30.2334L23.5324 41.3639" stroke="black" stroke-linecap="round" stroke-linejoin="round"/>
<path d="M23.0352 30.233L33.5894 29.7471" stroke="black" stroke-linecap="round" stroke-linejoin="round"/>
<path d="M16.4219 9.55465L29.3265 13.3062L42.0277 7.65625L52.4689 19.0467L63.17 9.11395" stroke="black" stroke-linecap="round" stroke-linejoin="round"/>
<path d="M16.4234 11.9385C17.7402 11.9385 18.8077 10.871 18.8077 9.55422C18.8077 8.23741 17.7402 7.16992 16.4234 7.16992C15.1066 7.16992 14.0391 8.23741 14.0391 9.55422C14.0391 10.871 15.1066 11.9385 16.4234 11.9385Z" fill="#EAE5E1" stroke="black" stroke-linecap="round" stroke-linejoin="round"/>
<path d="M29.3296 15.6905C30.6464 15.6905 31.7139 14.623 31.7139 13.3062C31.7139 11.9894 30.6464 10.9219 29.3296 10.9219C28.0128 10.9219 26.9453 11.9894 26.9453 13.3062C26.9453 14.623 28.0128 15.6905 29.3296 15.6905Z" fill="#EAE5E1" stroke="black" stroke-linecap="round" stroke-linejoin="round"/>
<path d="M42.0288 10.0401C43.3456 10.0401 44.4131 8.9726 44.4131 7.65579C44.4131 6.33897 43.3456 5.27148 42.0288 5.27148C40.712 5.27148 39.6445 6.33897 39.6445 7.65579C39.6445 8.9726 40.712 10.0401 42.0288 10.0401Z" fill="#EAE5E1" stroke="black" stroke-linecap="round" stroke-linejoin="round"/>
<path d="M52.4702 21.4307C53.7871 21.4307 54.8545 20.3632 54.8545 19.0464C54.8545 17.7296 53.7871 16.6621 52.4702 16.6621C51.1534 16.6621 50.0859 17.7296 50.0859 19.0464C50.0859 20.3632 51.1534 21.4307 52.4702 21.4307Z" fill="#EAE5E1" stroke="black" stroke-linecap="round" stroke-linejoin="round"/>
<path d="M63.1734 11.4971C64.4902 11.4971 65.5577 10.4296 65.5577 9.11282C65.5577 7.796 64.4902 6.72852 63.1734 6.72852C61.8566 6.72852 60.7891 7.796 60.7891 9.11282C60.7891 10.4296 61.8566 11.4971 63.1734 11.4971Z" fill="#EAE5E1" stroke="black" stroke-linecap="round" stroke-linejoin="round"/>
<path d="M38.2578 41.4082H67.9316" stroke="black" stroke-linecap="round" stroke-linejoin="round"/>
<path d="M46.4157 34.8887H42.0312V41.4088H46.4157V34.8887Z" fill="#CFF2B3" stroke="black" stroke-linecap="round" stroke-linejoin="round"/>
<path d="M55.2828 31.0586H50.8984V41.4094H55.2828V31.0586Z" fill="#CFF2B3" stroke="black" stroke-linecap="round" stroke-linejoin="round"/>
<path d="M64.1539 27.4873H59.7695V41.4089H64.1539V27.4873Z" fill="#CFF2B3" stroke="black" stroke-linecap="round" stroke-linejoin="round"/>
<path d="M9.44141 51.5449H68.2014" stroke="black" stroke-linecap="round" stroke-linejoin="round"/>
<path d="M9.44141 56.0645H68.2014" stroke="black" stroke-linecap="round" stroke-linejoin="round"/>
</g>
<defs>
<clipPath id="clip0_2532_73850">
<rect width="80" height="74" fill="white"/>
</clipPath>
</defs>
</svg>
