<svg width="87" height="87" viewBox="0 0 87 87" fill="none" xmlns="http://www.w3.org/2000/svg">
<path d="M43.5 10C45.9853 10 48 7.98528 48 5.5C48 3.01472 45.9853 1 43.5 1C41.0147 1 39 3.01472 39 5.5C39 7.98528 41.0147 10 43.5 10Z" stroke="#231F20" stroke-linecap="round" stroke-linejoin="round"/>
<path d="M43.5 10C45.9853 10 48 7.98528 48 5.5C48 3.01472 45.9853 1 43.5 1C41.0147 1 39 3.01472 39 5.5C39 7.98528 41.0147 10 43.5 10Z" fill="#EAE5E1" stroke="#231F20" stroke-linecap="round" stroke-linejoin="round"/>
<path d="M43 10V18" stroke="#231F20" stroke-linecap="round" stroke-linejoin="round"/>
<path d="M43.5 86C45.9853 86 48 83.9853 48 81.5C48 79.0147 45.9853 77 43.5 77C41.0147 77 39 79.0147 39 81.5C39 83.9853 41.0147 86 43.5 86Z" fill="#EAE5E1" stroke="#231F20" stroke-linecap="round" stroke-linejoin="round"/>
<path d="M43 77V69" stroke="#231F20" stroke-linecap="round" stroke-linejoin="round"/>
<path d="M18 26V34" stroke="#231F20" stroke-linecap="round" stroke-linejoin="round"/>
<path d="M22.9828 21.1325C23.0057 21.377 23.0057 21.623 22.9828 21.8675C22.888 23.0252 22.3492 24.1014 21.4792 24.871C20.6092 25.6405 19.4755 26.0437 18.3151 25.9962C17.1547 25.9488 16.0577 25.4543 15.2534 24.6163C14.4492 23.7783 14 22.6616 14 21.5C14 20.3384 14.4492 19.2217 15.2534 18.3837C16.0577 17.5457 17.1547 17.0512 18.3151 17.0038C19.4755 16.9563 20.6092 17.3595 21.4792 18.129C22.3492 18.8986 22.888 19.9748 22.9828 21.1325V21.1325Z" fill="#EAE5E1" stroke="#231F20" stroke-linecap="round" stroke-linejoin="round"/>
<path d="M18.5 70C20.9853 70 23 67.9853 23 65.5C23 63.0147 20.9853 61 18.5 61C16.0147 61 14 63.0147 14 65.5C14 67.9853 16.0147 70 18.5 70Z" fill="#EAE5E1" stroke="#231F20" stroke-linecap="round" stroke-linejoin="round"/>
<path d="M18 61V53" stroke="#231F20" stroke-linecap="round" stroke-linejoin="round"/>
<path d="M68.5 26C70.9853 26 73 23.9853 73 21.5C73 19.0147 70.9853 17 68.5 17C66.0147 17 64 19.0147 64 21.5C64 23.9853 66.0147 26 68.5 26Z" fill="#EAE5E1" stroke="#231F20" stroke-linecap="round" stroke-linejoin="round"/>
<path d="M68 26V34" stroke="#231F20" stroke-linecap="round" stroke-linejoin="round"/>
<path d="M68.5 70C70.9853 70 73 67.9853 73 65.5C73 63.0147 70.9853 61 68.5 61C66.0147 61 64 63.0147 64 65.5C64 67.9853 66.0147 70 68.5 70Z" fill="#EAE5E1" stroke="#231F20" stroke-linecap="round" stroke-linejoin="round"/>
<path d="M68 61V53" stroke="#231F20" stroke-linecap="round" stroke-linejoin="round"/>
<path d="M81.5 48C83.9853 48 86 45.9853 86 43.5C86 41.0147 83.9853 39 81.5 39C79.0147 39 77 41.0147 77 43.5C77 45.9853 79.0147 48 81.5 48Z" fill="#EAE5E1" stroke="#231F20" stroke-linecap="round" stroke-linejoin="round"/>
<path d="M77 43H69" stroke="#231F20" stroke-linecap="round" stroke-linejoin="round"/>
<path d="M5.5 48C7.98528 48 10 45.9853 10 43.5C10 41.0147 7.98528 39 5.5 39C3.01472 39 1 41.0147 1 43.5C1 45.9853 3.01472 48 5.5 48Z" fill="#EAE5E1" stroke="#231F20" stroke-linecap="round" stroke-linejoin="round"/>
<path d="M10 43H18" stroke="#231F20" stroke-linecap="round" stroke-linejoin="round"/>
<path d="M35 9C31.0681 10.1797 27.3422 12.212 24 15" stroke="#231F20" stroke-linecap="round" stroke-linejoin="round"/>
<path d="M11 28C10.1374 30.2342 9.46678 32.5812 9 35" stroke="#231F20" stroke-linecap="round" stroke-linejoin="round"/>
<path d="M24 72C27.343 74.7882 31.0688 76.8205 35 78" stroke="#231F20" stroke-linecap="round" stroke-linejoin="round"/>
<path d="M9 51C9.4109 53.4069 9.96716 55.7569 10.6625 58.0227L11 59" stroke="#231F20" stroke-linecap="round" stroke-linejoin="round"/>
<path d="M63 15C59.3527 12.2046 55.2877 10.1721 51 9" stroke="#231F20" stroke-linecap="round" stroke-linejoin="round"/>
<path d="M78 35C77.5384 32.5801 76.8676 30.2326 76 28" stroke="#231F20" stroke-linecap="round" stroke-linejoin="round"/>
<path d="M76 59C76.8623 56.4452 77.5329 53.7631 78 51" stroke="#231F20" stroke-linecap="round" stroke-linejoin="round"/>
<path d="M51 78C55.2824 76.8078 59.3445 74.7768 63 72" stroke="#231F20" stroke-linecap="round" stroke-linejoin="round"/>
<path d="M40.4844 61.2499C41.9763 62.5134 44.1629 62.5134 45.6548 61.2499L48.7381 58.6384C54.3465 53.8883 57.5806 46.911 57.5806 39.5614V36.6376C57.5806 33.9251 55.4178 31.7073 52.7062 31.6392L52.508 31.6342C49.967 31.5703 47.5456 30.5413 45.7362 28.7562L44.4742 27.5111C43.6954 26.7428 42.4438 26.7428 41.665 27.5111L40.403 28.7562C38.5935 30.5413 36.1722 31.5703 33.6312 31.6342L33.433 31.6392C30.7214 31.7073 28.5586 33.9251 28.5586 36.6376V39.5614C28.5586 46.911 31.7927 53.8883 37.401 58.6384L40.4844 61.2499Z" fill="#CFF2B3" stroke="black" stroke-linecap="round" stroke-linejoin="round"/>
<path d="M50.584 39.9453L43.6901 46.8392C43.2996 47.2298 42.6664 47.2298 42.2759 46.8392L38.2324 42.7957" stroke="black" stroke-linecap="round" stroke-linejoin="round"/>
</svg>
