<svg width="113" height="113" viewBox="0 0 113 113" fill="none" xmlns="http://www.w3.org/2000/svg">
<path d="M1 27.7803C1 26.1234 2.34315 24.7803 4 24.7803H53.37C55.0269 24.7803 56.37 26.1234 56.37 27.7803V88.4503C56.37 90.1071 55.0269 91.4503 53.37 91.4503H4C2.34315 91.4503 1 90.1071 1 88.4503V27.7803Z" fill="#EAE5E1" stroke="black"/>
<path d="M7.78125 34.6904C7.78125 33.5859 8.67668 32.6904 9.78125 32.6904H47.5913C48.6958 32.6904 49.5913 33.5859 49.5913 34.6904V81.5404C49.5913 82.645 48.6958 83.5404 47.5913 83.5404H9.78125C8.67668 83.5404 7.78125 82.645 7.78125 81.5404V34.6904Z" fill="white" stroke="black"/>
<path d="M16.6562 53.666H40.7765" stroke="black" stroke-linecap="round" stroke-linejoin="round"/>
<path d="M31.3828 45.9355H40.7768" stroke="black" stroke-linecap="round" stroke-linejoin="round"/>
<path d="M31.3828 39.1611H40.7768" stroke="black" stroke-linecap="round" stroke-linejoin="round"/>
<path d="M25.8614 42.295C25.8614 45.1033 23.5848 47.38 20.7764 47.38C17.968 47.38 15.6914 45.1033 15.6914 42.295C15.6914 39.4866 17.968 37.21 20.7764 37.21" stroke="black" stroke-linecap="round" stroke-linejoin="round"/>
<path d="M19.082 41.5199L20.617 43.1466C21.0361 43.5908 21.7521 43.5588 22.1299 43.079L25.862 38.3398" stroke="black" stroke-linecap="round" stroke-linejoin="round"/>
<path d="M25.8614 62.6358C25.8614 65.4441 23.5848 67.7208 20.7764 67.7208C17.968 67.7208 15.6914 65.4441 15.6914 62.6358C15.6914 59.8274 17.968 57.5508 20.7764 57.5508" stroke="black" stroke-linecap="round" stroke-linejoin="round"/>
<path d="M19.082 61.8607L20.617 63.4874C21.0361 63.9316 21.7521 63.8996 22.1299 63.4198L25.862 58.6807" stroke="black" stroke-linecap="round" stroke-linejoin="round"/>
<path d="M16.6562 75.1943H33.9693" stroke="black" stroke-linecap="round" stroke-linejoin="round"/>
<path d="M31.3828 66.1914H40.7768" stroke="black" stroke-linecap="round" stroke-linejoin="round"/>
<path d="M31.3828 59.417H40.7768" stroke="black" stroke-linecap="round" stroke-linejoin="round"/>
<path d="M49.346 93.1977C50.4649 94.1453 52.1049 94.1453 53.2238 93.1977L58.9055 88.3854C61.5976 86.1054 63.1499 82.7563 63.1499 79.2285V71.8639C63.1499 70.2364 61.8523 68.9057 60.2253 68.8648L56.5593 68.7727C56.0511 68.7599 55.5668 68.5541 55.2049 68.1971L52.6895 65.7155C51.9107 64.9472 50.6591 64.9472 49.8803 65.7155L47.3649 68.1971C47.003 68.5541 46.5187 68.7599 46.0105 68.7727L42.3446 68.8648C40.7176 68.9057 39.4199 70.2364 39.4199 71.8639V79.2285C39.4199 82.7563 40.9723 86.1054 43.6643 88.3854L49.346 93.1977Z" fill="#CFF2B3" stroke="black" stroke-linecap="round" stroke-linejoin="round"/>
<path d="M57.4295 75.6299L51.9215 81.1378C51.531 81.5283 50.8978 81.5283 50.5073 81.1378L47.3301 77.9605" stroke="black" stroke-linecap="round" stroke-linejoin="round"/>
<path d="M14.5586 22.7736C14.5586 21.6691 15.454 20.7736 16.5586 20.7736H21.4025C21.913 20.7736 22.4042 20.5784 22.7754 20.2279L24.2683 18.8185C24.8252 18.2928 25.562 18 26.3278 18H29.2486H32.3232C32.996 18 33.6493 18.2262 34.1781 18.6422L36.3432 20.3455C36.6957 20.6229 37.1313 20.7736 37.5798 20.7736H41.9386C43.0432 20.7736 43.9386 21.6691 43.9386 22.7736V26.17C43.9386 27.2746 43.0432 28.17 41.9386 28.17H16.5586C15.454 28.17 14.5586 27.2746 14.5586 26.17V22.7736Z" fill="white" stroke="black" stroke-linecap="round"/>
</svg>
