<svg width="113" height="113" viewBox="0 0 113 113" fill="none" xmlns="http://www.w3.org/2000/svg">
<path d="M9.24216 20H72.6578C72.8655 20 73.0712 20.0409 73.2632 20.1204C73.4551 20.1999 73.6295 20.3165 73.7764 20.4634C73.9233 20.6103 74.0398 20.7847 74.1193 20.9766C74.1988 21.1685 74.2398 21.3742 74.2398 21.582V66.0249H7.66016V21.582C7.66016 21.3742 7.70107 21.1685 7.78058 20.9766C7.86008 20.7847 7.97661 20.6103 8.12351 20.4634C8.27041 20.3165 8.44481 20.1999 8.63675 20.1204C8.82869 20.0409 9.0344 20 9.24216 20Z" stroke="black" stroke-linecap="round" stroke-linejoin="round"/>
<path d="M24.5654 60.3751L24.0004 49.3089L35.3004 48.5101L34.7354 45.6851L33.0404 42.2951C30.0477 39.1597 23.4354 35.5151 16.6554 40.6001C14.3663 42.3169 13.875 44.5965 13.2654 46.2501C11.776 50.2904 13.4882 53.4015 14.9604 55.8551C16.6554 58.6801 21.5727 60.1906 24.5654 60.3751Z" fill="#CFF2B3"/>
<path d="M2.53125 80.1498L7.61625 66.5898H73.7213L79.9362 81.2798H21.7412L2.53125 80.1498Z" fill="#EAE5E1"/>
<path d="M2 81.2461H79.9022V85.0881C79.9022 85.7175 79.6522 86.321 79.2072 86.7661C78.7621 87.2111 78.1586 87.4611 77.5292 87.4611H4.373C3.74364 87.4611 3.14006 87.2111 2.69503 86.7661C2.25001 86.321 2 85.7175 2 85.0881V81.2461Z" stroke="black" stroke-linecap="round" stroke-linejoin="round"/>
<path d="M79.9022 81.2465H2L7.6613 66.0254H74.2409L79.9022 81.2465Z" stroke="black" stroke-linecap="round" stroke-linejoin="round"/>
<path d="M11.2305 91.71H30.3275" stroke="black" stroke-linecap="round" stroke-linejoin="round"/>
<path d="M41.7637 91.5625H44.7243" stroke="black" stroke-linecap="round" stroke-linejoin="round"/>
<path d="M35.3008 91.5625H37.1314" stroke="black" stroke-linecap="round" stroke-linejoin="round"/>
<path d="M48.9512 91.71H68.0369" stroke="black" stroke-linecap="round" stroke-linejoin="round"/>
<path d="M24.0347 60.4199C30.2131 60.4199 35.2217 55.4113 35.2217 49.2329C35.2217 43.0545 30.2131 38.0459 24.0347 38.0459C17.8562 38.0459 12.8477 43.0545 12.8477 49.2329C12.8477 55.4113 17.8562 60.4199 24.0347 60.4199Z" stroke="black" stroke-linecap="round" stroke-linejoin="round"/>
<path d="M15.7734 41.6846L24.0337 49.233" stroke="black" stroke-linecap="round" stroke-linejoin="round"/>
<path d="M24.0352 49.2334L24.5324 60.3639" stroke="black" stroke-linecap="round" stroke-linejoin="round"/>
<path d="M24.0352 49.233L34.5894 48.7471" stroke="black" stroke-linecap="round" stroke-linejoin="round"/>
<path d="M17.4238 28.5547L30.3284 32.3062L43.0296 26.6562L53.4708 38.0467L64.1719 28.114" stroke="black" stroke-linecap="round" stroke-linejoin="round"/>
<path d="M17.4234 30.9385C18.7402 30.9385 19.8077 29.871 19.8077 28.5542C19.8077 27.2374 18.7402 26.1699 17.4234 26.1699C16.1066 26.1699 15.0391 27.2374 15.0391 28.5542C15.0391 29.871 16.1066 30.9385 17.4234 30.9385Z" fill="#EAE5E1" stroke="black" stroke-linecap="round" stroke-linejoin="round"/>
<path d="M30.3296 34.6905C31.6464 34.6905 32.7139 33.623 32.7139 32.3062C32.7139 30.9894 31.6464 29.9219 30.3296 29.9219C29.0128 29.9219 27.9453 30.9894 27.9453 32.3062C27.9453 33.623 29.0128 34.6905 30.3296 34.6905Z" fill="#EAE5E1" stroke="black" stroke-linecap="round" stroke-linejoin="round"/>
<path d="M43.0288 29.0401C44.3456 29.0401 45.4131 27.9726 45.4131 26.6558C45.4131 25.339 44.3456 24.2715 43.0288 24.2715C41.712 24.2715 40.6445 25.339 40.6445 26.6558C40.6445 27.9726 41.712 29.0401 43.0288 29.0401Z" fill="#EAE5E1" stroke="black" stroke-linecap="round" stroke-linejoin="round"/>
<path d="M53.4702 40.4307C54.7871 40.4307 55.8545 39.3632 55.8545 38.0464C55.8545 36.7296 54.7871 35.6621 53.4702 35.6621C52.1534 35.6621 51.0859 36.7296 51.0859 38.0464C51.0859 39.3632 52.1534 40.4307 53.4702 40.4307Z" fill="#EAE5E1" stroke="black" stroke-linecap="round" stroke-linejoin="round"/>
<path d="M64.1734 30.4971C65.4902 30.4971 66.5577 29.4296 66.5577 28.1128C66.5577 26.796 65.4902 25.7285 64.1734 25.7285C62.8566 25.7285 61.7891 26.796 61.7891 28.1128C61.7891 29.4296 62.8566 30.4971 64.1734 30.4971Z" fill="#EAE5E1" stroke="black" stroke-linecap="round" stroke-linejoin="round"/>
<path d="M39.2559 60.4082H68.9297" stroke="black" stroke-linecap="round" stroke-linejoin="round"/>
<path d="M47.4157 53.8887H43.0312V60.4088H47.4157V53.8887Z" fill="#CFF2B3" stroke="black" stroke-linecap="round" stroke-linejoin="round"/>
<path d="M56.2848 50.0586H51.9004V60.4094H56.2848V50.0586Z" fill="#CFF2B3" stroke="black" stroke-linecap="round" stroke-linejoin="round"/>
<path d="M65.1539 46.4873H60.7695V60.4089H65.1539V46.4873Z" fill="#CFF2B3" stroke="black" stroke-linecap="round" stroke-linejoin="round"/>
<path d="M10.4414 70.5449H69.2014" stroke="black" stroke-linecap="round" stroke-linejoin="round"/>
<path d="M10.4414 75.0645H69.2014" stroke="black" stroke-linecap="round" stroke-linejoin="round"/>
</svg>
