<svg width="19" height="15" viewBox="0 0 19 15" fill="none" xmlns="http://www.w3.org/2000/svg">
<path d="M8.35599 0.348462C9.01786 -0.124301 9.93723 0.348824 9.93723 1.1622V13.8379C9.93723 14.6512 9.01786 15.1244 8.35599 14.6516L4.14051 11.6405H2C0.895431 11.6405 0 10.7451 0 9.64054V5.35952C0 4.25495 0.89543 3.35952 2 3.35952H4.14051L8.35599 0.348462Z" fill="black"/>
<path d="M12.4192 11.5612C13.4468 10.5152 14.0806 9.08119 14.0806 7.49911C14.0806 5.91037 13.4414 4.47091 12.4062 3.42383" stroke="black" stroke-width="1.5" stroke-linecap="round" stroke-linejoin="round"/>
<path d="M14.7227 1.05859C16.3711 2.70702 17.3907 4.9843 17.3907 7.49972C17.3907 10.0151 16.3711 12.2924 14.7227 13.9408" stroke="black" stroke-width="1.5" stroke-linecap="round" stroke-linejoin="round"/>
</svg>
