<svg width="30" height="31" viewBox="0 0 30 31" fill="none" xmlns="http://www.w3.org/2000/svg">
<g clip-path="url(#clip0_2532_64576)">
<path d="M15 0.976562C6.85398 0.976562 0.25 7.57987 0.25 15.7266C0.25 23.8733 6.85398 30.4766 15 30.4766C23.146 30.4766 29.75 23.8733 29.75 15.7266C29.75 7.57987 23.146 0.976562 15 0.976562ZM22.1962 22.2396C21.9593 22.6591 21.5235 22.8951 21.0743 22.8951C20.8643 22.8951 20.6475 22.8425 20.4486 22.7319C18.607 21.6994 16.6002 21.067 14.4793 20.8522C12.3539 20.6392 10.2554 20.8549 8.23958 21.4985C7.56689 21.7133 6.84281 21.3416 6.62827 20.6678C6.41149 19.9929 6.7847 19.2713 7.45962 19.0554C9.81068 18.3042 12.2623 18.0488 14.7385 18.3004C17.2103 18.5521 19.5524 19.2896 21.7023 20.4946C22.3214 20.8392 22.5426 21.621 22.1962 22.2396ZM23.9617 17.7594C23.7338 18.1981 23.2868 18.4497 22.8242 18.4497C22.6231 18.4497 22.4219 18.4037 22.232 18.3042C19.9681 17.1251 17.5231 16.395 14.9598 16.1349C12.3763 15.8705 9.81739 16.1009 7.35012 16.8125C6.66849 17.006 5.95781 16.6163 5.76338 15.9349C5.56671 15.2546 5.96003 14.5439 6.63942 14.3474C9.42405 13.5445 12.3115 13.2872 15.219 13.5822C18.1064 13.8763 20.8643 14.6988 23.4187 16.0298C24.0444 16.3572 24.2903 17.1314 23.9617 17.7594ZM24.6009 14.0321C24.4087 14.0321 24.2143 13.9887 24.0288 13.8976C21.3425 12.558 18.4528 11.7237 15.438 11.4178C12.4187 11.1089 9.41511 11.3476 6.50758 12.124C5.82371 12.3055 5.12197 11.8998 4.93871 11.2148C4.75545 10.5308 5.16221 9.82746 5.84831 9.64487C9.05531 8.78848 12.3718 8.52767 15.6995 8.86602C19.0227 9.20237 22.2096 10.1234 25.173 11.6013C25.8077 11.9173 26.0647 12.6881 25.7496 13.3214C25.5261 13.7722 25.0725 14.0321 24.6009 14.0321Z" fill="#283220"/>
</g>
<defs>
<clipPath id="clip0_2532_64576">
<rect width="29.5" height="29.5" fill="white" transform="translate(0.25 0.976562)"/>
</clipPath>
</defs>
</svg>
