<svg width="25" height="24" viewBox="0 0 25 24" fill="none" xmlns="http://www.w3.org/2000/svg">
<path d="M12.5 0V-1M12.5 25V24M24.5 12H25.5M-0.5 12H0.5M21.6 2.9001L22.9 1.6001M3.40001 2.9001L2.10001 1.6001M3.40001 21.0999L2.10001 22.3999M21.6 21.0999L22.9 22.3999M9.05493 8.31655L3.8661 9.38399C3.48291 9.46282 3.33461 9.93133 3.60263 10.2163L7.11189 13.9474C7.21174 14.0535 7.2603 14.198 7.24486 14.3429L6.71175 19.345C6.67145 19.7231 7.05125 20.006 7.40201 19.8592L12.3069 17.8058C12.4304 17.7541 12.5696 17.7541 12.6931 17.8058L17.598 19.8592C17.9488 20.006 18.3286 19.7231 18.2883 19.345L17.7551 14.3429C17.7397 14.198 17.7883 14.0535 17.8881 13.9474L21.3974 10.2163C21.6654 9.93133 21.5171 9.46282 21.1339 9.38399L15.9451 8.31655C15.8097 8.28869 15.6918 8.20601 15.6196 8.08815L12.9263 3.69526C12.7312 3.37705 12.2688 3.37705 12.0737 3.69526L9.38044 8.08815C9.30818 8.20601 9.19035 8.28869 9.05493 8.31655Z" stroke="black" stroke-width="1.5" stroke-linecap="round" stroke-linejoin="round"/>
</svg>
