<svg width="26" height="26" viewBox="0 0 26 26" fill="none" xmlns="http://www.w3.org/2000/svg">
<path d="M9.73304 8.67249C9.44015 8.37959 8.96527 8.37959 8.67238 8.67249C8.37949 8.96538 8.37949 9.44025 8.67238 9.73315L9.73304 8.67249ZM16.0676 17.1284C16.3605 17.4213 16.8354 17.4213 17.1283 17.1284C17.4212 16.8355 17.4212 16.3607 17.1283 16.0678L16.0676 17.1284ZM13.0945 6.65559C12.8016 6.3627 12.3268 6.3627 12.0339 6.65559C11.741 6.94849 11.741 7.42336 12.0339 7.71625L13.0945 6.65559ZM18.0845 13.7669L18.6149 14.2973L19.6755 13.2366L19.1452 12.7063L18.0845 13.7669ZM8.38844 12.7063L7.85811 12.1759L6.79745 13.2366L7.32778 13.7669L8.38844 12.7063ZM12.7062 19.1453L13.2365 19.6756L14.2972 18.615L13.7668 18.0846L12.7062 19.1453ZM16.5372 4.28709C19.92 7.66987 19.92 13.1545 16.5372 16.5372L17.5979 17.5979C21.5665 13.6293 21.5665 7.195 17.5979 3.22643L16.5372 4.28709ZM16.5372 16.5372C13.1545 19.92 7.66987 19.92 4.28709 16.5372L3.22643 17.5979C7.195 21.5665 13.6293 21.5665 17.5979 17.5979L16.5372 16.5372ZM4.28709 16.5372C0.904304 13.1545 0.904304 7.66987 4.28709 4.28709L3.22643 3.22643C-0.742143 7.195 -0.742143 13.6293 3.22643 17.5979L4.28709 16.5372ZM4.28709 4.28709C7.66987 0.904304 13.1545 0.904304 16.5372 4.28709L17.5979 3.22643C13.6293 -0.742143 7.195 -0.742143 3.22643 3.22643L4.28709 4.28709ZM21.9156 9.66547C25.2984 13.0483 25.2984 18.5328 21.9156 21.9156L22.9763 22.9763C26.9448 19.0077 26.9448 12.5734 22.9763 8.60481L21.9156 9.66547ZM21.9156 21.9156C18.5328 25.2984 13.0483 25.2984 9.66547 21.9156L8.60481 22.9763C12.5734 26.9448 19.0077 26.9448 22.9763 22.9763L21.9156 21.9156ZM9.66547 21.9156C6.28268 18.5328 6.28268 13.0483 9.66547 9.66547L8.60481 8.60481C4.63624 12.5734 4.63624 19.0077 8.60481 22.9763L9.66547 21.9156ZM9.66547 9.66547C13.0483 6.28268 18.5328 6.28268 21.9156 9.66547L22.9763 8.60481C19.0077 4.63624 12.5734 4.63624 8.60481 8.60481L9.66547 9.66547ZM8.67238 9.73315L16.0676 17.1284L17.1283 16.0678L9.73304 8.67249L8.67238 9.73315ZM12.0339 7.71625L18.0845 13.7669L19.1452 12.7063L13.0945 6.65559L12.0339 7.71625ZM7.32778 13.7669L12.7062 19.1453L13.7668 18.0846L8.38844 12.7063L7.32778 13.7669Z" fill="black"/>
</svg>
