<svg width="25" height="30" viewBox="0 0 25 30" fill="none" xmlns="http://www.w3.org/2000/svg">
<path d="M11.5363 28.192C12.0938 28.6594 12.9062 28.6594 13.4637 28.192L20.2823 22.4753C22.3219 20.7652 23.5 18.2401 23.5 15.5785V7.18019C23.5 6.09499 22.6346 5.20779 21.5497 5.18081L19.7984 5.13725C17.7789 5.08702 15.8532 4.27464 14.4079 2.86323L13.548 2.02346C12.9652 1.45434 12.0348 1.45434 11.452 2.02346L10.5921 2.86323C9.1468 4.27464 7.22107 5.08702 5.20157 5.13725L3.45027 5.18081C2.36541 5.20779 1.5 6.09499 1.5 7.18019V15.5785C1.5 18.2401 2.6781 20.7652 4.71771 22.4753L11.5363 28.192Z" stroke="black" stroke-width="1.5" stroke-linecap="round" stroke-linejoin="round"/>
<path fill-rule="evenodd" clip-rule="evenodd" d="M3.96891 13.0442C3.99897 11.0109 5.14908 9.00138 6.93364 8.16981C7.84288 7.74611 8.89763 7.64105 9.99469 7.98929C10.8811 8.27064 11.7624 8.83675 12.6093 9.7131C13.4561 8.83675 14.3375 8.27064 15.2238 7.98929C16.3209 7.64105 17.3757 7.74611 18.2849 8.16981C20.0695 9.00138 21.2196 11.0109 21.2496 13.0442L21.2498 13.0553H21.2497C21.2497 16.0106 19.4939 18.6165 17.6523 20.4346C16.721 21.3539 15.7376 22.1028 14.878 22.6265C14.4486 22.8881 14.0399 23.0997 13.6757 23.2484C13.3304 23.3893 12.9573 23.5022 12.6214 23.5022C12.6173 23.5022 12.6133 23.5022 12.6093 23.5021C12.6052 23.5022 12.6012 23.5022 12.5972 23.5022C12.2612 23.5022 11.8881 23.3893 11.5428 23.2484C11.1786 23.0997 10.77 22.8881 10.3405 22.6265C9.48098 22.1028 8.49751 21.3539 7.56626 20.4346C5.72464 18.6165 3.96883 16.0106 3.96883 13.0553H3.96875L3.96891 13.0442ZM12.6093 22.0023C12.6133 22.0022 12.6173 22.0022 12.6214 22.0022C12.662 22.0022 12.8175 21.9785 13.109 21.8596C13.3815 21.7483 13.7178 21.5769 14.0976 21.3455C14.8564 20.8831 15.7484 20.2063 16.5985 19.3671C18.3181 17.6695 19.7475 15.4291 19.7497 13.0609C19.7249 11.5189 18.8397 10.0832 17.6513 9.52944C17.0734 9.26013 16.4064 9.18768 15.6777 9.41899C14.9388 9.65351 14.0885 10.2169 13.2027 11.3036C13.0518 11.4888 12.8309 11.5832 12.6093 11.5798C12.3877 11.5832 12.1667 11.4888 12.0158 11.3036C11.1301 10.2169 10.2797 9.65351 9.54087 9.41899C8.81215 9.18768 8.14513 9.26013 7.5672 9.52944C6.37882 10.0832 5.49367 11.5189 5.46883 13.0609C5.47109 15.4291 6.90043 17.6695 8.62007 19.3671C9.47013 20.2063 10.3621 20.8831 11.121 21.3455C11.5007 21.5769 11.837 21.7483 12.1096 21.8596C12.4011 21.9785 12.5566 22.0022 12.5972 22.0022C12.6012 22.0022 12.6052 22.0022 12.6093 22.0023Z" fill="black"/>
</svg>
