<svg width="29" height="26" viewBox="0 0 29 26" fill="none" xmlns="http://www.w3.org/2000/svg">
<path fill-rule="evenodd" clip-rule="evenodd" d="M15 7.5H21.3157C22.3141 7.5 22.9096 6.38732 22.3558 5.55662L21.1514 3.75L22.3558 1.94338C22.9096 1.11268 22.3141 0 21.3157 0H14.75C14.0596 0 13.5 0.559644 13.5 1.25V3.75V4.75V11C13.5 11.4142 13.8358 11.75 14.25 11.75C14.6642 11.75 15 11.4142 15 11L15 7.5ZM15 6L15 4.75V3.75V1.5H20.8486L19.8109 3.05662C19.5309 3.4765 19.5309 4.0235 19.8109 4.44338L20.8486 6H15Z" fill="black"/>
<path d="M4.5 25L13.2519 11.8721C13.8457 10.9815 15.1543 10.9815 15.7481 11.8721L24.5 25" stroke="black" stroke-width="1.5" stroke-linecap="round" stroke-linejoin="round"/>
<path d="M28 20.5L22.1541 12.5663C21.6142 11.8336 20.4972 11.9051 20.0551 12.7008L18.5 15.5" stroke="black" stroke-width="1.5" stroke-linecap="round" stroke-linejoin="round"/>
<path d="M1 20.5L6.84586 12.5663C7.3858 11.8336 8.50284 11.9051 8.94488 12.7008L10.5 15.5" stroke="black" stroke-width="1.5" stroke-linecap="round" stroke-linejoin="round"/>
<path d="M10.5 17L12.5 19L14.5 17L16.5 19L18.5 16.5" stroke="black" stroke-width="1.5" stroke-linecap="round" stroke-linejoin="round"/>
</svg>
